<svg width="23" height="51" viewBox="0 0 23 51" fill="none"  >
<path d="M5.02068 5.07752L7.56573 8.79932C7.81892 9.18782 8.19321 9.48643 8.63335 9.65104C9.35976 9.90402 10.4546 9.83361 11.4687 7.9843C11.5499 7.83303 11.6132 7.67317 11.6572 7.50784L12.6243 3.95765C12.8123 3.31524 12.7907 2.63151 12.5626 2.00164C12.1692 0.98254 11.0783 -0.165985 8.12995 0.0199576C7.9089 0.0388958 7.69304 0.095983 7.49239 0.188598C6.90833 0.441582 5.09315 0.905386 4.65705 3.42004C4.55764 3.99764 4.68772 4.59055 5.02068 5.07752Z" fill="#FCFDFF"/>
<path d="M21.7809 11.1888C22.4703 11.9336 22.8921 12.8783 22.9819 13.8789C23.0718 14.8796 22.8248 15.8816 22.2786 16.7325C22.0574 17.0736 21.761 17.5551 21.3021 17.5935C20.9845 17.5815 20.6735 17.5021 20.3906 17.3607C20.0327 17.2164 19.6951 17.0281 19.3859 16.8004C18.6459 16.268 18.0772 15.5399 17.7468 14.7019C17.4681 13.9941 17.3778 13.2289 17.4841 12.4777C17.5427 12.0208 17.6717 11.5751 17.8667 11.1559C17.8733 11.1386 17.8786 11.1208 17.8826 11.1028L18.0897 10.7233C18.3265 10.3817 18.5927 9.89265 19.0314 9.77965C19.4817 9.66369 20.0809 9.96896 20.4682 10.1697C20.964 10.4308 21.4084 10.7758 21.7809 11.1888Z" fill="#FCFDFF"/>
<path d="M14.8933 35.9475C15.3419 36.7444 15.0443 38.1821 15.0184 39.0676C14.9105 43.0479 14.8027 47.0253 14.6949 51H13.8494C13.4958 50.6945 13.1723 50.3572 12.8831 49.9927L12.6675 48.8711C12.4 47.5008 12.0592 46.1262 11.8694 44.7433C11.6236 42.9171 11.3087 40.9654 11.7012 39.2447C11.7918 38.8446 13.4482 36.6225 11.8953 37.1365C10.7953 37.4953 10.3899 39.1393 9.72124 39.9408C8.86714 40.9696 8.01304 41.9969 7.15894 43.0226C5.51545 45.0085 3.8849 46.999 2.24141 48.985C1.88769 49.4066 1.48652 49.8114 1.09398 50.2035C0.747636 50.0785 0.445241 49.859 0.22263 49.571C0.122225 49.3876 0.057848 49.1874 0.0328294 48.9808C-0.126775 48.1417 0.326154 47.4713 0.731636 46.7419L4.0747 41.387C4.79076 40.3329 5.51114 39.2802 6.23583 38.229C6.70602 37.5459 5.80878 36.34 5.47231 35.6991C4.98919 34.7837 4.44567 33.8987 3.94098 32.9918C3.54844 32.2923 3.2206 31.5628 2.76767 30.8966C2.28886 30.1925 1.77122 29.5179 1.71514 28.6409C1.59005 26.8025 3.2508 25.3183 3.47079 23.539C3.50022 22.8773 3.49303 22.2145 3.44923 21.5535C3.44923 20.3561 3.89784 18.9267 3.27668 17.8515C3.17543 17.6737 3.04747 17.5117 2.89707 17.3709C2.38807 16.886 1.74103 16.7384 1.58142 16.009C1.3138 14.7423 1.42154 13.4273 1.892 12.2184C2.63826 10.4897 4.50175 10.2915 6.19701 10.2747C6.43823 10.2707 6.67626 10.3288 6.88718 10.4433C7.09424 10.5567 7.3315 10.6836 7.3315 10.6836C7.96129 11.2233 8.58676 11.7757 9.21224 12.3196C9.45811 12.5346 10.062 13.0364 10.3899 12.7366C10.7522 12.3829 10.571 11.6366 10.5667 11.1854C10.5624 10.7469 11.753 11.1685 11.9988 11.2318C12.7322 11.4257 13.431 11.6534 13.8278 12.3365C14.5223 13.5297 14.7164 15.1868 13.9702 16.439C13.6916 16.6316 13.4005 16.8062 13.0988 16.9619C12.6416 17.2654 12.5855 17.3329 12.6027 17.8895C12.6243 18.699 12.8875 19.5592 13.8364 18.9183C14.6043 18.4039 15.0486 17.5648 15.6827 16.9281C16.1313 16.4812 16.5842 16.03 17.0285 15.5827L17.0803 15.7218C17.3029 16.2976 17.6434 16.8229 18.0811 17.2655L14.6129 21.4059C14.2333 21.8571 13.2196 21.2626 12.7451 21.5072C12.0894 21.8403 11.6192 23.4425 11.2871 24.0834C10.7134 25.1919 10.9377 26.2291 10.9593 27.4185C10.9266 27.9524 10.9527 28.4881 11.0369 29.0166C11.0775 29.1618 11.1385 29.3009 11.2181 29.4298C12.4388 31.6043 13.6639 33.7769 14.8933 35.9475Z" fill="#FCFDFF"/>
</svg>
