<svg width="69" height="65" viewBox="0 0 69 65" fill="none" xmlns="http://www.w3.org/2000/svg">
<path d="M35.1278 23.6121L39.2638 26.4656C39.6833 26.7683 40.1863 26.9245 40.6988 26.9112C41.5365 26.8695 42.6093 26.3282 42.8458 23.9424C42.8629 23.7478 42.8584 23.5517 42.8323 23.3581L42.2999 19.1944C42.2181 18.4366 41.9082 17.7239 41.4135 17.1556C40.5853 16.2451 39.0017 15.4901 36.1142 16.9488C35.9 17.0633 35.707 17.2155 35.544 17.3984C35.0643 17.9147 33.4334 19.1764 34.0577 22.023C34.2042 22.6734 34.587 23.2419 35.1278 23.6121V23.6121Z" fill="white"/>
<path d="M44.4133 46.1338L47.386 48.553C47.5185 48.6439 47.6261 48.7682 47.6987 48.9139C47.7713 49.0597 47.8064 49.2221 47.8008 49.3857L47.1657 54.2767C47.1657 54.3031 47.1657 54.3266 47.1657 54.353C47.1846 54.6986 46.8793 57.4064 44.9011 58.7138L39.1167 62.1239L35.3334 64.3584C32.027 66.3098 31.9797 61.0275 33.3998 59.4897C33.6527 59.2389 33.94 59.0276 34.2524 58.8623C36.1725 57.734 38.2614 56.7347 40.072 55.4217C41.6812 54.2531 42.6825 51.2344 42.8392 49.2858C42.8608 49.0082 43.1203 47.3594 43.1946 46.596C43.2635 45.8771 43.8458 45.7466 44.4133 46.1338Z" fill="white"/>
<path d="M38.9056 33.6898H38.9474C40.7679 37.1198 42.6461 40.516 44.5819 43.8784C45.2183 44.9888 45.8952 46.1255 46.937 46.8388C48.5584 47.9492 50.669 47.7937 52.5944 48.1157C57.4871 48.9332 61.7338 52.9734 63.9282 57.5438C64.4024 58.532 64.8308 59.5687 65.559 60.3779C66.2873 61.187 66.7886 61.0885 67.8169 60.7748C68.8722 60.4542 68.9222 60.0198 68.9965 58.89C69.0708 57.7603 67.9466 55.6826 67.248 54.8068C62.1365 48.3891 62.073 47.0928 57.4627 44.1713C56.0413 43.2705 54.705 42.0575 53.1687 42.7292C52.8376 42.875 52.5282 43.0887 52.1742 43.1595C51.8202 43.2303 51.3878 43.1026 51.2622 42.7542C51.1122 42.3379 51.4797 41.9145 51.8675 41.7244C52.2553 41.5343 52.7079 41.4468 53.0119 41.1373C53.4889 40.6488 52.716 39.7869 52.566 39.111C51.6337 34.9209 48.9381 32.5739 46.9911 28.7489C50.3258 26.3075 56.0602 24.7531 60.1462 25.032C60.8596 25.0806 61.5987 25.1264 62.2716 24.8766C62.9445 24.6268 63.5377 24.352 63.5215 23.6178C63.5079 22.9654 63.0175 22.4047 62.4405 22.1285C61.8636 21.8523 61.215 21.8038 60.5813 21.7663C55.9102 21.4887 50.9527 21.5567 46.9343 24.0272C44.3549 25.6163 42.3403 28.1035 39.6284 29.44C37.5041 30.4697 35.1 30.7194 32.818 30.1472C30.536 29.575 28.5143 28.2157 27.0908 26.2964C26.7314 25.8107 26.3584 24.5601 25.591 25.0751C24.8555 25.5494 24.1944 26.1358 23.6304 26.8141C23.1426 27.4262 23.3939 27.8814 23.8169 28.4796C25.1086 30.2978 26.5895 32.059 28.5379 33.0888C31.6646 34.7418 35.4195 34.2408 38.9056 33.6898Z" fill="white"/>
<path d="M24.2846 23.888C37.1723 11.2596 47.4073 0.79347 47.1451 0.511163C46.8829 0.228856 36.2229 10.2373 23.3352 22.8657C10.4475 35.494 0.21254 45.9602 0.474722 46.2425C0.736905 46.5248 11.397 36.5163 24.2846 23.888Z" fill="white"/>
</svg>

