<svg width="42" height="46" viewBox="0 0 42 46" fill="none"  >
<path d="M41.3883 18.8565C41.3366 18.8823 41.2783 18.8913 41.2213 18.8822L35.5078 17.8618C35.4859 17.8589 35.4645 17.8524 35.4446 17.8427C35.4259 17.8332 35.4067 17.8265 35.388 17.817C34.4043 17.3709 33.4219 16.925 32.4407 16.4795L30.5488 15.6228C30.1989 15.4624 29.376 14.9169 29.0167 15.1287C28.8772 15.2259 28.759 15.3516 28.6696 15.4976C28.0012 16.4495 27.3191 17.3916 26.6233 18.3239C26.185 18.9108 25.7438 19.4981 25.3055 20.0883C24.8479 20.6976 24.4035 21.183 24.2837 21.9712C24.0475 23.5419 23.8014 25.115 23.5586 26.6905C23.2653 28.5734 22.2216 30.325 21.4426 32.0509C21.4236 32.095 21.4168 32.1436 21.4229 32.1914C21.4291 32.2392 21.448 32.2844 21.4775 32.3221C21.5071 32.3597 21.5463 32.3884 21.5908 32.405C21.6352 32.4217 21.6833 32.4256 21.7299 32.4164L28.8464 30.9951C28.8853 30.9895 28.9249 30.9918 28.9629 31.0018C29.2096 31.0385 29.4426 31.1401 29.6389 31.2964C29.8353 31.4527 29.9881 31.6585 30.0824 31.8933C30.1704 32.1303 30.1683 32.3921 30.0767 32.6276C29.9851 32.8632 29.8105 33.0555 29.587 33.1671C26.7716 34.1937 24.0723 35.4993 21.1746 36.2885C20.6702 36.4265 20.1659 36.5483 19.6583 36.6573C19.2101 36.8103 18.7358 36.8682 18.2647 36.8277C17.4539 36.6478 17.0016 35.2685 17.0788 34.5307C17.1578 33.7801 18.151 33.1608 18.6694 32.7563C18.7217 32.7152 18.756 32.6547 18.7648 32.5881C18.7735 32.5214 18.7561 32.4539 18.7161 32.4002L18.5898 32.2303C18.5674 32.2007 18.5393 32.1759 18.5072 32.1577C18.4751 32.1394 18.4397 32.1279 18.4031 32.124C18.3665 32.1201 18.3295 32.1238 18.2944 32.1349C18.2593 32.1459 18.2267 32.1642 18.1987 32.1884L14.1221 35.7654C14.096 35.789 14.0746 35.8174 14.0589 35.8491L9.25999 45.6203C9.22735 45.6825 9.17343 45.7304 9.10841 45.755C6.17608 46.7912 7.1094 44.2057 7.1094 44.2057C7.71196 42.4865 8.34212 40.7735 8.96059 39.0572C9.38163 37.8925 9.80267 36.7249 10.2186 35.5569C10.7701 33.9914 11.6403 33.0899 12.7252 31.8776C13.2516 31.2842 13.7792 30.6919 14.3078 30.1004C14.6171 29.7539 14.9258 29.4107 15.235 29.0642C15.3609 28.9262 15.9003 28.1436 16.0612 28.1436C16.1722 28.0262 16.2724 27.8988 16.3606 27.7629C16.7138 27.1917 16.7232 26.3449 16.8462 25.6876C16.9627 25.0717 17.0802 24.4553 17.1929 23.8428C17.4483 22.4824 17.7049 21.1234 17.9625 19.7656C18.0872 19.0993 18.212 18.432 18.3367 17.7637C18.3605 17.4496 18.4208 17.1395 18.5164 16.8398C18.5763 16.7084 18.6614 16.6219 18.7844 16.6252L19.9891 16.6699C20.024 16.6721 20.0589 16.6671 20.0919 16.6553C20.1249 16.6435 20.1552 16.6252 20.181 16.6013C20.2069 16.5773 20.2278 16.5484 20.2425 16.5161C20.2571 16.4839 20.2653 16.4489 20.2665 16.4133L20.2819 16.1406C20.2823 16.1053 20.2756 16.0703 20.2624 16.0376C20.2492 16.0049 20.2296 15.9753 20.2049 15.9505C20.1802 15.9256 20.1509 15.906 20.1186 15.8929C20.0864 15.8798 20.0519 15.8734 20.0172 15.8741L18.2609 15.8713C18.2146 15.8716 18.1691 15.8837 18.1285 15.9065C17.627 16.1887 17.1227 16.4709 16.6212 16.7532C15.4049 17.4395 14.1899 18.124 12.9764 18.8066L11.5388 19.6157C10.8104 19.9717 10.0351 20.2182 9.23707 20.3472C8.54329 20.5138 7.8495 20.6776 7.15899 20.8442L6.23223 21.0655C6.15065 20.3961 5.90447 19.7585 5.51646 19.2116C6.70193 18.817 7.88411 18.4258 9.07192 18.034C9.70582 17.8222 10.3458 17.6138 10.9797 17.3991C11.9238 17.0201 12.8037 16.493 13.5874 15.837C15.1156 14.7013 16.6459 13.5668 18.1781 12.4333C18.1842 12.4267 18.194 12.4233 18.2001 12.4171C18.9883 11.9548 19.7755 11.4917 20.5617 11.0278C20.7199 10.9261 20.8905 10.846 21.0693 10.7898C21.3261 10.741 21.5888 10.7323 21.8482 10.7641C22.3616 10.7868 22.8753 10.7283 23.371 10.5908C24.134 10.3824 24.8498 10.0164 25.6573 10.0421C26.1962 10.0616 26.7389 10.0615 27.2811 10.0615C27.3307 10.0622 27.3792 10.0765 27.4214 10.103L34.5885 14.6247C34.6068 14.6344 34.6257 14.643 34.6451 14.6504L41.4244 16.9312C41.47 16.9477 41.5111 16.9752 41.5441 17.0112C42.5177 18.1764 41.6723 18.7204 41.3883 18.8565Z" fill="white"/>
<path d="M4.23181 19.3781C4.90385 20.1337 5.31493 21.092 5.4025 22.1071C5.49007 23.1222 5.24934 24.1386 4.71694 25.0018C4.50127 25.3478 4.21262 25.8366 3.76491 25.8751C3.45516 25.8624 3.15185 25.7812 2.87605 25.6372C2.52728 25.4908 2.19825 25.2998 1.8969 25.0689C1.17543 24.5287 0.620652 23.79 0.297873 22.9398C0.0267375 22.222 -0.0612981 21.446 0.0419745 20.6842C0.099814 20.2205 0.225977 19.7684 0.416229 19.3429C0.422793 19.3254 0.428108 19.3074 0.432133 19.2891L0.633766 18.9055C0.864403 18.5595 1.12405 18.0626 1.55164 17.9484C1.99046 17.8303 2.57431 18.1387 2.95185 18.3439C3.4354 18.6087 3.8688 18.9589 4.23181 19.3781Z" fill="white"/>
<path d="M26.6023 4.57075L24.4035 7.92206C24.1846 8.27189 23.861 8.54087 23.4805 8.68933C22.8517 8.91636 21.9044 8.85354 21.0272 7.18812C20.9568 7.05224 20.9021 6.90847 20.8644 6.75974L20.0275 3.56266C19.8648 2.98427 19.8835 2.36867 20.0808 1.80156C20.4209 0.883419 21.365 -0.149915 23.9169 0.018102C24.1082 0.0354954 24.295 0.0872446 24.4685 0.17091C25.1135 0.356624 25.6902 0.731785 26.1266 1.24942C26.563 1.76706 26.8396 2.40418 26.9218 3.08099C27.0056 3.60087 26.8913 4.13367 26.6023 4.57075Z" fill="white"/>
</svg>
