<svg width="46" height="49" viewBox="0 0 46 49" fill="none"  >
<path d="M19.6194 4.31185L21.0822 8.76747C21.2225 9.2301 21.5056 9.63442 21.8892 9.92055C22.5277 10.3722 23.6115 10.5965 25.0979 8.99666C25.2181 8.86534 25.323 8.72022 25.4103 8.56425L27.3125 5.22899C27.6701 4.62931 27.8351 3.93099 27.7844 3.23132C27.6782 2.09266 26.9284 0.63693 24.0093 0.0301277C23.7891 -0.0100426 23.5637 -0.0100426 23.3436 0.0301277C22.7075 0.126217 20.8165 0.107443 19.71 2.53898C19.4593 3.09666 19.427 3.73069 19.6194 4.31185Z" fill="#FCFDFF"/>
<path d="M36.9361 24.3291C36.9206 24.3835 36.893 24.4335 36.8553 24.4752C36.8176 24.5169 36.771 24.5491 36.719 24.5693L23.4704 29.1427C23.44 29.1532 23.4081 29.1581 23.376 29.1571L20.1201 29.0956C20.0707 29.1007 20.0228 29.1157 19.9792 29.1396C19.9355 29.1635 19.8969 29.196 19.8656 29.2351C19.8342 29.2743 19.8108 29.3193 19.7966 29.3676C19.7823 29.416 19.7776 29.4667 19.7826 29.5169V29.797C19.7729 29.8973 19.8019 29.9975 19.8636 30.0763C19.9253 30.1551 20.0147 30.2062 20.1129 30.2189H21.4342C21.4875 30.2264 21.5386 30.245 21.5844 30.2735C21.6303 30.302 21.6701 30.3398 21.701 30.3845C21.732 30.4292 21.7536 30.48 21.7645 30.5335C21.7754 30.5871 21.7754 30.6424 21.7645 30.6959L19.9893 47.7326C19.9842 47.7875 19.9701 47.841 19.9474 47.8911C19.5505 48.7511 18.652 49.319 17.8762 48.804C17.0292 48.2385 17.183 47.1267 17.2033 46.1063C17.2401 44.3671 17.2057 42.6197 17.2057 40.879C17.2057 36.6223 17.2057 32.3107 17.21 27.9954C17.21 27.2862 17.21 26.5768 17.21 25.867C17.21 23.2563 17.2114 20.6507 17.2142 18.0502C17.2092 17.9991 17.2142 17.9476 17.229 17.8986C17.2438 17.8495 17.2682 17.804 17.3005 17.7647C17.3329 17.7254 17.3726 17.6931 17.4175 17.6697C17.4623 17.6462 17.5112 17.6322 17.5615 17.6283L19.1617 17.6178C19.5227 17.6178 19.4797 17.2079 19.4948 16.9821C19.5115 16.8784 19.4871 16.7721 19.4271 16.6866C19.3671 16.6011 19.2761 16.5433 19.1743 16.5257L16.8433 16.5171C16.7961 16.5139 16.7503 16.4997 16.7094 16.4757C16.6685 16.4516 16.6336 16.4182 16.6073 16.3782C15.1917 14.3911 14.4202 11.8188 13.844 9.27917C13.5514 7.99158 13.3141 6.68477 13.0711 5.38036C12.8479 4.17925 12.2825 2.58128 12.4736 1.35951C12.7327 -0.294188 14.0535 -0.253846 14.9445 0.526878C15.0054 0.582656 15.0485 0.655814 15.0681 0.736838C15.8703 3.76364 16.6578 6.79428 17.4789 9.81099C17.813 11.0395 18.5407 12.9772 19.7572 12.9772C21.9948 12.9772 24.2325 12.919 26.4682 12.785C27.6168 12.7161 28.7651 12.6269 29.913 12.5174C30.8672 12.427 32.0289 12.0369 32.9675 12.28C33.2994 12.3704 33.5979 12.5587 33.825 12.8212C34.0522 13.0837 34.1981 13.4088 34.2444 13.7555C34.5091 15.9132 32.6546 15.9655 31.3537 15.9958C29.3944 16.0371 27.403 16.2591 25.4367 16.4282C23.6251 16.5819 24.493 17.2349 24.358 23.9106C24.3538 24.1192 24.3773 24.3685 24.5222 24.467C24.5911 24.5059 24.6719 24.5165 24.7482 24.4968C24.7718 24.4929 24.7954 24.4876 24.8167 24.4824C28.1831 23.7136 32.262 22.0177 35.5963 21.0477C35.6305 21.0397 35.6659 21.0383 35.7006 21.0438C37.7656 21.3667 37.163 23.6531 36.9361 24.3291Z" fill="#FCFDFF"/>
<path d="M46 28.0905C45.9975 28.2102 45.9688 28.3277 45.9159 28.4346C45.863 28.5414 45.7872 28.6348 45.6942 28.7079C45.4841 28.8766 45.2233 28.9667 44.9557 28.963H28.7295L34.1982 27.2186H44.9572C45.2085 27.1961 45.4584 27.2748 45.6533 27.4378C45.8483 27.6008 45.9728 27.8352 46 28.0905Z" fill="#FCFDFF"/>
<path d="M15.3545 27.2185C15.3545 27.8002 15.3545 28.3817 15.3545 28.963H1.04468C0.793001 28.9859 0.542601 28.9073 0.34723 28.7441C0.151859 28.581 0.0271839 28.3463 0 28.0905C0.00250971 27.971 0.031185 27.8537 0.0841001 27.747C0.137015 27.6403 0.212802 27.5471 0.305756 27.4741C0.516041 27.3052 0.776875 27.215 1.04468 27.2185H15.3545Z" fill="#FCFDFF"/>
</svg>
