<svg width="23" height="53" viewBox="0 0 23 53" fill="none"  >
<path d="M12.0568 13.2384L12.8122 17.2637C12.8804 17.6795 13.083 18.0627 13.3903 18.3568C13.9049 18.8258 14.8466 19.1545 16.377 17.9615C16.5008 17.8631 16.6126 17.7512 16.7104 17.6278L18.829 14.9889C19.2232 14.5161 19.4573 13.9345 19.4988 13.3249C19.5456 12.3301 19.0571 10.9794 16.5221 10.0933C16.33 10.0313 16.1283 10.0032 15.9263 10.0103C15.2268 9.91961 14.5156 10.0335 13.8817 10.3376C13.2479 10.6418 12.7196 11.1227 12.363 11.7202C12.0674 12.1694 11.9579 12.7125 12.0568 13.2384Z" fill="white"/>
<path d="M9.72618 0.0496187C9.21157 -0.0655413 8.67151 0.0215404 8.22151 0.292256C8.03732 0.416044 7.88085 0.575496 7.76169 0.760759C7.64254 0.946022 7.56316 1.15316 7.52853 1.36958L5.59022 18.851L7.31349 19.1451L11.3306 2.01304C11.5054 1.04341 10.8623 0.2473 9.72618 0.0496187Z" fill="white"/>
<path d="M5.99564 29.1715C5.99114 28.7763 5.9055 28.386 5.74384 28.0239L3.72292 27.7224C3.43094 28.0031 3.22211 28.3564 3.11864 28.7445C3.46929 28.911 3.84053 29.0319 4.223 29.1043C4.80194 29.2524 5.40678 29.2754 5.99564 29.1715Z" fill="white"/>
<path d="M18.1779 21.6535C17.5046 21.4647 10.7248 21.4455 8.97785 21.4559C8.82376 22.1592 7.79041 22.4107 6.49367 22.7152C5.37269 22.9781 3.97572 23.3058 3.73803 23.9245C3.72483 23.9656 3.70295 24.0034 3.67385 24.0356C3.64474 24.0678 3.60906 24.0936 3.5691 24.1114C3.52914 24.1292 3.48584 24.1384 3.44197 24.1387C3.39811 24.1389 3.35469 24.1301 3.31454 24.1127C3.23298 24.0717 3.16987 24.0024 3.13756 23.9182C3.10525 23.8341 3.10604 23.7412 3.13977 23.6576C3.50991 22.7013 4.95674 22.3603 6.35671 22.0317C6.75958 21.9378 7.16243 21.8424 7.55875 21.7174C7.71305 21.6707 7.86441 21.615 8.01199 21.5507C8.08609 21.5224 8.15823 21.4894 8.22801 21.4519C8.26524 21.4257 8.29045 21.3862 8.29809 21.3419C8.30573 21.2975 8.29521 21.252 8.26883 21.2152C8.19157 21.0916 8.06778 21.0028 7.92433 20.9681C6.16178 20.3256 1.3898 20.9602 0.244643 22.5718C0.0748147 22.8203 -0.010464 23.1151 0.00102575 23.414C0.0125155 23.713 0.120221 24.0006 0.308636 24.2358C1.42912 25.6907 3.64692 25.9897 5.60385 26.2541C6.32233 26.3304 7.03397 26.4591 7.73297 26.6391C6.72025 25.8627 5.95535 25.021 5.95535 24.2175C5.95535 24.0361 6.17542 23.6127 6.3411 23.5697C7.52201 23.2628 8.43798 23.4214 11.3633 24.1716C12.4617 24.4902 13.5816 24.7325 14.7147 24.897C16.7794 25.0388 18.4916 24.6707 19.2888 23.9012C19.4227 23.7707 19.5174 23.924 19.6368 24.0698C19.7561 24.2156 19.6076 24.5006 19.4741 24.6286C18.1386 25.9136 15.4958 25.8751 14.4272 25.799C13.2569 25.6363 12.1005 25.3885 10.9675 25.0577C9.97196 24.8022 8.9743 24.5397 7.9641 24.3589C7.71936 24.3149 7.47261 24.2754 7.22434 24.2551C7.07136 24.2326 6.91595 24.2311 6.76255 24.2506C6.74527 24.2526 6.7288 24.2588 6.71473 24.2689C6.70059 24.282 6.69123 24.2994 6.68805 24.3183C6.68164 24.361 6.68597 24.4047 6.70065 24.4454C6.78571 24.7134 6.92245 24.9628 7.10348 25.1802C7.34782 25.4602 7.62147 25.7144 7.91984 25.9384C8.64439 26.504 9.43098 26.9884 10.265 27.3828C11.1678 27.8284 12.1122 28.1877 13.0851 28.4558C13.8311 28.6731 14.6034 28.7911 15.3814 28.8067C17.0382 28.8067 20.9445 28.2379 22.4422 26.48C22.6405 26.262 22.7915 26.0067 22.8862 25.7296C22.9808 25.4526 23.017 25.1596 22.9926 24.8684C22.763 21.9032 18.2237 21.655 18.1779 21.6535Z" fill="white"/>
<path d="M19.7833 38.4867C19.4663 37.9479 19.1804 37.3921 18.9272 36.8217C17.6753 33.7522 18.4428 29.7353 18.5133 29.3488C17.4892 29.5775 16.4445 29.7067 15.3945 29.7343C13.6536 29.7343 11.0068 28.8685 8.97382 27.6859C9.00131 27.7244 9.02654 27.7646 9.04937 27.806C9.85209 29.6158 9.68036 34.0329 9.51367 36.7046C9.27649 40.4887 9.06047 41.7845 7.60863 44.8703C7.30648 45.5167 6.90665 46.2654 6.48515 47.0591C5.38985 49.1209 3.89017 51.9443 4.33434 52.7721C4.36505 52.8279 4.4572 52.9994 4.89331 52.9994C7.39815 52.9994 9.772 48.9263 11.5048 45.9531C12.5907 44.0422 13.359 41.9734 13.7806 39.825C13.7884 39.772 13.8087 39.7215 13.8398 39.6775C13.8709 39.6335 13.912 39.5972 13.9598 39.5715C14.0057 39.5471 14.0573 39.5352 14.1095 39.5368C14.1616 39.5385 14.2123 39.5537 14.2565 39.5809C14.4045 39.6708 17.8969 41.8014 18.7218 45.0211C18.9595 45.9497 19.1277 47.0571 19.2898 48.1276C19.6363 50.4118 20.0286 53 21.1027 53C21.1677 53 21.3661 52.9999 21.6013 52.6471C22.6467 51.0785 22.6452 45.5839 21.8556 43.0437C21.3331 41.4562 20.6384 39.9285 19.7833 38.4867Z" fill="white"/>
</svg>
