<svg width="42" height="44" viewBox="0 0 42 44" fill="none"  >
<path d="M9.64538 0C9.01549 0 8.39975 0.185681 7.87602 0.533582C7.35228 0.881483 6.94408 1.37598 6.70303 1.95452C6.46198 2.53305 6.39892 3.16966 6.5218 3.78383C6.64469 4.398 6.948 4.96214 7.3934 5.40493C7.8388 5.84773 8.40627 6.14927 9.02406 6.27144C9.64185 6.3936 10.2822 6.33093 10.8642 6.0913C11.4461 5.85166 11.9435 5.44581 12.2934 4.92514C12.6434 4.40447 12.8302 3.79235 12.8302 3.16614C12.8292 2.32672 12.4934 1.52195 11.8963 0.928392C11.2993 0.33483 10.4897 0.000949172 9.64538 0Z" fill="white"/>
<path d="M17.1995 11.0235L19.6367 13.9668C19.8807 14.2753 20.218 14.4976 20.5989 14.6007C21.2257 14.7545 22.132 14.6038 22.8196 12.9524C22.8744 12.8174 22.9134 12.6766 22.936 12.5328L23.4387 9.44377C23.5404 8.88369 23.4642 8.306 23.2205 7.79099C22.8057 6.95989 21.7983 6.07682 19.3575 6.48026C19.1748 6.5151 18.9997 6.5817 18.8403 6.67704C18.2368 6.91375 17.7169 7.32218 17.3457 7.85124C16.9745 8.38029 16.7685 9.00646 16.7535 9.65133C16.7211 10.1485 16.8805 10.6392 17.1995 11.0235Z" fill="white"/>
<path d="M36.5359 20.5631C36.5611 20.9217 36.2067 21.1764 35.8857 21.3422C34.1264 22.2429 32.1934 22.7578 30.2169 22.8523C28.2404 22.9468 26.2665 22.6187 24.4285 21.8901C23.7778 21.6247 23.0307 21.3135 22.4098 21.6367C21.9693 21.935 21.6623 22.3914 21.553 22.9099C20.7414 25.4762 20.919 28.2421 20.4104 30.8788C19.7137 34.4865 17.7577 37.7907 17.3032 41.4356C17.199 42.2734 17.0904 43.2641 16.3437 43.6702C15.996 43.8275 15.616 43.9014 15.2344 43.8859C10.4007 44.0517 5.56539 44.0368 0.728626 43.8411C0.436887 43.8285 0.0653337 43.7536 0.00716623 43.4676C-0.046943 43.2068 0.215482 42.9906 0.453563 42.8624C2.7266 41.6351 5.45011 41.7346 8.00227 41.32C8.16609 41.3103 8.32054 41.2409 8.43603 41.1249C8.64074 40.847 8.32376 40.4906 8.02752 40.3082C5.88389 38.9853 3.23523 38.4255 1.4627 36.6432C1.29103 36.4981 1.17467 36.2989 1.13309 36.0788C1.13976 35.913 1.20484 35.7548 1.31694 35.6319C1.42904 35.5089 1.58102 35.4291 1.74633 35.4064C2.07921 35.3722 2.41547 35.4184 2.72661 35.5409C4.22183 35.9945 5.71886 36.441 7.21317 36.8982C7.85076 37.0937 8.48744 37.2919 9.12323 37.4931C9.44518 37.595 9.76668 37.697 10.0877 37.7992C10.4501 37.8908 10.7955 38.0392 11.1108 38.239C11.4449 38.521 11.7528 38.8323 12.0307 39.1692C12.1434 39.2887 12.2566 39.4082 12.3702 39.5278C12.4604 39.6241 12.5538 39.7645 12.6859 39.8142C12.859 39.8788 13.0254 39.7313 13.139 39.6174C13.3786 39.345 13.5357 39.0107 13.5922 38.6532C13.6722 38.1647 13.6772 37.667 13.6071 37.177C13.6039 37.1434 13.6003 37.1102 13.5967 37.0766C13.5895 37.0089 13.5814 36.9422 13.5733 36.874C13.2361 34.1973 13.358 31.483 13.934 28.8468C14.5432 26.0935 15.6443 23.3985 15.573 20.5874C15.5955 20.3064 15.5614 20.0238 15.4726 19.7561C15.3839 19.4883 15.2424 19.2409 15.0563 19.0283C14.6088 18.7156 14.0765 18.5451 13.5295 18.5392C12.2292 18.3567 10.9824 17.9031 9.87072 17.2081C8.75904 16.5132 7.80759 15.5926 7.07872 14.5067C6.34985 13.4207 5.86001 12.1939 5.64128 10.9067C5.42254 9.6194 5.47987 8.30069 5.80949 7.03698C5.84276 6.82053 5.95771 6.62484 6.13098 6.48966C6.22902 6.44468 6.33571 6.42137 6.44369 6.42137C6.55167 6.42137 6.65836 6.44468 6.7564 6.48966C7.15925 6.63757 7.51586 6.88825 7.79042 7.21652C8.06498 7.54479 8.24783 7.9391 8.32061 8.35985C8.45588 9.18916 8.1452 10.035 8.25793 10.8643C8.35299 11.3393 8.54823 11.7888 8.83074 12.1834C9.11326 12.5779 9.47665 12.9085 9.89699 13.1532C10.7404 13.6363 11.6394 14.0163 12.5745 14.2851C18.0255 16.1678 23.1515 19.2107 28.8821 19.8822C31.0332 20.07 33.1953 20.0999 35.3509 19.9719C35.8437 19.9535 36.4984 20.0776 36.5359 20.5631Z" fill="white"/>
<path d="M30.6772 5.74683V6.37847C30.6771 6.40182 30.6795 6.42512 30.6844 6.44797L32.1156 13.5387C32.1195 13.558 32.1272 13.5763 32.1383 13.5926C32.1494 13.6089 32.1636 13.6228 32.1801 13.6337C32.1966 13.6445 32.2151 13.652 32.2345 13.6557C32.2539 13.6594 32.2739 13.6593 32.2933 13.6553L32.6842 13.5777C32.7037 13.574 32.7222 13.5665 32.7387 13.5556C32.7552 13.5446 32.7694 13.5305 32.7803 13.514C32.7911 13.4975 32.7986 13.4791 32.8022 13.4597C32.8057 13.4403 32.8053 13.4204 32.801 13.4011L32.0845 9.85346C32.0741 9.80201 32.0753 9.74892 32.088 9.69799C32.1007 9.64707 32.1247 9.59956 32.1581 9.55895C32.1916 9.51834 32.2336 9.48562 32.2813 9.46313C32.329 9.44065 32.3812 9.42902 32.4339 9.42899H34.27C34.3646 9.42899 34.4554 9.4663 34.5222 9.53279C34.5891 9.59929 34.6267 9.68948 34.6267 9.78352V13.454C34.6275 13.4993 34.6463 13.5425 34.6788 13.5742C34.7114 13.6059 34.7552 13.6236 34.8008 13.6234H35.1525C35.1981 13.6236 35.2419 13.6059 35.2744 13.5742C35.307 13.5425 35.3257 13.4993 35.3265 13.454V9.78352C35.3265 9.68948 35.3641 9.59929 35.431 9.53279C35.4979 9.4663 35.5886 9.42899 35.6832 9.42899H37.2817C37.3763 9.42899 37.467 9.4663 37.5339 9.53279C37.6008 9.59929 37.6383 9.68948 37.6383 9.78352V13.3939C37.6383 13.4241 37.6442 13.454 37.6558 13.4818C37.6674 13.5097 37.6844 13.535 37.7058 13.5564C37.7273 13.5777 37.7528 13.5946 37.7808 13.6061C37.8088 13.6176 37.8389 13.6235 37.8692 13.6234H38.1073C38.1376 13.6236 38.1677 13.6177 38.1958 13.6062C38.2239 13.5947 38.2493 13.5778 38.2708 13.5565C38.2923 13.5351 38.3093 13.5098 38.3208 13.4819C38.3324 13.454 38.3383 13.4241 38.3382 13.3939V9.78352C38.3382 9.68948 38.3757 9.59929 38.4426 9.53279C38.5095 9.4663 38.6002 9.42899 38.6948 9.42899H40.2396C40.2924 9.42903 40.3446 9.44071 40.3923 9.46319C40.44 9.48567 40.4821 9.51835 40.5156 9.55895C40.549 9.59955 40.573 9.64702 40.5858 9.69794C40.5986 9.74887 40.5999 9.80198 40.5896 9.85346L39.8726 13.4011C39.8683 13.4204 39.8679 13.4403 39.8715 13.4597C39.8751 13.4791 39.8826 13.4977 39.8935 13.5142C39.9044 13.5306 39.9186 13.5448 39.9352 13.5557C39.9517 13.5666 39.9703 13.5741 39.9899 13.5777L40.3803 13.6553C40.3997 13.6593 40.4197 13.6594 40.4391 13.6557C40.4585 13.652 40.477 13.6445 40.4935 13.6337C40.51 13.6228 40.5242 13.6089 40.5353 13.5926C40.5463 13.5763 40.5541 13.558 40.558 13.5387L41.389 9.4146H41.3926L41.4918 8.91346L41.9964 6.41344C41.9972 6.40754 41.9984 6.40167 42 6.39593V5.74683C42 5.65279 41.9624 5.56259 41.8955 5.4961C41.8287 5.4296 41.7379 5.39229 41.6433 5.39229H31.0339C30.9393 5.39229 30.8486 5.4296 30.7817 5.4961C30.7148 5.56259 30.6772 5.65279 30.6772 5.74683ZM34.27 8.73327H32.1508C32.0684 8.73324 31.9885 8.70487 31.9247 8.65299C31.861 8.60111 31.8172 8.52891 31.8009 8.44861L31.4758 6.83796C31.4653 6.78651 31.4666 6.73337 31.4793 6.68244C31.492 6.63152 31.516 6.58406 31.5494 6.54345C31.5828 6.50284 31.6249 6.47012 31.6726 6.44764C31.7203 6.42515 31.7724 6.41347 31.8252 6.41344H34.2687C34.3633 6.41356 34.454 6.451 34.5209 6.51757C34.5878 6.58414 34.6254 6.67438 34.6254 6.76846V8.37868C34.6254 8.47249 34.588 8.56246 34.5214 8.62892C34.4548 8.69537 34.3644 8.73291 34.27 8.73327ZM37.2817 8.73327H35.6823C35.5877 8.73327 35.497 8.69591 35.4301 8.62941C35.3632 8.56291 35.3256 8.47272 35.3256 8.37868V6.76846C35.3256 6.67438 35.3632 6.58414 35.4301 6.51757C35.4969 6.451 35.5877 6.41356 35.6823 6.41344H37.2808C37.3754 6.41356 37.4661 6.451 37.533 6.51757C37.5999 6.58414 37.6374 6.67438 37.6374 6.76846V8.37868C37.6374 8.47256 37.6 8.56261 37.5333 8.62908C37.4666 8.69555 37.3761 8.73303 37.2817 8.73327ZM38.3382 8.37868V6.76846C38.3382 6.67438 38.3757 6.58414 38.4426 6.51757C38.5095 6.451 38.6002 6.41356 38.6948 6.41344H40.847C40.8998 6.41347 40.9519 6.42515 40.9996 6.44764C41.0473 6.47012 41.0894 6.50284 41.1228 6.54345C41.1563 6.58406 41.1802 6.63152 41.1929 6.68244C41.2057 6.73337 41.2069 6.78651 41.1965 6.83796L40.8709 8.44861C40.8548 8.52891 40.8111 8.60115 40.7474 8.65305C40.6837 8.70495 40.6038 8.7333 40.5215 8.73327H38.6948C38.6002 8.73327 38.5095 8.69591 38.4426 8.62941C38.3757 8.56291 38.3382 8.47272 38.3382 8.37868Z" fill="white"/>
</svg>
