<svg width="30" height="50" viewBox="0 0 30 50" fill="none"  >
<path d="M6.41526 3.40419L7.36799 7.29794C7.45754 7.70068 7.67134 8.06333 7.97785 8.33236C8.48969 8.76001 9.39407 9.02391 10.7593 7.76228C10.8696 7.65872 10.9678 7.5425 11.052 7.41585L12.8816 4.7039C13.2233 4.21724 13.408 3.63372 13.4099 3.03462C13.3935 2.05779 12.8528 0.7671 10.4173 0.0532982C10.2332 0.00424528 10.042 -0.0110969 9.85269 0.00795971C9.19008 -0.0381301 8.5289 0.116684 7.95193 0.452986C7.37496 0.789287 6.90786 1.29216 6.60909 1.89861C6.35929 2.35693 6.28996 2.8954 6.41526 3.40419Z" fill="white"/>
<path d="M30 13.5162C30 15.2758 28.8113 16.3692 27.7069 16.3692C27.147 16.31 26.6149 16.0898 26.1723 15.7343C25.6569 15.3316 25.0399 15.0876 24.3937 15.031C24.3005 15.031 15.137 15.2808 14.4495 16.8449C13.6955 18.5637 13.2298 25.2074 14.0636 29.2526C14.3656 30.7959 14.7868 32.3123 15.3233 33.7875C15.8198 35.161 16.2418 36.5614 16.5874 37.9824C17.5543 41.8643 17.4833 48.2087 16.7071 49.7465C16.6229 49.9183 16.5386 50 16.4632 50C15.8245 50 15.4076 47.7688 14.9596 45.397C14.6713 43.851 14.3386 42.091 13.8685 40.4045C12.5423 35.6559 10.2714 34.1231 10.1738 34.0596C10.134 34.0337 10.0879 34.0196 10.0408 34.0188C9.99486 34.0191 9.95008 34.0333 9.91212 34.0596C9.86663 34.0911 9.82811 34.1319 9.79907 34.1796C9.77004 34.2272 9.75113 34.2806 9.74358 34.3362C9.1764 36.9621 8.43999 39.5468 7.53919 42.0733C6.01341 46.3453 2.62035 50 0.908289 50C0.788534 50 0.717562 49.9682 0.708691 49.9369C0.504663 49.415 1.63126 46.9344 2.3764 45.2927C3.03316 43.9255 3.61509 42.522 4.11951 41.0888C5.21948 37.6377 5.85374 33.851 6.11099 29.1664C6.24508 27.074 6.26581 24.9757 6.17309 22.8809C6.27511 22.822 6.37268 22.7635 6.4747 22.7086C6.93694 22.4174 7.41862 22.1598 7.9162 21.9377C8.31069 21.809 8.72187 21.7417 9.13593 21.7381C9.79193 21.7739 10.4405 21.5821 10.9766 21.1939C11.6521 20.5231 12.0839 19.6369 12.2008 18.6816C12.3636 17.7569 12.2491 16.8035 11.8726 15.9465C11.7267 15.6159 11.5081 15.3242 11.2337 15.0943C10.9593 14.8644 10.6366 14.7025 10.2909 14.6213C9.94517 14.5401 9.58575 14.5416 9.24074 14.626C8.89572 14.7104 8.57446 14.8752 8.30207 15.1076C7.80397 15.6403 7.41493 16.2693 7.15775 16.9578C6.99651 17.3598 6.79116 17.7419 6.54566 18.0966C6.32343 18.3579 6.06313 18.5826 5.77391 18.7628C5.46343 17.8408 6.36381 15.9933 5.41907 16.045C3.66266 16.1411 2.96808 17.5927 2.96808 19.4249C2.95986 19.5742 2.98943 19.7233 3.05391 19.8576C3.11838 19.9919 3.21561 20.107 3.33622 20.1917C4.03701 20.6402 5.83334 19.8874 6.7426 18.9854C7.05981 19.2326 7.31551 19.5528 7.48891 19.92C7.66232 20.2872 7.74854 20.691 7.74056 21.0987C7.22132 21.3292 6.71883 21.5973 6.23695 21.9009C4.27208 23.0528 1.83262 24.4904 0.537491 22.1191C-0.141123 20.872 -0.181042 18.9215 0.439912 17.1483C1.052 15.4069 3.21646 11.3486 10.0425 11.3486C14.3799 11.3063 18.7165 11.4999 23.0338 11.9286C23.6858 11.9966 24.1204 12.0374 24.3954 12.0374C24.9853 12.0374 25.5575 11.6383 26.1119 11.2483C26.6397 10.8769 27.1853 10.4955 27.7087 10.4955C28.6649 10.496 30 11.6438 30 13.5162Z" fill="white"/>
</svg>
