<svg width="54" height="45" viewBox="0 0 54 45" fill="none"  >
<path d="M26.9046 15.3552L27.4434 18.1893C27.4923 18.482 27.6373 18.7518 27.857 18.9589C28.226 19.2893 28.8981 19.5203 29.9919 18.6814C30.0805 18.6124 30.1605 18.5338 30.2302 18.4469L31.7447 16.5887C32.0267 16.2558 32.1942 15.8462 32.224 15.417C32.2576 14.7164 31.9083 13.7653 30.0957 13.142C29.9584 13.0983 29.8141 13.0785 29.6697 13.0834C29.1696 13.0196 28.6612 13.0998 28.2081 13.3139C27.755 13.5281 27.3773 13.8667 27.1223 14.2873C26.9118 14.6035 26.8339 14.9855 26.9046 15.3552Z" fill="white"/>
<path d="M42.9944 39.8954H41.6086C41.4882 39.8207 41.3719 39.7399 41.2601 39.6536C40.3951 39.0482 39.3554 38.7203 38.2874 38.716C37.2194 38.7117 36.177 39.0314 35.3068 39.6298C35.1797 39.7249 35.0444 39.8122 34.9091 39.8954H28.0457C27.8899 39.8003 27.7422 39.6973 27.5987 39.5903L27.484 39.4952C26.6171 38.9356 25.5956 38.6418 24.5532 38.6524C23.5108 38.663 22.4959 38.9775 21.6414 39.5546C21.4754 39.6785 21.3014 39.7924 21.1207 39.8954H14.5032C14.3074 39.7803 14.1185 39.6547 13.9374 39.519C13.0717 38.9138 12.0317 38.5857 10.9633 38.5808C9.89496 38.5758 8.85175 38.8942 7.98006 39.4912C7.78946 39.6338 7.588 39.7623 7.37737 39.8756C7.17252 39.852 6.97148 39.8041 6.77878 39.7329C6.6737 39.6937 6.57103 39.6488 6.47127 39.5982L6.06127 39.3802L5.57334 39.1187L3.94974 38.2588C3.44506 37.9933 3.05211 37.5658 2.83865 37.0502C2.49834 36.2299 2.35891 35.0292 3.87592 34.2724C4.22301 34.1034 4.60666 34.0165 4.99527 34.0188H40.5631C40.6244 35.411 40.905 36.786 41.3954 38.0964C41.42 38.1677 41.4487 38.243 41.4733 38.3143C41.5204 38.4497 41.5793 38.581 41.6496 38.7066V38.7106C41.928 39.2547 42.4081 39.6777 42.9944 39.8954Z" fill="white"/>
<path d="M52.5557 38.5639L51.5839 39.3365C51.1359 39.6967 50.5718 39.8944 49.9891 39.8953H45.4216C45.4298 39.8914 45.4421 39.8914 45.4503 39.8874C46.098 39.7375 46.7149 39.4829 47.2749 39.1344C47.3815 39.0671 47.484 38.9958 47.5783 38.9245C47.5824 38.9245 47.5864 38.9245 47.5864 38.9205C47.9894 38.6087 48.2913 38.1916 48.4563 37.7189C48.6212 37.2462 48.6424 36.7376 48.5171 36.2536C48.3406 35.493 48.1062 34.746 47.816 34.0187H51.5839C52.0327 34.0102 52.4752 34.1224 52.8618 34.3428C53.2484 34.5632 53.5641 34.8831 53.7734 35.2669C54.1809 36.0674 54.181 37.2007 52.5557 38.5639Z" fill="white"/>
<path d="M42.3208 27.9258H35.1719C35.1426 27.9258 35.1133 27.9229 35.0846 27.9171C32.6614 27.4196 30.3122 26.6306 28.092 25.5684L26.6652 24.913C26.5651 24.8663 26.4501 24.8593 26.3448 24.8936C26.2395 24.9278 26.1523 25.0006 26.1019 25.0963C26.0514 25.192 26.0418 25.3031 26.0751 25.4055C26.1083 25.508 26.1818 25.5938 26.2798 25.6445L27.1887 26.12C27.2419 26.1479 27.2883 26.1865 27.3248 26.2332C27.3613 26.2798 27.387 26.3335 27.4002 26.3906C27.4134 26.4476 27.4138 26.5068 27.4014 26.564C27.389 26.6213 27.364 26.6752 27.3282 26.7223C27.0662 27.0663 26.151 27.9179 26.3187 28.3605C26.4495 28.7052 27.101 28.75 27.411 28.836L32.2355 30.1508C33.0395 30.37 33.848 30.5788 34.6504 30.8027C34.796 30.8329 34.9235 30.9171 35.0055 31.0373C35.1805 31.3452 35.0055 32.1036 34.5618 32.1L19.805 31.9756V31.5837C19.7361 30.6996 19.7444 29.8115 19.83 28.9288C20.0489 27.6849 20.9096 26.6051 21.5155 25.5146L23.6189 21.7302C23.6408 21.6898 23.6699 21.6534 23.7049 21.6228C24.2923 21.1113 25.0388 20.8028 25.8273 20.746C26.6157 20.6891 27.4014 20.887 28.0608 21.3086L34.0961 25.2074C34.8641 25.6783 35.7195 26.0004 36.6148 26.1557L36.6426 26.1612C36.8886 26.2008 40.4995 26.7826 42.0395 26.8697" fill="white"/>
<path d="M33.2379 20.4955V18.4322C33.2378 18.3817 33.2487 18.3318 33.2699 18.2857C33.2911 18.2396 33.3221 18.1984 33.361 18.1647C35.1674 16.6182 36.8719 14.9639 38.4643 13.2114C38.5109 13.1556 38.5738 13.1145 38.6448 13.0934C38.7157 13.0724 38.7916 13.0724 38.8626 13.0934C38.9336 13.1143 38.9965 13.1553 39.0432 13.2111C39.09 13.2669 39.1184 13.3348 39.1248 13.4063L39.1723 13.937C39.1784 13.9992 39.1672 14.0618 39.1399 14.1185C38.8468 14.7267 36.9952 18.3925 33.8411 20.782C33.7857 20.8235 33.7194 20.8491 33.6497 20.856C33.5801 20.8628 33.5098 20.8506 33.4469 20.8208C33.3841 20.7909 33.3311 20.7446 33.2942 20.6871C33.2572 20.6296 33.2377 20.5632 33.2379 20.4955Z" fill="white"/>
<path d="M46.5446 38.0334C45.777 38.5067 44.8853 38.7581 43.9747 38.7581C43.6998 38.7681 43.4294 38.6886 43.207 38.5321C42.9845 38.3756 42.823 38.1513 42.7484 37.8954C42.2635 36.6525 41.9816 35.3443 41.9128 34.0176C41.9067 33.8456 41.9099 33.6736 41.9161 33.4989C41.9257 32.9111 42.152 32.3459 42.5545 31.9051L42.6594 31.5984L37.3958 8.24349C37.3629 8.09718 37.3912 7.94421 37.4746 7.81801C37.5579 7.69181 37.6895 7.60255 37.8407 7.56976C37.8811 7.56117 37.9223 7.55704 37.9636 7.55747C38.0967 7.5575 38.2258 7.60132 38.3297 7.68169C38.4336 7.76207 38.5061 7.8743 38.5352 7.99979L43.8181 31.4467C43.8274 31.4873 43.8506 31.5237 43.8841 31.5499C43.9175 31.5761 43.9591 31.5905 44.0022 31.5909L44.2502 31.5881C44.2718 31.588 44.2932 31.5911 44.3138 31.5972C44.8307 31.7758 45.2645 32.1272 45.5369 32.5878C45.8498 33.0399 46.1218 33.5172 46.3499 34.0144C46.7199 34.8271 47.005 35.6735 47.201 36.541C47.2766 36.8249 47.2532 37.1249 47.1345 37.3947C47.0159 37.6644 46.8086 37.8889 46.5446 38.0334Z" fill="white"/>
<path d="M47.2018 36.5442C47.0058 35.6767 46.7207 34.8303 46.3507 34.0176C46.1227 33.5204 45.8506 33.0431 45.5377 32.591C45.2653 32.1304 44.8315 31.779 44.3146 31.6004C44.294 31.5943 44.2726 31.5912 44.2511 31.5913L44.003 31.5941C43.9599 31.5937 43.9183 31.5792 43.8849 31.553C43.8514 31.5268 43.8282 31.4905 43.8189 31.4498L38.536 8.00288C38.5069 7.8774 38.4344 7.76526 38.3305 7.68489C38.2266 7.60451 38.0976 7.56069 37.9645 7.56067C37.9231 7.56024 37.8819 7.56436 37.8415 7.57295C37.6903 7.60574 37.5587 7.695 37.4754 7.8212C37.3921 7.9474 37.3638 8.10028 37.3966 8.24658L42.6603 31.6015L42.5553 31.9083C42.1528 32.3491 41.9265 32.9143 41.9169 33.5021C41.9107 33.6768 41.9075 33.8488 41.9136 34.0208C41.9824 35.3475 42.2643 36.6557 42.7492 37.8986C42.8238 38.1545 42.9853 38.3788 43.2078 38.5353C43.4302 38.6917 43.7006 38.7713 43.9756 38.7613C44.8862 38.7613 45.7778 38.5098 46.5454 38.0365C46.8094 37.892 47.0167 37.6676 47.1353 37.3979C47.254 37.1281 47.2774 36.8281 47.2018 36.5442ZM45.8079 36.9404C45.2727 37.2684 44.6531 37.4449 44.0194 37.45C43.5869 36.3501 43.3319 35.1925 43.2634 34.0176C43.2601 33.8591 43.2601 33.7006 43.2667 33.5421C43.2676 33.2812 43.3569 33.0278 43.5209 32.8205C43.6789 32.8739 43.8454 32.8999 44.0129 32.8973H44.035C44.1884 33.0142 44.3178 33.1579 44.4163 33.321C44.5738 33.5458 44.719 33.7785 44.8513 34.018C45.3234 34.9073 45.6706 35.8534 45.8837 36.8314C45.8903 36.8528 45.8903 36.8683 45.8932 36.8711C45.8672 36.8971 45.8385 36.9204 45.8074 36.9404H45.8079ZM45.4237 39.8938H42.9931Z" fill="white"/>
<path d="M34.7099 1.86036C35.4775 1.38683 36.3692 1.13541 37.2798 1.13565C37.5546 1.12562 37.825 1.20517 38.0474 1.36165C38.2698 1.51812 38.4312 1.74242 38.5057 1.99832C38.9908 3.24116 39.2727 4.54941 39.3413 5.8761C39.3474 6.04808 39.3446 6.22009 39.338 6.39485C39.3286 6.98267 39.1022 7.5479 38.6996 7.98861L38.5947 8.29528L43.8587 31.6502C43.8915 31.7965 43.8631 31.9494 43.7798 32.0756C43.6965 32.2018 43.5649 32.291 43.4138 32.3239C43.3734 32.3324 43.3322 32.3365 43.2909 32.3362C43.1574 32.3365 43.0278 32.2929 42.9234 32.2125C42.8191 32.1321 42.7462 32.0198 42.7168 31.8939L37.4339 8.44708C37.4247 8.40642 37.4015 8.36996 37.3681 8.34375C37.3346 8.31754 37.2929 8.30313 37.2499 8.30283L37.0039 8.30564C36.9823 8.30577 36.9609 8.30262 36.9403 8.29645C36.4233 8.11796 35.9895 7.76655 35.7172 7.30579C35.4042 6.85377 35.132 6.37654 34.9038 5.8793C34.5338 5.06657 34.2487 4.22019 34.0527 3.35273C33.9774 3.06875 34.0009 2.76871 34.1197 2.49897C34.2385 2.22923 34.4459 2.00477 34.7099 1.86036Z" fill="white"/>
<path d="M34.0523 3.34957C34.2483 4.21702 34.5334 5.0634 34.9034 5.87613C35.1316 6.37337 35.4038 6.8507 35.7168 7.30272C35.9891 7.76348 36.4229 8.11489 36.9399 8.29337C36.9605 8.29955 36.9819 8.30261 37.0035 8.30247L37.2495 8.29966C37.2925 8.29996 37.3342 8.31438 37.3676 8.34059C37.4011 8.3668 37.4243 8.40325 37.4335 8.44391L42.7164 31.8909C42.7458 32.0167 42.8187 32.129 42.923 32.2094C43.0274 32.2898 43.157 32.3335 43.2905 32.3331C43.3318 32.3334 43.373 32.3293 43.4134 32.3208C43.5645 32.2879 43.6961 32.1986 43.7794 32.0725C43.8627 31.9463 43.8911 31.7934 43.8583 31.6471L38.5943 8.29212L38.6992 7.98544C39.1018 7.54473 39.3282 6.9795 39.3376 6.39168C39.3442 6.21693 39.347 6.04492 39.3409 5.87294C39.2723 4.54624 38.9904 3.23799 38.5053 1.99515C38.4308 1.73925 38.2693 1.51505 38.0469 1.35858C37.8246 1.2021 37.5542 1.12245 37.2794 1.13248C36.3688 1.13225 35.477 1.38367 34.7095 1.85719C34.4455 2.0016 34.2381 2.22606 34.1193 2.4958C34.0005 2.76554 33.977 3.06559 34.0523 3.34957ZM35.4462 2.9533C35.9815 2.6254 36.601 2.44892 37.2347 2.44375C37.6672 3.54368 37.9222 4.7013 37.9907 5.87613C37.994 6.03464 37.994 6.19312 37.9879 6.35163C37.9866 6.61247 37.8973 6.86582 37.7337 7.07324C37.5756 7.01991 37.409 6.99385 37.2416 6.99633H37.2191C37.0657 6.87958 36.9364 6.73592 36.8382 6.57278C36.6806 6.34792 36.5353 6.11525 36.4028 5.87574C35.9306 4.98649 35.5835 4.04028 35.3704 3.06224C35.368 3.04887 35.3648 3.0357 35.3609 3.02267C35.3868 2.99661 35.4156 2.97333 35.4467 2.9533H35.4462ZM35.8308 0H38.2609Z" fill="white"/>
<path d="M51.3379 38.1161C51.3436 38.1544 51.3414 38.1933 51.3315 38.2308C51.3216 38.2682 51.3042 38.3034 51.2802 38.3343C51.2562 38.3652 51.2261 38.3912 51.1917 38.4109C51.1573 38.4306 51.1192 38.4435 51.0796 38.4489C50.2244 38.5597 49.4128 38.8803 48.7221 39.3802C48.4501 39.5805 48.1574 39.7531 47.8488 39.8953C47.0019 40.2815 46.0771 40.4818 45.1407 40.4818C44.2043 40.4818 43.2795 40.2815 42.4327 39.8953C42.1073 39.7435 41.7995 39.5588 41.5143 39.3445C40.5763 38.6873 39.4486 38.3311 38.2901 38.3262C37.1316 38.3212 36.0007 38.6677 35.0567 39.3168C34.7472 39.546 34.4115 39.7401 34.0563 39.8953C33.505 40.1385 32.9189 40.3002 32.3179 40.3748C31.1541 40.5243 29.9702 40.3583 28.8984 39.8953C28.5256 39.732 28.1746 39.5258 27.853 39.2811L27.734 39.186C26.7978 38.5692 25.6887 38.2439 24.5557 38.2538C23.4227 38.2637 22.3199 38.6083 21.3954 39.2415C21.0342 39.5079 20.6386 39.7278 20.2186 39.8953C18.6787 40.5036 16.9533 40.5036 15.4134 39.8953C15.2135 39.8163 15.0191 39.7249 14.8312 39.6219C14.606 39.5007 14.3907 39.363 14.1875 39.2098C13.2496 38.5529 12.1223 38.1965 10.964 38.1908C9.80569 38.1851 8.67469 38.5304 7.72994 39.1781C7.43592 39.3976 7.1168 39.5838 6.77878 39.7329C4.81076 40.6245 2.20721 40.4223 0.526194 39.1424C0.494464 39.1189 0.467852 39.0895 0.447967 39.056C0.428082 39.0225 0.415289 38.9855 0.41033 38.9472C0.405371 38.9088 0.408354 38.8698 0.419089 38.8326C0.429824 38.7954 0.448126 38.7606 0.472892 38.7303C0.524063 38.6696 0.597721 38.6308 0.678144 38.6219C0.758567 38.613 0.839362 38.6349 0.903366 38.6828C1.63866 39.1975 2.49334 39.5303 3.39252 39.6518C4.2917 39.7734 5.20803 39.6802 6.06127 39.3802C6.52887 39.2259 6.96766 38.9997 7.36092 38.7105C8.41454 37.9872 9.67643 37.6015 10.9688 37.6079C12.2611 37.6143 13.5188 38.0124 14.5647 38.7461C14.7439 38.8808 14.933 39.0027 15.1305 39.1108C16.0461 39.5955 17.0844 39.821 18.1265 39.7615C19.1686 39.7019 20.1723 39.3596 21.0223 38.7739C22.077 38.0514 23.3394 37.6664 24.6321 37.6728C25.9249 37.6791 27.1831 38.0767 28.2301 38.8096L28.3449 38.9047C29.4819 39.6628 30.8724 39.9797 32.24 39.7923C33.1271 39.6898 33.9709 39.3646 34.6877 38.8492C35.7002 38.1551 36.9049 37.7705 38.146 37.745C39.3871 37.7196 40.6075 38.0546 41.6496 38.7066V38.7106C41.7316 38.7621 41.8136 38.8215 41.8915 38.8809C42.9154 39.6163 44.1777 39.9733 45.4503 39.8874C46.496 39.8518 47.5063 39.5121 48.349 38.9126C49.1232 38.3506 50.0338 37.9903 50.9935 37.8664C51.0332 37.8606 51.0736 37.8624 51.1125 37.8719C51.1514 37.8813 51.1879 37.8981 51.22 37.9214C51.2521 37.9446 51.279 37.9738 51.2993 38.0072C51.3195 38.0406 51.3327 38.0777 51.3379 38.1161Z" fill="white"/>
<path d="M51.7439 38.0566C51.7132 37.8733 51.6104 37.7086 51.4569 37.597C51.3055 37.4908 51.1169 37.4466 50.9321 37.4741C49.9037 37.6092 48.9283 37.9967 48.0989 38.5996C47.937 38.7193 47.7656 38.8266 47.5864 38.9205C47.5864 38.9245 47.5824 38.9245 47.5783 38.9245C47.484 38.9958 47.3815 39.0671 47.2749 39.1344C46.7149 39.4829 46.098 39.7375 45.4503 39.8874C44.1777 39.9733 42.9154 39.6163 41.8915 38.8809C41.8136 38.8215 41.7316 38.7621 41.6496 38.7106V38.7066C41.5793 38.581 41.5204 38.4497 41.4733 38.3143C41.4487 38.243 41.42 38.1677 41.3954 38.0964C39.2797 36.9789 36.3359 37.1254 34.4376 38.5361C33.7778 39.0083 33.002 39.3061 32.1867 39.4C30.9285 39.5712 29.6494 39.283 28.5992 38.5916L28.4803 38.4965C27.3602 37.7134 26.0146 37.2888 24.6322 37.2824C23.2498 37.276 21.9 37.6881 20.7722 38.4608C19.9864 39.0002 19.0594 39.3148 18.0972 39.3688C17.135 39.4227 16.1765 39.2138 15.3315 38.766C15.1523 38.6675 14.981 38.5562 14.819 38.4331C13.6993 37.6491 12.3535 37.224 10.9709 37.2176C9.58824 37.2112 8.23827 37.6238 7.11087 38.3975C6.65159 38.7319 6.12938 38.977 5.57334 39.1187C4.82695 39.3277 4.04106 39.3686 3.27569 39.2388C2.51033 39.109 1.78579 38.8117 1.15761 38.3697C1.00809 38.2576 0.818933 38.2067 0.63099 38.2283C0.443047 38.2498 0.271418 38.3418 0.153119 38.4846C0.0361549 38.6288 -0.0170072 38.8119 0.00527362 38.9938C0.0275544 39.1757 0.123481 39.3417 0.272036 39.4554C2.19905 40.9177 5.23715 41.0644 7.37737 39.8756C7.588 39.7623 7.78946 39.6338 7.98006 39.4912C8.85175 38.8942 9.89496 38.5758 10.9633 38.5808C12.0317 38.5857 13.0717 38.9138 13.9374 39.519C14.1185 39.6547 14.3074 39.7803 14.5032 39.8954C14.5442 39.9192 14.5894 39.9429 14.6304 39.9666C15.629 40.4899 16.7493 40.758 17.8851 40.7455C19.021 40.733 20.1347 40.4405 21.1207 39.8954C21.3014 39.7924 21.4754 39.6785 21.6414 39.5546C22.4959 38.9775 23.5108 38.663 24.5532 38.6524C25.5956 38.6418 26.6171 38.9356 27.484 39.4952L27.5987 39.5903C27.7422 39.6973 27.8899 39.8003 28.0457 39.8954C29.3414 40.6569 30.8686 40.9647 32.3712 40.7671C33.273 40.6596 34.1394 40.3621 34.9091 39.8954C35.0444 39.8122 35.1797 39.7249 35.3068 39.6298C36.177 39.0314 37.2194 38.7117 38.2874 38.716C39.3554 38.7203 40.3951 39.0482 41.2601 39.6536C41.3719 39.7399 41.4882 39.8207 41.6086 39.8954C42.6669 40.5377 43.8911 40.8783 45.1408 40.8783C46.3904 40.8783 47.6147 40.5376 48.6729 39.8953C48.7755 39.8319 48.8739 39.7646 48.9682 39.6932C49.6044 39.2356 50.3509 38.9423 51.1371 38.8412C51.3251 38.8148 51.4947 38.7175 51.6085 38.5703C51.7223 38.4232 51.7709 38.2384 51.7439 38.0566Z" fill="white"/>
<path d="M50.9928 41.9896C50.0338 42.1147 49.1238 42.4745 48.3491 43.0349C47.4044 43.6826 46.2735 44.028 45.1153 44.0226C43.9571 44.0172 42.8297 43.6613 41.8915 43.0048C40.8447 42.272 39.5866 41.8748 38.2941 41.8688C37.0016 41.8629 35.7397 42.2485 34.6857 42.9715C33.9696 43.4875 33.1258 43.8123 32.2388 43.9134C30.8711 44.1035 29.4797 43.7866 28.3437 43.0266L28.2277 42.9315C27.1808 42.199 25.9229 41.8019 24.6305 41.7957C23.3381 41.7895 22.0762 42.1747 21.0219 42.897C20.1716 43.4824 19.1679 43.8244 18.1258 43.8838C17.0836 43.9432 16.0452 43.7175 15.1297 43.2326C14.932 43.1251 14.743 43.0032 14.5643 42.8681C13.5178 42.135 12.2598 41.7374 10.9674 41.7313C9.67488 41.7251 8.4129 42.1106 7.3589 42.8336C6.41399 43.4807 5.28332 43.8257 4.12532 43.8205C2.96731 43.8153 1.84 43.4602 0.901341 42.8047C0.837676 42.759 0.758088 42.7391 0.679472 42.7492C0.600856 42.7593 0.529444 42.7987 0.480376 42.8589C0.431308 42.9191 0.408459 42.9954 0.416713 43.0716C0.424968 43.1479 0.463665 43.2181 0.52457 43.2672C1.57133 44 2.82943 44.3973 4.12196 44.4033C5.41449 44.4093 6.67641 44.0236 7.73037 43.3004C8.67524 42.6529 9.80625 42.3076 10.9646 42.3133C12.1228 42.3189 13.2503 42.675 14.1884 43.3317C14.3913 43.485 14.6059 43.6233 14.8304 43.7454C15.8508 44.2842 17.0077 44.5343 18.1684 44.4668C19.3292 44.3993 20.4467 44.017 21.3929 43.3638C22.3181 42.7309 23.4213 42.3865 24.5548 42.3766C25.6882 42.3668 26.7977 42.692 27.7345 43.3088L27.8509 43.4039C29.1329 44.3216 30.7372 44.7145 32.3167 44.4975C33.3103 44.3831 34.2552 44.0177 35.0563 43.4383C36.0009 42.7905 37.1317 42.445 38.2899 42.4502C39.4481 42.4553 40.5756 42.811 41.5139 43.4672C42.5607 44.1998 43.8186 44.5971 45.111 44.6033C46.4034 44.6095 47.6654 44.2242 48.7197 43.5017C49.4119 43.0025 50.2245 42.6823 51.0805 42.5713C51.1207 42.5664 51.1595 42.5538 51.1946 42.5343C51.2297 42.5148 51.2604 42.4887 51.2849 42.4576C51.3094 42.4265 51.3273 42.3909 51.3374 42.353C51.3475 42.3151 51.3497 42.2757 51.3439 42.2369C51.338 42.1982 51.3242 42.1609 51.3032 42.1274C51.2823 42.0939 51.2546 42.0648 51.2219 42.0418C51.1892 42.0188 51.152 42.0023 51.1126 41.9933C51.0732 41.9844 51.0323 41.9831 50.9923 41.9896H50.9928Z" fill="white"/>
<path d="M45.1416 44.9992C43.7434 45.0213 42.3775 44.5915 41.2609 43.7779C40.3957 43.1727 39.356 42.8448 38.288 42.8401C37.2199 42.8355 36.1772 43.1545 35.3064 43.7522C34.448 44.3737 33.4354 44.7661 32.3704 44.8899C30.6817 45.12 28.9673 44.6978 27.5983 43.7149L27.4819 43.6198C26.6158 43.06 25.595 42.766 24.553 42.7763C23.5111 42.7866 22.4967 43.1008 21.6426 43.6777C20.6318 44.3763 19.4377 44.7856 18.1972 44.8585C16.9568 44.9315 15.7202 44.6652 14.6291 44.0902C14.3872 43.9582 14.1559 43.8089 13.937 43.6436C13.0718 43.0377 12.0319 42.709 10.9634 42.7037C9.89495 42.6985 8.85164 43.0169 7.98008 43.6143C6.85261 44.3878 5.50269 44.8003 4.12007 44.7938C2.73746 44.7873 1.3917 44.3622 0.272035 43.5782C0.123334 43.465 0.0272707 43.2993 0.00497241 43.1176C-0.0173258 42.9359 0.0359518 42.753 0.153118 42.6093C0.271009 42.4664 0.442501 42.3742 0.630338 42.3527C0.818176 42.3311 1.00721 42.382 1.15641 42.4944C2.02211 43.0986 3.06168 43.4258 4.12948 43.4303C5.19729 43.4348 6.23978 43.1162 7.11087 42.5193C8.23867 41.7463 9.58887 41.3344 10.9715 41.3415C12.3542 41.3486 13.6997 41.7744 14.819 42.559C14.9808 42.6817 15.1521 42.7921 15.3315 42.8895C16.1765 43.3382 17.1353 43.5477 18.0979 43.4938C19.0605 43.44 19.9879 43.1251 20.7738 42.5851C21.9018 41.8127 23.2517 41.4009 24.6341 41.4076C26.0165 41.4142 27.362 41.839 28.4819 42.6224L28.5984 42.7175C29.6479 43.4098 30.9276 43.6973 32.1855 43.5232C33.0013 43.4312 33.7778 43.1334 34.4368 42.6596C35.5644 41.8864 36.9143 41.4741 38.2968 41.4806C39.6794 41.4871 41.0251 41.912 42.1449 42.6957C43.0101 43.3011 44.0498 43.6294 45.118 43.6343C46.1862 43.6392 47.2291 43.3206 48.1002 42.7231C48.9289 42.1222 49.9027 41.7358 50.9292 41.6005C51.0207 41.5863 51.1142 41.5898 51.2043 41.6108C51.2944 41.6318 51.3793 41.6699 51.454 41.7229C51.5694 41.8033 51.6572 41.9153 51.7063 42.0443C51.7554 42.1734 51.7634 42.3136 51.7295 42.4471C51.6955 42.5806 51.621 42.7012 51.5156 42.7935C51.4102 42.8858 51.2787 42.9456 51.1379 42.9651C50.3517 43.0666 49.6051 43.36 48.9686 43.8176C47.8607 44.6047 46.5166 45.0197 45.1416 44.9992Z" fill="white"/>
</svg>
