<svg width="56" height="36" viewBox="0 0 56 36" fill="none"  >
<path d="M26.4704 8.68114L27.0576 11.8364C27.1109 12.1623 27.269 12.4626 27.5084 12.693C27.9105 13.0605 28.6429 13.3182 29.8351 12.3843C29.9317 12.3074 30.0188 12.2196 30.0947 12.1226L31.7453 10.0545C32.0525 9.68386 32.2351 9.22785 32.2676 8.74996C32.3042 7.96999 31.9236 6.91123 29.9481 6.21685C29.7984 6.16842 29.6412 6.14647 29.4838 6.15201C28.9389 6.08084 28.3848 6.17004 27.8909 6.40845C27.3971 6.64687 26.9854 7.02382 26.7077 7.49218C26.4782 7.84421 26.3933 8.26946 26.4704 8.68114Z" fill="#FCFDFF"/>
<path d="M44.0036 36H5.51373C5.0553 35.9993 4.60436 35.8854 4.20188 35.6687L1.453 34.178C0.903002 33.8833 0.474404 33.4084 0.241183 32.8351C-0.129238 31.9223 -0.281635 30.5825 1.37342 29.7417C1.75097 29.5529 2.16871 29.4556 2.59194 29.458H41.3552C41.4309 31.0943 41.765 32.7088 42.3454 34.2432C42.4717 34.6396 42.6861 35.0031 42.973 35.307C43.2599 35.611 43.612 35.8477 44.0036 36Z" fill="#FCFDFF"/>
<path d="M54.4247 34.5184L53.3653 35.3801C52.8764 35.7794 52.2617 35.9978 51.6271 35.9977H46.6526C47.3699 35.8324 48.0528 35.5457 48.6709 35.1502C49.2142 34.8289 49.6388 34.3442 49.8824 33.7671C50.126 33.19 50.1757 32.5509 50.0243 31.9438C49.8321 31.0969 49.5764 30.2653 49.2594 29.4558H53.3653C53.8549 29.4464 54.3375 29.5715 54.7592 29.8171C55.181 30.0627 55.5254 30.4191 55.754 30.8467C56.1968 31.7391 56.1968 33.0022 54.4247 34.5184Z" fill="#FCFDFF"/>
<path d="M43.2713 22.676H35.4803C35.4484 22.6758 35.4165 22.6726 35.3852 22.6663C32.7442 22.1125 30.184 21.2339 27.7645 20.0511L26.2095 19.3214C26.1005 19.2694 25.9751 19.2617 25.8604 19.2998C25.7456 19.338 25.6506 19.419 25.5956 19.5256C25.5407 19.6321 25.5302 19.7556 25.5664 19.8697C25.6027 19.9838 25.6828 20.0794 25.7895 20.1358L26.7801 20.6652C26.8381 20.6962 26.8887 20.7392 26.9284 20.7911C26.9682 20.8431 26.9962 20.9028 27.0106 20.9664C27.025 21.0299 27.0254 21.0958 27.0119 21.1595C26.9983 21.2232 26.9711 21.2833 26.9321 21.3358C26.6465 21.7187 25.6492 22.6668 25.832 23.1596C25.9745 23.5434 26.6845 23.5932 27.0223 23.6889L32.2802 25.1526C33.1564 25.3966 34.0375 25.6291 34.912 25.8784C35.0706 25.9121 35.2095 26.0059 35.2989 26.1395C35.4897 26.4823 35.2989 27.3268 34.8154 27.3228L18.7332 27.1842V26.7479C18.6581 25.7636 18.6672 24.7749 18.7604 23.7921C18.999 22.4077 19.937 21.2056 20.5974 19.9911L22.8896 15.7784C22.9135 15.7333 22.9453 15.6927 22.9834 15.6584C23.6236 15.089 24.4372 14.7458 25.2965 14.6825C26.1558 14.6193 27.0119 14.8396 27.7305 15.309L34.3079 19.6497C35.1448 20.1739 36.0771 20.5325 37.0528 20.7054C37.063 20.7076 37.0729 20.7098 37.0831 20.7111C37.3512 20.7552 41.2864 21.4029 42.9647 21.5004" fill="#FCFDFF"/>
<path d="M33.3727 14.4017V12.1077C33.3724 12.0515 33.3843 11.9958 33.4074 11.9445C33.4305 11.8932 33.4643 11.8473 33.5067 11.8099C35.4757 10.0876 37.3332 8.24504 39.0684 6.29313C39.1193 6.23098 39.1878 6.18526 39.2651 6.16184C39.3425 6.13842 39.4252 6.13839 39.5026 6.16173C39.5799 6.18506 39.6485 6.23071 39.6994 6.2928C39.7503 6.3549 39.7813 6.43067 39.7883 6.51026L39.8401 7.10135C39.8466 7.17059 39.8345 7.24032 39.8048 7.3034C39.4853 7.98014 37.4675 12.0617 34.03 14.7219C33.9696 14.7682 33.8972 14.7968 33.8211 14.8044C33.7451 14.812 33.6684 14.7983 33.5999 14.7649C33.5313 14.7315 33.4736 14.6797 33.4334 14.6155C33.3933 14.5513 33.3722 14.4772 33.3727 14.4017Z" fill="#FCFDFF"/>
<path d="M47.8742 33.9287C47.0376 34.4557 46.0659 34.7357 45.0735 34.7356C44.7738 34.7468 44.4791 34.6581 44.2367 34.4838C43.9943 34.3095 43.8183 34.0598 43.737 33.7748C43.2086 32.3912 42.9014 30.9348 42.8264 29.458C42.8197 29.2665 42.8233 29.075 42.83 28.88C42.8404 28.2258 43.0871 27.5967 43.5257 27.1061L43.6401 26.7643L37.9037 0.763655C37.8678 0.600778 37.8987 0.430575 37.9895 0.290077C38.0803 0.149578 38.2238 0.050208 38.3885 0.0137056C38.4325 0.0041921 38.4775 -0.000398054 38.5225 2.70289e-05C38.6676 5.70708e-05 38.8083 0.0488373 38.9215 0.13832C39.0347 0.227803 39.1137 0.352643 39.1454 0.492347L44.9028 26.5957C44.9129 26.641 44.9383 26.6815 44.9747 26.7106C45.0112 26.7398 45.0565 26.7559 45.1034 26.7563L45.3738 26.7529C45.3972 26.753 45.4205 26.7564 45.443 26.763C46.0062 26.9621 46.4789 27.3532 46.7759 27.8659C47.1171 28.3691 47.4135 28.9004 47.662 29.454C48.0652 30.3588 48.3759 31.3011 48.5896 32.2668C48.6719 32.5829 48.6465 32.9171 48.5172 33.2175C48.3879 33.5179 48.1619 33.7678 47.8742 33.9287Z" fill="#FCFDFF"/>
<path d="M48.5906 32.2695C48.377 31.3037 48.0662 30.3615 47.663 29.4566C47.4146 28.903 47.1181 28.3716 46.777 27.8684C46.48 27.3557 46.0073 26.9646 45.4441 26.7655C45.4216 26.759 45.3983 26.7556 45.3748 26.7554L45.1045 26.759C45.0576 26.7586 45.0122 26.7425 44.9757 26.7133C44.9393 26.6841 44.914 26.6436 44.9039 26.5984L39.1465 0.494889C39.1147 0.355186 39.0357 0.230346 38.9225 0.140863C38.8093 0.0513798 38.6686 0.00259961 38.5236 0.00256957C38.4786 0.00214449 38.4336 0.00673464 38.3895 0.0162481C38.2248 0.0527505 38.0814 0.152121 37.9906 0.292619C37.8998 0.433117 37.8689 0.60332 37.9048 0.766198L43.6411 26.7668L43.5267 27.1088C43.0881 27.5994 42.8414 28.2284 42.831 28.8827C42.8243 29.0777 42.8208 29.2692 42.8275 29.4606C42.9024 30.9375 43.2096 32.3938 43.7381 33.7773C43.8193 34.0623 43.9953 34.3121 44.2377 34.4864C44.4801 34.6607 44.7749 34.7493 45.0746 34.7382C46.067 34.7382 47.0387 34.4582 47.8753 33.9313C48.1629 33.7704 48.3889 33.5205 48.5182 33.2201C48.6475 32.9197 48.673 32.5856 48.5906 32.2695ZM47.0715 32.7106C46.4881 33.0757 45.8129 33.2721 45.1224 33.2779C44.651 32.0533 44.3731 30.7646 44.2984 29.4566C44.2948 29.2802 44.2949 29.1037 44.302 28.9273C44.3029 28.6368 44.4002 28.3546 44.579 28.1239C44.7513 28.1833 44.9328 28.2123 45.1152 28.2094H45.1393C45.3067 28.3394 45.4477 28.4994 45.5549 28.6811C45.7265 28.9314 45.8847 29.1905 46.029 29.4571C46.5435 30.4471 46.9219 31.5004 47.1541 32.5893C47.1612 32.6131 47.1613 32.6303 47.1644 32.6334C47.1361 32.6623 47.1053 32.6882 47.0715 32.7106ZM46.6528 35.9985H44.0039Z" fill="#FCFDFF"/>
</svg>
