<svg width="21" height="52" viewBox="0 0 21 52" fill="none"  >
<path d="M3.59074 23.4304C3.54307 23.7019 3.51062 23.976 3.49355 24.2512C3.40567 25.1645 3.62084 26.0815 4.10557 26.8591C5.04369 28.2052 6.78559 28.3055 8.30196 28.2919L11.4199 28.2617C11.6826 28.2591 12.0203 28.3213 12.0732 28.612C12.1299 28.926 11.7753 29.1353 11.4916 29.124C11.2079 29.1126 10.9036 29.0041 10.6544 29.1572C10.4802 29.2951 10.3513 29.4824 10.2844 29.6949C9.46062 31.6228 8.79998 33.6171 8.30946 35.6566C8.12027 36.3097 8.0405 36.9898 8.07343 37.6692C8.08638 37.9987 8.17569 38.3207 8.33425 38.6095C8.4928 38.8982 8.71625 39.1459 8.98679 39.3327C9.68475 39.7248 10.5666 39.3636 11.1006 38.7215C11.6005 38.0194 11.9576 37.225 12.1512 36.3839L14.4099 28.9027C14.6995 28.0885 14.8663 27.2354 14.9048 26.3717C14.9011 25.5045 14.5949 24.5867 13.946 24.1222C13.3851 23.721 12.6792 23.7173 12.0154 23.7263C10.7842 23.7433 8.65545 23.7693 7.42389 23.7859C7.13532 23.79 6.7747 23.7406 6.67902 23.4326C6.55481 23.0318 7.0265 22.7204 7.40249 22.7162C7.77849 22.7121 9.11399 22.7943 9.37666 22.49C9.48531 22.3404 9.56011 22.1687 9.59581 21.987L11.472 15.1351C11.4694 15.1445 14.7975 15.2328 15.0996 15.24C16.6253 15.2777 18.7541 16.057 20.0949 14.9406C21.0971 14.1054 21.4615 12.4065 20.1677 11.6743C19.7127 11.4643 19.2114 11.376 18.7124 11.4179L8.78454 11.4149C8.42246 11.391 8.05928 11.4398 7.7162 11.5585C6.86139 11.9186 6.48351 13.0215 6.20396 14.0029L4.04816 21.5697C3.86259 22.1812 3.7099 22.8023 3.59074 23.4304Z" fill="white"/>
<path d="M8.69259 3.72177L9.97332 7.56758C10.0965 7.96612 10.344 8.31426 10.6792 8.56067C11.2371 8.95052 12.185 9.14394 13.4852 7.7636C13.5902 7.65018 13.6818 7.52511 13.7584 7.39075L15.4219 4.51243C15.7348 3.99488 15.8791 3.39213 15.8347 2.78824C15.7416 1.80794 15.0864 0.547859 12.5348 0.026038C12.342 -0.00867932 12.1447 -0.00867932 11.952 0.026038C11.3959 0.110872 9.74254 0.0927984 8.77553 2.19102C8.55485 2.67204 8.52519 3.21952 8.69259 3.72177Z" fill="white"/>
<path d="M15.5934 42.5363H3.42413C2.51599 42.5363 1.64505 42.8989 1.0029 43.5441C0.360751 44.1893 0 45.0643 0 45.9768V51.1988C0 51.4113 0.0840031 51.6151 0.233545 51.7654C0.383086 51.9156 0.585916 52 0.7974 52C0.90213 52.0001 1.00584 51.9794 1.10261 51.9392C1.19938 51.8989 1.2873 51.8399 1.36136 51.7655C1.43541 51.691 1.49414 51.6027 1.5342 51.5055C1.57425 51.4083 1.59485 51.304 1.5948 51.1988V45.9768C1.5948 45.4893 1.78753 45.0218 2.1306 44.6771C2.47366 44.3324 2.93896 44.1387 3.42413 44.1387H16.39C16.6636 44.1392 16.9258 44.2487 17.1192 44.443C17.3126 44.6374 17.4215 44.9007 17.422 45.1756V51.1988C17.422 51.4113 17.506 51.6151 17.6555 51.7654C17.8051 51.9156 18.0079 52 18.2194 52C18.3241 52.0001 18.4278 51.9794 18.5246 51.9392C18.6214 51.8989 18.7093 51.8399 18.7833 51.7655C18.8574 51.691 18.9161 51.6027 18.9562 51.5055C18.9962 51.4083 19.0168 51.304 19.0168 51.1988V45.9768C19.0168 45.525 18.9283 45.0777 18.7563 44.6603C18.5843 44.2429 18.3321 43.8636 18.0142 43.5442C17.6964 43.2247 17.3189 42.9713 16.9036 42.7984C16.4882 42.6254 16.043 42.5364 15.5934 42.5363Z" fill="white"/>
</svg>
