<svg width="39" height="52" viewBox="0 0 39 52" fill="none"  >
<path d="M28.1393 31.994C27.4867 31.8922 26.2951 31.9128 24.398 32.6394C24.1828 32.7203 24.008 32.8823 23.9113 33.0906C23.8146 33.2988 23.8037 33.5366 23.881 33.7528L24.1085 34.378C24.5743 35.5564 24.9786 36.758 25.3199 37.9781C25.574 39.0726 25.2533 40.2382 24.9706 41.2947C24.688 42.3511 24.4715 43.4048 24.2556 44.4732L22.9853 50.761C22.9429 50.9643 22.9755 51.1762 23.0772 51.3574C23.3199 51.7808 23.8677 52.3909 24.7928 51.6583C24.9029 51.5673 24.9872 51.4492 25.0373 51.3156L28.3305 42.9993C29.1048 41.0438 30.0805 39.4089 29.6228 37.2217L28.8636 32.7124C28.8336 32.5319 28.7476 32.3654 28.6176 32.2365C28.4876 32.1076 28.3203 32.0228 28.1393 31.994Z" fill="white"/>
<path d="M18.2224 27.4659L15.4623 28.9123C14.1815 29.583 12.8483 30.1641 11.6332 30.9541C10.8901 31.4366 10.1751 31.9706 9.44757 32.4766L4.65344 35.8138C3.6539 36.5097 2.57347 37.1542 1.62631 37.9208L0.17686 39.0938C0.17686 39.0938 -0.604399 40.5405 1.11712 40.5405L12.3208 34.7928L20.7537 32.2922C20.8654 32.2592 20.9683 32.2015 21.0548 32.1235C21.1412 32.0455 21.209 31.9492 21.2531 31.8415C21.2972 31.7338 21.3165 31.6176 21.3096 31.5015C21.3027 31.3854 21.2698 31.2724 21.2133 31.1707L19.3359 27.7976C19.2307 27.6079 19.0551 27.467 18.847 27.405C18.6388 27.343 18.4146 27.3648 18.2224 27.4659Z" fill="white"/>
<path d="M30.7138 15.4633C30.5036 15.4556 30.2936 15.447 30.0837 15.4372C29.598 15.4152 29.0065 15.5289 28.705 15.0702C28.5292 14.67 28.4316 14.24 28.4173 13.8032C28.3286 13.3385 28.2772 12.8651 28.177 12.4032C27.8217 10.7715 27.8898 9.0857 27.8525 7.42189C27.8136 5.68209 27.7744 3.94221 27.7349 2.20241C27.7285 1.90331 27.7217 1.60406 27.7147 1.30466L27.7046 0.845933C27.709 0.674149 27.6618 0.505005 27.5691 0.360214C27.4764 0.215424 27.3424 0.10162 27.1843 0.0335273C26.842 -0.104091 26.5635 0.209747 26.3985 0.470304C26.3737 0.509296 26.3498 0.549658 26.3273 0.590026C26.0972 1.15939 25.961 1.76208 25.9238 2.37488C25.577 4.06455 25.3646 5.77897 25.2886 7.50208C25.0791 9.89205 25.2308 12.2939 25.2308 14.689C25.1961 16.4703 25.028 18.2465 24.728 20.0029C24.5042 21.485 24.6011 22.8929 23.0942 23.6801C22.1957 24.0832 21.3796 24.6487 20.6871 25.348C20.2027 25.8797 20.6645 26.4879 20.9035 27.0319C21.189 27.6881 21.5433 28.3123 21.9605 28.894C22.3782 29.4733 22.7151 30.2413 23.3084 30.6606C23.7473 30.9314 24.2575 31.0646 24.773 31.0431C25.9349 31.0133 27.0933 30.9048 28.2404 30.7183C29.3544 30.5633 29.9583 28.6742 30.1903 27.7251C30.4062 26.6399 30.566 25.5445 30.6692 24.443C30.8071 23.4274 31.4505 22.4704 31.8884 21.5484C32.0263 21.263 32.2951 20.7515 32.6959 20.9157C33.4413 21.2222 33.047 23.453 33.0208 24.0475C32.8879 25.9195 32.969 27.8004 33.2625 29.6541C33.4785 30.8137 33.6527 31.9821 33.8475 33.1455C33.8475 33.1455 34.944 36.0231 35.3751 33.1455C35.6311 28.0229 35.774 22.9292 35.8048 17.802C35.8048 17.6053 35.806 17.4085 35.8085 17.2115C35.8085 17.2115 35.9624 15.6436 33.8475 15.5657C32.8043 15.5294 31.7588 15.5037 30.7138 15.4633Z" fill="white"/>
<path d="M19.0473 17.1C18.7008 17.1 18.362 16.9975 18.0738 16.8053C17.7857 16.6131 17.5611 16.3399 17.4284 16.0203C17.2958 15.7007 17.2611 15.349 17.3287 15.0097C17.3963 14.6704 17.5632 14.3587 17.8083 14.1141C18.0533 13.8694 18.3656 13.7029 18.7055 13.6354C19.0454 13.5679 19.3977 13.6026 19.7179 13.735C20.0381 13.8673 20.3118 14.0915 20.5043 14.3792C20.6969 14.6668 20.7997 15.005 20.7997 15.3509C20.7992 15.8147 20.6144 16.2593 20.2859 16.5872C19.9574 16.9151 19.5119 17.0996 19.0473 17.1ZM19.0473 14.3477C18.849 14.3477 18.6551 14.4064 18.4902 14.5163C18.3253 14.6263 18.1968 14.7827 18.1209 14.9656C18.045 15.1485 18.0252 15.3497 18.0639 15.5439C18.1025 15.7381 18.198 15.9164 18.3383 16.0564C18.4785 16.1964 18.6572 16.2917 18.8517 16.3303C19.0462 16.3689 19.2479 16.3492 19.4311 16.2734C19.6143 16.1977 19.7709 16.0693 19.8811 15.9047C19.9913 15.7401 20.0501 15.5465 20.0501 15.3486C20.0491 15.0836 19.9431 14.8298 19.7552 14.6427C19.5673 14.4555 19.3128 14.3503 19.0473 14.3499V14.3477Z" fill="white"/>
<path d="M2.01418 24.3498L1.91032 23.9369L1.7798 23.5305C2.25131 23.3585 11.4931 18.8722 17.5887 15.8987L17.9646 16.6665C13.2891 18.9459 2.3731 24.2608 2.01418 24.3498Z" fill="white"/>
<path d="M19.6779 2.85103H18.8222V13.7807H19.6779V2.85103Z" fill="white"/>
<path d="M23.0327 25.6228C22.7372 25.3127 22.4182 25.003 22.0942 24.6879C20.722 23.3539 19.1673 21.8437 18.8874 19.7914C18.7742 18.7492 18.7544 17.6989 18.8281 16.6532L19.6714 16.7987C19.6126 17.758 19.6341 18.7205 19.7358 19.6762C19.9752 21.4355 21.3562 22.7777 22.6917 24.0759C23.0235 24.397 23.3502 24.7181 23.6526 25.0342L23.0327 25.6228Z" fill="white"/>
<path d="M33.0309 7.03183L30.6991 10.4076C30.4514 10.7496 30.3205 11.1623 30.3259 11.5843C30.3516 12.2724 30.774 13.1622 32.6876 13.3801C32.8435 13.3967 33.0008 13.3952 33.1563 13.3756L36.5052 12.9793C37.1154 12.9183 37.6915 12.6689 38.1531 12.2659C38.8921 11.5934 39.5107 10.297 38.3733 7.90796C38.2836 7.73035 38.163 7.57007 38.0171 7.43456C37.5943 6.88393 37.018 6.47007 36.3606 6.24485C35.7032 6.01964 34.9938 5.99308 34.3213 6.16847C33.7968 6.28191 33.3353 6.59067 33.0309 7.03183Z" fill="white"/>
</svg>
