<svg width="33" height="48" viewBox="0 0 33 48" fill="none"  >
<path d="M13.9787 32.6453C14.045 32.5433 16.5468 35.0408 16.7657 35.2678C16.9068 35.4167 17.3083 35.7144 17.324 35.9054C17.3392 36.0792 17.2075 36.2404 17.1546 36.3959C16.692 37.7448 17.9615 38.6079 18.777 39.3269L24.3219 44.2175C24.8152 44.6522 25.3083 45.0872 25.8013 45.5224C26.0879 45.8165 26.4061 46.078 26.7501 46.3021C27.1502 46.5199 27.6061 46.432 28.0404 46.432L29.2482 47.2635C29.2482 47.2635 31.3325 47.204 31.5532 47.2635C31.7739 47.3231 32.1022 46.729 32.1022 46.729C32.1022 46.729 30.2915 45.3039 30.2907 44.9473C30.34 44.4948 30.2627 44.0376 30.0674 43.6265C29.7903 43.2686 29.4758 42.9412 29.1295 42.6498L22.7613 35.9389C22.5432 35.7092 22.3344 35.4148 22.0858 35.2011C21.7389 34.9034 21.4683 34.9545 21.0693 34.8488C20.8088 32.9878 20.4627 31.1458 20.1634 29.2938C19.9633 28.0198 19.6941 26.7575 19.3569 25.5127C19.2594 25.1598 19.1652 24.8055 19.0677 24.4538C18.9524 24.1674 18.8696 23.8691 18.8209 23.5643C18.8931 21.9356 18.9655 20.3069 19.0379 18.6782C19.1001 17.2858 19.4443 15.6106 19.0133 14.2663C18.8798 13.7964 18.5652 13.3986 18.1387 13.1604C17.5175 12.8307 16.9886 13.1672 16.382 13.3782C15.7541 13.5971 15.0242 13.4061 14.3889 13.3037C13.7253 13.1961 12.9831 12.5888 12.3076 12.9052C11.9475 13.1317 11.6362 13.4276 11.3916 13.7757L8.13981 12.0636L7.34481 11.4488L6.69683 10.6728L5.17531 12.4179L6.27811 13.4973L7.65038 14.4762C8.15943 14.7792 8.6337 15.1371 9.0647 15.5436C9.53068 16.0591 9.62113 16.78 8.96756 17.1135C8.21239 17.4994 7.63214 17.2903 7.04036 16.6944C6.07267 15.7196 4.90361 14.7686 4.24334 13.5248L3.23136 15.1904C2.98832 15.5916 3.73642 16.6684 3.93852 16.9803C5.02308 18.6481 7.0813 19.8088 8.89387 20.2555C10.0905 20.5502 10.5918 19.3843 11.3823 18.6585L11.7917 18.2773L12.3128 17.7723L12.3322 17.7417C12.6738 17.2013 13.515 17.8161 13.0814 18.3435L12.2599 19.5718C12.1748 19.7005 12.1263 19.8501 12.1196 20.0043L11.9283 24.2472L6.41955 30.2574C6.14487 30.5573 5.36773 31.694 4.95385 31.4618C4.48117 31.1964 2.2819 29.36 2.23352 30.8503C2.21523 32.2564 2.41063 33.6572 2.81302 35.0047C2.95928 35.6431 3.15848 36.2681 3.40853 36.8734C3.71484 37.5155 4.06321 38.1388 4.41344 38.7522C5.59998 40.8328 6.90712 42.8307 8.16996 44.8562C8.16996 44.8562 6.41359 46.2816 6.33096 46.2816C6.24834 46.2816 5.45296 46.6378 5.45296 46.6378L5.61748 47.0536L6.11175 47.2657H8.80119C8.80119 47.2657 10.0086 46.3706 10.0908 46.3412C10.1731 46.3118 11.4631 45.9549 11.4631 45.9549L12.8901 44.9157L12.2864 42.8069C11.4073 41.9508 10.3837 41.3115 10.1046 39.9902C9.71225 38.3435 9.10798 36.7545 8.30692 35.2633L13.0274 32.1742L13.7193 31.5217C13.9728 31.2827 14.4347 30.6519 14.8046 30.7505C14.8706 30.7681 14.9313 30.8015 14.9817 30.8475C15.032 30.8936 15.0706 30.9511 15.094 31.0152C15.1174 31.0793 15.1251 31.1481 15.1163 31.2158C15.1075 31.2835 15.0826 31.3481 15.0436 31.4041L13.9787 32.6453Z" fill="white"/>
<path d="M2.12224 14.8736L1.64471 15.4281C1.4214 15.6887 1.22973 16.0378 0.866096 16.1089C0.548246 16.1711 0.00223314 15.9663 0 15.5833C0 15.299 0.271704 15.1163 0.45631 14.9425C0.716067 14.71 0.947434 14.4476 1.1456 14.1608C1.3317 13.872 1.17352 13.7448 0.985563 13.5043C0.944062 13.4638 0.916308 13.4114 0.906225 13.3543C0.896142 13.2972 0.904238 13.2384 0.929362 13.1861C1.06701 12.5223 1.38958 11.911 1.85984 11.4227C1.90306 11.3768 1.95111 11.3358 2.00313 11.3003C2.36081 11.0747 3.09998 11.3058 3.02963 10.6213C2.99013 10.4807 2.96629 10.3362 2.95854 10.1903C2.98361 10.0724 3.03889 9.96297 3.11896 9.87283C3.29782 9.60827 3.51194 9.36937 3.7554 9.1627C3.91926 9.03801 4.10993 8.95327 4.31227 8.91509C4.51462 8.87691 4.72307 8.8864 4.9211 8.94281C5.09681 9.00282 5.2772 9.04805 5.46041 9.0782L9.44284 4.68116C10.7556 3.23185 12.1271 1.81537 13.3788 0.316556C13.5691 0.120813 13.8285 0.0072952 14.1014 0.000339604C14.3743 -0.00661599 14.6392 0.0935066 14.8392 0.2793C15.1282 0.519793 15.3616 0.820103 15.5233 1.15953C15.621 1.35197 15.6515 1.57154 15.61 1.78333C15.5014 2.24335 15.0317 2.40632 14.7268 2.70817L7.41068 9.95588C7.03365 10.3281 6.75638 10.7677 6.37972 11.141L5.21179 12.5445L4.21803 13.6238L3.23098 15.7174L2.12224 14.8736Z" fill="white"/>
<path d="M13.7591 7.33015L14.5846 10.6955C14.6622 11.0436 14.8494 11.3576 15.1187 11.5913C15.5691 11.9635 16.3663 12.1943 17.5752 11.1105C17.673 11.0214 17.7605 10.9215 17.8357 10.8127L19.4618 8.4787C19.7653 8.05979 19.9306 7.55673 19.9349 7.03946C19.9245 6.19608 19.451 5.07831 17.305 4.45303C17.1426 4.41023 16.9739 4.39642 16.8066 4.41214C16.3228 4.4449 14.9107 4.3128 13.9355 6.03157C13.7136 6.42621 13.6506 6.89061 13.7591 7.33015Z" fill="white"/>
</svg>
