<svg width="37" height="48" viewBox="0 0 37 48" fill="none"  >
<path d="M30.9488 4.72077L28.5852 11.7668C27.2077 11.0326 25.7931 10.0378 24.3278 9.51543C24.2016 9.47058 24.0727 9.43385 23.9419 9.40539C22.4129 9.07185 20.5525 9.34452 18.9881 9.34452H15.2495C14.1484 9.34452 12.9882 9.19646 11.992 9.77224C10.8347 10.4393 9.30031 11.2185 8.12556 11.8706C7.25927 10.1341 6.7335 8.08158 6.18192 6.2421L5.86679 4.8083C5.54774 4.62311 5.17436 4.5547 4.81049 4.6147C4.44663 4.67471 4.11488 4.85942 3.87196 5.13729L6.44376 14.8708C6.44376 14.8708 7.62768 15.9482 9.25494 14.8438L12.0153 14.3097C12.2491 14.2406 12.4891 14.1942 12.7318 14.1712C13.2088 14.1796 13.148 14.155 13.3753 14.6791C13.8266 15.7214 14.4872 16.91 14.5064 18.0503C14.5189 18.7737 14.5064 19.4987 14.5064 20.2221V22.3739C14.5064 22.9159 14.65 23.535 14.3686 24.0337C14.0772 24.5532 13.6193 24.83 13.4369 25.4571C13.1281 26.5319 13.1343 27.7898 13.0069 28.9017L12.544 32.9342C12.4645 33.6292 12.3987 34.3271 12.3046 35.0188C12.2089 35.7243 11.9571 36.3989 12.1685 37.1135C12.4524 38.0725 13.3716 38.6052 14.0147 39.3007C14.2475 39.5508 16.6328 41.9527 16.537 42.0941C15.9043 43.023 15.275 43.9542 14.6492 44.8876L13.9473 46.1504C13.9473 46.1504 13.315 49.0968 15.4164 47.5521L16.9758 45.7176C17.3259 45.3057 17.6706 44.8883 18.0269 44.4818C18.7034 43.7097 19.6329 45.3457 20.0746 45.8372L21.6319 47.5696C21.8171 47.5631 21.998 47.5127 22.1598 47.4224C22.3216 47.3321 22.4596 47.2045 22.5625 47.0502C22.6654 46.8959 22.7301 46.7193 22.7513 46.535C22.7726 46.3507 22.7497 46.164 22.6847 45.9902L20.1629 42.2021C21.016 41.2328 21.8687 40.2637 22.7209 39.2945C23.2854 38.6541 23.9594 38.0478 24.3365 37.2682C24.8099 36.29 24.3848 35.5759 24.2716 34.5927C24.1663 33.6805 24.0635 32.7683 23.9615 31.856L23.5331 28.0774C23.4199 27.0768 23.5061 25.738 23.004 24.8437C22.5636 24.0586 22.2077 23.6538 22.1664 22.7145C22.1315 21.9132 22.2643 21.1176 22.2672 20.3176C22.2672 19.3274 22.0965 18.1395 22.2801 17.1689C22.4554 16.2421 22.8496 14.8575 23.4074 14.0949C25.3859 14.581 27.3647 15.0666 29.344 15.5513L30.135 15.4704L32.6797 6.97427L33.2309 5.31735C33.2309 5.31735 32.549 4.11414 30.9488 4.72077ZM18.5793 38.5036H18.2629L16.348 35.7968L18.4224 30.0078L20.4967 35.7968L18.5793 38.5036Z" fill="white"/>
<path d="M13.3928 5.06303V5.39903C13.3861 5.55678 13.3182 5.7057 13.2035 5.81403C13.0888 5.92235 12.9364 5.98156 12.7788 5.97903C10.9813 6.02531 5.56499 6.28414 0.914662 7.72379C0.833209 7.75236 0.746832 7.76422 0.660709 7.7586C0.574586 7.75298 0.490487 7.73004 0.413425 7.69111C0.336364 7.65219 0.26792 7.59814 0.212206 7.53212C0.156492 7.4661 0.114651 7.38945 0.0891678 7.30686L0.013401 6.99793C-0.0190751 6.8502 0.00801742 6.69559 0.0887867 6.56777C0.169556 6.43995 0.297469 6.34928 0.444677 6.31544C1.87961 5.91936 6.05454 4.91251 12.7159 4.48558C12.7987 4.47668 12.8823 4.48473 12.9618 4.5093C13.0414 4.53387 13.115 4.57445 13.1784 4.62849C13.2417 4.68253 13.2934 4.74891 13.3303 4.82362C13.3671 4.89833 13.3884 4.97981 13.3928 5.06303Z" fill="white"/>
<path d="M23.6072 5.06307V5.39907C23.6139 5.55682 23.6819 5.70574 23.7965 5.81407C23.9112 5.92239 24.0636 5.9816 24.2212 5.97907C26.0183 6.02535 31.435 6.28418 36.0854 7.72383C36.1668 7.7524 36.2532 7.76426 36.3393 7.75864C36.4254 7.75302 36.5095 7.73008 36.5866 7.69115C36.6637 7.65223 36.7321 7.59818 36.7878 7.53216C36.8435 7.46615 36.8854 7.38949 36.9109 7.3069L36.9866 6.99797C37.0191 6.85018 36.9919 6.69554 36.9111 6.56771C36.8302 6.43988 36.7022 6.34922 36.5549 6.31548C35.1204 5.9194 30.9455 4.91255 24.2841 4.48562C24.2014 4.47666 24.1176 4.48469 24.0381 4.50924C23.9586 4.53378 23.8849 4.57428 23.8215 4.62833C23.7582 4.68238 23.7065 4.74882 23.6696 4.82356C23.6328 4.8983 23.6115 4.97983 23.6072 5.06307Z" fill="white"/>
<path d="M15.5866 3.36358L16.8875 6.56066C17.0143 6.89244 17.2442 7.17462 17.5432 7.36571C18.0402 7.66631 18.8586 7.77892 19.8919 6.53481C19.9753 6.43218 20.0467 6.32024 20.1046 6.20125L21.3659 3.66467C21.6037 3.20753 21.6933 2.68753 21.6224 2.17702C21.4896 1.34734 20.8626 0.314214 18.6592 0.00902333C18.4931 -0.00981126 18.325 0.000885859 18.1626 0.0406797C17.581 0.0838253 17.025 0.297862 16.5643 0.655993C16.1036 1.01412 15.7586 1.50048 15.5725 2.05406C15.4101 2.47639 15.4152 2.94486 15.5866 3.36358Z" fill="white"/>
</svg>
