<svg width="32" height="45" viewBox="0 0 32 45" fill="none"  >
<path d="M20.7399 2.73294L21.419 6.00599C21.4812 6.34428 21.6493 6.65343 21.8985 6.88774C22.316 7.2607 23.069 7.51073 24.2584 6.50458C24.3546 6.42193 24.441 6.3284 24.5161 6.22579L26.1429 4.02764C26.4461 3.63323 26.6201 3.15301 26.6407 2.65383C26.6583 1.84002 26.244 0.746113 24.2164 0.072519C24.0628 0.026053 23.9023 0.00698137 23.7422 0.0162878C23.1858 -0.0438498 22.6242 0.0633503 22.1278 0.324474C21.6313 0.585598 21.2221 0.989164 20.9512 1.48442C20.7261 1.8582 20.6505 2.30471 20.7399 2.73294Z" fill="white"/>
<path d="M31.4121 39.3984C30.814 38.4078 29.9476 37.6117 28.9155 37.1042C27.8368 36.5789 26.5983 36.6848 25.4661 36.9757C24.8497 37.1305 24.2332 37.2896 23.6204 37.4443C22.6148 37.7013 21.6132 38.0607 20.5745 37.792C19.952 37.5984 19.3613 37.3124 18.8218 36.9434C17.5809 36.1872 16.3328 35.4475 15.0772 34.7245C14.8679 34.6001 14.6589 34.4789 14.4496 34.3581C14.0125 34.1048 13.5786 33.8404 13.1415 33.5794C12.2239 32.9961 11.2646 32.4829 10.2715 32.044C9.85118 31.8622 9.41762 31.7135 8.97465 31.5994C8.6844 31.5196 8.38815 31.4639 8.08892 31.4329C7.75627 31.3977 7.42167 31.3852 7.08736 31.3954C5.66471 31.4298 4.28641 31.9032 3.13734 32.7523C2.2004 33.4322 1.43068 34.321 0.887694 35.35C0.344707 36.3789 0.0430519 37.5204 0.00600614 38.6862C-0.0440539 39.9312 0.219476 41.1686 0.771869 42.2824C1.04356 42.833 1.37983 43.3485 1.77343 43.8178C2.04825 44.193 2.39533 44.508 2.79377 44.7439C2.80495 44.7512 2.81974 44.7554 2.83093 44.7627C3.39363 44.9751 3.99886 45.0464 4.59479 44.9706C7.95829 44.809 11.329 44.8535 14.696 44.8761C18.0333 44.8987 21.3706 44.895 24.7079 44.8649C26.1241 44.8572 27.5368 44.8536 28.9531 44.8459C29.51 44.8459 30.0665 44.8422 30.6234 44.8422C30.6852 44.8485 30.7475 44.8368 30.8028 44.8082C30.8411 44.7831 30.8731 44.7493 30.8963 44.7096C31.4652 43.9185 31.8334 42.9984 31.9686 42.0298C32.0821 41.1143 31.886 40.1868 31.4121 39.3984ZM7.43893 43.0951C6.63272 43.0944 5.84484 42.8517 5.17485 42.3982C4.50486 41.9447 3.98285 41.3005 3.67482 40.5469C3.36679 39.7934 3.28652 38.9643 3.44424 38.1647C3.60196 37.365 3.99057 36.6307 4.5609 36.0543C5.13122 35.478 5.85767 35.0856 6.64844 34.9268C7.43921 34.7679 8.2588 34.8499 9.00357 35.1621C9.74834 35.4743 10.3849 36.0027 10.8327 36.6808C11.2805 37.3588 11.5195 38.156 11.5195 38.9715C11.5195 39.5133 11.414 40.0497 11.2088 40.5503C11.0037 41.0508 10.7031 41.5056 10.3241 41.8886C9.94516 42.2715 9.49527 42.5751 9.00021 42.7822C8.50515 42.9892 7.97464 43.0955 7.43893 43.0951ZM25.7542 42.1656H15.3836V40.3251H25.7542V42.1656Z" fill="white"/>
<path d="M25.8165 35.2639L24.809 23.8414C24.6429 22.7531 24.8901 21.6417 25.5009 20.7302C25.9792 20.1333 26.5631 19.6315 27.2228 19.2504C27.4094 19.1292 27.5947 19.008 27.7725 18.8783C27.9012 18.7858 28.0414 18.694 28.1856 18.6003C28.7785 18.2136 29.1692 17.9316 29.1948 17.5465C29.2092 17.218 29.2041 16.8889 29.1792 16.561C29.1688 16.367 29.1584 16.1738 29.1548 15.9835L29.0438 10.8134L30.4021 10.783L30.5128 15.9553C30.5168 16.131 30.5264 16.3088 30.536 16.4878C30.564 16.8715 30.5689 17.2566 30.5507 17.641C30.4768 18.7433 29.5775 19.3292 28.9215 19.7571C28.7953 19.8379 28.673 19.9187 28.5619 19.9996C28.369 20.139 28.1668 20.2719 27.9627 20.4036C27.4454 20.6961 26.9842 21.0802 26.6012 21.5375C26.1982 22.1782 26.0418 22.9461 26.1617 23.6956L27.172 35.1423L25.8165 35.2639Z" fill="white"/>
<path d="M30.9298 10.8161C30.3705 12.8648 26.9851 15.7244 25.8161 15.5656C24.258 15.3538 24.3954 15.4622 22.0407 14.1837L22.5113 13.4919C22.5499 13.431 22.5704 13.3603 22.5704 13.2879C22.5704 13.2156 22.5499 13.1448 22.5113 13.0839C22.4974 13.0578 22.4768 13.036 22.4516 13.021C22.4263 13.006 22.3975 12.9983 22.3683 12.9987C22.339 12.9991 22.3104 13.0076 22.2856 13.0233C22.2608 13.0391 22.2408 13.0614 22.2277 13.0879L21.6144 13.9874C20.6356 15.2121 19.6488 17.4345 18.9353 19.9818L17.9149 19.4641C17.8178 19.3962 17.698 19.4602 17.6496 19.6004C17.6009 19.7475 17.5338 20.0157 17.6349 20.0852L18.8454 20.7317C18.976 20.8223 19.1146 20.9091 19.2529 20.9959C20.101 21.5325 21.1706 22.0466 21.0539 23.5776C20.968 24.7757 16.865 33.5332 14.5219 35.223C13.621 35.8732 12.9298 36.0962 12.6194 35.8291C12.5729 35.7938 12.535 35.7483 12.5085 35.696C12.482 35.6436 12.4676 35.5859 12.4664 35.5271C12.4328 34.6918 15.7136 28.1151 16.3816 26.7315C17.0496 25.348 17.2261 24.8607 17.3803 24.5168C17.6308 23.9612 17.5402 23.6471 16.9733 23.4018C16.5246 23.2051 16.0388 23.1218 15.583 22.948C15.0936 22.7666 14.619 22.5287 14.1367 22.3206C14.0705 22.2851 13.9983 22.2621 13.9238 22.2528C13.6733 22.2301 13.591 22.4829 13.5463 22.6797C13.5272 22.7471 13.5208 22.8177 13.5275 22.8875C13.561 23.1259 14.0844 23.2579 14.2678 23.3448C14.3011 23.3604 14.3304 23.3837 14.3533 23.4127C14.3763 23.4417 14.3922 23.4757 14.4 23.5119C14.4077 23.5482 14.407 23.5857 14.398 23.6216C14.3889 23.6576 14.3717 23.691 14.3477 23.7191C13.6266 24.543 12.8227 25.8926 11.7169 27.5933C10.0126 30.2089 7.89753 33.4633 6.94069 33.4633C6.90377 33.4664 6.86707 33.4553 6.83794 33.4321C6.80881 33.4089 6.78944 33.3756 6.78371 33.3386C6.60073 32.7567 7.06334 30.2958 10.1472 25.1357C12.5842 21.0631 13.6477 16.4418 15.3137 12.0406C15.6708 11.0977 16.071 10.1724 16.5142 9.26453C16.7591 8.76267 17.1535 7.73347 17.8326 7.73347C18.9449 7.78606 20.0296 8.10068 21.0003 8.6523C21.0439 8.67398 21.0863 8.69808 21.1274 8.72432C21.8261 9.14739 22.3159 9.88062 22.8317 10.3809C24.3299 11.8283 25.4102 12.8754 26.3407 12.8754C26.9 12.8754 27.6299 12.1197 28.4033 11.3185C29.3526 10.3357 30.4253 9.22419 30.9203 9.89334C30.9869 10.0376 31.0223 10.1944 31.0239 10.3536C31.0256 10.5128 30.9935 10.6705 30.9298 10.8161Z" fill="white"/>
</svg>
