<svg width="46" height="38" viewBox="0 0 46 38" fill="none"  >
<path d="M29.8344 18.5586C28.9905 18.1816 28.0734 17.9992 27.1503 18.0248C26.2272 18.0504 25.3215 18.2832 24.4995 18.7063C24.4926 18.7099 24.4864 18.715 24.4815 18.721C24.4766 18.7271 24.473 18.7341 24.4709 18.7416C24.4688 18.7491 24.4682 18.7571 24.4692 18.7648C24.4703 18.7726 24.4729 18.78 24.4769 18.7867C25.1809 20.1998 25.6682 21.7121 25.922 23.2719C25.9245 23.284 25.9307 23.2949 25.9396 23.3033C25.9486 23.3118 25.9599 23.3172 25.972 23.3189C25.9842 23.3205 25.9965 23.3184 26.0074 23.3127C26.0183 23.307 26.0272 23.2982 26.0328 23.2872C27.1108 21.1422 28.3849 19.5906 29.8408 18.6616C29.8495 18.6558 29.8565 18.6477 29.8611 18.6384C29.8657 18.629 29.8678 18.6186 29.8671 18.6081C29.8665 18.5977 29.8631 18.5876 29.8574 18.5789C29.8517 18.5702 29.8437 18.5632 29.8344 18.5586Z" fill="white"/>
<path d="M20.1984 24.9531C20.6574 26.86 20.7949 28.8308 20.6052 30.7834C20.5313 31.173 20.5371 31.5736 20.6223 31.9608C20.6885 31.9968 20.7642 32.0111 20.8389 32.0017C21.0388 31.984 21.2326 31.9237 21.4075 31.8247C21.5824 31.7258 21.7343 31.5905 21.8533 31.428C23.0156 30.1219 23.8105 26.967 23.5556 24.6756C23.3542 22.8796 22.4403 20.7277 21.7729 19.1555C21.4165 18.445 21.1489 17.6929 20.9761 16.9164C20.9565 16.6177 21.1618 16.2687 21.6426 15.7827C23.0186 14.3943 27.2 11.5707 28.307 11.5707C28.3197 11.5707 28.3325 11.5707 28.3437 11.5707C28.9955 11.6116 29.5909 12.1339 30.3431 12.7954C31.0988 13.4959 31.9252 14.115 32.8089 14.6427C34.8636 15.8172 38.3595 16.9518 39.1122 16.5112C39.132 16.5032 39.1485 16.4888 39.1591 16.4702C39.1697 16.4516 39.1737 16.4299 39.1705 16.4087C39.1705 15.7029 38.0792 15.0123 36.8149 14.2134C35.9383 13.6818 35.0959 13.0951 34.2927 12.4568C33.4509 11.7145 32.6648 10.9108 31.9406 10.0521C30.4612 8.38863 28.9303 6.66799 27.2726 6.44866C27.1921 6.43855 27.1111 6.43359 27.03 6.43386C24.2015 6.43386 16.2106 11.8362 15.4951 14.9068C15.0928 16.6388 16.0263 17.834 17.2102 19.3467C18.3309 20.7854 19.6021 22.4119 20.1984 24.9531Z" fill="white"/>
<path d="M36.839 38C36.741 38 36.643 37.9985 36.5449 37.9955C34.109 37.9453 31.7912 36.9297 30.096 35.1696C28.4007 33.4094 27.465 31.0472 27.4924 28.5968C27.5199 26.1463 28.5083 23.8057 30.2425 22.0844C31.9768 20.3632 34.3167 19.4004 36.7532 19.4054H36.9615C38.789 19.4462 40.5635 20.031 42.0606 21.0861C43.5577 22.1411 44.7102 23.6189 45.3723 25.3327C46.0345 27.0464 46.1765 28.9191 45.7805 30.7141C45.3845 32.509 44.4683 34.1456 43.1476 35.4169C41.4573 37.068 39.1953 37.9942 36.839 38ZM36.7557 21.1752C34.7828 21.1719 32.8885 21.9524 31.4849 23.3468C30.0813 24.7412 29.282 26.6367 29.2608 28.6208C29.2397 30.605 29.9985 32.5173 31.3721 33.9416C32.7457 35.3659 34.623 36.187 36.5954 36.2262C37.5788 36.2559 38.5581 36.0864 39.475 35.7279C40.392 35.3694 41.228 34.8292 41.9333 34.1393C43.0025 33.1102 43.7442 31.7854 44.0649 30.3323C44.3855 28.8792 44.2706 27.3632 43.7347 25.9758C43.1988 24.5884 42.2659 23.3919 41.054 22.5377C39.8421 21.6835 38.4057 21.21 36.9262 21.1768L36.7557 21.1752Z" fill="white"/>
<path d="M9.30504 37.9035C9.20703 37.9035 9.10902 37.9035 9.01102 37.8985C6.58249 37.8372 4.27559 36.8167 2.58936 35.0578C0.903135 33.2989 -0.0268453 30.9431 0.000590233 28.4999C0.0280257 26.0566 1.01067 23.7225 2.73596 22.0024C4.46126 20.2822 6.7905 19.3144 9.21978 19.3083H9.42755C11.2551 19.3489 13.0297 19.9336 14.5268 20.9886C16.024 22.0436 17.1765 23.5214 17.8386 25.2352C18.5008 26.9489 18.6428 28.8217 18.2468 30.6166C17.8507 32.4116 16.9344 34.0481 15.6137 35.3193C13.9237 36.9711 11.6616 37.8978 9.30504 37.9035ZM9.22174 21.0781C7.24886 21.0747 5.35444 21.8551 3.95073 23.2495C2.54701 24.6438 1.74758 26.5392 1.7264 28.5234C1.70521 30.5077 2.46397 32.4201 3.83758 33.8445C5.21119 35.2688 7.08851 36.0899 9.06101 36.1291C10.0445 36.1595 11.024 35.9904 11.9412 35.632C12.8583 35.2736 13.6943 34.7331 14.3994 34.0428C15.4688 33.0138 16.2108 31.6889 16.5315 30.2358C16.8523 28.7826 16.7375 27.2664 16.2015 25.8789C15.6655 24.4914 14.7326 23.2949 13.5205 22.4407C12.3085 21.5866 10.8719 21.1131 9.39227 21.0801L9.22174 21.0781Z" fill="white"/>
<path d="M32.9065 3.05325L33.1779 7.40622C33.1962 7.85478 33.3573 8.28563 33.6376 8.63504C34.1095 9.19593 35.0406 9.66017 36.7709 8.5857C36.9109 8.49699 37.0405 8.39244 37.157 8.27417L39.6772 5.74481C40.1438 5.29416 40.459 4.70829 40.5789 4.06897C40.7529 3.0221 40.4186 1.53216 37.9126 0.279269C37.722 0.189691 37.5171 0.134861 37.3074 0.117184C36.5966 -0.0658501 35.8479 -0.0339182 35.1551 0.209116C34.4623 0.452151 33.8561 0.895467 33.4127 1.48342C33.0515 1.92283 32.8704 2.48426 32.9065 3.05325Z" fill="white"/>
</svg>
