<svg width="48" height="47" viewBox="0 0 48 47" fill="none"  >
<path d="M12.2905 6.1441L14.0806 9.34138C14.2572 9.67463 14.5374 9.94286 14.8798 10.1061C15.4467 10.3601 16.3317 10.3751 17.2735 8.93637C17.3492 8.81857 17.4112 8.69248 17.4581 8.56079L18.4783 5.73351C18.6739 5.22235 18.7034 4.66345 18.5627 4.13487C18.316 3.27892 17.518 2.27094 15.1349 2.22846C14.9558 2.22972 14.7785 2.26232 14.6109 2.32481C13.9976 2.44332 13.4333 2.73829 12.9885 3.17297C12.5438 3.60764 12.2384 4.16274 12.1107 4.76849C11.9911 5.23299 12.0554 5.72507 12.2905 6.1441Z" fill="white"/>
<path d="M13.463 45.9496C13.6848 45.2485 14.1469 44.4968 14.3817 43.8824L19.0982 30.6531C19.5243 29.4577 20.9551 27.1241 19.4082 26.3627C17.5055 25.3843 15.8086 24.0557 14.4085 22.448C12.7997 20.6666 10.8367 19.1684 11.7107 16.6092C12.3057 14.8671 10.6671 14.0852 9.52184 12.9744C9.03387 12.5012 8.55653 12.0152 8.04596 11.5666C7.59027 11.1647 7.05708 10.8665 6.57649 10.4966C6.10945 10.0992 5.68062 9.65971 5.29563 9.18383C4.02773 7.77064 2.7216 6.2012 2.03115 4.41758C2.00563 4.35181 1.9811 4.28541 1.95773 4.21842L0.418223 1.47789C0.418223 1.47789 -1.00183 -1.0584 1.39145 0.514206L5.83939 5.60362C6.69634 6.58336 7.52888 7.59156 8.41304 8.54755C9.13993 9.33408 10.1753 9.67933 11.1245 10.1196C12.0594 10.5536 12.6724 11.2693 13.421 11.9467C14.4564 12.8812 16.1223 13.1136 16.9618 14.271C17.9866 15.6842 18.3105 17.7356 19.2163 19.2529C19.2163 19.2529 21.1995 22.5753 25.0161 21.2466L44.6264 9.31207C45.5058 8.84835 46.4998 8.641 47.4933 8.71414C47.6119 8.72288 47.7261 8.76193 47.8249 8.82744C47.9024 8.89774 47.9574 8.98909 47.9833 9.08994C48.0092 9.1908 48.0049 9.29685 47.9707 9.39526C47.7171 10.2663 46.1945 11.1168 45.5239 11.659L27.4168 26.2965C27.4168 26.2965 26.3357 26.8351 24.9788 28.7105C23.1057 31.2875 21.6847 34.2865 20.1359 37.059C19.1302 38.8604 18.1308 40.6652 17.138 42.4734C16.376 43.8559 15.5038 46.4686 13.9011 46.9642C13.8155 46.9966 13.723 47.0072 13.6322 46.9952C13.5387 46.9656 13.4586 46.9048 13.4055 46.823C13.3525 46.7412 13.3299 46.6436 13.3417 46.5471C13.3577 46.3439 13.3984 46.1432 13.463 45.9496Z" fill="white"/>
</svg>
