<svg width="47" height="49" viewBox="0 0 47 49" fill="none"  >
<path d="M5.90531 34.7454L7.41852 35.6323C7.6597 35.7135 10.6247 36.7386 12.4359 38.9387C13.2134 39.8821 13.6585 41.6216 14.1297 43.4622C14.7723 45.9723 15.4371 48.5682 16.9043 48.5682C17.0601 48.569 17.2116 48.5163 17.3334 48.4189C17.4553 48.3215 17.5403 48.1853 17.5743 48.0328C18.4073 45.856 16.2967 38.5924 15.101 36.8694C14.5267 36.1138 13.8851 35.4121 13.1841 34.7729C12.089 33.7044 10.9576 32.5989 10.2871 31.22C9.80195 30.2215 8.50244 27.1876 8.88098 26.3782C9.09423 25.9258 9.57101 26.0865 10.9888 26.5701C12.5586 27.1467 14.1791 27.5741 15.8287 27.8468C18.9743 28.3052 22.6484 27.4495 23.5932 26.4318C23.7099 26.3226 23.7847 26.1757 23.8045 26.0169C23.8045 25.432 22.5739 25.3993 21.0165 25.3605C19.5028 25.3535 17.9923 25.2217 16.5001 24.9665C13.4737 24.3952 12.915 23.8265 11.9032 22.7953C11.3393 22.203 10.7324 21.6535 10.0874 21.1512C9.61384 20.7825 9.12216 20.439 8.63188 20.0968C6.14788 18.3575 3.57868 16.5597 3.57868 11.7599C3.60376 8.6512 4.24772 5.57884 5.47277 2.72293C5.8134 2.00289 6.04337 1.23523 6.15487 0.446185C6.15487 0.01625 6.00727 0.00606858 5.9188 0C5.90856 0 5.89693 0 5.88575 0C4.73338 0 1.17243 3.93665 0.420018 11.8062C0.0610374 15.5617 1.22877 24.0334 2.10131 28.8122C2.7648 32.4426 2.12228 34.0479 1.37871 35.9077C0.640324 37.5792 0.206204 39.3696 0.0968889 41.1944C-0.161056 45.0222 0.0968957 47.4763 0.860487 48.4837C0.971551 48.6448 1.12034 48.7761 1.29382 48.8661C1.4673 48.9561 1.66016 49.0021 1.85548 48.9999C2.54876 48.9999 2.70382 47.7695 2.91799 45.5923C3.02433 44.2094 3.22658 42.8357 3.52327 41.481C4.01107 39.3938 5.11143 37.5011 6.6824 36.0469L5.63152 35.4302C5.55302 35.3751 5.49573 35.2946 5.46921 35.2023C5.44269 35.1099 5.44855 35.0112 5.4858 34.9227C5.49729 34.8802 5.51827 34.841 5.54715 34.8079C5.57603 34.7748 5.61205 34.7488 5.65247 34.7317C5.69289 34.7146 5.73666 34.7069 5.78046 34.7092C5.82427 34.7116 5.86696 34.724 5.90531 34.7454Z" fill="white"/>
<path d="M29.4281 26.9762H44.4108C44.706 26.9762 47 26.6223 47 26.1868C47 25.7513 44.706 25.3932 44.4108 25.3932H29.4281V25.369" fill="white"/>
<path d="M28.0346 25.3703V25.3946H26.4669C26.2947 25.4429 26.143 25.5463 26.035 25.6891C25.9269 25.8319 25.8684 26.0062 25.8684 26.1854C25.8684 26.3647 25.9269 26.5389 26.035 26.6817C26.143 26.8244 26.2947 26.9279 26.4669 26.9762H28.0346" fill="white"/>
<path d="M9.51513 11.9555L9.44902 16.0859C9.43295 16.5108 9.55359 16.9295 9.79311 17.2804C10.1986 17.8452 11.046 18.3541 12.7651 17.4699C12.9043 17.3968 13.0348 17.3079 13.1538 17.2048L15.7286 15.0057C16.2039 14.6144 16.5457 14.0842 16.7064 13.489C16.949 12.5134 16.7432 11.0812 14.4622 9.7111C14.2892 9.61221 14.1 9.54501 13.9035 9.51268C13.2437 9.2867 12.5321 9.26087 11.8577 9.43848C11.1834 9.6161 10.5763 9.98923 10.1125 10.5112C9.73718 10.8987 9.52351 11.4153 9.51513 11.9555Z" fill="white"/>
<path d="M28.0346 28.062V24.2846C28.5342 24.2846 29.0133 24.4836 29.3666 24.8378C29.7199 25.192 29.9184 25.6723 29.9184 26.1732C29.9184 26.6742 29.7199 27.1546 29.3666 27.5088C29.0133 27.863 28.5342 28.062 28.0346 28.062Z" fill="white"/>
</svg>
