<svg width="49" height="35" viewBox="0 0 49 35" fill="none"  >
<path d="M36.2153 2.59241L36.1493 6.65842C36.1331 7.07684 36.2536 7.48922 36.493 7.83474C36.898 8.39031 37.7439 8.89168 39.4608 8.02086C39.6 7.94894 39.7303 7.86142 39.8492 7.75991L42.4208 5.59497C42.8956 5.20978 43.237 4.68798 43.3974 4.10204C43.6397 3.14162 43.4337 1.73222 41.1559 0.383036C40.9829 0.286214 40.794 0.220091 40.5979 0.187712C39.939 -0.0346994 39.2283 -0.0600574 38.5548 0.114788C37.8814 0.289634 37.2752 0.656873 36.812 1.17061C36.4371 1.55216 36.2237 2.06068 36.2153 2.59241Z" fill="white"/>
<path d="M28.5919 4.24675C27.9049 4.23662 27.2182 4.28391 26.5393 4.38822L17.5868 5.81281C17.1989 5.87439 16.8078 5.9585 16.4172 5.99894C16.4172 5.99894 11.7584 6.48368 11.7584 10.6833C11.77 12.5156 11.891 14.3456 12.1207 16.1637C12.2723 17.4256 12.9945 19.3644 12.2965 20.5151C11.8184 21.3027 10.8083 21.5629 9.89872 21.7559L4.10526 22.9754C2.86629 23.1612 1.67092 23.5645 0.575587 24.1661C0.244013 24.3752 -0.100575 24.73 0.0273114 25.0976C0.104054 25.2716 0.242008 25.4121 0.415616 25.4932C1.05147 25.7826 1.75088 25.9091 2.44924 25.8608C6.41046 25.899 10.3373 25.604 14.2873 25.3839C16.1186 25.2405 16.8729 23.3748 17.1003 21.8142C17.2232 20.9618 17.2281 20.0969 17.1147 19.2432C17.0371 18.6614 16.346 17.116 17.1147 16.8306C17.5709 16.661 18.6145 17.2699 18.9507 17.5498L21.3122 19.517C22.3134 20.3511 23.4979 21.0748 24.1676 22.2232C24.9042 23.4883 24.8367 24.985 24.8609 26.394C24.9074 29.2022 25.891 33.0797 28.2906 34.8622C28.3819 34.9461 28.5004 34.9949 28.625 35C28.8724 34.983 28.9705 34.6783 28.9923 34.4343C29.136 32.8283 28.8993 31.1354 28.9277 29.5174C28.9551 27.8892 29.0119 26.2588 28.9277 24.6307C28.7659 21.4227 27.9632 18.2707 25.691 15.866C25.0655 15.2038 24.175 14.8698 23.6123 14.1405C23.5233 14.0394 23.4621 13.9174 23.4346 13.7862C23.4287 13.6777 23.4529 13.5696 23.5048 13.4738C23.5566 13.3779 23.634 13.298 23.7286 13.2425C24.0929 13.0476 24.5011 12.9467 24.9153 12.9489C25.9245 12.9122 26.9615 12.6828 27.9623 12.5482C28.0799 12.5259 28.2005 12.5232 28.319 12.5403C29.0886 12.6975 29.3137 14.2866 29.4625 14.8702C29.6677 15.956 30.0479 17.0021 30.5888 17.9688C31.5701 19.4995 33.1647 20.63 34.504 21.8408C35.634 22.8624 37.0357 24.7359 38.7308 24.5425C38.8851 24.5373 39.0329 24.4797 39.1493 24.3794C39.3511 24.1707 39.2539 23.8279 39.1335 23.5664C38.3894 21.9461 37.1538 20.517 35.9805 19.1853C34.3724 17.3605 32.9982 16.1133 33.0359 13.533C33.0689 11.2918 33.9171 8.91883 33.2512 6.70664C32.6531 4.71364 30.4521 4.27616 28.5919 4.24675Z" fill="white"/>
<path d="M48.81 32.1772C48.6741 32.4409 48.4759 32.6683 48.2322 32.8403C47.9885 33.0123 47.7065 33.1239 47.4099 33.1653C47.1134 33.2068 46.8111 33.177 46.5286 33.0786C46.2462 32.9802 45.9919 32.816 45.7873 32.5999L44.9641 31.7451C44.9502 31.7313 44.9269 31.6946 44.9083 31.6716L37.8025 24.4491C37.663 24.3012 38.0453 24.1496 38.1955 24.0117L38.5089 23.7236C38.6582 23.5857 38.994 23.4174 39.133 23.5645L45.757 30.8863C45.7849 30.9134 45.8175 30.9409 45.8361 30.9639C46.1198 31.2534 46.3942 31.5522 46.6825 31.8371C46.81 31.9574 46.98 32.0237 47.1564 32.022C47.3327 32.0203 47.5014 31.9507 47.6265 31.8279C47.6863 31.7709 47.7341 31.7027 47.767 31.6273C47.7999 31.5519 47.8173 31.4708 47.8182 31.3887C47.819 31.3066 47.8034 31.2251 47.772 31.149C47.7407 31.073 47.6944 31.0037 47.6358 30.9455C47.5836 30.89 47.5431 30.8248 47.5166 30.7537C47.4902 30.6825 47.4783 30.6069 47.4818 30.5312C47.4853 30.4555 47.504 30.3812 47.5368 30.3127C47.5696 30.2442 47.6159 30.1828 47.673 30.1321C47.7295 30.0797 47.796 30.0389 47.8686 30.0121C47.9413 29.9853 48.0186 29.9731 48.096 29.9761C48.1735 29.9791 48.2496 29.9973 48.3199 30.0296C48.3902 30.0619 48.4532 30.1077 48.5054 30.1643C48.7599 30.4279 48.9258 30.7628 48.9803 31.1231C49.0349 31.4834 48.9754 31.8515 48.81 32.1772Z" fill="white"/>
</svg>
