<svg width="41" height="47" viewBox="0 0 41 47" fill="none" xmlns="http://www.w3.org/2000/svg">
<path d="M37.7075 40.3444C37.0563 40.3444 36.4197 40.5397 35.8783 40.9053C35.3368 41.271 34.9148 41.7906 34.6656 42.3987C34.4164 43.0067 34.3512 43.6758 34.4783 44.3214C34.6053 44.9669 34.9189 45.5599 35.3793 46.0253C35.8398 46.4906 36.4264 46.8077 37.0651 46.9361C37.7038 47.0645 38.3658 46.9985 38.9675 46.7467C39.5691 46.4948 40.0833 46.0683 40.4451 45.5211C40.8069 44.9739 41 44.3305 41 43.6723C40.9989 42.7901 40.6517 41.9441 40.0345 41.3202C39.4172 40.6964 38.5804 40.3455 37.7075 40.3444Z" fill="white"/>
<path d="M23.6792 5.19664L20.8521 7.83339C20.5673 8.11125 20.2015 8.28903 19.8089 8.34066C19.1644 8.40904 18.2844 8.13203 17.8284 6.36833C17.7928 6.22438 17.7734 6.07665 17.7707 5.92828L17.6963 2.7373C17.6717 2.1568 17.8271 1.58298 18.141 1.09618C18.6673 0.313935 19.79 -0.439095 22.1601 0.306226C22.3369 0.366623 22.5016 0.45826 22.6468 0.576667C23.2141 0.899244 23.6746 1.38376 23.9707 1.9696C24.2668 2.55545 24.3853 3.21664 24.3115 3.87026C24.2758 4.37775 24.0496 4.85212 23.6792 5.19664Z" fill="white"/>
<path d="M16.0591 10.4046C17.0841 10.1366 18.1708 10.2602 19.1112 10.7519C20.6586 11.5815 21.3821 13.3602 21.9174 15.1221C22.4686 17.104 23.1907 19.0332 24.0752 20.8877C24.3909 21.5113 24.7603 22.0731 25.1125 22.6679L26.1585 24.4279C26.6483 25.2517 27.3961 26.1674 27.4534 27.2022C27.4656 27.307 27.4526 27.4133 27.4155 27.5118C27.3821 27.5784 27.3301 27.6335 27.266 27.6703C27.2018 27.7071 27.1283 27.724 27.0547 27.7188C26.6213 27.6428 26.2201 27.4381 25.9023 27.1308C24.6523 25.9213 23.5013 24.6113 22.4605 23.214C21.9387 22.5166 21.4734 21.778 21.0691 21.005C20.8597 20.6182 20.684 20.2135 20.5441 19.7959C20.4497 19.3473 20.3815 18.8934 20.3398 18.4366C20.3025 18.1771 20.216 17.9273 20.0849 17.701C20.0313 17.6162 19.9275 17.4421 19.8297 17.4056C19.2925 17.2068 19.1626 20.0244 19.1256 20.3535C18.9659 21.794 18.855 23.241 18.7837 24.6906C18.7192 26.0025 18.5379 27.4128 19.0674 28.6281C19.25 29.0311 19.4659 29.4179 19.7129 29.7842C19.8152 29.941 20.393 30.5793 20.393 30.7485C23.4645 35.5673 27.0195 40.4805 28.9625 46.087C29.1497 46.6277 28.9977 47.0179 28.4727 46.9987C28.2549 46.9744 28.0463 46.8961 27.8656 46.7708C25.7056 45.4903 24.0828 42.9224 22.5403 40.8278C21.2323 39.0499 19.8725 37.2531 18.7129 35.3431C18.417 34.8567 18.1902 34.29 17.6864 34.0438C17.5571 33.9753 17.412 33.9426 17.2662 33.9495C17.1203 33.9563 16.9789 34.0025 16.8565 34.083C16.7053 34.2174 16.5645 34.3633 16.4352 34.5193C15.5462 35.3931 14.3813 34.4737 13.564 33.9586C13.564 33.9586 3.6292 27.67 3.59988 27.5684C3.57057 27.4667 0.758426 24.9313 5.21187 25.574C6.63347 25.8893 8.03604 26.2865 9.41272 26.7637C10.0257 26.9848 13.2532 29.143 13.3692 28.0124C13.3776 27.8206 13.3403 27.6295 13.2604 27.4553C12.8479 26.3213 12.6282 25.1249 12.6105 23.9169C12.595 22.643 12.6553 21.3695 12.7909 20.1029C12.8511 19.4155 12.93 18.7306 13.0277 18.0486C13.076 17.7072 13.1058 17.3626 13.1495 17.0203C13.2262 16.425 13.4079 15.6436 12.9542 15.1513C12.3877 14.5363 11.3305 14.2192 10.5416 14.0797C10.2029 14.0205 9.8651 13.9366 9.53134 13.8518C8.42072 13.5629 7.3331 13.19 6.27764 12.7366C4.40384 11.9326 2.61291 10.9441 0.930717 9.78539C0.930717 9.78539 -1.61896 7.55185 1.7218 8.29808C6.55231 8.99463 11.0481 11.6522 16.0338 10.4082L16.0591 10.4046Z" fill="white"/>
</svg>
