<svg width="48" height="49" viewBox="0 0 48 49" fill="none"  >
<path d="M47.3251 20.0867C47.268 20.1141 47.2037 20.1236 47.1409 20.114L40.8352 19.0272C40.8111 19.0238 40.7877 19.017 40.7657 19.0068C40.7448 18.9962 40.7239 18.9894 40.7024 18.9794C39.6165 18.5039 38.5318 18.0289 37.4485 17.5546L35.3604 16.6419C34.9744 16.471 34.0658 15.89 33.669 16.1156C33.5163 16.2198 33.3871 16.3536 33.2893 16.5089C32.5514 17.5234 31.7984 18.5268 31.0306 19.5193C30.5472 20.1444 30.06 20.7701 29.5753 21.399C29.0232 21.9561 28.634 22.6489 28.4485 23.4047C28.1871 25.0792 27.9156 26.7532 27.6479 28.4314C27.3239 30.4372 26.1722 32.3025 25.3129 34.1411C25.2917 34.188 25.284 34.2398 25.2907 34.2908C25.2973 34.3418 25.318 34.39 25.3506 34.4301C25.3832 34.4703 25.4266 34.5009 25.4757 34.5187C25.5249 34.5364 25.5779 34.5406 25.6293 34.5307L33.4836 33.017C33.5258 33.0109 33.5687 33.0132 33.61 33.0239C33.8823 33.0631 34.1396 33.1713 34.3562 33.3379C34.5728 33.5046 34.7413 33.7237 34.8453 33.9739C34.9425 34.2262 34.9404 34.505 34.8394 34.7559C34.7384 35.0067 34.5456 35.2115 34.299 35.3303C31.1914 36.4239 28.2123 37.8157 25.0141 38.6552C24.4573 38.8024 23.9004 38.9317 23.3404 39.0479C22.8456 39.2109 22.322 39.2727 21.802 39.2293C20.9078 39.0379 20.4099 37.5685 20.4934 36.7824C20.5807 35.9828 21.6767 35.3235 22.2475 34.8929C22.3048 34.8488 22.3422 34.7842 22.3513 34.7132C22.3604 34.6423 22.3407 34.5706 22.2963 34.5139L22.157 34.3324C22.1322 34.3009 22.1012 34.2746 22.0658 34.2552C22.0304 34.2358 21.9915 34.2236 21.9512 34.2194C21.9108 34.2152 21.8701 34.2191 21.8313 34.2308C21.7925 34.2426 21.7566 34.2619 21.7256 34.2877L17.2256 38.0978C17.197 38.1229 17.1735 38.1531 17.1561 38.1867L11.8595 48.5956C11.8233 48.6617 11.7642 48.7127 11.6927 48.7391C8.45658 49.8427 9.48594 47.0889 9.48594 47.0889C10.151 45.2571 10.8471 43.4322 11.5292 41.6042C11.9918 40.3614 12.4584 39.1187 12.9178 37.876C13.5265 36.2083 14.4869 35.2483 15.6841 33.9565C16.265 33.3244 16.8475 32.6933 17.4314 32.0633C17.7725 31.6942 18.1137 31.3288 18.4548 30.9597C18.594 30.8131 19.1888 29.9792 19.3659 29.9792C19.4883 29.8548 19.599 29.7198 19.6969 29.576C20.0048 28.8751 20.1859 28.1271 20.2326 27.3652C20.3592 26.709 20.4902 26.0529 20.6124 25.3999C20.8942 23.95 21.1774 22.5025 21.4618 21.0572C21.601 20.3464 21.7401 19.6355 21.8755 18.9247C21.902 18.5901 21.9687 18.2597 22.0742 17.9405C22.1374 17.8007 22.2341 17.7081 22.3696 17.7118L23.6985 17.7597C23.737 17.762 23.7758 17.7568 23.8122 17.7442C23.8486 17.7316 23.8819 17.712 23.9104 17.6865C23.939 17.661 23.9622 17.6302 23.9784 17.5958C23.9946 17.5614 24.0037 17.5242 24.005 17.4863L24.022 17.1955C24.0223 17.1579 24.015 17.1206 24.0004 17.0858C23.9857 17.051 23.964 17.0195 23.9367 16.993C23.9094 16.9666 23.8771 16.9458 23.8415 16.9319C23.8059 16.918 23.768 16.9113 23.7297 16.9121L21.7914 16.9084C21.7402 16.9087 21.69 16.9218 21.6453 16.9463C21.0922 17.2471 20.5351 17.5478 19.9814 17.8485C18.6386 18.5801 17.2978 19.3089 15.9588 20.0351L14.3719 20.8963C13.5682 21.2757 12.7124 21.5382 11.8317 21.6755C11.066 21.8532 10.3004 22.0271 9.53785 22.2048L8.51543 22.441C8.42568 21.7277 8.1538 21.0482 7.72505 20.4657C9.03367 20.0456 10.3383 19.6287 11.6482 19.2118C12.3443 18.9862 13.0537 18.7644 13.7536 18.5351C14.7957 18.1317 15.7667 17.5702 16.6315 16.8711C18.3189 15.6612 20.008 14.4526 21.6984 13.2455C21.7054 13.2387 21.7159 13.235 21.7229 13.2281C22.5923 12.736 23.4612 12.2429 24.3294 11.7487C24.5039 11.6404 24.6924 11.5554 24.8896 11.4958C25.173 11.444 25.4627 11.4348 25.7489 11.4685C26.3158 11.4923 26.8828 11.4294 27.4301 11.2821C28.2367 10.9651 29.0873 10.7682 29.9532 10.698C30.548 10.7185 31.1467 10.7185 31.7453 10.7185C31.8007 10.7189 31.855 10.7342 31.9023 10.7626L39.8122 15.5806C39.8325 15.5915 39.8534 15.6008 39.8752 15.6086L47.3575 18.038C47.4079 18.0556 47.4532 18.0848 47.4898 18.1232C48.5712 19.3622 47.6383 19.9394 47.3251 20.0867Z" fill="white"/>
<path d="M31.0061 4.86905L28.5772 8.43936C28.3357 8.81202 27.9786 9.0985 27.5585 9.25644C26.8624 9.49877 25.819 9.43104 24.8508 7.6577C24.7731 7.51262 24.7126 7.35915 24.671 7.20039L23.7472 3.79536C23.5678 3.17904 23.5882 2.52319 23.8059 1.91887C24.1817 0.941484 25.2236 -0.160182 28.0389 0.0193898C28.25 0.0380717 28.456 0.0931774 28.6476 0.18218C29.3594 0.380044 29.9959 0.779705 30.4774 1.33112C30.9589 1.88254 31.264 2.56121 31.3546 3.28213C31.4484 3.8354 31.3239 4.40298 31.0061 4.86905Z" fill="white"/>
<path d="M3.34996 19.5094C2.68736 19.5093 2.03964 19.7021 1.48865 20.0635C0.93766 20.4249 0.50792 20.9386 0.254268 21.5396C0.000616729 22.1407 -0.0655629 22.8021 0.0636267 23.4402C0.192816 24.0784 0.511584 24.6646 0.980067 25.1247C1.44855 25.5848 2.04568 25.8981 2.69553 26.0251C3.34539 26.152 4.01882 26.0869 4.631 25.838C5.24317 25.589 5.76637 25.1674 6.1345 24.6264C6.50263 24.0855 6.69932 23.4495 6.69932 22.7989C6.69832 21.9269 6.34496 21.0908 5.71707 20.4742C5.08917 19.8575 4.23802 19.5106 3.34996 19.5094Z" fill="white"/>
</svg>
