<svg width="28" height="49" viewBox="0 0 28 49" fill="none"  >
<path d="M12.2887 5.33501L15.1369 8.71673C15.4222 9.07086 15.8164 9.32604 16.2613 9.44463C16.9943 9.62125 18.0538 9.44837 18.8568 7.55126C18.9209 7.39626 18.9665 7.23473 18.9927 7.06956L19.5802 3.52037C19.6995 2.87686 19.6103 2.21315 19.3251 1.62153C18.8401 0.66669 17.6633 -0.347782 14.8103 0.115893C14.5969 0.155673 14.3925 0.232138 14.2066 0.341841C13.663 0.643346 11.9411 1.26688 11.7675 3.7586C11.7292 4.32982 11.9156 4.89366 12.2887 5.33501Z" fill="white"/>
<path d="M13.8675 18.2132C13.8675 18.2132 11.7141 14.7623 14.3644 12.7324C14.3644 12.7324 17.4296 10.7701 19.749 11.381C21.0814 11.443 22.8533 12.0198 24.127 11.4634C25.3058 10.9508 24.1933 9.19402 23.776 8.52763C23.0097 7.30157 21.6302 5.81124 22.3402 4.28694C22.4966 3.95142 23.0236 3.84105 23.437 3.89557C24.0784 3.98038 24.4312 4.53625 24.6844 5.02509C25.291 6.19849 26.8207 9.49404 27.4278 10.667C27.8045 11.3958 28.1879 12.2016 27.8984 12.957C27.4988 13.9989 26.0649 14.4841 24.9591 14.924C23.9458 15.3271 21.9182 15.2348 21.4981 16.3155C21.4183 16.5937 21.4216 16.8886 21.5077 17.1651C22.0212 19.5622 22.9678 21.8865 23.3287 24.3074C23.6254 26.293 23.3373 28.2759 23.4766 30.2587C23.7188 33.7021 24.1485 37.1347 24.415 40.5766C24.5485 42.298 24.6449 44.0223 24.6535 45.7493C24.6563 46.1967 24.6859 50.0207 23.5662 48.7383C20.79 45.5578 20.2106 40.7522 19.6618 36.978C19.4233 35.3433 18.5083 37.1976 18.2789 37.7983C17.648 39.4452 17.1917 40.2969 15.783 41.3273C14.5113 42.2593 13.2429 43.1913 11.9549 44.1015C11.2625 44.5908 6.04622 48.7614 5.18026 47.9194C5.07103 47.7887 4.9974 47.6332 4.96622 47.4672C4.93504 47.3013 4.94732 47.1304 5.00192 46.9703C5.3834 45.1995 7.28365 43.9981 8.68654 42.7296C10.9468 40.6834 13.9076 39.1203 14.5227 36.2278C15.0368 33.8116 15.0377 31.1773 15.2671 28.7224C15.4898 26.3388 16.34 22.7976 15.1097 20.5207L13.8675 18.2132Z" fill="white"/>
<path d="M24.1842 4.90995C24.1746 4.74254 24.1256 4.57959 24.0411 4.43371C23.9565 4.28783 23.8386 4.16303 23.6965 4.06896C23.5545 3.97489 23.3922 3.9142 23.2222 3.89148C23.0522 3.86875 22.8791 3.88457 22.7165 3.9379C22.5119 4.00454 22.3131 4.0694 22.1276 4.11879C21.4097 4.31048 20.6926 4.50297 19.976 4.69652C18.5423 5.08237 17.1082 5.46825 15.6738 5.8538C12.8604 6.60499 10.0403 7.32903 7.20736 8.0052C6.25365 8.2323 5.29995 8.45705 4.34625 8.67918C3.22135 8.94154 1.95912 9.1041 0.96441 9.72109C-0.268252 10.4853 -0.203872 12.2753 0.510929 13.3597C0.631827 13.5627 0.802385 13.7332 1.00732 13.856C1.11055 13.9159 1.22784 13.9488 1.34788 13.9515C1.46791 13.9542 1.58664 13.9265 1.69257 13.8712C1.86906 13.7431 1.99366 13.5585 2.04447 13.3495C2.29049 12.5722 2.22118 11.7322 1.85088 11.0035C1.84077 10.991 1.83396 10.9764 1.83109 10.9607C1.82822 10.9451 1.82937 10.9288 1.83442 10.9136C1.83947 10.8985 1.84827 10.8848 1.86005 10.8738C1.87182 10.8628 1.8862 10.8549 1.9019 10.8506C2.84273 10.3625 3.85336 10.0154 4.89986 9.82121C10.5773 8.43205 16.2065 6.86165 21.8834 5.47016C22.5291 5.31172 23.1752 5.15646 23.8204 4.99756C23.8399 4.9929 24.1837 4.92021 24.1833 4.90995H24.1842Z" fill="white"/>
</svg>
