<svg width="52" height="44" viewBox="0 0 52 44" fill="none"  >
<path d="M24.367 30.0495L24.7323 26.333C24.778 25.9513 24.7001 25.5648 24.51 25.2307C24.1839 24.692 23.4589 24.171 21.8422 24.8394C21.7103 24.895 21.5853 24.9657 21.4695 25.0499L18.9839 26.8405C18.5258 27.1576 18.1779 27.6099 17.9887 28.1343C17.6975 28.9954 17.7776 30.3011 19.7345 31.7051C19.884 31.807 20.0504 31.8814 20.226 31.9251C20.8046 32.1777 21.4448 32.254 22.0664 32.1439C22.688 32.0339 23.2633 31.7427 23.7203 31.3067C24.0882 30.9856 24.3195 30.5358 24.367 30.0495Z" fill="white"/>
<path d="M51.323 1.29089C50.6586 1.63839 49.7855 1.85061 49.1756 2.12674L36.2649 8.30661C35.0978 8.86634 32.3927 9.52728 32.949 11.1831C33.6015 13.2504 33.8546 15.4234 33.6944 17.5855C33.5589 20.0217 33.8808 22.5073 31.4115 23.7303C29.73 24.5629 30.3362 26.2994 30.3534 27.9203C30.3609 28.6111 30.3534 29.3028 30.3921 29.9922C30.428 30.6088 30.5934 31.205 30.6716 31.816C30.7187 32.4376 30.7081 33.0622 30.6399 33.6818C30.5263 35.6086 30.3273 37.6758 29.5339 39.4576C29.5047 39.5238 29.4736 39.5895 29.4407 39.6542L28.562 42.7354C28.562 42.7354 27.7476 45.5807 27.1722 42.7354L27.6656 35.8787C27.7588 34.5582 27.893 33.2349 27.9512 31.9139C27.9978 30.8267 27.5086 29.8365 27.1484 28.8397C26.7934 27.8602 26.8717 26.903 26.8246 25.8796C26.7589 24.464 25.7367 23.1048 25.972 21.6691C26.2595 19.9153 27.5095 18.2031 27.9549 16.4595C27.9549 16.4595 28.9333 12.6422 25.2499 10.8725L2.6347 5.46629C1.67209 5.17257 0.812459 4.61161 0.155616 3.84833C0.0773742 3.7571 0.0239363 3.64718 0.000464873 3.52925C-0.00390645 3.4233 0.0226276 3.31836 0.0768175 3.22725C0.131007 3.13614 0.210509 3.06276 0.305634 3.01612C1.11538 2.56927 2.81595 3.04321 3.68627 3.13136L27.1769 5.51116C27.1769 5.51116 28.3374 5.89504 30.6595 5.51116C33.8561 4.98968 37.0341 3.84038 40.1389 2.94575C42.1578 2.36363 44.1739 1.77558 46.1873 1.18134C47.7285 0.727493 50.236 -0.535278 51.7381 0.253471C51.8227 0.291008 51.8966 0.349133 51.9529 0.422691C51.9981 0.511014 52.0113 0.612462 51.9902 0.709433C51.9691 0.806405 51.9151 0.892955 51.8374 0.954496C51.6795 1.08614 51.5069 1.19909 51.323 1.29089Z" fill="white"/>
</svg>
