<svg width="27" height="49" viewBox="0 0 27 49" fill="none"  >
<path d="M14.209 10.8894L15.2379 14.4457C15.3358 14.8139 15.549 15.1407 15.8461 15.3779C16.3418 15.7545 17.2002 15.9636 18.4392 14.7544C18.5392 14.6549 18.6275 14.5441 18.7022 14.4243L20.3281 11.8596C20.6324 11.3987 20.7858 10.8539 20.7671 10.3014C20.7179 9.40184 20.1655 8.22953 17.8535 7.65884C17.6788 7.62009 17.4987 7.61295 17.3215 7.6376C16.6975 7.61844 16.0818 7.78438 15.5514 8.11483C15.021 8.44528 14.5996 8.92552 14.3399 9.49525C14.1211 9.92631 14.0743 10.4249 14.209 10.8894Z" fill="white"/>
<path d="M6.74657 29.1188C6.73364 29.2824 6.72697 29.4494 6.7278 29.6209C6.73322 31.4389 7.17971 33.2894 7.59535 35.0709C8.25988 37.9198 7.97056 38.5436 6.47308 40.1866C5.86234 40.9305 5.18989 41.5942 4.55163 42.2941C4.10805 42.7803 3.3168 43.34 3.04874 44.0445C2.39088 45.778 4.2994 48.4282 5.51631 47.4542C6.46307 46.6952 7.32021 45.4877 8.18443 44.5614C9.13535 43.5656 10.0339 42.5205 10.8763 41.4308C12.2829 39.5723 11.3945 37.4077 10.9026 34.9124C10.8826 34.7979 10.8247 34.6935 10.7383 34.6161L9.97415 33.9885C9.8952 33.9144 9.83956 33.8186 9.81409 33.7132C9.78861 33.6077 9.79438 33.4971 9.83073 33.3949L9.91662 33.1777C9.92667 33.1378 9.94692 33.1011 9.97536 33.0715C10.0038 33.0418 10.0395 33.0202 10.0788 33.0085C10.1182 32.9969 10.1598 32.9958 10.1998 33.0053C10.2397 33.0148 10.2764 33.0344 10.3064 33.0625L12.7244 35.029C13.5077 35.6415 16.2379 37.111 16.2642 38.3821C16.3151 40.8465 16.3893 43.3148 16.4447 45.78C16.4464 45.8433 16.458 45.9062 16.4789 45.9659C16.8024 46.8801 17.3665 47.883 18.1256 47.9876C19.9599 48.2387 19.6127 45.0664 19.6519 43.3853C19.7061 41.0276 19.8032 38.6305 19.488 36.2256C19.0832 33.1428 15.0927 33.1522 13.9671 31.1736C13.5473 30.4292 15.1119 27.5192 15.3466 27.0021C15.8269 25.9444 16.2938 24.0487 17.3023 23.7746C18.1848 23.5345 19.4001 24.8687 20.2051 25.4858C21.9794 26.8453 23.7521 28.2084 25.5234 29.5752C25.5523 29.6002 25.5868 29.618 25.624 29.6266C25.6612 29.6353 25.6999 29.6347 25.7368 29.625C26.1954 29.4886 27.8434 28.8138 26.451 26.4511C26.4245 26.405 26.3899 26.3642 26.3488 26.3306L15.1761 17.4041C15.1447 17.3784 15.1082 17.3596 15.069 17.3489L11.8289 16.5271C9.68982 15.9832 7.68583 16.469 6.15917 13.7352C5.1414 11.9138 4.12307 10.0933 3.10418 8.27357C3.06358 8.19292 2.99512 8.12973 2.91158 8.09603C1.90812 7.75588 0.852965 8.57383 1.23859 10.0926C1.45829 10.9553 2.21245 12.0076 2.59849 12.7666L5.50047 18.474C5.5215 18.5216 5.55221 18.5641 5.59062 18.599C5.62903 18.634 5.67429 18.6605 5.72351 18.6769L10.5595 19.7496C10.5997 19.7606 10.6371 19.7802 10.6691 19.807L11.2256 20.2937C11.3887 20.4367 11.633 20.5629 11.6705 20.8595C11.7155 21.2185 11.462 21.7826 11.1581 21.501L10.4569 20.8659C10.4287 20.838 10.3938 20.8177 10.3557 20.807C10.3175 20.7964 10.2773 20.7958 10.2388 20.805C10.2002 20.8142 10.1647 20.8331 10.1354 20.86C10.1062 20.8868 10.0843 20.9207 10.0717 20.9584L8.4379 24.5264C7.80756 25.9076 6.8904 27.3126 6.74657 29.1188Z" fill="white"/>
<path d="M3.04428 0C2.44237 0 1.85398 0.179213 1.35351 0.514822C0.853041 0.850432 0.462984 1.32754 0.232643 1.88564C0.00230254 2.44374 -0.0579751 3.05766 0.0594517 3.65013C0.176879 4.24261 0.46673 4.78686 0.892345 5.21401C1.31796 5.64116 1.86023 5.93213 2.45057 6.04998C3.04092 6.16783 3.65282 6.1073 4.20892 5.87613C4.76501 5.64496 5.2403 5.25356 5.57471 4.75128C5.90911 4.24901 6.0876 3.65849 6.0876 3.05441C6.0865 2.2447 5.76551 1.46838 5.19501 0.895832C4.62452 0.323282 3.85108 0.00110692 3.04428 0Z" fill="white"/>
</svg>
