<svg width="24" height="47" viewBox="0 0 24 47" fill="none"  >
<path d="M0.157651 27.882C0.0925787 28.2046 0.048168 28.5308 0.0246945 28.8588C-0.0917578 29.9593 0.206316 31.0636 0.862585 31.9629C2.14867 33.5642 4.53312 33.6839 6.60959 33.6678L10.8799 33.632C11.2395 33.6288 11.7023 33.7028 11.7745 34.0483C11.8521 34.4221 11.3665 34.6715 10.9782 34.658C10.599 34.5725 10.2036 34.586 9.83143 34.6971C9.5992 34.8538 9.42212 35.0772 9.3247 35.3369C8.20284 37.615 7.29748 39.9899 6.62007 42.4314C6.36164 43.2033 6.25208 44.0157 6.29705 44.827C6.32391 45.2324 6.45206 45.6251 6.67015 45.9704C6.88825 46.3157 7.18959 46.6028 7.54753 46.8065C8.50376 47.2732 9.71078 46.8429 10.4422 46.0793C11.1175 45.2627 11.6084 44.3145 11.8823 43.2975L14.9753 34.3943C15.3703 33.4343 15.5994 32.4162 15.6533 31.3822C15.6749 30.8645 15.5664 30.3495 15.3374 29.8827C15.1084 29.4158 14.7659 29.0115 14.3402 28.7054C13.5722 28.228 12.6042 28.2235 11.6964 28.2343C10.0101 28.2545 7.09483 28.2854 5.40852 28.3056C5.01333 28.3101 4.51938 28.2513 4.38826 27.8852C4.21785 27.4082 4.86385 27.0372 5.37874 27.0327C5.89363 27.0282 7.72247 27.126 8.08248 26.7635C8.229 26.5899 8.33194 26.3848 8.38275 26.1649L10.9516 18.011C10.948 18.0218 15.5062 18.1268 15.9196 18.1358C18.0089 18.1806 20.9247 19.1081 22.7604 17.7791C24.131 16.7857 24.6336 14.7639 22.8605 13.8926C22.2289 13.6413 21.5466 13.5369 20.8671 13.5875L7.27113 13.5834C6.77731 13.5548 6.28226 13.6129 5.80918 13.7549C4.63822 14.1829 4.11879 15.4953 3.73776 16.6632L0.785846 25.6678C0.531642 26.393 0.321869 27.1323 0.157651 27.882Z" fill="#FCFDFF"/>
<path d="M6.3528 4.42899L7.91213 9.00564C8.06238 9.47977 8.36354 9.89394 8.77144 10.1874C9.4508 10.6509 10.6049 10.881 12.1884 9.23841C12.3162 9.10363 12.4277 8.95471 12.5205 8.79466L14.5459 5.36995C14.9265 4.75394 15.1021 4.03669 15.0484 3.31807C14.9351 2.14881 14.1346 0.652045 11.0279 0.0306203C10.7934 -0.0102068 10.5534 -0.0102068 10.3188 0.0306203C9.6413 0.131574 7.62842 0.11046 6.45107 2.60693C6.1835 3.17991 6.14833 3.83147 6.3528 4.42899Z" fill="#FCFDFF"/>
</svg>
