<svg width="30" height="51" viewBox="0 0 30 51" fill="none"  >
<path d="M13.0748 3.32243L14.0386 7.0817C14.1296 7.47061 14.3418 7.8197 14.6441 8.07765C15.1489 8.48703 16.0372 8.73534 17.3643 7.50388C17.4716 7.40263 17.5669 7.2892 17.6486 7.16592L19.4196 4.52745C19.7507 4.05388 19.9272 3.48781 19.9244 2.90812C19.9007 1.96336 19.3607 0.718641 16.9695 0.0481763C16.7886 0.00235664 16.601 -0.0109157 16.4155 0.00894374C15.8813 0.0531457 14.3107 -0.0737 13.2531 1.86457C13.0121 2.3099 12.9483 2.83127 13.0748 3.32243Z" fill="#FCFDFF"/>
<path d="M5.77872 32.8965C4.62725 37.7272 2.94125 42.4117 0.752457 46.8617C0.729897 46.9059 0.711894 46.9522 0.698821 47.0001L0.29221 48.4787C0.278231 48.5278 0.269494 48.5784 0.266341 48.6294C0.231976 49.1466 0.13831 51.9487 2.33236 49.7584C2.38579 49.7048 2.43129 49.6438 2.4674 49.5771L9.97737 35.7043C9.98982 35.6811 10.0035 35.6587 10.0183 35.637C10.166 35.4226 11.0239 34.082 9.99784 33.3451L8.78121 31.9025C8.65594 31.7539 8.59201 31.5623 8.60282 31.3674C8.61364 31.1725 8.69831 30.9893 8.83924 30.8558L8.96399 30.738C9.03885 30.6671 9.12735 30.6126 9.22388 30.5775C9.3204 30.5424 9.42293 30.5277 9.52531 30.5341C9.62769 30.5406 9.7277 30.5681 9.81916 30.615C9.91062 30.6619 9.99163 30.7273 10.0572 30.8069L12.2942 33.5276C13.1942 34.6203 14.7448 35.6758 15.0937 37.1217C15.2451 37.7488 15.1346 38.4555 15.2422 39.1045C15.4529 40.1026 15.773 41.0738 16.1967 42.0003L19.5157 50.2273C19.5614 50.3423 19.6349 50.444 19.7293 50.5231C20.0231 50.7623 20.6903 51.1808 21.1501 50.5087C21.246 50.3618 21.2863 50.1849 21.2635 50.0104L19.6876 36.2987C19.6851 36.278 19.6827 36.2604 19.6786 36.2397C19.2728 34.2006 17.8662 32.6197 16.733 30.9557C16.1676 30.125 15.6537 29.2578 15.1215 28.4048C14.8613 27.988 14.5872 27.2728 14.2129 26.9481C14.2129 26.9481 13.7592 26.5553 13.7351 25.2916C13.734 25.2234 13.7417 25.1554 13.7579 25.0892L15.2717 18.8002C15.2717 18.8002 15.6807 18.1441 14.793 17.5918L13.4094 16.574C13.2464 16.4578 13.1357 16.281 13.1018 16.0824C13.0679 15.8839 13.1135 15.6798 13.2286 15.5152C13.3436 15.3506 13.5187 15.2388 13.7154 15.2046C13.912 15.1703 14.1141 15.2164 14.2771 15.3326L18.4058 18.183C18.4367 18.2046 18.4693 18.2235 18.5032 18.2396C19.7191 18.8083 21.0985 18.9098 22.3832 18.525L28.7653 16.4438C28.8893 16.4032 29.0008 16.331 29.0889 16.234C29.624 15.6457 31.3239 13.5603 27.9982 14.0858C27.8746 14.103 27.7572 14.1511 27.6567 14.2257C27.5562 14.3003 27.4757 14.399 27.4226 14.513C27.2831 14.8348 26.9256 15.288 26.0067 15.4173L22.7608 15.9543C22.7029 15.9633 22.6465 15.9796 22.5927 16.003C22.3841 16.0956 21.6554 16.3302 20.3704 15.8535C20.277 15.8182 20.1914 15.7647 20.1184 15.6961L13.4245 9.44626C12.7376 8.80512 11.7165 8.79609 10.8807 9.09559C10.6495 9.1655 10.4378 9.28917 10.2625 9.45665C10.1428 9.59707 10.0444 9.7546 9.97048 9.92421L9.52611 10.819C9.18451 11.5068 9.16936 12.2992 9.07895 13.0552L8.15566 20.8C8.01984 21.9393 7.35213 22.7564 6.95121 23.7929C6.46129 25.0835 6.30082 26.4778 6.48447 27.8475C6.48447 27.8475 7.15002 30.5566 5.86501 32.6833C5.82529 32.7493 5.79618 32.8213 5.77872 32.8965Z" fill="#FCFDFF"/>
<path d="M28.42 11.5253L28.4196 11.5252C28.0308 11.4945 27.6909 11.7879 27.6605 12.1805L24.7124 50.2313C24.682 50.6239 24.9725 50.967 25.3613 50.9978L25.3617 50.9978C25.7505 51.0285 26.0904 50.7351 26.1208 50.3425L29.0689 12.2918C29.0993 11.8992 28.8088 11.556 28.42 11.5253Z" fill="#FCFDFF"/>
<path d="M2.43508 11.6159L6.96603 12.4393C7.10018 12.4622 7.22026 12.5367 7.30113 12.6471C7.382 12.7576 7.41729 12.8954 7.39961 13.0316L6.36006 20.6038C6.35761 20.6211 6.35516 20.6356 6.35107 20.653C6.19611 21.2524 5.88305 21.7981 5.44516 22.232C5.00727 22.6659 4.46099 22.9716 3.86456 23.1167C3.79245 23.1341 3.71761 23.1369 3.64442 23.125L0.449764 22.6189C0.38022 22.6086 0.313407 22.5844 0.2533 22.5477C0.193193 22.5109 0.140978 22.4623 0.0997846 22.4047C0.0585918 22.3472 0.0291719 22.282 0.0133885 22.2128C-0.00239491 22.1437 -0.00421968 22.072 0.00789508 22.0021L1.81372 12.0427C1.8402 11.903 1.92044 11.7795 2.03696 11.6995C2.15347 11.6195 2.29664 11.5894 2.43508 11.6159Z" fill="#FCFDFF"/>
<path d="M7.70154 11.0959L2.27636 10.0916C2.57706 8.43378 4.03552 7.31508 5.53245 7.59227C7.02938 7.86946 8.00347 9.43768 7.70154 11.0959Z" fill="#FCFDFF"/>
</svg>
