<svg width="44" height="48" viewBox="0 0 44 48" fill="none"  >
<path d="M16.423 3.13145L17.3929 6.54005C17.4852 6.89308 17.6864 7.2065 17.9668 7.43389C18.434 7.79476 19.2441 7.99728 20.4126 6.83639C20.507 6.74091 20.5904 6.63476 20.661 6.51989L22.1939 4.06141C22.481 3.61957 22.6257 3.09731 22.608 2.56755C22.5616 1.70731 22.0404 0.581203 19.8598 0.0340927C19.695 -0.00290391 19.5251 -0.00982955 19.358 0.0135108C18.7695 -0.00454928 18.1888 0.154761 17.6886 0.471562C17.1883 0.788363 16.7908 1.24864 16.5457 1.79468C16.3393 2.20805 16.2954 2.68618 16.423 3.13145Z" fill="white"/>
<path d="M43.7641 21.7813C43.5574 20.9813 42.1953 19.9576 41.6176 19.4415C40.6309 18.5425 39.4459 16.3963 38.4591 15.4973C37.1983 14.3489 36.2157 13.9359 35.1488 12.581C34.9675 12.3487 34.0355 10.9165 33.6138 10.2842C33.5915 10.2519 33.5613 10.2259 33.5262 10.2091C33.4911 10.1922 33.4523 10.185 33.4136 10.1881C33.3749 10.1911 33.3376 10.2043 33.3055 10.2265C33.2733 10.2486 33.2473 10.2788 33.2301 10.3143L31.8216 13.2306C31.2397 14.1554 30.8475 15.1359 29.7638 15.5101C27.8788 16.1639 25.745 16.7187 24.2016 18.0564C22.4178 19.6048 20.6973 21.2996 18.6268 22.4609C18.492 22.543 18.3492 22.6107 18.2008 22.663C17.9767 22.7239 17.7454 22.7529 17.5135 22.7491C13.8869 22.8609 10.2561 22.9986 6.6295 23.1233V35.9063L27.1113 37.9666L35.0603 44.2894H37.7507V42.0916C37.4133 41.5798 37.1645 41.1969 36.8314 40.6851C34.5627 39.756 32.6819 37.1236 30.2529 35.5451C29.5536 35.0786 28.7925 34.7165 27.9926 34.4698C27.3095 34.2719 26.2215 34.3407 25.6396 33.8977C25.5365 33.8094 25.4553 33.6976 25.4025 33.5713C25.3498 33.445 25.327 33.3078 25.3359 33.1708C25.3908 31.0073 27.8914 28.9944 29.1186 27.4159C29.4095 27.0374 32.4036 22.6373 32.762 22.7104C33.9006 22.9599 35.0265 23.4115 36.1398 23.7513C36.8019 23.9577 37.4808 24.1299 38.1302 24.3664C38.729 24.5901 39.1296 25.0932 39.6736 25.4029C40.1795 25.6706 40.7481 25.7906 41.3166 25.7496C41.8851 25.7086 42.4314 25.5082 42.8954 25.1706C44.2212 24.1899 44.1309 23.1792 43.7641 21.7813ZM35.6506 17.0672C35.4951 17.0668 35.3432 17.0194 35.2141 16.9309C35.085 16.8424 34.9845 16.7168 34.9253 16.5701C34.8662 16.4234 34.851 16.2619 34.8818 16.1064C34.9126 15.9509 34.9878 15.8081 35.0981 15.6962C35.2084 15.5843 35.3487 15.5083 35.5014 15.4778C35.654 15.4473 35.8121 15.4637 35.9557 15.5248C36.0992 15.586 36.2218 15.689 36.3078 15.8212C36.3939 15.9533 36.4396 16.1086 36.4392 16.2673C36.4394 16.3728 36.4191 16.4771 36.3795 16.5745C36.3399 16.672 36.2818 16.7606 36.2085 16.8349C36.1352 16.9093 36.0481 16.9681 35.9523 17.008C35.8566 17.0479 35.754 17.068 35.6506 17.0672Z" fill="white"/>
<path d="M24.2771 39.3422H19.8311L25.2204 48H26.7027L27.646 46.7634V44.9768L24.2771 39.3422Z" fill="white"/>
<path d="M16.6304 7.82616C16.6436 7.84455 16.6547 7.86418 16.6638 7.88497C17.5128 9.83181 18.4977 11.7141 19.611 13.517C19.9418 14.1559 20.4276 14.6974 21.022 15.0903C21.5682 15.3427 22.1598 15.4768 22.7594 15.4843L28.1406 15.9274C28.2144 15.9328 28.2845 15.9628 28.3399 16.0127C28.3954 16.0626 28.4332 16.1298 28.4476 16.2038C28.462 16.2778 28.4521 16.3545 28.4195 16.4222C28.3869 16.49 28.3334 16.5448 28.2671 16.5785L24.1067 18.7471C23.8268 18.9073 23.5296 19.0338 23.2211 19.1239C22.7719 19.2114 22.3116 19.2232 21.8586 19.1588C20.6981 19.059 19.4579 18.9275 18.5605 18.1696C18.1802 17.8192 17.8492 17.4171 17.5767 16.9744C16.507 15.3901 15.4941 13.768 14.538 12.108C14.3309 11.7489 14.0847 11.3544 13.687 11.2585C13.4455 11.2199 13.1983 11.2466 12.9701 11.3362C11.518 11.7911 10.2095 12.6293 9.17697 13.7657C9.14224 13.8054 9.11711 13.8529 9.10359 13.9043C9.09007 13.9557 9.08853 14.0095 9.0991 14.0616C9.10968 14.1137 9.13206 14.1627 9.16448 14.2044C9.19689 14.2462 9.23843 14.2795 9.28577 14.3019C10.6299 14.9686 11.9041 15.773 13.0886 16.7028C13.4599 16.9578 13.7707 17.2942 13.9982 17.6874C14.1802 18.1376 14.262 18.6235 14.2378 19.1098L14.3529 24.4653C14.354 24.5112 14.3461 24.5568 14.3296 24.5995C14.3132 24.6423 14.2885 24.6813 14.2571 24.7142C14.2257 24.7471 14.1881 24.773 14.1466 24.7908C14.1051 24.8087 14.0605 24.818 14.0155 24.8179H10.4606C10.3726 24.818 10.288 24.783 10.225 24.7203C10.162 24.6576 10.1255 24.5721 10.1233 24.4823L9.99042 19.7029C9.99042 19.6599 8.28213 19.3351 8.11303 19.2926C7.52265 19.1446 6.94029 18.9748 6.36805 18.7692C5.16309 18.3356 4.03067 17.7156 3.0105 16.9309C1.96765 16.1283 0.864495 15.1075 0.278759 13.9083C0.19531 13.7392 0.133251 13.5601 0.094061 13.3751C-0.0208609 12.7246 -0.0305447 12.0592 0.0653885 11.4055C0.134968 10.8033 0.130752 10.2012 0.258104 9.60334C0.39567 8.86669 0.754 8.19166 1.28366 7.67159C1.8645 7.19173 2.55433 6.86874 3.28967 6.73196C5.3051 6.29775 7.36519 6.11772 9.42366 6.196C11.2036 6.20761 13.1515 5.95629 14.818 6.06683C15.0062 6.08217 15.1889 6.13956 15.353 6.23485C15.5171 6.33013 15.6586 6.46108 15.7677 6.61834L16.6304 7.82616Z" fill="white"/>
</svg>
