<svg width="53" height="35" viewBox="0 0 53 35" fill="none"  >
<path d="M34.9332 2.53013L34.869 6.49952C34.8537 6.90777 34.9699 7.31012 35.2005 7.64739C35.5912 8.18971 36.4076 8.6791 38.0637 7.82951C38.1979 7.75917 38.3236 7.67368 38.4383 7.57472L40.9189 5.46152C41.3766 5.08534 41.7058 4.57598 41.8609 4.00414C42.0941 3.06663 41.8959 1.69041 39.6988 0.373861C39.532 0.279007 39.3497 0.214467 39.1605 0.183225C38.5248 -0.0338575 37.8392 -0.0586297 37.1896 0.112041C36.54 0.282711 35.9551 0.64123 35.5082 1.1427C35.1468 1.51505 34.9411 2.01129 34.9332 2.53013Z" fill="white"/>
<path d="M37.7636 23.799C37.6505 23.8952 37.5083 23.9505 37.3599 23.956C36.875 24.0026 36.3875 23.8976 35.9648 23.6555C34.9376 23.1217 34.045 22.0182 33.2824 21.318C31.9905 20.1382 30.4564 19.0352 29.5055 17.541C28.9847 16.596 28.6182 15.5738 28.4199 14.5132C28.2764 13.9484 28.0611 12.3964 27.3165 12.2394C27.2031 12.2242 27.088 12.2273 26.9755 12.2484C26.0111 12.3784 25.0063 12.6027 24.0329 12.6386C23.6338 12.6385 23.2409 12.737 22.8891 12.9253C22.7986 12.98 22.7247 13.058 22.6749 13.1513C22.6252 13.2445 22.6015 13.3495 22.6065 13.455C22.6335 13.5838 22.6921 13.7039 22.7769 13.8044C23.3197 14.5132 24.181 14.8411 24.782 15.4866C26.9755 17.833 27.7515 20.9102 27.9041 24.0412C27.9848 25.6332 27.931 27.2216 27.9041 28.814C27.8771 30.393 28.1059 32.0482 27.9669 33.6137C27.9444 33.8514 27.8502 34.152 27.6125 34.1654C27.4921 34.161 27.3774 34.1132 27.2895 34.0309C24.9749 32.2949 24.0284 28.509 23.9791 25.7682C23.9567 24.3907 24.0239 22.9288 23.3107 21.6952C22.6648 20.5738 21.5254 19.8695 20.5565 19.0531C19.7984 18.4162 19.0404 17.7762 18.2823 17.1333C17.9548 16.8597 16.95 16.2675 16.5104 16.4335C15.7658 16.7116 16.4342 18.2188 16.5104 18.7885C16.6181 19.6212 16.6136 20.4645 16.497 21.296C16.2772 22.8211 15.546 24.6423 13.7831 24.7814C9.97029 24.9967 6.18436 25.2838 2.36256 25.2479C1.68952 25.2922 1.01601 25.1689 0.402313 24.889C0.23507 24.8088 0.101615 24.672 0.0255308 24.5028C-0.0955827 24.144 0.236355 23.7945 0.554838 23.5927C1.61099 23.0046 2.76416 22.6111 3.95946 22.4309C5.82102 22.0316 7.68408 21.6339 9.54863 21.2377C10.4278 21.0538 11.4012 20.7981 11.8632 20.031C12.5361 18.9047 11.8363 17.0122 11.6928 15.7831C11.4709 14.0077 11.354 12.2208 11.3429 10.4317C11.3429 6.33175 15.8376 5.86031 15.8376 5.86031C16.2144 5.82039 16.5912 5.73962 16.9635 5.67682C19.8433 5.21449 22.7216 4.75098 25.5984 4.28627C26.2544 4.18612 26.9175 4.13962 27.5811 4.14721C29.3754 4.17413 31.4971 4.60474 32.0758 6.54704C32.7172 8.70914 31.9008 11.0238 31.8694 13.2128C31.8335 15.7288 33.1568 16.9444 34.7089 18.7257C35.7801 19.8724 36.7162 21.1381 37.4989 22.4981C37.5887 22.6637 37.6739 22.8346 37.7502 23.005C37.8668 23.2603 37.961 23.5927 37.7636 23.799Z" fill="white"/>
<path d="M51.9653 32.111C51.9064 32.2783 51.8015 32.4255 51.6627 32.5358C51.5238 32.6461 51.3566 32.715 51.1803 32.7345L45.5507 33.4387C45.3991 33.4587 45.2449 33.4418 45.1012 33.3894C44.9575 33.337 44.8286 33.2507 44.7254 33.1378L35.9648 23.6555C36.3875 23.8976 36.875 24.0026 37.3599 23.956C37.5083 23.9505 37.6505 23.8952 37.7636 23.799C37.961 23.5927 37.8668 23.2603 37.7502 23.005C37.6739 22.8346 37.5887 22.6637 37.4989 22.4981L43.5995 29.1096L43.6623 29.1728C44.0524 29.5218 44.5077 29.7902 45.0019 29.9625C45.4961 30.1349 46.0196 30.2078 46.5421 30.1772L50.8035 29.6439C50.9928 29.6215 51.1844 29.6556 51.3544 29.7418C51.5244 29.828 51.6651 29.9624 51.759 30.1283C51.9337 30.4246 52.0425 30.755 52.0781 31.0972C52.1137 31.4393 52.0752 31.7851 51.9653 32.111Z" fill="white"/>
</svg>
