<svg width="50" height="34" viewBox="0 0 50 34" fill="none"  >
<path d="M17.8422 4.51986L18.3175 7.88687C18.359 8.2344 18.5121 8.5596 18.7543 8.81471C19.1613 9.22197 19.9251 9.52779 21.2291 8.5907C21.3346 8.51399 21.4307 8.4255 21.5157 8.32706L23.3565 6.21128C23.6984 5.83259 23.9125 5.35787 23.9688 4.85328C24.0434 4.02909 23.6897 2.89122 21.6334 2.06659C21.4771 2.00898 21.3116 1.97926 21.1447 1.97875C20.5718 1.87895 19.9818 1.94848 19.4487 2.17862C18.9155 2.40876 18.4629 2.78926 18.1474 3.27255C17.8892 3.63494 17.7801 4.08087 17.8422 4.51986Z" fill="white"/>
<path d="M34.9037 2.58545L34.4287 5.95251C34.3873 6.30015 34.2341 6.6254 33.9915 6.88035C33.585 7.28761 32.8212 7.59338 31.5171 6.65629C31.4117 6.57958 31.3155 6.49115 31.2306 6.3927L29.3898 4.27686C29.048 3.89811 28.8339 3.42349 28.7775 2.91892C28.7029 2.09473 29.0561 0.956858 31.1124 0.132234C31.2688 0.0746703 31.4342 0.0449445 31.6011 0.0443888C32.174 -0.0554684 32.764 0.0140112 33.2972 0.244158C33.8304 0.474304 34.283 0.854864 34.5985 1.33819C34.8567 1.70056 34.9658 2.14646 34.9037 2.58545Z" fill="white"/>
<path d="M15.4535 18.2204C15.4716 18.3319 15.5129 18.4384 15.5748 18.5332C15.7468 18.7501 15.9388 18.9505 16.1484 19.132C16.3706 19.3732 16.6056 19.6039 16.8349 19.8385C17.2837 20.2984 17.7329 20.758 18.1678 21.2316C19.2061 22.285 20.0617 23.5004 20.7004 24.8288C21.3085 26.3537 21.7869 27.9261 22.1306 29.5296C22.4368 30.7716 23.2285 32.5782 21.8912 33.5473C21.512 33.8095 21.0571 33.9432 20.5946 33.9283C19.9584 33.9199 19.2617 33.9212 18.9094 33.4252C18.5571 32.9292 18.5184 31.7975 18.3762 31.2061C18.0465 29.8357 17.7189 28.4647 17.3934 27.0932C17.0246 25.5318 14.2872 24.0618 13.0649 23.0816L10.1125 20.718C10.0025 20.6301 9.86489 20.583 9.72348 20.585C9.58207 20.587 9.44583 20.6379 9.33848 20.729C9.01058 21.0071 9.10567 21.3348 9.42735 21.6222L9.81612 21.9859C10.003 22.1163 10.1634 22.2802 10.2889 22.4692C10.362 22.7576 10.3795 23.057 10.3404 23.3518C10.3493 24.0846 10.3537 24.8174 10.3746 25.5485C10.3982 26.3669 10.6465 27.21 10.1289 27.9239C9.86103 28.2609 9.54873 28.5608 9.20031 28.8157C8.60182 29.2959 -0.267066 37.2359 0.00618484 32.4903C0.00643904 32.4853 0.00829177 32.4805 0.0115001 32.4767C1.71321 30.5463 3.71705 28.6778 5.2126 26.6046C5.94527 25.5897 5.84131 24.1307 5.89152 22.937C5.95505 21.4227 5.93861 19.9057 6.0248 18.3926C6.10256 17.0048 7.49992 15.4865 8.50984 14.7506C10.0987 13.5925 11.4454 12.3531 12.9392 11.0769C13.6973 10.3578 14.6441 9.8633 15.6721 9.64948C16.1626 9.56903 16.6661 9.65663 17.0993 9.89773C17.7871 10.2988 18.2234 11.0576 18.7583 11.6256C20.1557 13.1101 21.741 14.4145 23.049 15.9789L23.8115 16.4798C23.8115 16.4798 27.9378 17.6453 27.9436 17.6488C28.0053 17.713 29.6817 19.494 27.2944 20.1188C25.9068 19.9114 24.4793 19.7844 23.1068 19.5037C21.7343 19.223 20.3263 17.4581 19.2893 16.5602L16.7403 14.0859C16.515 13.8908 16.3684 13.7805 16.1378 13.9703L15.9156 14.1047C15.6846 14.295 15.7646 14.5278 15.9654 14.7497C16.1111 14.9105 16.7083 15.7206 16.85 15.8858C17.2361 16.3353 17.3263 16.3897 17.0015 16.706C16.595 17.0992 15.3598 17.5443 15.4535 18.2204Z" fill="white"/>
<path d="M34.7975 22.55L34.7953 22.5588C34.3954 24.0301 34.6322 25.6012 34.622 27.134C34.6113 28.6308 33.9675 35.443 37.1257 33.7239C37.4413 33.5227 37.713 33.2614 37.9253 32.9551C38.1375 32.6489 38.2859 32.3038 38.3618 31.9402C38.5223 31.1921 38.5866 30.4269 38.5533 29.6628L38.5479 24.5516C38.5326 24.3028 38.5627 24.0534 38.6368 23.8152C38.7404 23.5866 38.8887 23.3804 39.0731 23.2085L41.3688 20.779C41.655 20.4763 42.09 20.1565 42.413 20.4113C42.744 20.6719 42.5694 21.2548 42.2797 21.5667C41.99 21.8787 41.5937 22.133 41.4999 22.564C41.4614 22.9231 41.542 23.2849 41.7296 23.5947C42.9124 26.0837 44.335 28.4541 45.9777 30.6732C46.5771 31.4811 47.2395 32.2939 48.1286 32.6801C48.7542 32.9516 49.6295 32.8866 49.9058 32.2218C49.9829 32.0132 50.0132 31.7904 49.9947 31.569C49.8754 30.6164 49.537 29.7034 49.0057 28.9L46.374 24.1992C46.1794 23.8891 46.0336 23.5515 45.9417 23.198C45.8805 22.7805 45.8889 22.3559 45.9666 21.9411C46.1739 20.3164 46.3286 18.6852 46.4305 17.0473C46.5056 15.8352 46.5442 14.5774 46.1261 13.4501C45.6698 12.22 44.727 11.2934 43.8788 10.3357C42.8702 9.19738 41.9491 7.94708 40.7686 7.02317C39.5881 6.09925 38.0583 5.52942 36.6601 5.97622C36.4184 6.04449 36.1955 6.1662 36.0083 6.3321C35.7919 6.56887 35.6234 6.84443 35.5119 7.14394L32.5062 13.8574C32.444 14.047 32.3245 14.2133 32.1637 14.3336C31.9993 14.4063 31.8154 14.4243 31.6398 14.385L29.2352 14.1047C28.8362 14.0265 28.4241 14.0432 28.0329 14.1535C27.8308 14.2233 27.6555 14.3532 27.5313 14.5255C27.407 14.6978 27.3398 14.904 27.3389 15.1156C27.3758 15.7149 28.0053 16.0237 28.5345 16.2003C30.0265 16.6965 31.5291 17.1531 33.0425 17.5702C33.1873 17.6253 33.3453 17.6374 33.497 17.6049C33.7138 17.5355 33.8427 17.3013 33.9507 17.0864L36.9689 11.0751C37.0917 10.7621 37.2971 10.4874 37.5638 10.2795C37.6299 10.2337 37.7049 10.202 37.7841 10.1866C37.8634 10.1713 37.945 10.1725 38.0237 10.1902C38.1024 10.2079 38.1764 10.2417 38.2411 10.2895C38.3058 10.3373 38.3596 10.3979 38.3991 10.4675C38.6324 10.9947 37.9148 11.4301 37.7539 11.9889C37.5958 12.5385 38.0126 13.0745 38.4169 13.4497C38.8212 13.8249 39.2881 14.2625 39.2673 14.8375C39.224 15.1787 39.0873 15.5017 38.8718 15.7715L36.3437 19.577C35.6713 20.4802 35.1494 21.4838 34.7975 22.55Z" fill="white"/>
</svg>
