<svg width="34" height="47" viewBox="0 0 34 47" fill="none"  >
<path d="M5.14072 4.04818L6.66674 7.60398C6.81601 7.97331 7.07995 8.28491 7.41969 8.4929C7.98331 8.8191 8.90635 8.93019 10.0388 7.5126C10.1301 7.39653 10.2077 7.27031 10.2702 7.13652L11.6335 4.26772C11.8912 3.75057 11.9813 3.1659 11.8911 2.59518C11.7249 1.6682 10.9995 0.523473 8.51982 0.228763C8.33315 0.210517 8.14472 0.225308 7.96319 0.272478C7.31124 0.332918 6.69163 0.584344 6.18187 0.995241C5.67212 1.40614 5.29491 1.95828 5.09743 2.58253C4.92424 3.05871 4.93973 3.58306 5.14072 4.04818Z" fill="white"/>
<path d="M7.13765 17.8191C6.85912 17.9149 6.51981 18.4886 5.97149 18.8725C5.94595 18.8977 5.91639 18.9186 5.88404 18.9342C5.08648 19.4781 4.1311 19.9565 3.6217 19.8568C3.50131 19.8369 3.38994 19.7804 3.30272 19.6951C3.21551 19.6097 3.15664 19.4996 3.13414 19.3797C2.84292 18.0342 3.66804 16.9385 4.54342 16.3548L5.24916 15.8335C5.28414 15.8071 5.32426 15.7884 5.36696 15.7784C5.40966 15.7685 5.45398 15.7676 5.49704 15.7758C5.5401 15.784 5.58096 15.8012 5.61697 15.8262C5.65298 15.8512 5.68333 15.8836 5.70608 15.921C5.75599 15.9982 5.77511 16.0913 5.75965 16.1819C5.74418 16.2725 5.69526 16.3541 5.62258 16.4103L5.17833 16.7391C5.36329 17.0544 5.65929 17.5765 5.8941 18.0946C6.15981 17.9133 6.39469 17.6905 6.58977 17.4348C6.74593 17.1348 6.8705 16.8195 6.96146 16.4938C7.1289 15.8057 7.452 15.1651 7.90592 14.6215C8.72971 13.7828 10.5146 13.1239 11.7275 14.3683C12.2515 14.9279 12.5381 15.6688 12.5273 16.4353C12.5466 17.2742 12.2501 18.0897 11.6965 18.7203C11.1858 19.1759 10.5626 19.4867 9.8915 19.6206C9.46666 19.7278 9.05578 19.8843 8.66719 20.0868C8.26546 20.3382 7.87869 20.6128 7.50888 20.9092C8.68073 22.8017 9.32218 25.075 9.46735 27.8463C9.49359 28.3539 9.49928 29.367 9.50672 30.65C9.56225 40.9919 10.0633 46.2364 10.9934 46.2364C11.8801 46.2364 12.578 40.1992 12.9956 36.5927C13.4866 32.3461 13.8552 29.4891 14.4276 28.1821L13.717 28.4121C13.6864 28.4223 13.6544 28.4274 13.6222 28.4274C13.5496 28.4258 13.4795 28.4005 13.4226 28.3554C13.3658 28.3102 13.3253 28.2477 13.3073 28.1773C13.2813 28.0903 13.2894 27.9966 13.33 27.9153C13.3706 27.8341 13.4407 27.7714 13.526 27.7401L15.6781 27.0404C15.6851 27.0382 15.6917 27.0443 15.6987 27.0426C17.0433 26.5096 19.5409 26.0986 23.0302 25.5559C27.3988 24.8738 34 23.8437 34 22.3155C33.9997 22.2546 33.9858 22.1946 33.9592 22.1399C33.9327 22.0852 33.8942 22.0372 33.8465 21.9993C32.2799 20.5262 22.6432 21.873 18.5282 22.4475C15.9707 22.8048 15.8001 22.8166 15.6305 22.7278C15.5532 22.6869 15.4942 22.6181 15.4656 22.5354C14.9847 21.1821 13.9422 16.5922 13.9291 14.907C13.8969 14.5037 13.8969 14.0983 13.9291 13.6949C13.9361 13.6058 13.9776 13.5228 14.0448 13.4639C14.112 13.4049 14.1997 13.3745 14.289 13.3793C14.3786 13.3921 14.4597 13.4395 14.5148 13.5113C14.57 13.5831 14.5949 13.6737 14.5841 13.7636C14.5841 13.7679 14.5566 14.0697 14.5636 14.4457C15.3651 14.2708 16.1687 14.0959 16.9571 13.921C21.3896 12.9376 25.2182 12.0928 26.5592 12.3967C26.8767 12.503 27.1968 12.6399 27.5291 12.7807C28.118 13.0817 28.7538 13.2807 29.4093 13.3692C30.0006 13.3295 30.5547 13.0666 30.9595 12.6338C31.3643 12.2009 31.5895 11.6304 31.5895 11.0378C31.5895 10.4451 31.3643 9.87459 30.9595 9.44172C30.5547 9.00886 30.0006 8.746 29.4093 8.70631C28.8409 8.70631 28.0831 9.10593 27.3494 9.49334C27.0826 9.63326 26.822 9.77013 26.5741 9.88688C25.8811 10.2126 24.0656 10.2271 21.554 10.2485C18.0559 10.2774 13.2649 10.3167 9.04584 11.2341C2.09348 12.7452 0.508421 16.4964 0.149434 18.0395C-0.233164 19.6862 0.133256 21.291 1.08429 22.1292C2.7992 23.6373 5.03796 21.9517 6.85257 20.5551L6.86351 20.5459C6.86641 20.5446 6.86904 20.5428 6.87136 20.5406L6.92252 20.5013C7.37792 20.1322 7.85477 19.7903 8.35059 19.4776" fill="white"/>
</svg>
