<svg width="38" height="52" viewBox="0 0 38 52" fill="none"  >
<path d="M12.3788 17.8025L14.8275 19.8361C15.0747 20.0508 15.3847 20.1803 15.7115 20.2055C16.2471 20.2344 16.9634 19.9709 17.2662 18.5117C17.2901 18.3927 17.3 18.2713 17.2958 18.1501L17.2218 15.5416C17.2173 15.0669 17.0648 14.6054 16.7853 14.2213C16.3171 13.6047 15.3576 13.0373 13.4286 13.7462C13.285 13.8031 13.1525 13.8847 13.0373 13.9874C12.5818 14.2748 12.2212 14.6899 12.0009 15.1807C11.7806 15.6716 11.7103 16.2164 11.7987 16.747C11.8503 17.1597 12.0578 17.5373 12.3788 17.8025Z" fill="white"/>
<path d="M14.7246 22.524C13.58 22.7966 12.4585 23.1581 11.3705 23.6053C8.05333 24.834 4.79431 26.2241 1.50236 27.5116C0.526579 27.8932 -0.585059 29.2153 1.251 28.8936C3.39394 28.5179 6.35939 27.7953 6.35939 27.7953L10.2333 26.2781L13.0355 25.1946L15.0826 24.5262C15.1578 24.4941 15.2414 24.4872 15.3209 24.5065C15.4004 24.5259 15.4714 24.5704 15.5234 24.6334L15.5501 24.6681C15.5738 24.6991 15.5897 24.7354 15.5965 24.7738C15.6033 24.8123 15.6007 24.8517 15.589 24.8889C15.5773 24.9262 15.5568 24.96 15.5292 24.9877C15.5016 25.0154 15.4678 25.036 15.4305 25.0479C13.3646 25.8126 13.7755 25.6105 14.3344 27.1562C14.9437 28.8315 15.1207 30.633 14.849 32.3946C14.7768 32.8671 13.1514 33.8287 12.7123 34.1996C11.6296 35.1087 10.5004 35.9614 9.3293 36.7541C7.83935 37.7693 6.30203 38.7405 4.91573 39.8661C3.65011 40.8938 2.6895 42.3043 1.33171 43.2312C0.837525 43.5685 0.177129 43.9537 0.177129 43.9537C0.177129 43.9537 -0.756076 45.6394 1.66153 45.2061C1.66153 45.2061 7.06274 41.2086 7.63132 40.8713C8.19991 40.534 16.4414 35.6699 16.4414 35.6699L17.6234 34.7293C17.7121 34.6614 17.8213 34.6258 17.933 34.6282C18.0447 34.6306 18.1523 34.671 18.2379 34.7426C18.2778 34.7753 18.3102 34.8163 18.3327 34.8627C18.3552 34.9091 18.3674 34.9597 18.3684 35.0113C18.3695 35.0628 18.3592 35.114 18.3386 35.1612C18.3179 35.2085 18.2872 35.2506 18.2486 35.2849L17.3884 36.0928L16.6614 42.509L15.837 48.6735C15.837 48.6735 15.1777 51.3104 15.3013 51.3104C15.4249 51.3104 16.0842 52.862 17.4028 51.3104C18.1339 50.4497 17.9754 47.6775 18.1746 46.6251C18.9005 42.7864 20.1824 39.0397 21.2766 35.2731C22.7503 30.2009 20.2668 24.5303 20.7647 19.3703C20.9209 17.7529 21.0831 16.1352 21.1719 14.5124C21.2167 13.6948 21.243 12.8762 21.2411 12.0572C21.2411 11.6412 21.233 11.2252 21.2167 10.8093C21.19 10.1003 21.2704 9.39033 20.5041 9.06006C19.9859 8.83841 19.1867 9.28763 19.2244 9.8776C19.4154 12.8599 19.8349 15.8777 18.9653 18.7925C18.7505 19.5941 18.4057 20.3554 17.9447 21.046C17.1866 22.1103 16.3993 22.2477 15.0944 22.456C14.9713 22.4762 14.848 22.4989 14.7246 22.524Z" fill="white"/>
<path d="M22.8529 1.54939C22.3169 1.54939 21.7929 1.70799 21.3472 2.00517C20.9016 2.30234 20.5543 2.72472 20.3492 3.21891C20.144 3.7131 20.0904 4.25688 20.1949 4.78151C20.2995 5.30614 20.5576 5.78806 20.9366 6.1663C21.3156 6.54453 21.7985 6.80209 22.3242 6.90645C22.8499 7.0108 23.3948 6.95728 23.89 6.75258C24.3852 6.54788 24.8084 6.20123 25.1062 5.75647C25.404 5.31171 25.5629 4.7888 25.5629 4.25389C25.5621 3.53687 25.2762 2.84949 24.7682 2.34248C24.2602 1.83547 23.5714 1.55027 22.8529 1.54939Z" fill="white"/>
<path d="M37.6191 0H29.714C29.5037 0 29.3331 0.170192 29.3331 0.380135V2.56748C29.3331 2.77742 29.5037 2.94761 29.714 2.94761H37.6191C37.8295 2.94761 38 2.77742 38 2.56748V0.380135C38 0.170192 37.8295 0 37.6191 0Z" fill="white"/>
<path d="M37.4558 4.02377H35.595V9.89757H37.4558V4.02377Z" fill="white"/>
</svg>
