<svg width="33" height="50" viewBox="0 0 33 50" fill="none"  >
<path d="M31.7126 7.02193L29.1362 10.8803C28.8795 11.283 28.5003 11.5926 28.0544 11.7634C27.3182 12.0249 26.2088 11.9524 25.1812 10.0353C25.099 9.87847 25.0351 9.71273 24.9908 9.54131L24.011 5.86134C23.8201 5.19541 23.8419 4.48654 24.0733 3.8336C24.4716 2.77742 25.5771 1.58639 28.5643 1.78119C28.7885 1.80123 29.0073 1.86075 29.2106 1.95709C29.8023 2.21859 31.6415 2.69813 32.0834 5.30692C32.1829 5.90496 32.0503 6.51843 31.7126 7.02193Z" fill="white"/>
<path d="M9.40375 37.8397C9.29473 37.904 9.19082 37.9765 9.09294 38.0568C8.15468 38.9302 7.27313 39.8626 6.45368 40.8483L2.93373 44.6123C1.95393 45.6603 0.706815 46.5976 0.185733 47.9829C-0.205802 49.0241 -0.0385606 49.9189 1.27236 49.4712L12.1165 41.352C12.6023 40.9885 13.5999 40.4466 13.845 39.9376C14.1471 39.3092 14.4347 38.3995 13.9417 37.789C13.7088 37.5268 13.3876 37.3594 13.0392 37.3187C11.9729 37.1538 10.3391 37.2882 9.40375 37.8397Z" fill="white"/>
<path d="M27.8789 18.1604C27.7339 16.8408 27.8934 15.7199 26.9895 14.6274C26.4501 14.062 25.8787 13.5278 25.2784 13.0275C24.2778 12.0656 23.3062 11.0698 22.3201 10.0885C22.3013 10.0698 22.2802 10.0536 22.2572 10.0402C21.9624 9.86133 19.7727 8.64807 17.8827 10.0595C16.8241 10.8039 15.7671 11.5483 14.7117 12.2927C13.9767 12.7153 13.2965 13.2267 12.6864 13.8154C12.3776 14.1836 12.168 14.6244 12.0773 15.0963C11.9464 15.5794 11.8957 16.0808 11.9275 16.5803C12.0574 16.9058 12.2494 17.2028 12.493 17.4547C12.7057 17.7646 12.9281 18.0589 13.1456 18.3591L13.9915 19.5289C14.052 19.615 14.0821 19.7188 14.0768 19.8239C14.0716 19.929 14.0313 20.0293 13.9625 20.1089L12.9474 21.2062C12.9341 21.2219 12.9196 21.2365 12.9039 21.2497C12.2479 21.7638 11.7846 22.4842 11.5891 23.2944L11.2991 24.6044C11.2935 24.6232 11.2902 24.6427 11.2894 24.6624C11.1636 25.8651 11.1006 27.0736 11.1009 28.2829C11.1009 28.9209 11.1105 29.5542 11.125 30.1922C11.1347 30.6466 11.0284 31.275 11.3861 31.6278C11.6374 31.8744 12.6864 31.5263 12.5172 32.3674C12.435 32.7826 11.6954 32.7396 11.5939 32.7493C10.6339 32.8172 9.67845 32.9399 8.73234 33.1166C7.77051 33.3389 6.85458 33.7265 6.02541 34.2622C6.00072 34.2789 5.97804 34.2984 5.95776 34.3202C5.75474 34.5329 4.79763 35.6253 6.63447 35.6829H19.2168C19.2168 35.6829 21.0826 35.7414 20.4204 32.8749L20.3914 32.788L19.4101 30.5257C19.0669 29.7475 18.5449 28.9886 18.4385 28.0992C18.2704 26.9854 18.3064 25.8503 18.5449 24.7494C18.6947 24.208 19.3667 23.2359 19.8645 23.8401L21.2615 25.7306C21.2862 25.7682 21.3193 25.7997 21.3582 25.8225C21.594 25.9727 21.8626 26.0639 22.1412 26.0883H24.2633C24.737 26.0883 25.2155 26.04 25.6844 26.0642C26.1436 26.0883 26.6511 26.272 27.091 26.0787C27.2819 25.9709 27.4429 25.8172 27.5594 25.6315C27.6759 25.4458 27.7442 25.234 27.7581 25.0152C27.8644 24.2563 27.7871 23.4732 27.8741 22.7095C28.04 21.1978 28.0417 19.6725 27.8789 18.1604ZM25.8681 23.2654L24.4373 23.7778C23.9587 23.947 23.3497 23.1784 23.3255 22.3808L23.253 19.9397C23.224 19.1272 23.8331 18.9049 24.331 19.5434L25.8391 21.4721C26.3321 22.1005 26.3466 23.0957 25.8681 23.2634V23.2654Z" fill="white"/>
<path d="M10.6557 7.61606C10.8296 7.35835 10.9545 7.07075 11.024 6.76773C11.1059 6.43677 11.1046 6.0907 11.0201 5.76038C10.9542 5.51869 10.8243 5.29929 10.6441 5.12523C10.5087 4.99327 10.3845 4.84631 10.2574 4.70275C9.89937 4.29572 9.63373 3.816 9.47867 3.29658C9.37426 2.95821 9.2853 2.61502 9.18863 2.27424C9.08475 1.85661 8.9161 1.45785 8.68881 1.09241C8.51582 0.812728 8.29568 0.565105 8.03818 0.360553C7.79563 0.178204 7.51008 0.061669 7.20921 0.0222126C6.81296 -0.0270531 6.41079 0.00583268 6.02782 0.118865C5.58364 0.24713 5.16035 0.438908 4.77105 0.688273C3.94544 1.20268 3.23727 1.88503 2.69253 2.69094C2.4091 3.09994 2.19815 3.55467 2.06895 4.03522C2.04279 4.13471 2.02214 4.23556 2.00709 4.33733C1.99162 4.45769 1.98387 4.57901 1.97614 4.64717C1.95634 5.09245 2.10103 5.52948 2.38266 5.87497C2.55263 6.06803 2.74773 6.23742 2.96272 6.37864C3.34942 6.62646 3.77392 6.80962 4.21952 6.92097C4.53371 7.00266 4.84791 7.08 5.16114 7.16266C5.74338 7.30237 6.29148 7.55803 6.77271 7.91433C6.94927 8.0469 7.11734 8.19039 7.27591 8.34402C7.492 8.55168 7.76395 8.69177 8.05848 8.74715C8.32985 8.79877 8.60839 8.8001 8.88023 8.75104C9.2043 8.6974 9.51568 8.58435 9.79866 8.41754C11.6389 10.2191 15.0012 13.5389 16.1309 14.6313C16.4098 14.3597 16.6965 14.0846 16.9754 13.8139C15.8428 12.7259 12.5075 9.42486 10.6557 7.61606ZM9.62559 6.12822C9.53817 6.48402 9.34045 6.80303 9.0607 7.03963C8.78095 7.27622 8.43353 7.41826 8.06816 7.44541C7.9611 7.4515 7.85379 7.43979 7.75059 7.41066C7.64949 7.3825 7.55477 7.33503 7.47167 7.27093C7.00455 6.90813 6.48122 6.62418 5.92243 6.43033C5.50769 6.28532 5.07412 6.18867 4.64778 6.08184C4.28648 6.00231 3.93822 5.8721 3.61335 5.69512C3.45164 5.59533 3.30108 5.47851 3.16428 5.34663C3.07962 5.25562 3.01489 5.14797 2.97419 5.03053C2.93349 4.91309 2.91774 4.78845 2.92793 4.66457C2.9318 4.61624 2.93952 4.51952 2.95499 4.43203C3.01136 4.11914 3.12002 3.81802 3.27642 3.54122C3.6214 2.93052 4.0773 2.38953 4.6207 1.94605C5.03183 1.58796 5.50077 1.30223 6.00752 1.10108C6.3273 0.963645 6.67548 0.905316 7.0226 0.930965C7.20839 0.943397 7.38446 1.01852 7.52194 1.1441C7.66007 1.27805 7.78237 1.42744 7.88642 1.5893C8.05941 1.88005 8.18856 2.19474 8.26972 2.52318C8.35867 2.8369 8.44035 3.15162 8.52929 3.4605C8.72997 4.14832 9.07617 4.78494 9.5444 5.32727C9.59482 5.38764 9.62951 5.45954 9.64542 5.53657C9.68324 5.73278 9.67646 5.93498 9.62559 6.12822Z" fill="white"/>
</svg>
