<svg width="36" height="49" viewBox="0 0 36 49" fill="none"  >
<path d="M30.5574 4.07519L28.9411 7.86178C28.7834 8.25512 28.504 8.58687 28.1443 8.80826C27.5475 9.15608 26.5725 9.27402 25.3711 7.76493C25.2744 7.6412 25.1923 7.50653 25.1262 7.36388L23.6826 4.30891C23.4097 3.75823 23.3144 3.13578 23.4099 2.52804C23.5859 1.54092 24.3539 0.321864 26.9795 0.0080344C27.1771 -0.0113654 27.3767 0.00444161 27.5689 0.0546422C28.2592 0.119003 28.9152 0.386684 29.455 0.824239C29.9947 1.26179 30.3941 1.84965 30.6032 2.5144C30.7863 3.0215 30.77 3.57984 30.5574 4.07519Z" fill="white"/>
<path d="M28.4429 18.7395C28.7378 18.8415 29.0971 19.4525 29.6777 19.8613C29.7047 19.8882 29.736 19.9102 29.7703 19.9268C30.6148 20.506 31.6264 21.0155 32.1657 20.9094C32.2932 20.8882 32.4111 20.8282 32.5035 20.7373C32.5958 20.6464 32.6581 20.529 32.6819 20.4012C32.9903 18.9685 32.1166 17.8017 31.1898 17.1801L30.4426 16.6251C30.4055 16.597 30.363 16.577 30.3178 16.5664C30.2726 16.5559 30.2256 16.5549 30.18 16.5637C30.1344 16.5725 30.0912 16.5907 30.0531 16.6174C30.015 16.644 29.9828 16.6784 29.9587 16.7183C29.9059 16.8005 29.8857 16.8997 29.902 16.9961C29.9184 17.0926 29.9702 17.1793 30.0472 17.2392L30.5176 17.5893C30.3217 17.925 30.0082 18.481 29.7596 19.0328C29.4784 18.8394 29.2297 18.6022 29.0231 18.3298C28.8577 18.0104 28.7259 17.6747 28.6295 17.3279C28.4522 16.5951 28.1101 15.9129 27.6295 15.334C26.7572 14.4409 24.8674 13.7392 23.5831 15.0643C23.0282 15.6603 22.7247 16.4494 22.7363 17.2658C22.716 18.159 23.0299 19.0273 23.6159 19.6987C24.1567 20.1838 24.8165 20.5149 25.5271 20.6575C25.977 20.7716 26.4121 20.9382 26.8235 21.1542C27.2488 21.4219 27.6583 21.7141 28.0499 22.0296C26.8091 24.0448 26.1299 26.4656 25.9762 29.4172C25.9484 29.9574 25.9424 31.0363 25.9345 32.4024C25.8757 43.4153 25.3451 49 24.3604 49C23.4215 49 22.6826 42.5715 22.2404 38.7306C21.7205 34.2085 21.3302 31.1662 20.7242 29.7744L21.4765 30.0197C21.509 30.0302 21.5429 30.0356 21.577 30.0356C21.6538 30.034 21.728 30.0069 21.7881 29.9588C21.8483 29.9107 21.891 29.8441 21.9099 29.7692C21.9377 29.6765 21.9292 29.5766 21.8862 29.49C21.8432 29.4034 21.7688 29.3368 21.6784 29.3036L19.3996 28.5585C19.3922 28.5585 19.3853 28.5627 19.3779 28.5585C17.9542 27.9909 15.3097 27.5533 11.6152 26.9754C6.9891 26.2495 0 25.152 0 23.5246C0.000331436 23.4599 0.0151107 23.396 0.0432345 23.3378C0.0713583 23.2795 0.112088 23.2285 0.162483 23.1882C1.82133 21.6195 12.0248 23.0536 16.3819 23.6654C19.0899 24.0463 19.2705 24.0584 19.4501 23.9639C19.532 23.9203 19.5944 23.8469 19.6246 23.7588C20.1339 22.3177 21.2376 17.4302 21.2515 15.6357C21.2857 15.2061 21.2857 14.7745 21.2515 14.345C21.2441 14.2501 21.2 14.1617 21.1289 14.099C21.0577 14.0362 20.965 14.0038 20.8705 14.0087C20.7756 14.0224 20.6897 14.073 20.6313 14.1494C20.5729 14.2259 20.5466 14.3224 20.558 14.4182C20.558 14.4228 20.5871 14.7462 20.5797 15.1443C19.7311 14.9581 18.8801 14.772 18.0454 14.5857C13.3522 13.5381 9.2984 12.6384 7.87845 12.962C7.54233 13.0751 7.20296 13.221 6.85156 13.371C6.22798 13.6916 5.55486 13.9034 4.8608 13.9976C4.23587 13.9536 3.65073 13.673 3.22348 13.2123C2.79623 12.7515 2.55863 12.1449 2.55863 11.5148C2.55863 10.8848 2.79623 10.2784 3.22348 9.81764C3.65073 9.35688 4.23587 9.07605 4.8608 9.03213C5.46267 9.03213 6.26498 9.45785 7.04185 9.87039C7.32427 10.0194 7.60018 10.1651 7.86269 10.2894C8.5965 10.6363 10.5188 10.6517 13.1782 10.6745C16.882 10.7053 21.9548 10.7471 26.422 11.724C33.7834 13.3332 35.4617 17.3278 35.8418 18.971C36.2469 20.7245 35.8589 22.4338 34.8519 23.3259C33.0361 24.9319 30.6657 23.1369 28.7443 21.6497L28.7327 21.6403C28.7297 21.6386 28.727 21.6365 28.7244 21.6342C28.7068 21.6202 28.6888 21.6065 28.6703 21.5928C28.1882 21.1994 27.6833 20.8354 27.1581 20.5024" fill="white"/>
</svg>
