<svg width="31" height="47" viewBox="0 0 31 47" fill="none"  >
<path d="M23.9304 4.49086L22.073 8.53139C21.8909 8.95117 21.5788 9.30133 21.1826 9.53029C20.5251 9.88889 19.4642 9.98759 18.2026 8.32802C18.101 8.19202 18.0153 8.0448 17.9473 7.88926L16.4647 4.55341C16.1839 3.95177 16.0978 3.27758 16.2182 2.62468C16.4359 1.56463 17.3028 0.270611 20.1596 0.00420899C20.3748 -0.0103754 20.5909 0.0130134 20.798 0.0732639C21.3975 0.232178 23.2104 0.408669 24.0221 2.81092C24.2066 3.36215 24.1738 3.96299 23.9304 4.49086Z" fill="white"/>
<path d="M14.1477 28.7752C14.1477 28.7752 13.7094 33.5675 16.9738 33.3155L27.9218 33.4262C28.0619 33.4424 28.1901 33.5127 28.2792 33.622C28.3683 33.7313 28.4113 33.871 28.399 34.0115V34.1041C28.4115 34.2453 28.368 34.3857 28.278 34.4952C28.188 34.6047 28.0586 34.6746 27.9177 34.6897H26.5185C26.3776 34.7048 26.2484 34.7746 26.1584 34.884C26.0685 34.9934 26.0251 35.1337 26.0375 35.2748V42.1119C26.0375 42.9403 25.8522 44.1847 26.1955 44.9061C26.6394 45.8396 27.623 46.6667 28.5306 46.6138C30.2337 46.5161 30.6683 44.3598 30.761 42.6475C30.8856 40.3541 30.8536 38.0533 30.7971 35.7576C30.7693 34.6067 30.7355 33.4564 30.7128 32.3055C30.6766 30.4852 30.8161 28.8483 29.0648 28.1455C27.736 27.6127 26.0941 27.9138 24.7157 27.9138H19.125C19.0527 27.9055 18.9829 27.8829 18.9194 27.8473C18.856 27.8117 18.8003 27.7638 18.7555 27.7065C18.7108 27.6491 18.678 27.5834 18.6589 27.5132C18.6399 27.443 18.635 27.3697 18.6446 27.2976L18.6636 26.8625C18.6573 26.726 18.7037 26.5922 18.793 26.4888C18.8824 26.3854 19.008 26.3202 19.144 26.3066H20.8633C20.9957 26.2938 21.1185 26.2318 21.2073 26.1327C21.2962 26.0337 21.3445 25.9049 21.3429 25.7719C21.4717 23.9817 21.5875 21.1232 21.5022 19.3014C21.3955 17.2273 20.9231 15.1882 20.1068 13.2785C19.4238 11.6569 17.8365 10.5866 16.322 11.1143C15.3033 11.5437 14.3094 12.0296 13.3448 12.5696C11.2455 13.5833 9.12867 14.5618 7.04008 15.5973C6.74279 15.731 6.47564 15.9234 6.25468 16.163C6.03373 16.4027 5.86356 16.6847 5.75442 16.9918C5.44677 17.7866 5.39207 18.6569 5.59781 19.4839C5.61087 19.5298 5.62824 19.5743 5.6497 19.6169L9.48126 27.2253C9.53615 27.3446 9.63611 27.4373 9.75924 27.483C10.4885 27.7243 13.1224 28.3299 12.7156 24.3265C12.7069 24.2397 12.6821 24.1553 12.6424 24.0776L9.75692 18.5157C9.68877 18.3857 9.66544 18.2368 9.69058 18.0922C9.71571 17.9476 9.78789 17.8153 9.8959 17.716C9.95176 17.6717 10.0176 17.6418 10.0876 17.6286C10.1576 17.6155 10.2297 17.6196 10.2978 17.6406C10.3659 17.6616 10.4279 17.6988 10.4783 17.7491C10.5288 17.7994 10.5663 17.8611 10.5876 17.9291L10.7665 18.34C10.7857 18.3981 10.8167 18.4516 10.8574 18.4973C10.8981 18.543 10.9478 18.5799 11.0033 18.6057C11.0588 18.6315 11.119 18.6457 11.1802 18.6473C11.2414 18.649 11.3022 18.638 11.359 18.6152L13.4967 17.6492C13.8109 17.5074 14.1454 17.7882 14.1454 18.1983L14.1477 28.7752Z" fill="white"/>
<path d="M13.19 31.9187C13.19 31.9187 14.0597 35.197 18.3378 35.197C18.1474 35.197 17.3556 36.5592 17.1773 36.7871C15.4143 39.0476 13.3074 41.0174 10.9337 42.6247C9.53213 43.5784 8.03422 44.3822 6.46467 45.0228C5.15165 45.5505 3.42349 46.3641 2.03542 45.9494C1.6057 45.7989 1.21603 45.5522 0.896071 45.2282C0.576116 44.9043 0.334332 44.5116 0.189148 44.08C-0.00384643 43.5968 -0.0504125 43.0675 0.0552518 42.558C0.130967 42.2711 0.267964 42.004 0.4568 41.7751C0.645635 41.5462 0.881834 41.361 1.14913 41.2321C1.9993 40.81 2.98152 40.8674 3.87431 40.6269C7.3102 39.7003 10.2091 37.1008 12.2546 33.6658C12.4019 33.4212 13.2637 32.1966 13.19 31.9187Z" fill="white"/>
</svg>
