<svg width="45" height="33" viewBox="0 0 45 33" fill="none" xmlns="http://www.w3.org/2000/svg">
<path d="M8.94112 5.74156L7.10367 10.3419C6.92498 10.8207 6.59273 11.2309 6.15606 11.5117C5.4338 11.9504 4.23195 12.1303 2.68919 10.3869C2.56246 10.2445 2.45382 10.0878 2.36561 9.92012L0.4415 6.30958C0.0818075 5.6614 -0.0634852 4.92094 0.0254756 4.18937C0.204597 2.9971 1.10021 1.50677 4.33595 1.00061C4.58176 0.978043 4.8297 0.995144 5.06978 1.05123C5.92565 1.09956 6.748 1.39196 7.43434 1.89198C8.12069 2.392 8.64069 3.07754 8.92956 3.86318C9.18026 4.46479 9.18439 5.13707 8.94112 5.74156Z" fill="white"/>
<path d="M44.7253 29.8788C44.6422 30.0033 44.5474 30.12 44.4421 30.2274C43.8065 30.8854 42.7087 30.9136 41.8304 30.6717C38.9414 29.89 36.139 28.8777 33.2788 28.0285C30.8462 27.3086 27.778 25.9139 25.4437 27.6123C23.7796 28.8215 22.5546 31.4647 20.5496 32.1114C18.0766 32.9325 14.6213 33.5062 12.1598 32.2464C8.79113 30.5424 7.11548 26.0489 5.33004 22.9895C4.2842 21.2011 3.24414 19.2721 3.46371 17.1406C3.57157 16.3143 3.88193 15.5254 4.36864 14.8402C4.85534 14.1551 5.50413 13.5939 6.26032 13.2039C7.45639 12.5403 9.36895 11.5167 10.6344 12.0173C13.1305 13.0296 13.6332 14.6324 17.4814 15.0654C18.9144 15.2285 20.8443 13.3389 21.9826 12.4953C22.8146 11.8767 23.8027 10.9487 24.8716 10.6731C25.0308 10.6333 25.1932 10.6069 25.357 10.5944C25.7352 10.5853 26.1056 10.7002 26.4086 10.9206C26.6584 11.0562 26.8621 11.26 26.9945 11.5068C27.1269 11.7536 27.1824 12.0326 27.154 12.3097C27.05 12.8046 26.5011 13.2151 25.9521 13.5582C25.6228 13.7719 25.2877 13.9575 25.0565 14.1206L22.0635 16.2464L19.7522 17.8717C19.1932 18.2861 18.523 18.5342 17.8223 18.586C16.9211 18.6716 16.0123 18.5323 15.1817 18.181C14.6559 17.9448 14.1763 17.7424 13.6563 17.5006C12.538 16.9199 11.2998 16.5912 10.0334 16.5389C9.87012 16.5538 9.71841 16.6275 9.60798 16.7456C9.49755 16.8636 9.43635 17.0175 9.43635 17.1772C9.43635 17.3368 9.49755 17.4907 9.60798 17.6088C9.71841 17.7269 9.87012 17.8006 10.0334 17.8155L11.8824 17.7761C11.9967 17.7708 12.1104 17.7951 12.2119 17.8464C12.3134 17.8978 12.3991 17.9745 12.4602 18.0686L16.58 24.4404C16.6258 24.5121 16.6562 24.5919 16.6696 24.6753C16.683 24.7586 16.6791 24.8437 16.6581 24.9255C16.6371 25.0073 16.5994 25.0842 16.5473 25.1516C16.4952 25.219 16.4297 25.2755 16.3547 25.3178L15.9618 25.5371C15.8181 25.622 15.714 25.7579 15.6715 25.9162C15.6289 26.0744 15.6513 26.2426 15.7339 26.385C15.8165 26.5275 15.9527 26.6331 16.1139 26.6796C16.2751 26.726 16.4484 26.7096 16.5974 26.6338L17.0712 26.3807C19.9602 24.8004 22.936 23.1132 25.825 21.5385C27.3909 20.6837 29.159 21.4373 30.6498 22.1009C33.7282 23.4736 36.8776 24.69 40.0854 25.7452C41.5357 26.2345 46.1582 27.5505 44.7253 29.8788Z" fill="white"/>
<path d="M25.9289 14.3624L25.1835 18.2991C25.146 18.4975 25.029 18.6732 24.8584 18.7877C24.6877 18.9021 24.4773 18.9459 24.2735 18.9093C24.0697 18.8728 23.8891 18.7589 23.7715 18.5928C23.654 18.4267 23.609 18.2219 23.6466 18.0236L24.1146 15.549L25.0333 14.8967C25.2644 14.7617 25.5996 14.5761 25.9289 14.3624Z" fill="white"/>
<path d="M27.1887 6.95572C27.1944 7.00243 27.1944 7.04962 27.1887 7.09632L26.6109 10.1782C26.3079 9.95781 25.9375 9.84294 25.5593 9.85203C25.3955 9.86455 25.2331 9.89089 25.0739 9.93077L25.6518 6.82075C25.6914 6.6391 25.798 6.47788 25.9515 6.36757C26.1049 6.25727 26.2946 6.20554 26.4847 6.22216C26.6747 6.23879 26.8518 6.32261 26.9827 6.45779C27.1135 6.59297 27.1888 6.77011 27.1945 6.95572H27.1887Z" fill="white"/>
</svg>
