<svg width="49" height="47" viewBox="0 0 49 47" fill="none"  >
<path d="M39.7204 5.0699L36.9811 7.98172C36.7059 8.28759 36.3389 8.49729 35.9344 8.57992C35.2695 8.69957 34.3328 8.48363 33.7241 6.7158C33.6757 6.57157 33.6442 6.4224 33.6303 6.27102L33.3092 3.01513C33.2399 2.42442 33.3577 1.82692 33.6462 1.30576C34.1344 0.465476 35.2445 -0.390092 37.7678 0.190189C37.9562 0.238185 38.1346 0.319066 38.2945 0.429051C38.9093 0.715217 39.4254 1.17508 39.7782 1.7512C40.131 2.32731 40.3048 2.99404 40.2779 3.66781C40.2786 4.18864 40.0792 4.6901 39.7204 5.0699Z" fill="white"/>
<path d="M13.711 13.9972C13.7359 14.0422 13.7622 14.0904 13.7912 14.1363C14.9063 15.9171 16.7325 17.5707 18.1266 19.1964C19.0248 20.2441 20.2309 21.1896 20.7314 22.468C21.1793 23.6128 21.0811 25.1072 21.2192 26.3222C21.3759 27.5898 21.5077 28.8597 21.6522 30.1282C21.7229 30.7494 21.7537 31.3877 21.861 32.0031C21.986 32.7206 22.3352 34.0314 22.9815 34.5222C23.6954 35.062 24.1764 34.1299 24.2529 33.5874C24.7267 30.2406 25.2027 26.8941 25.681 23.5477C26.0288 21.1357 25.9156 18.9769 24.5704 16.8758C23.8303 15.7206 22.9222 14.6788 22.1876 13.5209C22.0314 13.3332 21.9204 13.1125 21.8631 12.8756C21.8058 12.6388 21.8037 12.3921 21.8569 12.1543C22.2392 11.1746 23.8195 11.2659 24.6298 11.4504C25.7376 11.774 26.8092 12.2093 27.8279 12.7494C29.3887 13.4597 29.8103 14.582 30.1953 16.0539C30.1953 16.0539 30.545 17.3908 32.3798 18.0197L40.0696 21.1644L41.9049 22.3439C41.9049 22.3439 44.439 22.3439 42.7785 20.5356L35.875 15.9752C35.875 15.9752 34.9139 15.7395 34.3894 14.1669L32.3798 8.27003C32.1866 7.80942 31.8833 7.40249 31.4961 7.0845C31.1089 6.76652 30.6495 6.5471 30.1577 6.44512C28.346 5.93861 26.0787 6.36819 24.2457 6.62819C22.1812 6.92326 20.147 7.39832 18.1665 8.04786C16.6043 8.56157 14.8759 9.15889 13.9207 10.5849C13.6019 11.0911 13.4158 11.6686 13.3791 12.2646C13.3425 12.8606 13.4566 13.4562 13.711 13.9972Z" fill="white"/>
<path d="M40.2671 46.9382C38.54 46.9381 36.8517 46.4295 35.4158 45.4765C33.9798 44.5235 32.8606 43.169 32.1997 41.5843C31.5388 39.9996 31.3659 38.2558 31.7029 36.5735C32.0398 34.8912 32.8715 33.3459 34.0928 32.1331C35.314 30.9202 36.8699 30.0941 38.5638 29.7595C40.2577 29.4248 42.0135 29.5965 43.6091 30.2529C45.2047 30.9093 46.5685 32.0208 47.5281 33.447C48.4877 34.8731 48.9999 36.5499 49 38.2652C48.9977 40.5647 48.0769 42.7695 46.4397 44.3955C44.8024 46.0216 42.5825 46.936 40.2671 46.9382ZM40.2671 30.9693C38.8142 30.9693 37.3939 31.3972 36.1858 32.1988C34.9778 33.0005 34.0362 34.14 33.4802 35.4732C32.9242 36.8063 32.7788 38.2732 33.0622 39.6885C33.3457 41.1037 34.0453 42.4037 35.0726 43.424C36.1 44.4444 37.409 45.1392 38.834 45.4207C40.2589 45.7022 41.736 45.5578 43.0783 45.0056C44.4206 44.4534 45.5679 43.5183 46.3751 42.3185C47.1823 41.1187 47.6131 39.7081 47.6131 38.2652C47.6109 36.3309 46.8362 34.4764 45.459 33.1087C44.0819 31.741 42.2147 30.9715 40.2671 30.9693Z" fill="white"/>
<path d="M13.9832 37.0673C12.256 37.0673 10.5676 36.5586 9.13145 35.6055C7.69533 34.6525 6.576 33.2979 5.91504 31.713C5.25408 30.1282 5.08116 28.3843 5.41816 26.7019C5.75516 25.0194 6.58694 23.474 7.8083 22.2611C9.02967 21.0481 10.5858 20.2221 12.2798 19.8875C13.9738 19.5529 15.7298 19.7248 17.3255 20.3813C18.9212 21.0378 20.2851 22.1495 21.2446 23.5759C22.2041 25.0022 22.7162 26.6791 22.7161 28.3945C22.7137 30.694 21.7929 32.8986 20.1556 34.5246C18.5184 36.1505 16.2986 37.065 13.9832 37.0673ZM13.9832 21.0983C12.5303 21.0984 11.1101 21.5264 9.90213 22.3281C8.69414 23.1298 7.75266 24.2693 7.19673 25.6024C6.64079 26.9356 6.49538 28.4025 6.77888 29.8177C7.06238 31.2329 7.76203 32.5329 8.78941 33.5532C9.81679 34.5735 11.1257 35.2683 12.5507 35.5498C13.9757 35.8312 15.4527 35.6867 16.795 35.1345C18.1373 34.5823 19.2846 33.6472 20.0917 32.4474C20.8989 31.2476 21.3297 29.837 21.3297 28.3941C21.3274 26.4598 20.5527 24.6053 19.1754 23.2376C17.7982 21.87 15.9309 21.1003 13.9832 21.0983Z" fill="white"/>
<path d="M39.046 23.2337L38.9282 23.2471V22.6039L38.9826 22.5994L39.046 23.2337Z" fill="white"/>
<path d="M38.9826 22.5994L38.9282 22.6039L38.6383 22.6354V23.2741L38.9282 23.2471L39.046 23.2337L38.9826 22.5994Z" fill="white"/>
<path d="M41.7499 21.3758L40.4591 22.3699C40.45 22.3699 40.4364 22.388 40.4364 22.4105V30.287C40.4362 30.452 40.3705 30.6102 40.2534 30.7273C40.1364 30.8443 39.9775 30.9108 39.8114 30.9122H39.2634C39.0973 30.9108 38.9384 30.8443 38.8214 30.7273C38.7044 30.6102 38.6386 30.452 38.6383 30.287V25.6623L23.4019 33.8811L22.5413 32.3067L38.6383 23.6295V23.2741L38.9282 23.2471L39.046 23.2337L38.9826 22.5994L38.9282 22.6039L38.6383 22.6354V23.2741L24.5704 24.6821L24.4436 23.4131L38.6383 21.9921V21.5L38.7878 21.3835L40.6539 19.9575C40.7192 19.907 40.7939 19.87 40.8738 19.8483C40.9536 19.8267 41.037 19.8208 41.119 19.8313C41.2011 19.8417 41.2803 19.8682 41.352 19.9092C41.4238 19.9501 41.4867 20.0047 41.5371 20.0699L41.8677 20.5019C41.9183 20.5667 41.9555 20.6409 41.977 20.7201C41.9985 20.7993 42.0039 20.882 41.993 20.9633C41.982 21.0447 41.9549 21.123 41.9132 21.1938C41.8715 21.2647 41.816 21.3265 41.7499 21.3758Z" fill="white"/>
<path d="M0 47H28.9874L21.5897 40.1058H18.4921L14.1608 36.1582H11.7172L0 47Z" fill="white"/>
<path d="M39.046 23.2337L38.9282 23.2471L38.6383 23.2741V22.6354L38.9282 22.6039L38.9826 22.5994L39.046 23.2337Z" fill="white"/>
</svg>
