<svg width="27" height="54" viewBox="0 0 27 54" fill="none"  >
<path d="M13.0747 17.3952L15.661 19.572C15.9222 19.8018 16.2496 19.9404 16.5947 19.9674C17.1605 19.9983 17.917 19.7164 18.2368 18.1544C18.2621 18.0271 18.2726 17.8971 18.2681 17.7673L18.1899 14.9748C18.1852 14.4669 18.0241 13.973 17.729 13.562C17.2344 12.902 16.2209 12.2946 14.1835 13.0534C14.0318 13.1142 13.8919 13.2017 13.7703 13.3116C13.2891 13.6192 12.9083 14.0635 12.6756 14.5889C12.4428 15.1144 12.3686 15.6975 12.462 16.2654C12.5164 16.7072 12.7356 17.1113 13.0747 17.3952Z" fill="white"/>
<path d="M15.5524 22.4491C14.3435 22.741 13.159 23.1279 12.0097 23.6061C8.50606 24.9217 5.06383 26.4097 1.58681 27.7877C0.556181 28.1962 -0.617949 29.6114 1.32133 29.2666C3.58473 28.8645 6.7169 28.0915 6.7169 28.0915L10.8085 26.4675L13.7683 25.3076L15.9304 24.5924C16.0099 24.5581 16.0982 24.5507 16.1821 24.5713C16.2661 24.592 16.3411 24.6396 16.3961 24.707L16.4242 24.7438C16.4493 24.777 16.4661 24.8158 16.4733 24.857C16.4805 24.8982 16.4777 24.9405 16.4653 24.9804C16.453 25.0203 16.4313 25.0565 16.4022 25.0862C16.3731 25.1158 16.3373 25.1379 16.2979 25.1507C14.1159 25.9688 14.5499 25.7529 15.1403 27.4074C15.7838 29.2007 15.9707 31.1289 15.6837 33.0145C15.6075 33.5202 13.8907 34.5495 13.427 34.9465C12.2834 35.9197 11.0907 36.8324 9.85376 37.6809C8.28005 38.7675 6.65631 39.8071 5.19208 41.012C3.8553 42.1121 2.8407 43.6218 1.40657 44.6139C0.884608 44.9749 0.187086 45.3873 0.187086 45.3873C0.187086 45.3873 -0.79858 47.1917 1.75493 46.7275C1.75493 46.7275 7.45978 42.4489 8.06033 42.0879C8.66088 41.7269 17.3657 36.5203 17.3657 36.5203L18.6142 35.5136C18.7078 35.441 18.8231 35.4028 18.941 35.4053C19.059 35.4078 19.1726 35.4508 19.2632 35.5274C19.3053 35.5625 19.3395 35.6064 19.3633 35.6561C19.3871 35.7058 19.4 35.7601 19.401 35.8153C19.4021 35.8705 19.3914 35.9252 19.3695 35.9758C19.3477 36.0264 19.3153 36.0716 19.2745 36.1083L18.3659 36.9731L17.598 43.8409L16.7273 50.4393C16.7273 50.4393 16.0309 53.2619 16.1615 53.2619C16.2921 53.2619 16.9884 54.9227 18.3811 53.2619C19.1533 52.3405 18.9859 49.3732 19.1963 48.2463C19.963 44.1378 21.317 40.1274 22.4727 36.0956C24.0292 30.6664 21.4062 24.5963 21.932 19.0734C22.097 17.3422 22.2683 15.6106 22.3621 13.8735C22.4094 12.9984 22.4372 12.1222 22.4352 11.2455C22.4352 10.8003 22.4266 10.3551 22.4094 9.90981C22.3813 9.15099 22.4661 8.39094 21.6568 8.03743C21.1094 7.80017 20.2653 8.28106 20.3051 8.91256C20.5069 12.1048 20.9499 15.3351 20.0315 18.455C19.8046 19.3131 19.4405 20.1278 18.9535 20.867C18.1528 22.0062 17.3212 22.153 15.943 22.3764C15.8129 22.398 15.6827 22.4222 15.5524 22.4491Z" fill="white"/>
<path d="M24.1376 0C23.5715 0 23.018 0.169813 22.5473 0.48791C22.0766 0.806007 21.7098 1.25816 21.4931 1.78714C21.2765 2.31611 21.2198 2.89812 21.3302 3.45968C21.4407 4.02124 21.7133 4.53709 22.1136 4.94195C22.5139 5.34681 23.0239 5.62254 23.5792 5.73425C24.1344 5.84595 24.71 5.78856 25.233 5.56945C25.756 5.35034 26.203 4.97934 26.5176 4.50327C26.8321 4.02721 27 3.46748 27 2.89493C26.9991 2.12744 26.6972 1.39166 26.1606 0.848967C25.624 0.306271 24.8965 0.000941769 24.1376 0Z" fill="white"/>
</svg>
