<svg width="32" height="51" viewBox="0 0 32 51" fill="none"  >
<path d="M14.2884 13.8241L12.0662 23.049C12.0558 23.0923 12.0492 23.1364 12.0464 23.1807C12.0156 23.7033 11.9218 26.9429 14.3054 27.4147C16.5052 27.8499 20.9707 28.5584 22.2781 28.7638C22.4884 28.7968 23.0277 29.0632 23.0312 29.3524L23.034 29.5131C23.0395 29.8303 22.3747 29.847 22.1432 29.8513L21.4358 29.8633C21.1991 29.8676 21.1202 30.3549 21.1317 30.6787L21.3359 36.3185C21.3568 36.8935 21.276 37.3881 21.6205 37.8156C21.7718 38.0276 21.97 38.2031 22.2003 38.3288C22.4305 38.4544 22.6868 38.527 22.9497 38.541C23.2126 38.555 23.4753 38.5102 23.718 38.4097C23.9607 38.3093 24.1771 38.1559 24.3508 37.9612C24.4926 37.8176 24.5953 37.641 24.6491 37.4479C24.724 36.9303 24.7381 36.406 24.6913 35.8852L24.7004 28.5522C24.7023 26.913 25.0018 24.6526 23.4379 24.1999C22.813 24.019 22.1814 23.8862 21.5561 23.7033C20.9908 23.5379 20.4258 23.369 19.8597 23.2028C18.9089 22.9236 17.3905 22.4815 16.4393 22.2019L16.9916 22.3611C16.7549 22.2935 15.917 21.934 16.0984 21.4886C16.2125 21.2087 16.3698 21.0096 16.5896 21.0748L17.6153 21.4199C17.8256 21.4824 18.6016 21.4813 18.6671 21.2026L20.4345 14.394C20.4463 14.2975 20.4893 14.2072 20.5571 14.1365C20.6249 14.0658 20.714 14.0183 20.8113 14.0011C22.0793 13.9266 23.3469 13.8448 24.6144 13.7557C25.5103 13.692 26.407 13.644 27.3022 13.5671C27.7136 13.5321 28.1306 13.5104 28.5401 13.4393C28.8739 13.4036 29.2038 13.3396 29.5264 13.2479C29.9998 13.0794 30.3786 12.8119 30.4003 12.2854C30.4397 11.3315 29.861 10.5211 28.8783 10.4804C26.6319 10.3872 24.3773 10.5449 22.1321 10.5841L19.0368 10.6376C18.4168 10.6157 17.7961 10.6504 17.1826 10.741C16.501 10.8958 15.8837 11.2519 15.4135 11.7616C14.845 12.3285 14.4544 13.0445 14.2884 13.8241Z" fill="#FCFDFF"/>
<path d="M13.7302 28.2785C13.2871 28.7506 12.8989 29.2491 12.4594 29.7209C11.7315 30.504 10.9409 31.343 10.2107 32.1253C9.44648 33.0371 8.43843 33.7204 7.30038 34.0981C5.60562 34.555 3.88616 34.918 2.15005 35.1852C1.83469 35.2445 1.51306 35.2649 1.19257 35.2461C0.847791 35.1803 0.534083 35.0059 0.298947 34.7492C0.156643 34.6215 0.0588839 34.453 0.0194371 34.2675C-0.0200097 34.0821 0.000907498 33.8891 0.0792495 33.7161C0.66865 32.3304 2.31728 32.074 3.56157 31.7215C4.30877 31.5134 5.06076 31.3011 5.80757 31.0968C6.03836 31.0328 6.26948 30.9687 6.50461 30.9027C6.55471 30.8429 6.60091 30.7828 6.65101 30.723C7.64084 29.4973 8.63499 28.2769 9.65165 27.0733C9.99843 26.661 10.3452 26.2483 10.7109 25.8561C10.7382 25.8321 11.135 25.4434 11.1425 25.4877C11.6392 28.3911 13.7302 28.2785 13.7302 28.2785Z" fill="#FCFDFF"/>
<path d="M17.2472 3.31781L18.1941 7.14682C18.2829 7.54281 18.4985 7.90029 18.8091 8.16675C19.3283 8.58995 20.2491 8.85558 21.6496 7.62635C21.7629 7.52531 21.8639 7.41167 21.9506 7.28777L23.8356 4.63793C24.1873 4.16227 24.3795 3.59043 24.3855 3.00216C24.3756 2.04316 23.8332 0.770916 21.3533 0.0549709C21.1657 0.00560776 20.9706 -0.0107006 20.7773 0.00681797C20.2202 0.0429258 18.5873 -0.109716 17.4563 1.84127C17.1977 2.28918 17.1229 2.8174 17.2472 3.31781Z" fill="#FCFDFF"/>
<path d="M31.2086 14.5571H28.9141C28.4771 14.5571 28.1227 14.9058 28.1227 15.3359V50.2212C28.1227 50.6513 28.4771 51 28.9141 51H31.2086C31.6457 51 32 50.6513 32 50.2212V15.3359C32 14.9058 31.6457 14.5571 31.2086 14.5571Z" fill="#FCFDFF"/>
</svg>
