<svg width="44" height="51" viewBox="0 0 44 51" fill="none" xmlns="http://www.w3.org/2000/svg">
<path d="M19.4295 5.05576L21.9587 8.76116C22.2103 9.14827 22.5825 9.44579 23.0204 9.60967C23.7428 9.86078 24.8317 9.79121 25.8405 7.9501C25.921 7.79937 25.9838 7.64007 26.0275 7.47544L26.9894 3.94083C27.1765 3.30116 27.155 2.62031 26.9279 1.99316C26.5367 0.978384 25.4523 -0.165156 22.5198 0.0198432C22.2999 0.038908 22.0851 0.095934 21.8856 0.188462C21.1442 0.393702 20.4812 0.808489 19.9796 1.38084C19.478 1.95319 19.1602 2.65775 19.066 3.40607C18.9678 3.98121 19.0978 4.57133 19.4295 5.05576Z" fill="#FCFDFF"/>
<path d="M11.1113 46.239L9.64942 50.1668C9.64942 50.1668 10.0144 52.0415 12.1126 50.1668L17.6782 40.7935C17.6782 40.7935 18.4075 39.4547 18.4075 39.0082C18.4254 38.6678 18.5258 38.3364 18.7003 38.0414C18.8749 37.7465 19.1186 37.4962 19.4114 37.3116L26.8013 34.0981C27.2707 33.9259 28.0772 33.8558 27.6487 34.581C27.0439 35.4485 26.687 36.4582 26.6148 37.506C26.6315 38.333 26.7375 39.156 26.9309 39.9613L27.3241 41.9011C27.3483 42.0671 27.3994 42.2282 27.4753 42.3786C27.8499 43.0248 29.3346 43.4941 29.9899 43.8439C30.5116 44.1822 31.0621 44.4759 31.6354 44.7219L41.6711 47.936C42.3407 47.9679 43.0077 47.8348 43.611 47.5488C44.7095 46.8468 43.195 46.0544 42.5891 45.7234C41.3146 45.0278 40.0181 44.3632 38.7366 43.6829L35.1834 41.7995C34.2513 41.3061 32.6986 40.7985 32.0105 40.0234C31.6926 39.6112 31.5295 39.1045 31.5487 38.5884C31.5018 36.6511 31.5371 34.7133 31.5769 32.776C31.6192 30.668 31.7479 28.8032 30.7547 26.8605C30.2219 25.818 29.444 24.8482 29.3321 23.6799C29.2549 22.8566 29.2681 22.0145 29.2363 21.1881L29.081 17.1349C29.081 17.1349 28.9146 14.4567 26.8538 13.2066C26.8538 13.2066 23.6072 11.5105 19.7753 15.3496L16.2171 19.1882C16.2171 19.1882 15.6697 20.3489 12.9328 21.4205L6.72903 24.3666C6.72903 24.3666 4.81331 26.2413 7.27648 26.2413C8.45311 26.2413 9.9141 25.6 11.0721 25.3242C12.5646 25.013 14.0371 24.6161 15.4821 24.1357C16.9279 23.6103 18.1223 22.6064 19.3191 21.6878C19.9648 21.1087 20.5678 20.4827 21.2413 19.9336C21.4903 19.7308 22.8545 18.5814 22.6201 19.6006C22.3567 20.6318 22.3407 21.7087 22.5732 22.747C22.791 23.6089 23.5684 24.227 23.7655 25.006C23.7896 25.121 23.7989 25.2385 23.7932 25.3558C23.7866 26.4411 24.1062 27.7573 23.5164 28.7528C23.0894 29.4736 22.0273 29.9975 21.3487 30.4884L17.2259 33.4646C15.7872 34.4125 14.774 35.8634 14.3942 37.5193L11.1113 46.239Z" fill="#FCFDFF"/>
<path d="M3.19099 30.6483C2.81937 30.9045 2.37173 31.0336 1.91751 31.0158C1.60209 31.0077 1.29352 30.9239 1.01904 30.7716C0.744557 30.6193 0.512696 30.4033 0.343707 30.1425C0.106569 29.7978 -0.0133507 29.3885 0.00118064 28.9732C0.015712 28.5578 0.16389 28.1576 0.424569 27.8295C0.685248 27.5014 1.04512 27.2622 1.45289 27.1461C1.86065 27.0299 2.29546 27.0427 2.69536 27.1826C2.70491 27.1854 2.7134 27.191 2.71973 27.1986C2.72606 27.2061 2.72996 27.2154 2.73093 27.2251C2.7319 27.2348 2.72998 27.2445 2.72527 27.2531C2.72055 27.2618 2.71328 27.2688 2.70447 27.2734C2.39016 27.4827 2.14558 27.7778 2.00095 28.1219C1.85632 28.466 1.81799 28.8441 1.8908 29.2092C1.98533 29.5282 2.15103 29.8228 2.37585 30.0716C2.60066 30.3204 2.87905 30.5174 3.19099 30.6483Z" fill="#FCFDFF"/>
<path d="M3.3886 30.1505C3.37531 30.1657 3.35773 30.1765 3.33802 30.1816C3.31831 30.1867 3.2974 30.1858 3.2782 30.1791C3.02812 30.0854 2.80912 29.9264 2.64509 29.7193C2.48106 29.5122 2.37837 29.265 2.3481 29.0046C2.31783 28.7443 2.36123 28.4808 2.47352 28.243C2.58581 28.0051 2.76271 27.8019 2.98491 27.6557C3.00204 27.6449 3.02205 27.6395 3.04238 27.6402C3.06272 27.6408 3.08234 27.6474 3.09875 27.6592C3.28926 27.8011 3.44852 27.9792 3.56682 28.1829C3.68512 28.3865 3.76005 28.6116 3.78713 28.8443C3.81421 29.0771 3.79284 29.3127 3.72436 29.5372C3.65588 29.7617 3.54165 29.9704 3.3886 30.1505Z" fill="#FCFDFF"/>
<path d="M41.6948 7.41874C41.4805 6.79361 41.0881 6.24142 40.5638 5.82722C40.0396 5.41303 39.4053 5.15407 38.7356 5.08084C38.698 5.07369 38.6608 5.06388 38.6246 5.05134H37.5812C37.4097 5.08094 37.2434 5.11001 37.072 5.14504C35.4446 5.50107 34.0097 6.43431 33.044 7.76465C32.3685 8.61521 31.9494 9.6336 31.834 10.7049C31.7887 11.1735 31.7886 11.6466 31.6979 12.1054C31.4839 13.6917 30.7143 15.1564 29.5202 16.2494C28.1086 17.4729 26.8332 18.8443 25.4972 20.1511C25.4065 20.2404 25.3258 20.3342 25.2401 20.423V20.6993L25.9206 21.3647H26.1979C26.2987 21.2759 26.3996 21.1925 26.4903 21.0988C27.3726 20.2355 28.2548 19.3771 29.132 18.5137C29.5605 18.0944 30.0091 17.6845 30.4224 17.2509C30.7257 16.8877 31.0708 16.5599 31.4509 16.2741C31.8131 16.0277 32.1979 15.8146 32.6003 15.6377C33.4159 15.2857 34.284 15.0639 35.1714 14.9811C35.6579 14.9596 36.1427 14.9102 36.6232 14.833C37.6988 14.6069 38.7016 14.1269 39.5442 13.4347C40.3869 12.7425 41.0439 11.8591 41.4579 10.8617C41.6486 10.349 41.7985 9.82277 41.9065 9.28752V8.26678C41.8514 7.98061 41.7807 7.69753 41.6948 7.41874ZM30.6393 16.0767C31.3637 15.1395 31.8836 14.0668 32.1668 12.9249C32.53 13.6461 33.1275 14.2289 33.8657 14.5819C32.6985 14.8641 31.6013 15.3732 30.6393 16.0788V16.0767ZM40.0715 12.0067C39.2084 13.1306 37.9676 13.9203 36.5679 14.2366C35.9242 14.3925 35.2502 14.3824 34.6118 14.2075C33.9865 14.0354 33.435 13.6699 33.0397 13.1656C32.6444 12.6613 32.4267 12.0454 32.4189 11.4098C32.3966 10.1497 32.8386 8.92386 33.6641 7.95652C34.5212 6.84637 35.7481 6.06466 37.1324 5.74689C37.8433 5.57499 38.5892 5.60214 39.285 5.8253C40.5605 6.25992 41.3016 7.35469 41.3016 9.11637C41.2071 10.1812 40.7773 11.191 40.0715 12.0067Z" fill="#FCFDFF"/>
<path d="M41.3015 9.11831C41.207 10.1831 40.7773 11.1931 40.0715 12.0088C39.2083 13.1326 37.9676 13.9223 36.5678 14.2387C35.9242 14.3946 35.2502 14.3845 34.6117 14.2095C33.9865 14.0375 33.4349 13.672 33.0396 13.1677C32.6443 12.6634 32.4266 12.0473 32.4188 11.4118C32.3965 10.1517 32.8385 8.9258 33.664 7.95845C34.5211 6.8483 35.7481 6.0666 37.1324 5.74882C37.8432 5.57692 38.5892 5.60419 39.285 5.82735C40.5604 6.26198 41.3015 7.35712 41.3015 9.11831Z" fill="#FCFDFF"/>
<path d="M25.238 21.3672V20.7002V21.3672Z" fill="#FCFDFF"/>
</svg>
