<svg width="48" height="38" viewBox="0 0 48 38" fill="none"  >
<path d="M30.5151 7.05607L19.5212 10.7904C19.4697 10.8077 19.4199 10.8296 19.3724 10.8557C18.8115 11.1613 15.3985 13.1509 16.4627 15.809C17.4458 18.2624 19.6242 23.131 20.2643 24.555C20.3669 24.7841 20.4418 25.4864 20.146 25.6776L19.9815 25.7836C19.6571 25.9933 19.2064 25.347 19.0509 25.1206L18.5772 24.4295C18.4194 24.1981 17.8617 24.4337 17.5368 24.6526L11.8344 28.4801C11.2534 28.8703 10.6895 29.1087 10.471 29.7235C10.3502 30.0093 10.2979 30.3181 10.3179 30.6264C10.3379 30.9347 10.4298 31.2346 10.5867 31.5034C10.7435 31.7723 10.9612 32.0031 11.2233 32.1784C11.4855 32.3536 11.7853 32.4689 12.1 32.5154C12.341 32.5635 12.5907 32.5513 12.8255 32.4801C13.4102 32.2215 13.9622 31.8985 14.4707 31.5173L22.0631 26.8135C23.7603 25.7618 26.2941 24.6045 25.7441 22.77C25.5242 22.0362 25.25 21.3266 25.0315 20.591C24.8341 19.9262 24.6403 19.2592 24.4438 18.594C24.1128 17.4746 23.5804 15.6895 23.2513 14.5702C23.2513 14.5651 23.4498 15.2253 23.4479 15.2183C23.3639 14.9406 23.1907 13.8809 23.7684 13.7749C24.1323 13.7077 24.441 13.7351 24.5168 13.9943L24.8279 15.229C24.9004 15.4766 25.4079 16.2432 25.7384 16.1284L33.9357 13.4981C34.0432 13.4477 34.1645 13.4321 34.2819 13.4536C34.3993 13.4751 34.5065 13.5325 34.5877 13.6175C35.4915 14.823 36.4025 16.0231 37.3209 17.2181C37.9706 18.0629 38.6055 18.9179 39.2685 19.7535C39.5729 20.1373 39.8672 20.5359 40.2073 20.8942C40.4617 21.2007 40.7429 21.4854 41.0477 21.745C41.5319 22.1056 42.0547 22.307 42.6137 21.9899C43.6264 21.4154 44.0871 20.3233 43.4885 19.3253C42.1205 17.0454 40.4877 14.9187 38.9832 12.7245L36.9097 9.70024C36.5282 9.07336 36.0876 8.48218 35.5937 7.93422C34.9892 7.36 34.2183 6.979 33.3843 6.84224C32.4266 6.64396 31.4303 6.71818 30.5151 7.05607Z" fill="#FCFDFF"/>
<path d="M16.3315 11.5969C16.1203 11.5067 15.8998 11.4385 15.6737 11.3936C15.0345 11.2681 14.3901 11.1728 13.7461 11.077C11.8615 10.7993 9.97162 10.5535 8.08175 10.3141C7.12966 10.1932 6.17725 10.0746 5.22452 9.95858C3.64088 9.76508 1.63658 9.28642 0.33294 10.4988C0.165698 10.6486 0.0539408 10.8477 0.0151336 11.0653C-0.0236735 11.2829 0.0126594 11.5067 0.118313 11.7023C0.276139 12.09 0.55578 12.4195 0.917661 12.644C1.65081 13.0014 2.64586 13.0092 3.44579 13.1666C4.44971 13.3644 5.45362 13.5627 6.45755 13.7614L15.231 15.4896C15.231 15.4896 13.7538 13.9101 16.3315 11.5969Z" fill="#FCFDFF"/>
<path d="M38.7787 3.70589L39.6411 8.32911C39.7191 8.80672 39.9532 9.24739 40.3089 9.58598C40.9047 10.1258 41.9965 10.5057 43.7772 9.14013C43.9211 9.02772 44.0512 8.89959 44.165 8.75824L46.633 5.73535C47.0921 5.19362 47.366 4.52646 47.4163 3.82671C47.474 2.68468 46.9111 1.13252 43.9708 0.10808C43.748 0.0361427 43.5139 0.00324395 43.2792 0.0108846C42.6042 0.0150509 40.6447 -0.281663 39.1369 1.96304C38.7933 2.47859 38.6652 3.10185 38.7787 3.70589Z" fill="#FCFDFF"/>
<path d="M46.4312 25.9303H35.3438C34.4773 25.9303 33.7749 26.6119 33.7749 27.4528V36.4775C33.7749 37.3183 34.4773 38 35.3438 38H46.4312C47.2976 38 48 37.3183 48 36.4775V27.4528C48 26.6119 47.2976 25.9303 46.4312 25.9303Z" fill="#FCFDFF"/>
</svg>
