<svg width="45" height="30" viewBox="0 0 45 30" fill="none"  >
<path d="M7.89833 2.7972L8.0516 7.28173C8.07704 7.74296 7.95383 8.20018 7.70008 8.58617C7.26935 9.20698 6.3568 9.77572 4.46782 8.84988C4.31485 8.77303 4.17119 8.67887 4.03964 8.56933L1.19315 6.23077C0.667789 5.81517 0.285045 5.24613 0.0981784 4.60286C-0.184377 3.54826 0.0118163 1.98886 2.46846 0.456015C2.65591 0.345553 2.86143 0.269026 3.07549 0.230105C3.78945 -0.0282192 4.56375 -0.0700538 5.30142 0.109727C6.03908 0.289508 6.7073 0.682924 7.22234 1.24078C7.63786 1.6544 7.87967 2.21121 7.89833 2.7972Z" fill="white"/>
<path d="M13.7175 28.5873C15.8937 29.7313 18.9487 29.2087 21.135 28.4637C22.907 27.8603 24.2344 26.4383 25.7075 25.3407L36.9085 16.9929C38.8149 15.572 40.7079 14.1315 42.6015 12.6962C43.2754 12.1853 44.211 11.7061 44.0465 10.7067C43.9815 10.3737 43.7911 10.0783 43.5146 9.88166C43.238 9.68502 42.8965 9.60207 42.5606 9.65001C41.8882 9.71082 41.2102 10.257 40.619 10.5871L17.6151 23.4763C17.4834 23.5459 17.3299 23.5613 17.187 23.5194C17.0442 23.4775 16.9233 23.3815 16.8501 23.2519C16.7769 23.1223 16.7572 22.9693 16.7951 22.8253C16.8329 22.6813 16.9255 22.5578 17.053 22.481L17.3994 22.2802C17.4658 22.2416 17.5238 22.1901 17.5698 22.1287C17.6159 22.0673 17.6491 21.9973 17.6675 21.9228C17.6859 21.8482 17.6892 21.7708 17.677 21.695C17.6648 21.6192 17.6375 21.5466 17.5967 21.4816L13.9556 15.6936C13.903 15.6099 13.8296 15.5412 13.7426 15.4944C13.6555 15.4475 13.5578 15.4241 13.459 15.4263L11.8239 15.4626C11.6743 15.4551 11.5334 15.3901 11.4306 15.2811C11.3278 15.1721 11.2711 15.0276 11.2724 14.8778C11.2738 14.7279 11.333 14.5844 11.4377 14.4772C11.5424 14.37 11.6844 14.3075 11.8342 14.3027L13.5837 14.3436C13.6455 14.3452 13.7071 14.3365 13.7661 14.318L29.3393 9.2683C29.4787 9.22525 29.5964 9.13066 29.6683 9.00372C29.9105 8.57759 30.2416 7.62416 28.4538 7.5184C28.4079 7.5156 28.3617 7.51812 28.3164 7.52601L10.1675 10.6198C9.11149 10.7771 8.1362 11.2763 7.39093 12.0407C6.64565 12.8052 6.17147 13.7929 6.04101 14.8526C5.8305 16.7855 6.75074 18.5395 7.673 20.1633C9.2549 22.9393 10.7377 27.0223 13.7175 28.5873Z" fill="white"/>
</svg>
