<svg width="52" height="48" viewBox="0 0 52 48" fill="none"  >
<path d="M1.45551 2.06406V6.15767C1.45991 6.1831 1.48099 6.20084 1.48099 6.22627C1.48099 6.25169 1.45991 6.2692 1.45551 6.29549V10.8274C1.73785 11.0652 2.70338 11.3071 3.6984 11.4584V0.996682C2.3096 1.21214 1.45551 1.76156 1.45551 2.06406Z" fill="#FCFDFF"/>
<path d="M4.45116 11.5538C5.01675 11.6464 5.59474 11.6373 6.15701 11.5271V1.3337C6.04513 1.10359 5.41711 0.893705 4.45116 0.931194V11.5538Z" fill="#FCFDFF"/>
<path d="M46.1068 1.01652C45.9187 1.09969 45.8232 1.1946 45.8232 1.29888V6.17667C45.8232 6.1952 45.8413 6.20695 45.8413 6.22591C45.8413 6.24487 45.8254 6.25682 45.8232 6.27535V11.3882C45.932 11.5174 46.7847 11.6704 48.066 11.4873V0.902482C47.7878 0.861379 47.507 0.839344 47.2256 0.836836C46.8441 0.822859 46.4637 0.883959 46.1068 1.01652Z" fill="#FCFDFF"/>
<path d="M48.8189 1.05097V11.3384C49.9843 11.0687 50.4878 10.7037 50.5265 10.5679V2.10593C50.5252 1.74569 49.7954 1.30692 48.8189 1.05097Z" fill="#FCFDFF"/>
<path d="M51.6224 5.80788H51.2775V2.10645C51.2775 0.732723 48.9232 0.00178581 47.2252 0.00178581C46.7469 -0.0133489 46.2706 0.067853 45.8258 0.240173C45.6044 0.319918 45.4133 0.463889 45.278 0.652985C45.1427 0.842081 45.0698 1.06729 45.069 1.29808V5.80788H6.91117V1.25537C6.91108 1.2177 6.90608 1.18028 6.89622 1.14386C6.63194 0.0928755 5.02815 -0.0481287 3.62614 0.16043C2.21223 0.375884 0.703612 0.988209 0.703612 2.06332V5.80619H0.378529C0.274167 5.81849 0.178033 5.8677 0.108289 5.94464C0.0385457 6.02158 0 6.1208 0 6.22363C0 6.32647 0.0385457 6.4259 0.108289 6.50284C0.178033 6.57978 0.274167 6.62899 0.378529 6.64128H0.703612V10.9302C0.703612 11.3792 1.10528 11.6777 2.09546 11.9643C3.14862 12.2418 4.23092 12.3998 5.32102 12.4352C6.05749 12.4352 6.67547 12.3111 6.86267 11.9397C6.89357 11.876 6.90974 11.8063 6.90988 11.7358V6.6417H45.069V11.3869C45.069 11.8506 45.399 12.4038 46.9719 12.4038C48.0762 12.4038 51.2766 11.9549 51.2766 10.5786V6.6417H51.6215C51.7258 6.62941 51.822 6.5802 51.8917 6.50326C51.9615 6.42632 52 6.32689 52 6.22405C52 6.12122 51.9615 6.022 51.8917 5.94506C51.822 5.86812 51.7258 5.81891 51.6215 5.80661L51.6224 5.80788ZM3.69571 11.4585C2.70069 11.3059 1.7356 11.0653 1.45282 10.8275V6.29706C1.45767 6.27035 1.48013 6.25394 1.48013 6.22679C1.48013 6.19964 1.45767 6.18361 1.45282 6.15862V2.065C1.45282 1.76337 2.30603 1.21309 3.69571 0.997206V11.4585ZM6.15443 11.5264C5.59277 11.6381 5.01479 11.6471 4.44976 11.5532V0.93177C5.41483 0.892988 6.04255 1.10422 6.15443 1.33217V11.5264ZM48.0647 11.4877C46.782 11.6696 45.9288 11.517 45.8218 11.3882V6.27623C45.8244 6.25684 45.8394 6.24492 45.8394 6.22553C45.8394 6.20614 45.8244 6.1961 45.8218 6.17671V1.2985C45.8218 1.19422 45.9161 1.09929 46.1051 1.01698C46.4619 0.884262 46.8424 0.823156 47.2239 0.837299C47.5054 0.839371 47.7864 0.861408 48.0647 0.902945V11.4877ZM50.5238 10.5704C50.4864 10.7039 49.983 11.0701 48.8166 11.3394V1.05065C49.7944 1.30919 50.5238 1.74492 50.5238 2.10645V10.5704Z" fill="#FCFDFF"/>
<path d="M37.9709 6.21932C37.9185 6.37445 37.8261 6.67175 37.7067 7.05526C37.1561 8.82628 36.0241 13.2819 36.0241 13.2819L32.9099 19.4998C32.8684 19.6002 32.836 19.7042 32.813 19.8101C32.3858 21.1977 31.9571 22.5866 31.5269 23.977C31.3066 24.6837 31.0203 25.4077 30.8618 26.1359C30.7177 26.8821 30.6969 27.646 30.8 28.3986C30.9762 29.8758 31.5277 31.3205 31.7907 32.7916C32.1308 34.5251 32.3195 36.2839 32.3545 38.0488C32.4078 38.5098 32.4426 38.9751 32.4606 39.4362L32.7249 46.0205C32.7578 46.5068 32.5944 46.9862 32.27 47.356C31.9455 47.7258 31.4858 47.9564 30.9895 47.9983C30.7015 48.0095 30.4147 47.9559 30.1513 47.8416C29.8878 47.7273 29.6546 47.5553 29.4698 47.3389C29.439 47.2958 29.4082 47.2486 29.3773 47.1969C29.0509 46.6324 29.1439 45.8956 29.1571 45.2492C29.1835 43.991 29.2085 42.7313 29.232 41.4701C29.2536 40.434 29.1887 39.3978 29.0382 38.3719L28.0119 31.3308C27.9488 31.054 27.9521 30.7668 28.0216 30.4915C27.0109 30.7482 25.9503 30.7509 24.9383 30.4993C24.9868 30.7741 24.9913 31.0546 24.9515 31.3308L23.9252 38.3719C23.7753 39.3979 23.709 40.4339 23.727 41.4701C23.7535 42.7327 23.7754 43.991 23.8063 45.2492C23.8195 45.8956 23.912 46.6324 23.5816 47.1969C23.556 47.2474 23.525 47.2949 23.4892 47.3389C23.3049 47.5559 23.0718 47.7283 22.8082 47.8426C22.5446 47.957 22.2576 48.0104 21.9696 47.9983C21.474 47.9555 21.0153 47.7244 20.6917 47.3547C20.3681 46.985 20.2054 46.5062 20.2384 46.0205C20.3737 42.5884 20.4931 39.1526 20.8194 35.7316C20.9718 34.1372 21.052 32.4379 21.5043 30.8957C21.9378 29.419 22.5201 27.9296 22.2972 26.3667C22.1386 25.2205 21.6145 24.0141 21.2841 22.9066C20.945 21.7691 20.6015 20.6357 20.2623 19.4981L15.3642 7.05357L15.2276 6.7346C15.1788 6.62256 15.3775 6.42016 15.6241 6.21764H18.289C18.4079 6.49773 18.5312 7.60942 18.6501 7.88951C19.4209 9.67777 20.1932 11.4675 20.967 13.2586C21.4383 14.3531 21.914 15.4476 22.3853 16.5421C22.4829 16.8483 22.6113 17.1441 22.7685 17.4254C23.2399 18.0933 24.755 18.2829 25.4994 18.3605C26.3429 18.4358 27.1911 18.4489 28.0366 18.3994C28.7545 18.3649 29.4769 17.9684 30.1548 17.7185L34.4101 7.05357L34.7714 6.21764L37.9709 6.21932Z" fill="#FCFDFF"/>
<path d="M23.6627 12.0404L25.2233 15.0887C25.3769 15.4058 25.6306 15.6663 25.947 15.8316C26.4712 16.0902 27.305 16.138 28.2498 14.8341C28.3259 14.7267 28.389 14.6109 28.4379 14.4893L29.5117 11.8952C29.716 11.4271 29.7658 10.9084 29.6544 10.4112C29.4558 9.60456 28.7435 8.63553 26.4989 8.50454C26.3299 8.49875 26.1612 8.52209 26.0007 8.57376C25.4177 8.66048 24.8739 8.91375 24.4374 9.30155C24.0009 9.68934 23.6912 10.1944 23.5469 10.7538C23.4166 11.1814 23.458 11.6416 23.6627 12.0404Z" fill="#FCFDFF"/>
</svg>
