<svg width="51" height="45" viewBox="0 0 51 45" fill="none"  >
<path d="M37.8673 2.63654L37.7999 6.77237C37.7839 7.19762 37.9061 7.61684 38.1486 7.96821C38.5601 8.53373 39.4194 9.04263 41.1608 8.15822C41.302 8.08484 41.4343 7.99571 41.5549 7.89245L44.1663 5.69054C44.6486 5.29883 44.9954 4.76776 45.1583 4.17168C45.4044 3.19529 45.1956 1.76158 42.8828 0.389472C42.7066 0.2905 42.514 0.22322 42.3141 0.190824C41.645 -0.0353751 40.9234 -0.0610184 40.2396 0.116794C39.5558 0.294606 38.9402 0.667987 38.4698 1.19048C38.0903 1.57897 37.8749 2.09624 37.8673 2.63654Z" fill="white"/>
<path d="M47.4205 20.8235C45.919 20.8143 44.4368 20.4869 43.0738 19.8634C40.9555 18.7778 39.9912 16.8172 38.5468 15.0909C38.5318 15.0729 38.5105 15.0612 38.4871 15.058C38.4638 15.0549 38.4401 15.0605 38.4207 15.0738C37.8412 15.4933 37.3996 16.1907 36.8248 16.6435C36.1963 17.1218 35.5428 17.5669 34.8669 17.9768C33.5905 18.7915 32.2595 19.6298 31.3293 20.8154C31.2305 20.9177 31.1725 21.052 31.166 21.1934C31.1971 21.7054 32.2319 21.9252 32.6031 22.1112C33.1991 22.4116 33.7692 22.7598 34.3078 23.1523C35.337 23.901 36.2465 24.7988 37.0055 25.8156C38.5744 27.9291 39.1197 30.4622 40.057 32.8678C40.9387 35.142 42.1712 37.3762 42.1849 39.8096C42.1995 39.9006 42.1917 39.9939 42.1621 40.0813C42.1325 40.1687 42.082 40.2476 42.0149 40.3115C41.9235 40.3531 41.8229 40.3707 41.7226 40.3629C41.6223 40.355 41.5257 40.3219 41.4421 40.2666C39.1891 39.2053 37.7585 36.9503 36.8283 34.6568C35.9604 32.5297 35.2523 30.3303 33.4537 28.7601C32.3476 27.8739 31.1102 27.1618 29.7849 26.649C29.0024 26.3158 28.2463 25.9251 27.5227 25.48C27.0367 25.1768 26.0197 24.0247 25.455 24.5675C25.1094 24.9096 25.0517 25.5396 24.8352 25.9672C24.5174 26.5914 24.1463 27.1877 23.7259 27.7493C22.7725 29.1458 21.3819 30.1934 19.7681 30.731C18.6449 31.0403 17.4978 30.4525 16.5364 29.9335C14.0281 28.5806 11.3432 27.6427 8.72825 26.5268C7.96117 26.2775 7.27792 25.8244 6.75296 25.2172C6.61058 25.0414 6.53662 24.8208 6.54462 24.5956C6.57899 24.4386 6.65173 24.2923 6.75639 24.1695C6.86105 24.0467 6.99445 23.9511 7.14503 23.8911C7.80337 23.5827 8.54691 23.5008 9.25768 23.6582C9.71334 23.7537 10.152 23.9162 10.559 24.1403C11.3366 24.5512 12.1414 24.9096 12.9678 25.2133C13.8655 25.5444 14.7938 25.7877 15.7395 25.9395C16.6549 26.1654 17.6157 26.1361 18.5153 25.8546C19.1913 25.5109 19.7279 24.948 20.0357 24.26C21.6938 21.3562 23.6622 18.6371 25.9069 16.1493C26.9111 14.9955 28.3335 14.1424 29.1371 12.8209L29.0605 12.6829C28.4272 12.6562 27.7945 12.7467 27.1949 12.9502C26.5168 13.2736 25.8919 13.6965 25.3412 14.2045C24.1383 15.2334 23.1535 16.4787 22.0002 17.5632L21.9875 17.5734C18.9421 19.6692 20.417 16.5827 20.4819 16.4493C20.4839 16.445 20.4867 16.4411 20.4901 16.4377C22.6813 13.6662 24.459 10.7805 28.0659 9.77129C30.0376 9.2249 32.0815 8.97679 34.1281 9.03543C36.2745 9.17949 38.3279 9.95758 40.0228 11.2692C41.8526 12.7024 41.998 15.5306 43.7237 17.1084C45.5499 18.7762 48.3793 18.7337 50.5246 19.9744C50.7095 20.0619 50.8606 20.2067 50.955 20.3868C51.4405 21.6138 47.8473 20.8443 47.4205 20.8235Z" fill="white"/>
<path d="M37.6917 45C38.5305 45 39.2105 44.3269 39.2105 43.4965C39.2105 42.6661 38.5305 41.993 37.6917 41.993C36.8528 41.993 36.1728 42.6661 36.1728 43.4965C36.1728 44.3269 36.8528 45 37.6917 45Z" fill="white"/>
<path d="M41.6279 45C42.4667 45 43.1468 44.3269 43.1468 43.4965C43.1468 42.6661 42.4667 41.993 41.6279 41.993C40.7891 41.993 40.109 42.6661 40.109 43.4965C40.109 44.3269 40.7891 45 41.6279 45Z" fill="white"/>
<path d="M45.3477 45C46.1865 45 46.8666 44.3269 46.8666 43.4965C46.8666 42.6661 46.1865 41.993 45.3477 41.993C44.5089 41.993 43.8288 42.6661 43.8288 43.4965C43.8288 44.3269 44.5089 45 45.3477 45Z" fill="white"/>
<path d="M1.51886 25.2063C2.3577 25.2063 3.03771 24.5331 3.03771 23.7027C3.03771 22.8724 2.3577 22.1992 1.51886 22.1992C0.680015 22.1992 0 22.8724 0 23.7027C0 24.5331 0.680015 25.2063 1.51886 25.2063Z" fill="white"/>
<path d="M3.61873 28.5013C4.45757 28.5013 5.13758 27.8282 5.13758 26.9978C5.13758 26.1675 4.45757 25.4943 3.61873 25.4943C2.77988 25.4943 2.09987 26.1675 2.09987 26.9978C2.09987 27.8282 2.77988 28.5013 3.61873 28.5013Z" fill="white"/>
<path d="M5.60367 31.6158C6.44252 31.6158 7.12253 30.9427 7.12253 30.1123C7.12253 29.2819 6.44252 28.6088 5.60367 28.6088C4.76483 28.6088 4.08482 29.2819 4.08482 30.1123C4.08482 30.9427 4.76483 31.6158 5.60367 31.6158Z" fill="white"/>
</svg>
