<svg width="54" height="54" viewBox="0 0 54 54" fill="none"  >
<path d="M33.708 6.61267L30.6864 9.84655C30.3827 10.1862 29.9778 10.4192 29.5316 10.5113C28.7978 10.6442 27.7647 10.4042 27.0932 8.44096C27.0402 8.28053 27.0056 8.11446 26.9902 7.94618L26.6362 4.32999C26.5594 3.67358 26.6894 3.00955 27.0082 2.43063C27.5467 1.49744 28.771 0.547179 31.5536 1.19386C31.7615 1.24729 31.9582 1.33721 32.1348 1.45931C32.8129 1.77708 33.3822 2.2879 33.7714 2.9278C34.1605 3.56769 34.3521 4.30818 34.3222 5.0565C34.3228 5.63446 34.1031 6.19094 33.708 6.61267Z" fill="white"/>
<path d="M24.9239 13.1301C24.5644 13.2787 24.2363 13.4944 23.9572 13.7655C22.6747 15.0176 21.5101 16.4017 20.275 17.7002L13.4098 24.9172C12.692 25.6716 12.0768 26.2915 11.8681 27.3447C11.6101 28.3603 11.7429 29.4358 12.2401 30.3582C12.7802 31.1221 13.3956 31.8298 14.0771 32.4708C14.0925 32.4877 14.1098 32.5028 14.1286 32.5157L15.001 33.0974C15.0489 33.1294 15.1052 33.1464 15.1628 33.1464H19.3835C19.4358 33.1465 19.4871 33.1325 19.5319 33.1057L27.3674 28.4681L29.6733 27.1546C29.6733 27.1546 30.1994 27.3349 30.2324 27.7044C30.2345 27.7535 30.2238 27.8022 30.2012 27.8458C30.1785 27.8894 30.1449 27.9264 30.1036 27.9529L29.2111 28.5614C29.1751 28.586 29.1451 28.6184 29.1232 28.6561C29.1014 28.6938 29.0883 28.7359 29.0849 28.7794C29.0815 28.8228 29.0878 28.8664 29.1035 28.9071C29.1192 28.9477 29.1438 28.9843 29.1755 29.0143L33.6122 33.1974C33.6664 33.2485 33.7381 33.2769 33.8126 33.2768H37.6772C37.7315 33.2768 37.7848 33.2616 37.831 33.2329C37.8772 33.2042 37.9144 33.1632 37.9385 33.1145C37.9626 33.0658 37.9726 33.0114 37.9674 32.9573C37.9622 32.9032 37.9421 32.8515 37.9091 32.8083L30.8909 23.6152C30.8909 23.6152 29.8037 22.1651 27.4184 23.039C27.3972 23.047 27.3769 23.0571 27.3576 23.069L25.8014 24.0418C25.8014 24.0418 24.6163 24.1963 24.995 23.2173L28.7618 19.7649C28.7789 19.749 28.7979 19.7354 28.8184 19.7242C29.0555 19.5975 30.6446 18.7967 31.7138 19.5578C31.7138 19.5578 37.6757 23.2993 42.5797 24.3397C42.5897 24.342 42.5998 24.3437 42.61 24.3448L44.1838 24.5381C44.2296 24.5439 44.2761 24.5386 44.3195 24.5227C44.3629 24.5069 44.4019 24.4809 44.4332 24.4469L45.2334 23.5837C45.2638 23.5514 45.2863 23.5124 45.2993 23.47C45.3122 23.4276 45.3153 23.3828 45.3082 23.3391C45.3011 23.2953 45.2842 23.2536 45.2585 23.2174C45.2328 23.1812 45.1992 23.1514 45.1602 23.1302C43.0778 22.0041 41.0355 20.8068 39.0335 19.5382C37.5634 18.6107 36.1159 17.6456 34.7112 16.6217C33.5874 15.8029 32.5584 14.8661 31.4902 13.9787C30.5569 13.1556 29.3414 12.7255 28.098 12.7782C27.027 12.6739 25.9461 12.7937 24.9239 13.1301Z" fill="white"/>
<path d="M52.3134 32.4548H0.718309C0.321598 32.4548 0 32.7764 0 33.1731V33.5652C0 33.962 0.321598 34.2836 0.718309 34.2836H52.3134C52.7101 34.2836 53.0317 33.962 53.0317 33.5652V33.1731C53.0317 32.7764 52.7101 32.4548 52.3134 32.4548Z" fill="white"/>
<path d="M9.46169 53.0328L16.6484 47.8686C16.8047 47.7562 16.9158 47.5918 16.9617 47.4049L17.6506 44.5841C17.6965 44.3951 17.8093 44.2291 17.968 44.1168L45.4421 24.6766C45.5329 24.6123 45.6095 24.5299 45.6669 24.4346C45.7244 24.3394 45.7615 24.2332 45.7761 24.1229C45.7906 24.0126 45.7821 23.9004 45.7513 23.7935C45.7204 23.6866 45.6677 23.5873 45.5967 23.5017L45.4421 23.3136C45.3117 23.1569 45.1267 23.0554 44.9245 23.0293C44.7223 23.0032 44.5177 23.0545 44.3517 23.173L16.9199 42.7895C16.7623 42.9022 16.5693 42.9544 16.3763 42.9368L12.8919 42.6158C12.6963 42.5976 12.5008 42.6514 12.3422 42.7673L5.63261 47.6625" fill="white"/>
</svg>
