<svg width="48" height="53" viewBox="0 0 48 53" fill="none"  >
<path d="M20.6756 4.33644L22.5103 8.15405C22.6908 8.55089 22.9938 8.87934 23.3749 9.09106C24.0065 9.42249 25.0188 9.49825 26.1935 7.89743C26.2883 7.76632 26.3677 7.62484 26.4302 7.47563L27.7877 4.27448C28.0452 3.69694 28.1164 3.0534 27.9912 2.43353C27.7663 1.42787 26.9198 0.208199 24.1945 0.00223755C23.9894 -0.0081541 23.7841 0.0177126 23.588 0.0785297C22.8777 0.174907 22.2117 0.47868 21.6734 0.951844C21.135 1.42501 20.7483 2.04649 20.5615 2.73847C20.3949 3.26624 20.4357 3.8377 20.6756 4.33644Z" fill="white"/>
<path d="M21.0767 18.7039C21.1325 18.6842 21.19 18.67 21.2485 18.6614C21.4966 21.3081 20.829 23.9453 20.1671 26.521C19.1766 30.3727 18.1691 34.2684 16.2846 37.7702C13.9599 42.0897 10.4135 45.6048 7.53009 49.5739C7.0713 50.2055 6.61489 51.054 7.11109 51.7093C7.22533 51.8509 7.37029 51.9647 7.535 52.0421C7.69972 52.1194 7.87987 52.1584 8.06183 52.1558C8.7535 52.0958 9.40157 51.7929 9.89131 51.3008C11.297 50.1564 12.5965 48.8874 13.7738 47.5092C15.2416 45.7886 16.5839 43.8468 18.5772 42.7744C19.8374 42.1756 21.1795 41.7673 22.5596 41.5628L34.9007 39.1078C35.0992 39.0739 35.2836 38.9829 35.4312 38.8458C35.5788 38.7088 35.6832 38.5316 35.7316 38.3361C35.8912 37.5629 35.073 37.2508 34.4149 37.1452C30.8032 36.5707 27.1028 37.0247 23.7371 38.4554C23.443 38.6139 23.1134 38.6954 22.7793 38.6921C22.4478 38.6571 22.1164 38.3678 22.1728 38.0392C22.2314 37.8383 22.3566 37.6633 22.5279 37.543C24.2797 35.9995 26.4577 34.5189 27.9633 32.75C29.5111 30.9323 29.2256 27.7312 29.4287 25.477C29.4287 24.7843 29.5523 24.0693 29.6092 23.3785C29.6688 22.6484 29.7254 21.9181 29.7791 21.1873C29.8327 20.4566 29.883 19.7257 29.9297 18.9946C29.9562 18.5889 30.003 18.1846 30.0329 17.7788C30.0494 17.5487 30.1844 17.2177 30.0604 16.9999C29.8004 16.5426 28.9397 17.0174 28.5585 16.7863C28.4059 16.7043 28.2893 16.5684 28.2316 16.405C28.1739 16.2416 28.1792 16.0625 28.2465 15.9028C28.4359 15.5264 28.9093 15.5151 29.3066 15.5326C35.2619 15.7931 41.1958 14.6595 46.6357 12.2221C47.0145 12.0521 47.4525 11.7908 47.3497 11.3225C47.2989 11.1351 47.1798 10.9733 47.016 10.8691C46.8521 10.7648 46.6551 10.7256 46.4638 10.759L39.5293 11.769C38.5887 11.9538 37.6284 12.0187 36.6714 11.9621C35.7051 11.8646 34.7577 11.6435 33.8055 11.4617C32.2191 11.091 30.5966 10.897 28.9675 10.8832C26.6527 10.9589 24.4388 11.794 22.2746 12.6188C21.5106 12.8444 20.8102 13.2458 20.2292 13.7907C19.7973 14.3412 19.4792 14.9721 19.2936 15.6467C18.5128 17.8578 17.5985 20.076 16.0597 21.8459C14.2828 23.8894 11.8041 25.1882 9.8468 27.0612C9.7347 27.1633 9.65403 27.2951 9.6142 27.4413C9.57436 27.5876 9.57704 27.7422 9.62191 27.8869C9.82551 28.4594 10.594 28.3287 11.1176 28.1052C13.7332 26.9877 16.2089 25.5677 18.4939 23.8739C19.1567 23.3819 19.8399 22.816 20.0734 22.0239C20.1752 21.3897 20.2163 20.7473 20.196 20.1054C20.2021 19.8139 20.2873 19.5296 20.4424 19.2828C20.5975 19.036 20.8167 18.8359 21.0767 18.7039Z" fill="white"/>
<path d="M3.62252 34.1824C4.83571 34.9463 5.75959 36.0928 6.24795 37.4407C6.65613 38.4217 6.82541 39.4857 6.74185 40.545C6.6583 41.6043 6.32431 42.6286 5.76737 43.5335C5.11113 44.6456 4.12535 44.8435 3.03683 44.138C2.60764 43.8594 2.21494 43.5282 1.86783 43.1522C0.907832 42.1073 0.283672 40.7983 0.0761756 39.3946C-0.131321 37.9909 0.0874001 36.5573 0.704025 35.2793C0.764156 35.1543 0.837545 35.036 0.940762 34.8508C1.0454 34.7244 1.18366 34.5337 1.34606 34.3656C1.96347 33.7259 2.76032 33.6525 3.62252 34.1824Z" fill="white"/>
</svg>
