<svg width="48" height="53" viewBox="0 0 48 53" fill="none"  >
<path d="M26.6884 4.33635L24.8536 8.15397C24.6732 8.55081 24.3701 8.87926 23.9891 9.09097C23.3574 9.42241 22.3452 9.49816 21.1705 7.89735C21.0757 7.76624 20.9963 7.62475 20.9338 7.47555L19.5763 4.2744C19.3188 3.69685 19.2476 3.05343 19.3727 2.43356C19.5976 1.4279 20.4442 0.208227 23.1695 0.00226602C23.3746 -0.00818512 23.5799 0.0175673 23.776 0.0784426C24.4862 0.174939 25.1521 0.478726 25.6905 0.951872C26.2288 1.42502 26.6156 2.04646 26.8024 2.73838C26.9691 3.26616 26.9283 3.83761 26.6884 4.33635Z" fill="white"/>
<path d="M26.2878 18.7039C26.232 18.6844 26.1744 18.6702 26.1159 18.6614C25.8678 21.3081 26.5354 23.9453 27.1973 26.521C28.1878 30.3727 29.1954 34.2685 31.0798 37.7703C33.4051 42.0898 36.9509 45.6049 39.8348 49.5741C40.2936 50.2057 40.7501 51.0541 40.2534 51.7094C40.1393 51.8511 39.9944 51.9649 39.8297 52.0422C39.6651 52.1196 39.485 52.1584 39.3031 52.1558C38.6114 52.0958 37.9633 51.793 37.4736 51.3008C36.0679 50.1565 34.7685 48.8874 33.5911 47.5092C32.1234 45.7886 30.781 43.8469 28.7877 42.7745C27.5276 42.1757 26.1855 41.7673 24.8053 41.5628L12.4643 39.1079C12.2657 39.074 12.0813 38.9829 11.9337 38.8459C11.7862 38.7088 11.6817 38.5316 11.6333 38.3361C11.4738 37.5629 12.2919 37.2509 12.95 37.1454C16.5617 36.5709 20.2621 37.0248 23.6278 38.4554C23.9219 38.614 24.2515 38.6955 24.5856 38.6921C24.9171 38.6571 25.2485 38.3678 25.1917 38.0393C25.1333 37.8384 25.0082 37.6633 24.8371 37.543C23.0852 35.9995 20.9072 34.5189 19.4016 32.75C17.8538 30.9323 18.1393 27.7313 17.9362 25.4771C17.9362 24.7844 17.8121 24.0698 17.7558 23.3786C17.6961 22.6485 17.6395 21.9181 17.5858 21.1874C17.5321 20.4566 17.482 19.7257 17.4352 18.9946C17.4087 18.5889 17.3619 18.1851 17.332 17.7788C17.3155 17.5492 17.1805 17.2178 17.3041 17C17.5645 16.5426 18.4253 17.0175 18.8064 16.7869C18.959 16.7047 19.0756 16.5687 19.1333 16.4052C19.191 16.2418 19.1857 16.0627 19.1184 15.903C18.9291 15.5242 18.4556 15.5151 18.0583 15.5326C12.103 15.7931 6.16911 14.6595 0.729199 12.2221C0.35042 12.0521 -0.0875414 11.7908 0.0152024 11.3225C0.0660228 11.1351 0.185064 10.9733 0.348952 10.8691C0.512839 10.7648 0.709733 10.7257 0.901059 10.7591L7.83558 11.769C8.77622 11.9539 9.73648 12.0189 10.6934 11.9622C11.6598 11.8647 12.6072 11.6435 13.5594 11.4617C15.1458 11.0911 16.7683 10.897 18.3973 10.8832C20.7122 10.9589 22.9261 11.7941 25.0904 12.6189C25.8543 12.8446 26.5548 13.2458 27.1358 13.7907C27.5676 14.3413 27.8856 14.9722 28.0714 15.6468C28.8521 17.8579 29.7664 20.0762 31.3052 21.846C33.0821 23.8895 35.5608 25.1882 37.5181 27.0613C37.6301 27.1634 37.7107 27.2952 37.7506 27.4415C37.7904 27.5877 37.7878 27.7422 37.743 27.887C37.5394 28.4599 36.771 28.3288 36.2473 28.1053C33.6317 26.9879 31.156 25.5677 28.8711 23.8739C28.2082 23.3819 27.525 22.8161 27.2915 22.024C27.1897 21.3899 27.1486 20.7475 27.1689 20.1055C27.1628 19.814 27.0775 19.5297 26.9223 19.2828C26.7671 19.036 26.5478 18.8358 26.2878 18.7039Z" fill="white"/>
<path d="M43.7415 34.1824C42.5283 34.9463 41.6044 36.0928 41.116 37.4408C40.7079 38.4218 40.5386 39.4858 40.6222 40.5451C40.7057 41.6043 41.0397 42.6286 41.5966 43.5335C42.2529 44.6457 43.2387 44.8435 44.3272 44.1381C44.7563 43.8593 45.149 43.5283 45.4962 43.1524C46.4561 42.1075 47.0802 40.7983 47.2877 39.3947C47.4952 37.991 47.2766 36.5574 46.66 35.2794C46.5999 35.1544 46.5265 35.036 46.4233 34.8509C46.3186 34.7245 46.1803 34.5337 46.0179 34.3656C45.4005 33.726 44.6018 33.6516 43.7415 34.1824Z" fill="white"/>
</svg>
