<svg width="36" height="49" viewBox="0 0 36 49" fill="none"  >
<path d="M32.1141 16.8479C30.9674 18.0111 29.884 19.1113 29.0527 19.1113C27.6766 19.1113 26.0721 17.5908 23.8519 15.4899C23.0433 14.7217 22.273 13.5765 21.1335 12.9823C14.8205 9.69011 10.4926 10.3134 8.0873 13.2413C5.76903 16.0599 3.77662 21.9261 4.3469 24.0836C4.44943 24.4676 4.6069 24.5225 4.74822 24.5225C5.4687 24.5176 6.27723 22.8215 7.13515 21.0262C7.99695 19.2193 8.97518 17.1716 10.1933 16.1093C11.2077 15.2448 12.4863 14.7433 13.8235 14.6855C14.2677 14.6735 14.7077 14.7726 15.103 14.9735L16.35 15.5826C16.4335 15.641 16.4964 15.724 16.5293 15.8198C16.5623 15.9156 16.5637 16.0192 16.5335 16.1159C16.4914 16.2893 16.3762 16.3974 16.2531 16.3974C16.2194 16.3976 16.1861 16.3897 16.1561 16.3744L15.1408 15.8805C12.52 23.2185 9.13501 30.2666 5.04075 36.911C0.468495 44.4029 -0.224271 47.9744 0.0528354 48.8178C0.0621899 48.8715 0.0915201 48.9199 0.134966 48.9535C0.178412 48.9871 0.232898 49.0035 0.287862 48.9994C1.70388 48.9994 4.84401 44.274 7.36734 40.4764C9.17462 37.7577 10.7696 35.3659 11.923 34.2213L11.013 33.9135C10.9247 33.8654 10.8549 33.7896 10.8148 33.698C10.7747 33.6065 10.7664 33.5043 10.7913 33.4076C10.8289 33.1832 10.9847 33.0378 11.1487 33.0987L12.7499 33.6397H12.756L13.0115 33.7116C16.0042 34.5516 16.6266 34.725 16.4825 36.319C16.4321 36.8677 15.8728 37.5173 14.2895 39.2243C12.7609 40.8743 10.4515 43.367 10.5014 44.5802C10.503 44.6656 10.5243 44.7496 10.5637 44.8257C10.6031 44.9018 10.6596 44.9679 10.7287 45.0191C11.1887 45.4087 12.2174 45.0866 13.5519 44.1412C17.0252 41.6874 21.0864 36.3892 21.2189 34.6487C21.3851 32.4254 19.9646 31.5431 18.7104 30.7645C18.5015 30.6339 18.3004 30.5083 18.1141 30.3804C18.1108 30.3804 18.108 30.3804 18.1047 30.3777L16.7746 29.4871C16.697 29.4189 16.642 29.3291 16.6168 29.2294C16.5917 29.1298 16.5976 29.0249 16.6338 28.9286C16.7041 28.7212 16.8821 28.6312 17.0295 28.731L18.0748 29.4317C19.1278 25.7335 20.5954 22.5027 22.0436 20.7261L22.954 19.4191C22.9744 19.3817 23.0046 19.3505 23.0413 19.3286C23.078 19.3067 23.1199 19.295 23.1628 19.2946C23.2057 19.2943 23.2479 19.3054 23.285 19.3267C23.3221 19.348 23.3527 19.3788 23.3736 19.4158C23.4309 19.5041 23.4617 19.6067 23.4622 19.7116C23.4628 19.8165 23.4331 19.9195 23.3769 20.0084L22.6775 21.0125C23.8884 22.6443 26.7582 24.0742 28.9512 24.0759C30.7031 24.0759 35.0309 19.0948 35.8628 16.1225C35.9565 15.9103 36.0033 15.6808 35.9998 15.4493C35.9964 15.2178 35.9429 14.9897 35.8429 14.7804C35.1091 13.8108 33.5185 15.4235 32.1141 16.8479Z" fill="#FCFDFF"/>
<path d="M22.2894 2.63109L21.6038 7.43935C21.5227 7.93247 21.6037 8.43836 21.8349 8.88243C22.2312 9.60013 23.1568 10.3167 25.3172 9.53702C25.4928 9.47232 25.6601 9.3876 25.8159 9.28461L29.1806 7.09474C29.7999 6.70806 30.2819 6.13946 30.5589 5.4684C30.989 4.36607 30.9557 2.66566 28.4634 0.734795C28.2725 0.594385 28.058 0.488325 27.8299 0.42148C27.0838 0.0617769 26.247 -0.0720255 25.4245 0.0367987C24.6019 0.145623 23.8301 0.49225 23.2056 1.03329C22.7059 1.43098 22.3782 2.00243 22.2894 2.63109Z" fill="#FCFDFF"/>
</svg>
