<svg width="57" height="47" viewBox="0 0 57 47" fill="none"  >
<path d="M53.2177 16.1611C52.1006 17.2775 51.0451 18.3329 50.2353 18.3329C48.8947 18.3329 47.3316 16.8738 45.1688 14.8563C44.381 14.1194 43.6306 13.0209 42.5205 12.4509C36.3704 9.29279 32.1542 9.89022 29.811 12.6993C27.5526 15.4032 25.6116 21.0304 26.1672 23.0995C26.2671 23.4679 26.4205 23.5205 26.5581 23.5205C27.26 23.5158 28.0477 21.8889 28.8835 20.1666C29.723 18.4334 30.676 16.469 31.8627 15.45C32.8504 14.6196 34.0961 14.1375 35.3991 14.0815C35.8319 14.0702 36.2606 14.1655 36.6457 14.3584L37.8605 14.9421C37.9418 14.9983 38.0028 15.078 38.0349 15.17C38.067 15.2619 38.0685 15.3614 38.0392 15.4543C37.9982 15.6206 37.886 15.7243 37.7661 15.7243C37.7332 15.7245 37.7008 15.7169 37.6716 15.7021L36.6825 15.2285C34.1284 22.2681 30.8298 29.0295 26.84 35.4034C22.3857 42.5897 21.7108 46.0162 21.9808 46.8252C21.9899 46.8768 22.0183 46.9232 22.0607 46.9554C22.103 46.9876 22.1561 47.0033 22.2096 46.9994C23.5891 46.9994 26.6483 42.4665 29.1065 38.8236C30.8671 36.2156 32.421 33.9212 33.5445 32.8232L32.6579 32.5285C32.5719 32.4824 32.5041 32.4097 32.465 32.3218C32.4259 32.234 32.4178 32.136 32.442 32.0432C32.4787 31.8279 32.6305 31.6884 32.7903 31.7463L34.35 32.2653H34.356L34.6048 32.3343C37.5203 33.1396 38.1268 33.3059 37.9864 34.8355C37.9372 35.3618 37.3925 35.985 35.8499 37.6225C34.3609 39.2052 32.1111 41.5965 32.1597 42.7602C32.1613 42.8422 32.182 42.9228 32.2203 42.9957C32.2587 43.0687 32.3137 43.1322 32.381 43.1813C32.8291 43.555 33.8312 43.2455 35.1313 42.3391C38.5149 39.9853 42.4713 34.9029 42.6004 33.2333C42.7624 31.101 41.3786 30.2547 40.1568 29.5073C39.9533 29.3825 39.7572 29.262 39.5758 29.1388C39.5725 29.1388 39.5699 29.1388 39.5667 29.1357L38.2708 28.2814C38.1952 28.2161 38.1416 28.13 38.1171 28.0345C38.0927 27.9389 38.0984 27.8384 38.1337 27.7461C38.2023 27.5466 38.3755 27.4603 38.5192 27.5561L39.5374 28.2287C40.5633 24.6811 41.993 21.582 43.4038 19.8772L44.2909 18.6239C44.3106 18.588 44.3399 18.5578 44.3756 18.5367C44.4114 18.5156 44.4524 18.5043 44.4943 18.504C44.5361 18.5037 44.5772 18.5144 44.6133 18.5349C44.6494 18.5555 44.6792 18.5851 44.6995 18.6208C44.7553 18.7055 44.7853 18.8039 44.7858 18.9045C44.7864 19.0052 44.7576 19.1039 44.7028 19.1892L44.0215 20.1524C45.2012 21.7178 47.9967 23.0895 50.1331 23.0905C51.8398 23.0905 56.056 18.3129 56.8664 15.4616C56.9577 15.258 57.0032 15.0377 56.9998 14.8156C56.9965 14.5934 56.9443 14.3745 56.8469 14.1736C56.1353 13.2473 54.5858 14.7953 53.2177 16.1611Z" fill="#FCFDFF"/>
<path d="M43.6466 2.52341L42.9787 7.13581C42.8996 7.60901 42.9785 8.09447 43.2039 8.52063C43.5899 9.20909 44.4916 9.8965 46.5962 9.14856C46.7672 9.08627 46.9302 9.00505 47.0821 8.90646L50.3599 6.80578C50.963 6.43458 51.4325 5.88923 51.7027 5.24569C52.1216 4.18825 52.0892 2.55709 49.6613 0.704864C49.4755 0.569766 49.2665 0.468004 49.0441 0.404327C48.3173 0.0592747 47.5021 -0.069094 46.7007 0.0352978C45.8994 0.13969 45.1476 0.472198 44.5391 0.991202C44.0524 1.37257 43.7332 1.92055 43.6466 2.52341Z" fill="#FCFDFF"/>
<path d="M6.86868 28.6646H20.8664C21.1863 28.6646 21.4931 28.5406 21.7193 28.3201C21.9456 28.0995 22.0727 27.8004 22.0727 27.4884C22.0727 27.1765 21.9456 26.8774 21.7193 26.6568C21.4931 26.4362 21.1863 26.3123 20.8664 26.3123H6.86868C6.54871 26.3123 6.24183 26.4362 6.01558 26.6568C5.78933 26.8774 5.66219 27.1765 5.66219 27.4884C5.66219 27.8004 5.78933 28.0995 6.01558 28.3201C6.24183 28.5406 6.54871 28.6646 6.86868 28.6646Z" fill="#FCFDFF"/>
<path d="M17.0237 22.1868C17.0238 22.0323 16.9927 21.8794 16.9321 21.7367C16.8715 21.594 16.7826 21.4644 16.6706 21.3552C16.5586 21.246 16.4256 21.1593 16.2792 21.1003C16.1329 21.0412 15.976 21.0108 15.8176 21.0109H3.97036C3.65039 21.0109 3.34364 21.1348 3.11739 21.3554C2.89114 21.5759 2.764 21.8751 2.764 22.187C2.764 22.499 2.89114 22.7981 3.11739 23.0187C3.34364 23.2393 3.65039 23.3631 3.97036 23.3631H15.8203C16.1398 23.3625 16.446 23.2382 16.6717 23.0176C16.8973 22.7971 17.0239 22.4983 17.0237 22.1868Z" fill="#FCFDFF"/>
<path d="M11.3245 16.8859C11.3537 16.6067 11.2698 16.3274 11.0908 16.1077C10.9118 15.8879 10.6518 15.745 10.3662 15.7095H0.958285C0.685776 15.7712 0.442645 15.9211 0.268636 16.1346C0.0946272 16.3482 0 16.6129 0 16.8857C0 17.1584 0.0946272 17.4231 0.268636 17.6367C0.442645 17.8502 0.685776 18.0001 0.958285 18.0618H10.3673C10.6525 18.026 10.9123 17.8831 11.0911 17.6635C11.2699 17.4439 11.3536 17.1649 11.3245 16.8859Z" fill="#FCFDFF"/>
</svg>
