<svg width="51" height="38" viewBox="0 0 51 38" fill="none"  >
<path d="M36.2638 0.347248L50.8496 20.9219C50.9203 21.0217 50.9676 21.1358 50.9883 21.2561C51.0089 21.3763 51.0023 21.4996 50.9688 21.617C50.9354 21.7344 50.8761 21.8429 50.7951 21.9346C50.7141 22.0262 50.6136 22.0987 50.5009 22.1469L27.7049 31.8702C27.5626 31.9309 27.406 31.9505 27.253 31.9269C27.1 31.9032 26.9569 31.8371 26.8399 31.7362C26.7229 31.6354 26.6369 31.5039 26.5916 31.3567C26.5464 31.2095 26.5438 31.0527 26.5841 30.9041L34.7939 0.606C34.8347 0.455726 34.9177 0.320119 35.0332 0.215023C35.1487 0.109927 35.292 0.0397256 35.4462 0.0125791C35.6004 -0.0145675 35.7591 0.00241406 35.9039 0.0616817C36.0487 0.120949 36.1736 0.220047 36.2638 0.347248Z" fill="white"/>
<path d="M4.04983 26.3043C3.23078 26.6533 2.23459 27.3068 2.05538 28.2383C1.97144 28.6871 2.06549 29.1508 2.31781 29.5322C2.82368 30.2873 3.75529 30.9075 4.42413 31.517C5.24249 32.2625 6.05971 33.0088 6.87577 33.7558C6.93276 33.8157 7.0015 33.8632 7.07775 33.8955C7.14433 33.9146 7.21375 33.922 7.28288 33.9175C9.67235 33.9024 12.0625 33.9144 14.4523 33.9175C15.4665 33.9192 16.5804 32.9033 17.4219 32.3964C18.5664 31.7065 19.7084 31.0119 20.8476 30.3127C21.4671 29.9307 22.6024 30.4499 23.2726 30.6106L24.5288 30.9147C24.6557 30.9454 24.7895 30.9307 24.9066 30.8732C25.0237 30.8157 25.1167 30.7192 25.1694 30.6004L25.6504 29.5154C25.7063 29.3892 25.7127 29.2468 25.6685 29.1161C25.6242 28.9855 25.5324 28.876 25.4111 28.8091L22.5544 27.2347C21.8665 26.9202 21.0919 26.8455 20.3559 27.0226C19.3721 27.2265 18.4505 27.7372 17.5282 28.1209C16.5096 28.5424 15.5393 29.1505 14.4371 29.3376C13.241 29.5418 12.3405 29.0288 11.4948 28.227C10.5425 27.3237 10.3502 25.6241 7.73107 24.9555C8.09329 25.0385 7.37887 24.8652 7.73107 24.9555C7.34088 24.8659 7.03425 25.0403 6.67549 25.0657C6.61995 25.0684 6.56502 25.0784 6.51215 25.0955C5.64442 25.3982 4.89374 25.9449 4.04983 26.3043Z" fill="white"/>
<path d="M25.8859 32.905L37.4534 36.9954C37.569 37.0362 37.6664 37.1164 37.7283 37.2216C37.7902 37.3269 37.8128 37.4506 37.7919 37.5707C37.771 37.6909 37.7082 37.7999 37.6143 37.8784C37.5205 37.957 37.4017 38 37.279 38H20.6573C20.585 38 20.5135 37.9849 20.4473 37.9558C20.3811 37.9268 20.3218 37.8843 20.273 37.8312L17.5476 34.8593C17.4951 34.8021 17.4563 34.734 17.4338 34.6599C17.4114 34.5859 17.4059 34.5077 17.4179 34.4313C17.4299 34.3548 17.4589 34.2821 17.5029 34.2183C17.547 34.1545 17.6048 34.1013 17.6722 34.0627L21.2609 32.0075C21.374 31.9426 21.5075 31.9224 21.6349 31.9508L25.8251 32.8878C25.8457 32.8923 25.866 32.898 25.8859 32.905Z" fill="white"/>
<path d="M0.452855 22.6391L2.46387 24.5466C2.66639 24.7474 2.92849 24.8781 3.21145 24.9194C3.67623 24.9757 4.31641 24.7893 4.66551 23.542C4.69315 23.4402 4.70901 23.3355 4.7128 23.2301L4.80467 20.9648C4.82933 20.553 4.72392 20.1439 4.50321 19.7945C4.13236 19.2323 3.3292 18.6839 1.60926 19.185C1.48083 19.2257 1.36065 19.2887 1.25429 19.371C0.840369 19.5931 0.501631 19.9317 0.2805 20.3443C0.0593689 20.757 -0.0343086 21.2254 0.0112197 21.6908C0.0315589 22.0513 0.189513 22.3904 0.452855 22.6391Z" fill="white"/>
</svg>
