<svg width="32" height="50" viewBox="0 0 32 50" fill="none"  >
<path d="M10.8712 15.6398L9.27143 19.2142C9.24868 19.2653 9.23304 19.3193 9.22504 19.3746L8.23658 26.2452C8.22894 26.2999 8.22894 26.3554 8.23658 26.4101C8.49241 28.3488 9.21906 30.6335 8.93821 32.5681C8.88705 32.9044 8.80147 33.2346 8.68284 33.5534C7.69892 36.2611 6.08753 38.9004 4.82878 41.5016C4.77498 41.6123 4.75638 41.7367 4.77549 41.8583C4.86818 42.4439 5.33532 44.0489 7.66835 43.0811C7.78028 43.0336 7.8748 42.9527 7.939 42.8495L10.0245 39.5452C11.2328 37.6315 13.6288 35.2831 13.4476 32.9293L13.1259 28.7499C13.117 28.6323 13.0737 28.5201 13.0015 28.4269C12.9292 28.3336 12.8312 28.2636 12.7195 28.2255L11.7736 27.9014C11.6978 27.8786 11.6273 27.841 11.566 27.791C11.5046 27.741 11.4538 27.6795 11.4163 27.6098C11.3788 27.5402 11.3553 27.4637 11.3474 27.385C11.3394 27.3063 11.347 27.2269 11.3698 27.1511C11.3925 27.0753 11.4299 27.0047 11.48 26.9434C11.53 26.8821 11.5917 26.8312 11.6613 26.7937C11.731 26.7562 11.8074 26.7329 11.8862 26.7249C11.9649 26.717 12.0445 26.7246 12.1203 26.7473L18.1675 28.8288C18.7644 29.034 20.233 29.2673 20.5403 29.8209C20.8277 30.3393 20.6163 31.5461 20.6163 32.1372V38.8698C20.6161 38.9782 20.6453 39.0848 20.7011 39.1778C21.1228 39.8806 21.7815 40.7029 22.7065 40.5106C23.3822 40.3716 23.7057 39.7398 23.9912 39.1765C24.0236 39.1119 24.0445 39.042 24.0529 38.9702L25.2856 28.2574C25.2928 28.1985 25.291 28.1389 25.2801 28.0805C25.224 27.7859 24.9482 26.9396 23.6061 26.5453L13.3499 23.5638C13.2645 23.5449 13.1843 23.5075 13.1148 23.4546C13.0454 23.4016 12.9883 23.3341 12.9475 23.2569C12.9067 23.1796 12.8833 23.0944 12.8787 23.0071C12.8742 22.9199 12.8886 22.8328 12.9211 22.7518L12.9382 22.7076C12.9934 22.5694 13.098 22.4565 13.2316 22.3907C13.3652 22.325 13.5184 22.3109 13.6617 22.3514L15.2838 22.8366C15.408 22.8716 15.5402 22.8658 15.6608 22.8201C15.7814 22.7744 15.8842 22.691 15.954 22.5826C17.0831 20.7299 17.7545 18.635 17.9126 16.4713C17.9209 16.3631 17.9583 16.2592 18.021 16.1705C18.0836 16.0818 18.169 16.0117 18.2682 15.9676C18.3674 15.9235 18.4766 15.907 18.5844 15.9199C18.6922 15.9327 18.7946 15.9745 18.8807 16.0407L21.5349 18.0817C21.6582 18.1765 21.8135 18.2201 21.9682 18.2031L30.7947 17.2382C30.9256 17.2244 31.0484 17.1676 31.1438 17.0769C31.6475 16.597 33.0438 14.9843 30.6065 13.7705C30.5082 13.7229 30.3989 13.7029 30.2901 13.7126L23.5537 14.3005C23.4651 14.3082 23.3759 14.2963 23.2925 14.2655C23.2091 14.2346 23.1335 14.1858 23.0712 14.1223L20.5598 11.5683C20.5346 11.5424 20.5069 11.519 20.4773 11.4984C20.041 11.1138 19.565 10.7769 19.0573 10.4931C17.3402 9.80799 15.2945 10.1831 13.4958 9.72497C13.4233 9.70677 13.348 9.70244 13.2738 9.71208L6.82393 10.986C6.82393 10.986 5.83494 10.9396 4.97384 12.6119C4.95423 12.6521 4.93865 12.6942 4.92745 12.7375L2.68712 18.2692C2.64962 18.4123 2.66617 18.5643 2.73351 18.696C2.99119 19.2056 3.79936 20.3475 5.65318 19.6411C5.73384 19.6106 5.80726 19.5635 5.8685 19.5029C5.92975 19.4422 5.97749 19.3692 6.00869 19.2889L8.05204 13.9424C8.09325 13.8345 8.16474 13.7406 8.25785 13.6721C8.35096 13.6036 8.46177 13.5634 8.57716 13.5561L12.6505 13.2953" fill="#FCFDFF"/>
<path d="M0 45.3664C1.26709 46.1637 2.81506 45.952 4.20357 45.6629C5.73297 45.3452 7.26604 45.0662 8.801 44.7896L24.2878 41.9972C26.3057 41.6321 28.9946 41.3842 30.4147 39.6942" fill="#FCFDFF"/>
<path d="M7.16461 50C8.0382 50 8.74639 49.2921 8.74639 48.4189C8.74639 47.5457 8.0382 46.8378 7.16461 46.8378C6.29103 46.8378 5.58284 47.5457 5.58284 48.4189C5.58284 49.2921 6.29103 50 7.16461 50Z" fill="#FCFDFF"/>
<path d="M24.6512 46.9879C25.5248 46.9879 26.233 46.2801 26.233 45.4069C26.233 44.5336 25.5248 43.8258 24.6512 43.8258C23.7776 43.8258 23.0694 44.5336 23.0694 45.4069C23.0694 46.2801 23.7776 46.9879 24.6512 46.9879Z" fill="#FCFDFF"/>
<path d="M21.605 4.92103L18.897 7.4194C18.6239 7.68246 18.2734 7.85091 17.8973 7.89984C17.28 7.9647 16.437 7.70194 16.0004 6.03144C15.966 5.89504 15.9475 5.75519 15.9452 5.61456L15.8738 2.59187C15.8505 2.0424 15.9994 1.49936 16.2998 1.03856C16.804 0.297352 17.8792 -0.415932 20.1496 0.290069C20.319 0.347268 20.4769 0.433879 20.6159 0.546126C21.1594 0.851661 21.6005 1.31078 21.8842 1.86577C22.1679 2.42076 22.2814 3.04688 22.2106 3.66608C22.1759 4.14623 21.9594 4.59506 21.605 4.92103Z" fill="#FCFDFF"/>
</svg>
