<svg width="44" height="37" viewBox="0 0 44 37" fill="none"  >
<path d="M36.9013 4.95512L34.1628 7.47058C33.8868 7.7355 33.5325 7.90512 33.1523 7.95434C32.5284 8.01977 31.6757 7.75517 31.2345 6.07339C31.1996 5.93618 31.1807 5.79545 31.1783 5.65392L31.1064 2.61017C31.0829 2.05681 31.2333 1.50986 31.5368 1.04567C32.047 0.299439 33.1339 -0.418895 35.43 0.292172C35.6011 0.349831 35.7606 0.437125 35.9011 0.550126C36.4506 0.857785 36.8968 1.31994 37.1836 1.87883C37.4705 2.43772 37.5853 3.06854 37.5137 3.6921C37.4783 4.1753 37.2593 4.62687 36.9013 4.95512Z" fill="#FCFDFF"/>
<path d="M21.3247 12.1005C21.827 11.3644 22.8855 10.8218 23.5333 10.2984C24.4711 9.5415 25.3887 8.83053 26.2985 8.01152C28.1165 6.37349 30.9183 8.78149 32.1633 10.5573C32.5806 11.1547 32.521 12.1519 32.6808 12.9027C32.8735 13.808 33.0768 14.7067 33.3307 15.585C33.845 17.1515 34.4986 18.6691 35.2838 20.12C36.2392 22.0655 37.1976 24.0099 38.1591 25.9529C38.1755 25.9877 38.1919 26.0188 38.2084 26.0532C38.2171 26.0697 38.2239 26.0871 38.2289 26.1051C38.2349 26.1204 38.2391 26.1362 38.2416 26.1524L38.2453 26.18C38.2612 26.2614 38.2516 26.3456 38.2177 26.4213C38.1838 26.4971 38.1273 26.5607 38.0559 26.6034L36.979 27.1008C36.926 27.1254 36.8657 27.1293 36.8098 27.1119C36.754 27.0946 36.7067 27.0573 36.6771 27.0071L30.724 18.5699C30.6969 18.533 30.6771 18.4915 30.6657 18.4473L29.8597 15.4808L29.7366 14.9491C29.6955 14.7619 29.5418 14.6559 29.3931 14.7119C29.3287 14.7413 29.2742 14.7885 29.2359 14.8479C29.1977 14.9073 29.1774 14.9764 29.1775 15.047C29.1752 15.0866 29.1782 15.1264 29.1866 15.1652C29.2687 15.5565 29.3919 16.175 29.4502 16.4813C29.4661 16.5472 29.4659 16.616 29.4496 16.6817C29.4334 16.7475 29.4017 16.8085 29.357 16.8596C28.9006 17.3164 27.5086 17.739 27.1488 18.0326C26.8522 18.2722 26.331 18.6313 26.4747 19.0958C26.7163 19.869 27.8204 19.8338 28.3342 20.0431C29.4001 20.4774 30.6944 21.5864 30.8862 23.1238C31.1093 24.9557 29.5234 25.9165 28.5626 26.8067C27.4293 27.8526 26.3297 28.9543 25.2277 30.0555L24.3429 30.9296L23.4368 31.8194C23.0909 32.1608 22.7451 32.4985 22.3963 32.8367C22.023 33.2047 20.7348 34.9032 20.3068 34.8811L18.8166 34.848C18.6038 34.8435 18.4765 34.5508 18.5808 34.3071L19.0117 33.311L19.0146 33.308C19.0232 33.295 19.029 33.2784 19.0376 33.2673C19.3083 32.784 19.6073 32.3089 19.9232 31.8448C20.6354 30.7931 21.4286 29.783 22.1548 28.8094C22.8868 27.8281 24.2115 26.7 24.522 25.2901C24.5479 25.2031 24.5414 25.1098 24.5036 25.0271C24.4659 24.9445 24.3995 24.8781 24.3166 24.8403C23.9896 24.7503 23.6505 24.7116 23.3115 24.7255C23.1505 24.7206 23.0326 24.5423 23.0466 24.3345L23.1238 23.2452L23.1599 22.5812C23.1152 22.3031 22.6937 22.3073 22.5668 22.304L22.4165 22.2959C22.2583 22.2873 22.1314 22.4656 22.1203 22.67L22.0131 24.649C22.011 24.6886 22.0036 24.7279 21.9913 24.7656L21.0733 27.979C21.0507 28.0576 21.0021 28.1262 20.9353 28.1737L9.18975 36.1266C9.14677 36.1578 9.09461 36.174 9.04146 36.1725L7.6679 36.0988C7.47607 36.0882 7.35409 35.8395 7.42145 35.6081L7.69214 34.6911C7.70825 34.6356 7.73628 34.5842 7.77429 34.5405C10.5424 31.3491 13.8789 28.6894 16.8877 25.8978C17.5609 25.2714 17.3531 22.8245 17.4065 21.8452C17.4525 20.9964 17.236 19.6663 17.6098 18.9564" fill="#FCFDFF"/>
<path d="M43.9934 31.9687C43.9874 32.0662 43.9653 32.1622 43.9281 32.2526C43.8038 32.5032 43.6219 32.7209 43.397 32.8883C42.9978 33.2272 42.5977 33.5635 42.2013 33.9057C41.9294 34.1376 41.6546 34.3689 41.3695 34.5742C41.2264 34.6805 41.0764 34.7775 40.9206 34.8645C40.7657 34.9256 40.5986 34.9504 40.4326 34.9365C40.18 34.9365 39.9278 34.9429 39.6756 34.9429C38.0572 34.9429 36.4388 34.9441 34.8204 34.9463H29.1007C27.7704 34.9463 26.4402 34.9473 25.1102 34.9495H20.2551C18.6367 34.9495 17.0183 34.9504 15.3999 34.9523H15.1313C14.9146 34.973 14.6967 34.929 14.5053 34.8257C14.4017 34.7562 14.3224 34.6563 14.2783 34.54C14.2341 34.4237 14.2273 34.2966 14.2589 34.1762C14.3607 33.8863 14.675 33.8406 14.9305 33.8438C20.0411 33.8438 25.1529 33.845 30.266 33.8472H31.7238C34.3283 33.8472 36.9338 33.8482 39.5404 33.8504C39.9119 33.8751 40.2845 33.8229 40.6347 33.6971C40.9555 33.5304 41.2457 33.311 41.4932 33.0482L42.9279 31.6989C43.1867 31.4536 43.5441 31.2029 43.816 31.4282C43.8853 31.4987 43.9373 31.584 43.9681 31.6778C43.9988 31.7715 44.0075 31.871 43.9934 31.9687Z" fill="#FCFDFF"/>
<path d="M29.7394 34.1243C29.7295 34.1836 29.713 34.2418 29.6901 34.2974C29.5651 34.5465 29.3833 34.763 29.1594 34.9299C29.0448 35.0276 28.9269 35.1289 28.8123 35.2234C28.5273 35.4687 28.2455 35.7059 27.9637 35.9475C27.6918 36.1823 27.4166 36.4138 27.1315 36.6158C26.9889 36.7229 26.8389 36.8199 26.6826 36.9061C26.5283 36.9699 26.361 36.9957 26.1946 36.9814C25.9424 36.9814 25.6902 36.9878 25.438 36.9878H20.5829C18.9645 36.9878 17.3461 36.989 15.7277 36.9911H10.8738C9.25545 36.9911 7.63695 36.9922 6.0183 36.9943H0.892483C0.676206 37.0164 0.458247 36.9737 0.266498 36.8718C0.162422 36.8015 0.0828039 36.7008 0.0386575 36.5836C-0.00548894 36.4665 -0.0120009 36.3385 0.0200301 36.2175C0.121487 35.9313 0.436129 35.8847 0.691619 35.8847C8.89494 35.8879 17.0983 35.8902 25.3016 35.8912C25.673 35.9175 26.0458 35.8652 26.3954 35.7379C26.6616 35.6066 26.9042 35.4324 27.1135 35.2226C27.1623 35.1817 27.2083 35.1347 27.2539 35.0922C27.5948 34.7692 27.9386 34.4498 28.2808 34.1235L29.7394 34.1243Z" fill="#FCFDFF"/>
<path d="M24.1247 18.8555L5.15831 27.0141C4.95361 27.1021 4.85937 27.3387 4.94783 27.5425L5.06595 27.8146C5.15441 28.0184 5.39206 28.1122 5.59676 28.0241L24.5631 19.8656C24.7678 19.7775 24.8621 19.5409 24.7736 19.3371L24.6555 19.065C24.567 18.8612 24.3294 18.7674 24.1247 18.8555Z" fill="#FCFDFF"/>
<path d="M37.8719 26.9269L11.1716 34.1235L11.1753 34.1203C11.1868 34.1072 11.1938 34.0908 11.2053 34.0794C11.5669 33.5851 11.9535 33.1095 12.3636 32.6544L37.5035 25.8773C37.5953 25.8516 37.6921 25.8489 37.7853 25.8693C37.8784 25.8898 37.9651 25.9329 38.0375 25.9947C38.0638 26.0274 38.0896 26.0568 38.1159 26.0896C38.1296 26.1041 38.141 26.1207 38.1496 26.1387C38.1591 26.1527 38.1666 26.1679 38.1718 26.184L38.1792 26.2101L38.2277 26.3471C38.2456 26.4085 38.2505 26.473 38.2421 26.5364C38.2336 26.5998 38.2119 26.6607 38.1784 26.7153C38.145 26.7698 38.1004 26.8168 38.0476 26.8532C37.9948 26.8897 37.935 26.9148 37.8719 26.9269Z" fill="#FCFDFF"/>
<path d="M5.66026 29.1242C6.2939 28.9803 6.64352 28.148 6.44115 27.2654C6.23878 26.3828 5.56105 25.7839 4.92741 25.9279C4.29377 26.0719 3.94416 26.9041 4.14653 27.7867C4.3489 28.6694 5.02662 29.2682 5.66026 29.1242Z" fill="#FCFDFF"/>
</svg>
