<svg width="53" height="41" viewBox="0 0 53 41" fill="none"  >
<path d="M38.8946 4.13691L36.6345 6.23577C36.4068 6.45697 36.1144 6.59868 35.8006 6.63977C35.2853 6.69421 34.5818 6.47351 34.2173 5.06948C34.1887 4.95491 34.1734 4.83746 34.1715 4.71934L34.1117 2.17909C34.0921 1.71698 34.2163 1.2602 34.4672 0.87264C34.888 0.249915 35.7854 -0.349552 37.6802 0.243779C37.8215 0.291767 37.9532 0.364548 38.0692 0.458892C38.5228 0.715651 38.8909 1.10139 39.1277 1.56777C39.3644 2.03416 39.4592 2.5605 39.4001 3.08083C39.3715 3.48482 39.1907 3.86262 38.8946 4.13691Z" fill="white"/>
<path d="M31.1208 10.3851C30.7429 11.7278 30.3997 13.0865 29.9869 14.4194C29.6555 15.49 29.5884 16.6135 29.1759 17.6779C28.2612 20.0367 26.3011 21.5971 24.516 23.2747C23.6236 24.1126 23.1098 25.0773 21.7984 25.1317C19.4868 25.2282 17.7323 26.3458 15.667 27.2527C14.7267 27.6657 12.7591 28.414 11.5422 28.9148C11.4906 28.9362 11.4455 28.971 11.4116 29.0156C11.3777 29.0602 11.3561 29.1132 11.3491 29.1689C11.342 29.2246 11.3498 29.2812 11.3716 29.333C11.3933 29.3847 11.4283 29.4298 11.4729 29.4636L12.6812 30.3892C12.719 30.4183 12.7628 30.4384 12.8094 30.4481C12.856 30.4577 12.9041 30.4564 12.9502 30.4447L14.1364 30.1465C14.1443 30.1443 14.1523 30.1428 14.1602 30.1413L23.4332 28.5498C23.4781 28.5422 23.5208 28.5248 23.5583 28.4989L32.3803 22.4665C32.4219 22.4381 32.4726 22.4266 32.5223 22.4341C32.572 22.4416 32.6171 22.4678 32.6485 22.5073L32.7697 22.66C32.7996 22.6977 32.8152 22.7449 32.8135 22.7931C32.8119 22.8413 32.7931 22.8873 32.7607 22.9228L31.7781 23.6982C31.7121 23.7496 31.6691 23.8252 31.6584 23.9085C31.6476 23.9918 31.6701 24.0761 31.7208 24.1428C32.8386 25.6009 34.093 27.2074 35.1992 28.6426C35.3074 28.7582 35.39 28.8956 35.4414 29.0457C35.4928 29.1959 35.5119 29.3554 35.4974 29.5135C35.5752 32.6725 35.6776 36.6626 35.7703 39.8702C35.7725 39.9505 35.8051 40.0271 35.8614 40.084C35.9178 40.141 35.9937 40.1741 36.0736 40.1765C36.4854 40.211 36.8995 40.2088 37.311 40.17C37.8129 40.0974 37.6625 38.6646 37.7029 38.2977C37.7688 37.6929 37.8347 37.0881 37.9005 36.4833C38.165 34.0659 38.4342 31.6491 38.7082 29.2327C38.7463 28.974 38.7599 28.7123 38.7489 28.4511C38.6451 27.0514 37.1307 25.2103 36.455 23.9874C35.9742 23.2436 35.5457 22.4669 35.1728 21.6628C34.7968 20.6801 35.0326 19.8654 35.1606 18.8659L35.4418 16.6741C35.5918 15.5063 35.7764 14.3516 36.0101 13.2002C36.0191 13.1556 36.0374 13.1135 36.0639 13.0767C36.0903 13.0398 36.1242 13.0089 36.1633 12.9863C36.2025 12.9636 36.246 12.9496 36.2909 12.9452C36.3359 12.9407 36.3812 12.946 36.424 12.9606C37.0157 13.1678 38.2041 13.4825 38.3235 13.5177C39.7297 13.9318 40.9938 14.2572 42.417 13.7532C42.8287 13.608 43.2463 13.4676 43.6587 13.329C44.4739 13.051 45.2576 12.687 45.9967 12.2431L47.7072 11.2386L47.2024 10.6838C47.1622 10.6396 47.1105 10.6076 47.0531 10.5915C46.9957 10.5754 46.935 10.5758 46.8779 10.5928L44.4797 11.3021C43.8942 11.4752 43.305 11.6375 42.7238 11.8244C42.3163 12.0051 41.8888 12.1356 41.4503 12.2134C40.9754 12.246 40.6884 11.9593 40.3138 11.7158C39.9494 11.4799 39.5847 11.2446 39.2198 11.0097C38.5045 10.5488 37.7888 10.0885 37.0727 9.62882C35.8078 8.8163 34.6998 8.20884 33.2042 7.94211C31.9231 7.76749 30.619 7.92041 29.4121 8.38669C28.8128 8.58955 28.2269 8.82948 27.6392 9.06463C26.897 9.41169 26.3084 10.0225 25.9867 10.7799C25.9087 10.9636 25.8425 11.1523 25.7884 11.3446C25.3607 12.6696 25.143 14.0543 25.1434 15.4475C25.1436 15.528 25.1734 15.6056 25.227 15.6653L25.5407 16.0144C25.5911 16.0702 25.6595 16.1064 25.7338 16.1164C25.8081 16.1265 25.8835 16.1097 25.9467 16.0691L26.7717 15.5389C26.7988 15.5216 26.8232 15.5001 26.8438 15.4753L27.1705 15.085C27.2087 15.0393 27.2335 14.9837 27.2419 14.9246C27.2503 14.8655 27.242 14.8054 27.2181 14.7508L26.8431 13.8949C26.749 13.6805 27.6724 12.4072 27.7895 12.1967C28.135 11.5845 28.8713 11.3083 29.4446 10.9665C29.9726 10.6114 30.4625 10.2018 30.9063 9.74453" fill="white"/>
<path d="M52.993 38.1271C52.9845 38.2225 52.958 38.3153 52.9148 38.4007C52.7594 38.6513 52.5464 38.8608 52.2939 39.0114C51.8299 39.3406 51.3618 39.6645 50.8974 39.9911C50.5801 40.2158 50.2607 40.4382 49.9261 40.636C49.7576 40.7395 49.583 40.8327 49.4033 40.915C49.2192 40.9768 49.0249 41.0015 48.8314 40.9877C48.5372 40.9877 48.243 40.9932 47.9487 40.9932L19.2914 40.995C19.0408 41.0154 18.789 40.9736 18.5581 40.8734C18.4444 40.8199 18.3533 40.7272 18.3013 40.6122C18.2493 40.4972 18.2397 40.3674 18.2743 40.246C18.3893 39.9676 18.7571 39.9247 19.0567 39.9251L47.7937 39.9313C48.2063 39.9793 48.6243 39.9352 49.018 39.8021C49.4117 39.6689 49.7714 39.4499 50.0714 39.1608L51.7466 37.8567C52.0491 37.6211 52.4677 37.3786 52.7836 37.5964C52.8627 37.6576 52.9239 37.7394 52.9608 37.8327C52.9977 37.9261 53.0088 38.0278 52.993 38.1271Z" fill="white"/>
<path d="M30.9467 38.2445C30.8905 38.3217 30.8199 38.3874 30.739 38.4377C30.477 38.5709 30.187 38.6388 29.8935 38.6358C29.327 38.6746 28.7602 38.7083 28.1938 38.7446C27.8065 38.7707 27.4189 38.7943 27.031 38.7885C26.8335 38.7893 26.6361 38.778 26.44 38.7545C26.251 38.7108 26.0725 38.6299 25.9146 38.5167C25.6622 38.3625 25.4098 38.2141 25.1574 38.0606L0.652735 23.1065C0.42786 22.9931 0.234113 22.8258 0.0884719 22.6194C0.0190008 22.5142 -0.0110738 22.3877 0.00365649 22.2623C0.0183867 22.1369 0.0769696 22.021 0.168886 21.935C0.411185 21.7572 0.745768 21.9126 1.00357 22.0694L25.5688 37.0782C25.8968 37.3345 26.2768 37.5149 26.6819 37.6066C27.0869 37.6983 27.5071 37.699 27.9125 37.6087L30.0167 37.3681C30.3968 37.3249 30.88 37.3361 31.0372 37.6871C31.0727 37.7797 31.0831 37.8802 31.0672 37.9782C31.0513 38.0762 31.0097 38.1681 30.9467 38.2445Z" fill="white"/>
<path d="M46.9039 10.6438L26.6887 31.8995C26.5069 32.0907 26.5135 32.3939 26.7034 32.5768L26.8279 32.6968C27.0178 32.8797 27.3191 32.8731 27.5008 32.6819L47.7161 11.4262C47.8978 11.2351 47.8912 10.9319 47.7013 10.749L47.5768 10.629C47.3869 10.4461 47.0857 10.4527 46.9039 10.6438Z" fill="white"/>
<path d="M26.4531 14.4116L12.4794 25.5942C12.3088 25.7306 12.2805 25.9804 12.4161 26.152L12.6248 26.4162C12.7604 26.5878 13.0085 26.6163 13.179 26.4798L27.1528 15.2972C27.3233 15.1608 27.3516 14.911 27.2161 14.7394L27.0074 14.4752C26.8718 14.3036 26.6236 14.2751 26.4531 14.4116Z" fill="white"/>
</svg>
