<svg width="38" height="47" viewBox="0 0 38 47" fill="none"  >
<path d="M13.8219 10.0352L13.7584 14.0254C13.743 14.4358 13.8587 14.8403 14.0885 15.1794C14.478 15.7247 15.2941 16.2158 16.9425 15.3623C17.0755 15.2916 17.2 15.2055 17.3134 15.1059L19.7862 12.9818C20.2428 12.6038 20.5712 12.0918 20.7256 11.5167C20.9574 10.574 20.7608 9.19073 18.5704 7.86915C18.4036 7.77365 18.2214 7.70866 18.0321 7.67734C17.3985 7.45907 16.7152 7.43425 16.0676 7.60587C15.4201 7.77748 14.8371 8.13789 14.3918 8.6421C14.0331 9.01649 13.8293 9.51467 13.8219 10.0352Z" fill="white"/>
<path d="M14.746 43.4202C14.635 43.6429 14.4644 43.8297 14.2536 43.9598C14.0428 44.0898 13.8001 44.1579 13.553 44.1562C12.4402 44.1562 12.327 43.3907 12.2913 41.2011C12.3245 39.7787 12.1568 38.3586 11.7933 36.9838L11.4335 35.8147C10.126 31.7648 9.03404 27.6473 8.16227 23.4799C7.28731 19.1307 6.95671 14.0885 7.3207 10.6395C8.06629 3.54947 11.5976 0 12.7411 0H12.7735C12.8612 0.00561183 13.0077 0.0149009 13.0077 0.402117C12.8958 1.11889 12.6672 1.81218 12.3312 2.4538C11.1244 4.99811 10.4835 7.7777 10.4533 10.598C10.4533 15.6051 14.4734 18.4741 17.0074 19.1091C17.899 19.3444 18.7203 19.7955 19.3999 20.4233C20.3263 21.2232 21.3892 21.8466 22.5367 22.263C24.4894 22.92 26.5388 23.2363 28.5969 23.1983C29.368 23.2156 30.4229 23.2386 30.5138 23.4322C30.4945 23.6213 30.4354 23.8042 30.3405 23.9686C30.2456 24.1329 30.117 24.275 29.9634 24.3853C28.7407 25.4221 25.762 26.0267 22.648 25.1069C17.204 23.4991 16.0077 23.2095 15.7137 23.7754C15.3363 24.5021 16.6267 27.2361 17.1084 28.1372C17.7576 29.3508 19.1161 30.3188 20.4297 31.2546C21.2982 31.8041 22.0902 32.4681 22.7848 33.2287C23.9704 34.7813 26.0634 41.3273 25.2372 43.2887C25.1951 43.432 25.1069 43.5572 24.9867 43.6447C24.8665 43.7321 24.7209 43.7769 24.5727 43.7718C23.1182 43.7718 22.4593 41.4334 21.8217 39.1709C21.3543 37.5107 20.9125 35.9442 20.1414 35.0936C18.2584 33.0153 14.9157 32.188 14.1896 32.0954C14.1576 32.0903 14.1251 32.0881 14.0927 32.0885C14.0023 32.0858 13.9127 32.1063 13.8323 32.1481C13.752 32.1899 13.6834 32.2515 13.6332 32.3274C13.2989 32.8259 13.6536 33.8492 14.6069 36.2412C15.3182 38.0239 15.6896 41.8255 14.746 43.4202Z" fill="white"/>
<path d="M2.69599 40.6451H10.0916C10.4153 40.6142 10.7407 40.6071 11.0654 40.6237C11.4423 40.6732 11.3106 40.9508 11.3199 41.4115C11.3375 42.3271 11.3283 43.5516 11.765 44.3676C12.487 45.7154 15.0312 45.264 15.7485 44.0518C16.2585 43.1899 16.425 41.9312 16.4097 40.6451H21.0812C21.7141 42.7818 22.4816 44.7136 24.1346 44.7136C24.6952 44.7136 25.5589 44.8259 25.9118 44.3288C26.3606 43.6956 26.6477 41.9438 26.4501 40.647H35.3031C36.0503 40.6829 36.753 41.0155 37.2579 41.5722C37.7627 42.129 38.0287 42.8646 37.9975 43.6184V44.0272C38.0287 44.7811 37.7628 45.5169 37.258 46.0738C36.7532 46.6308 36.0504 46.9637 35.3031 47H2.6974C1.95 46.9638 1.24713 46.631 0.742232 46.0741C0.237333 45.5171 -0.0285962 44.7812 0.00251194 44.0272V43.6184C-0.0289763 42.8645 0.236604 42.1286 0.74127 41.5715C1.24594 41.0144 1.94866 40.6814 2.69599 40.6451Z" fill="white"/>
</svg>
