<svg width="47" height="40" viewBox="0 0 47 40" fill="none"  >
<path d="M34.6083 2.39771L34.5448 6.16206C34.5296 6.54929 34.6449 6.93104 34.8738 7.25101C35.2621 7.7653 36.0728 8.229 37.716 7.42351C37.8494 7.35692 37.9744 7.27593 38.0884 7.18205L40.552 5.17757C41.0066 4.82163 41.3337 4.33925 41.488 3.79752C41.7201 2.90831 41.5231 1.60331 39.3409 0.354374C39.1744 0.264672 38.9928 0.203456 38.8043 0.173557C38.1729 -0.0322218 37.492 -0.0555331 36.8468 0.106397C36.2015 0.268327 35.6206 0.608307 35.1768 1.08393C34.8194 1.43697 34.6161 1.90671 34.6083 2.39771Z" fill="white"/>
<path d="M43.6225 18.9508C42.2057 18.9422 40.8072 18.644 39.521 18.0766C37.5223 17.088 36.6124 15.3041 35.25 13.7327C35.2358 13.7163 35.2156 13.7055 35.1935 13.7026C35.1713 13.6997 35.1489 13.7051 35.1305 13.7172C34.5843 14.099 34.1671 14.7332 33.6247 15.1431C33.0317 15.5785 32.415 15.9838 31.7772 16.3571C30.5729 17.0982 29.317 17.8615 28.4393 18.9411C28.3461 19.0343 28.2914 19.1563 28.2852 19.285C28.3145 19.751 29.291 19.9513 29.6412 20.1201C30.2035 20.3938 30.7415 20.7109 31.2498 21.0683C32.221 21.7496 33.0792 22.5668 33.7952 23.4925C35.2755 25.4163 35.7901 27.7213 36.6745 29.911C37.5065 31.981 38.6694 34.0154 38.6824 36.2303C38.6962 36.3131 38.6888 36.3977 38.6608 36.4772C38.6329 36.5566 38.5853 36.6285 38.5219 36.6865C38.4358 36.7246 38.3408 36.7408 38.2461 36.7337C38.1515 36.7266 38.0604 36.6965 37.9815 36.6461C35.8556 35.6801 34.5057 33.6274 33.628 31.5399C32.8091 29.6037 32.1409 27.6017 30.4438 26.172C29.4002 25.3654 28.2326 24.7176 26.9821 24.2511C26.2439 23.9475 25.5304 23.5918 24.8475 23.1871C24.3889 22.9111 23.4293 21.8622 22.8965 22.3558C22.5704 22.6676 22.5159 23.2413 22.3117 23.6305C22.0118 24.1986 21.6616 24.7412 21.2649 25.2524C20.3654 26.5236 19.0533 27.4772 17.5305 27.9665C16.4707 28.248 15.3882 27.7132 14.4811 27.2407C12.1144 26.0088 9.58099 25.1554 7.11357 24.1397C6.39 23.9123 5.74542 23.5002 5.24974 22.9478C5.11532 22.7877 5.04559 22.5867 5.05321 22.3816C5.08576 22.2387 5.15435 22.1054 5.25309 21.9937C5.35183 21.8819 5.47767 21.795 5.61968 21.7403C6.24093 21.4598 6.94251 21.3853 7.61312 21.5287C8.04307 21.6157 8.45694 21.7634 8.84102 21.9674C9.57496 22.341 10.3343 22.6673 11.1138 22.944C11.9611 23.2451 12.8373 23.4664 13.7297 23.6046C14.5933 23.8104 15.4997 23.7836 16.3483 23.5274C16.9865 23.2147 17.4929 22.7025 17.7829 22.0761C19.3477 19.4332 21.2049 16.958 23.3228 14.6936C24.2704 13.6434 25.6125 12.8669 26.3708 11.664L26.299 11.5384C25.7013 11.5141 25.1043 11.5967 24.5383 11.7815C23.8984 12.0759 23.3087 12.4608 22.7891 12.9232C21.6541 13.8603 20.7249 14.9933 19.6366 15.9805C19.6329 15.9839 19.6288 15.9872 19.6246 15.9901C16.7511 17.8978 18.1428 15.088 18.204 14.967C18.2057 14.9628 18.2083 14.9591 18.2117 14.956C20.2793 12.4337 21.9566 9.80707 25.3605 8.88796C27.2208 8.39063 29.1492 8.16493 31.0802 8.2186C33.1056 8.34926 35.0432 9.05755 36.6422 10.2518C38.3688 11.5564 38.5061 14.1306 40.1343 15.5663C41.8575 17.0843 44.5272 17.0463 46.5514 18.1752C46.7259 18.255 46.8685 18.3869 46.9575 18.551C47.4157 19.672 44.0252 18.9715 43.6225 18.9508Z" fill="white"/>
<path d="M40.485 40H33.9335C33.8259 40 33.7194 39.9798 33.6201 39.9405C33.5207 39.9012 33.4305 39.8435 33.3544 39.7709C33.2784 39.6983 33.218 39.6122 33.1769 39.5173C33.1357 39.4224 33.1145 39.3206 33.1145 39.2179C33.1145 39.1152 33.1357 39.0136 33.1769 38.9187C33.218 38.8238 33.2784 38.7377 33.3544 38.6651C33.4305 38.5925 33.5207 38.5348 33.6201 38.4955C33.7194 38.4562 33.8259 38.436 33.9335 38.436H40.4759C41.1291 38.436 42.5372 38.2197 42.7776 37.5472C42.8478 37.3508 42.9969 37.1891 43.192 37.0977C43.3871 37.0063 43.6123 36.9927 43.8179 37.0598C44.0235 37.1269 44.1928 37.2692 44.2885 37.4555C44.3842 37.6418 44.3985 37.8569 44.3283 38.0532C43.6567 39.9296 40.894 40 40.485 40Z" fill="white"/>
<path d="M6.11544 28.4083C4.18225 28.4083 3.02467 26.1687 2.89316 25.9019L0.0798067 20.2727C0.0334675 20.18 0.00676419 20.0793 0.00112557 19.9767C-0.00451304 19.8741 0.011073 19.7715 0.0469935 19.6746C0.082914 19.5777 0.138461 19.4884 0.210472 19.412C0.282483 19.3356 0.369547 19.2736 0.466685 19.2294C0.563824 19.1851 0.66911 19.1595 0.776588 19.1541C0.884066 19.1488 0.991623 19.1636 1.09308 19.1979C1.19453 19.2322 1.28789 19.2853 1.36787 19.3541C1.44786 19.4228 1.51289 19.5059 1.55922 19.5987L4.37446 25.2325C4.65386 25.7942 5.46752 26.9241 6.20794 26.8385C6.31479 26.8264 6.42305 26.8344 6.52661 26.8623C6.63016 26.8902 6.72696 26.9373 6.81146 27.0009C6.89596 27.0645 6.96652 27.1435 7.0191 27.2332C7.07168 27.3228 7.1053 27.4213 7.11795 27.5234C7.1306 27.6254 7.12204 27.7288 7.09284 27.8277C7.06364 27.9266 7.01438 28.019 6.94777 28.0997C6.88116 28.1804 6.79854 28.2479 6.70467 28.2981C6.61079 28.3483 6.50749 28.3803 6.40065 28.3924C6.30599 28.403 6.21075 28.4082 6.11544 28.4083Z" fill="white"/>
</svg>
