<svg width="51" height="38" viewBox="0 0 51 38" fill="none"  >
<path d="M28.2975 3.35124L28.24 7.03836C28.2257 7.41768 28.3323 7.79169 28.544 8.1049C28.9026 8.60928 29.6509 9.06316 31.169 8.27437C31.2921 8.20886 31.4074 8.12915 31.5126 8.03712L33.7879 6.07328C34.208 5.7246 34.5104 5.25194 34.6529 4.72106C34.8669 3.84979 34.6849 2.5711 32.6694 1.34735C32.5158 1.25902 32.348 1.19901 32.1737 1.17018C31.5907 0.968475 30.9619 0.945567 30.366 1.10415C29.7701 1.26274 29.2337 1.59579 28.8238 2.06175C28.4927 2.40803 28.3044 2.86917 28.2975 3.35124Z" fill="white"/>
<path d="M36.6231 19.5721C35.3146 19.5639 34.0231 19.2719 32.8353 18.7157C30.9893 17.7471 30.1489 15.9985 28.8901 14.4588C28.877 14.4428 28.8584 14.4324 28.8381 14.4295C28.8178 14.4267 28.7971 14.4318 28.7802 14.4436C28.2752 14.8177 27.8904 15.4397 27.3894 15.8436C26.8415 16.2701 26.2718 16.6669 25.6826 17.0325C24.5703 17.7591 23.4108 18.507 22.5997 19.5644C22.5136 19.6556 22.4631 19.7755 22.4578 19.9016C22.4849 20.3582 23.3864 20.5546 23.7103 20.7201C24.2296 20.988 24.7265 21.2986 25.1959 21.6486C26.0929 22.3162 26.8853 23.117 27.5464 24.024C28.9142 25.909 29.3894 28.1681 30.2063 30.3137C30.9747 32.342 32.0487 34.3351 32.0607 36.5049C32.0735 36.5861 32.0666 36.6691 32.0408 36.747C32.015 36.825 31.971 36.8956 31.9126 36.9526C31.8329 36.9897 31.7452 37.0054 31.6578 36.9984C31.5704 36.9913 31.4862 36.9617 31.4134 36.9123C29.4499 35.9658 28.2032 33.9547 27.3925 31.9093C26.6361 30.0117 26.0186 28.0499 24.4515 26.6494C23.4874 25.8592 22.4088 25.2242 21.2538 24.7668C20.572 24.4697 19.9131 24.1212 19.2827 23.7243C18.8592 23.4538 17.9729 22.4261 17.4803 22.9101C17.1791 23.2153 17.1293 23.7774 16.9406 24.1587C16.6634 24.7154 16.3399 25.2472 15.9738 25.7484C15.1432 26.9942 13.9312 27.9288 12.5247 28.4079C11.5458 28.6838 10.546 28.1595 9.70779 27.697C7.52229 26.49 5.1824 25.6538 2.90346 24.6581C2.23499 24.4356 1.63947 24.0319 1.18158 23.4907C1.05783 23.3336 0.993616 23.1368 1.0005 22.9359C1.03041 22.7958 1.09373 22.6653 1.18495 22.5558C1.27616 22.4463 1.39248 22.361 1.52373 22.3076C2.09742 22.0323 2.74544 21.9592 3.36485 22.0998C3.76173 22.1853 4.14384 22.3303 4.49855 22.5298C5.17625 22.8963 5.87755 23.216 6.59772 23.4868C7.38023 23.7821 8.18942 23.9991 9.0137 24.1345C9.81134 24.3361 10.6485 24.3099 11.4324 24.0588C12.0219 23.7526 12.4898 23.2504 12.7578 22.6366C14.2028 20.0468 15.9182 17.6218 17.8745 15.4032C18.7493 14.3737 19.9893 13.6129 20.6892 12.4342L20.6229 12.3116C20.0709 12.2874 19.5193 12.3681 18.9966 12.5496C18.4058 12.8383 17.8612 13.2154 17.3811 13.6683C16.3333 14.586 15.475 15.6966 14.4699 16.6639C14.4662 16.6673 14.4624 16.6704 14.4583 16.6733C11.8048 18.5421 13.0902 15.7894 13.1467 15.6704C13.1483 15.6666 13.1506 15.6631 13.1534 15.66C15.0634 13.1886 16.6123 10.6145 19.7561 9.71439C21.4743 9.227 23.2553 9.00571 25.0388 9.05809C26.9095 9.18648 28.6992 9.88045 30.1764 11.0503C31.7706 12.3286 31.8979 14.8515 33.4013 16.2582C34.9929 17.7457 37.4586 17.7078 39.3287 18.8143C39.4897 18.8925 39.6214 19.0216 39.7038 19.1821C40.1269 20.2769 36.9955 19.5906 36.6231 19.5721Z" fill="white"/>
<path d="M39.1961 19.5531C39.8555 18.873 41.2757 17.4094 41.9622 16.7541C42.1813 16.5615 42.4412 16.4225 42.7217 16.3482C43.0747 16.2639 43.4323 16.2017 43.7927 16.1614C45.8406 15.8588 47.7421 14.9095 49.2266 13.4488C49.6031 13.0976 49.8587 12.6335 49.9558 12.1245C50.2433 10.4969 49.0967 8.7623 47.4082 8.2719C46.9522 8.1025 46.4561 8.07848 45.9862 8.20279C45.5163 8.32709 45.0951 8.59377 44.7791 8.96737C44.3278 9.47744 43.9116 10.0184 43.5333 10.5861C42.5802 12.0542 42.2229 13.7303 41.9658 15.4377C41.9398 15.7204 41.836 15.9902 41.6663 16.2162C40.9673 16.9766 39.4657 18.4762 38.7396 19.2091L39.1961 19.5531ZM49.3783 12.0911C49.2746 12.4413 49.0888 12.7609 48.8368 13.0227C47.4619 14.4069 45.6833 15.3055 43.7647 15.5852C43.4198 15.646 43.075 15.6984 42.7271 15.7507C42.6582 15.7495 42.5894 15.7443 42.5211 15.7353C42.7573 13.4117 43.4016 11.3063 44.9682 9.57723C45.8936 8.55676 46.9014 8.42794 48.0569 9.18834C49.0602 9.84506 49.6533 11.0949 49.3779 12.0919L49.3783 12.0911Z" fill="white"/>
<path d="M28.2975 3.35124L28.24 7.03836C28.2257 7.41768 28.3323 7.79169 28.544 8.1049C28.9026 8.60928 29.6509 9.06316 31.169 8.27437C31.2921 8.20886 31.4074 8.12915 31.5126 8.03712L33.7879 6.07328C34.208 5.7246 34.5104 5.25194 34.6529 4.72106C34.8669 3.84979 34.6849 2.5711 32.6694 1.34735C32.5158 1.25902 32.348 1.19901 32.1737 1.17018C31.5907 0.968475 30.9619 0.945567 30.366 1.10415C29.7701 1.26274 29.2337 1.59579 28.8238 2.06175C28.4927 2.40803 28.3044 2.86917 28.2975 3.35124Z" stroke="white" stroke-width="0.384868" stroke-miterlimit="10"/>
<path d="M36.6231 19.5721C35.3146 19.5639 34.0231 19.2719 32.8353 18.7157C30.9893 17.7471 30.1489 15.9985 28.8901 14.4588C28.877 14.4428 28.8584 14.4324 28.8381 14.4295C28.8178 14.4267 28.7971 14.4318 28.7802 14.4436C28.2752 14.8177 27.8904 15.4397 27.3894 15.8436C26.8415 16.2701 26.2718 16.6669 25.6826 17.0325C24.5703 17.7591 23.4108 18.507 22.5997 19.5644C22.5136 19.6556 22.4631 19.7755 22.4578 19.9016C22.4849 20.3582 23.3864 20.5546 23.7103 20.7201C24.2296 20.988 24.7265 21.2986 25.1959 21.6486C26.0929 22.3162 26.8853 23.117 27.5464 24.024C28.9142 25.909 29.3894 28.1681 30.2063 30.3137C30.9747 32.342 32.0487 34.3351 32.0607 36.5049C32.0735 36.5861 32.0666 36.6691 32.0408 36.747C32.015 36.825 31.971 36.8956 31.9126 36.9526C31.8329 36.9897 31.7452 37.0054 31.6578 36.9984C31.5704 36.9913 31.4862 36.9617 31.4134 36.9123C29.4499 35.9658 28.2032 33.9547 27.3925 31.9093C26.6361 30.0117 26.0186 28.0499 24.4515 26.6494C23.4874 25.8592 22.4088 25.2242 21.2538 24.7668C20.572 24.4697 19.9131 24.1212 19.2827 23.7243C18.8592 23.4538 17.9729 22.4261 17.4803 22.9101C17.1791 23.2153 17.1293 23.7774 16.9406 24.1587C16.6634 24.7154 16.3399 25.2472 15.9738 25.7484C15.1432 26.9942 13.9312 27.9288 12.5247 28.4079C11.5458 28.6838 10.546 28.1595 9.70779 27.697C7.52229 26.49 5.1824 25.6538 2.90346 24.6581C2.23499 24.4356 1.63947 24.0319 1.18158 23.4907C1.05783 23.3336 0.993616 23.1368 1.0005 22.9359C1.03041 22.7958 1.09373 22.6653 1.18495 22.5558C1.27616 22.4463 1.39248 22.361 1.52373 22.3076C2.09742 22.0323 2.74544 21.9592 3.36485 22.0998C3.76173 22.1853 4.14384 22.3303 4.49855 22.5298C5.17625 22.8963 5.87755 23.216 6.59772 23.4868C7.38023 23.7821 8.18942 23.9991 9.0137 24.1345C9.81134 24.3361 10.6485 24.3099 11.4324 24.0588C12.0219 23.7526 12.4898 23.2504 12.7578 22.6366C14.2028 20.0468 15.9182 17.6218 17.8745 15.4032C18.7493 14.3737 19.9893 13.6129 20.6892 12.4342L20.6229 12.3116C20.0709 12.2874 19.5193 12.3681 18.9966 12.5496C18.4058 12.8383 17.8612 13.2154 17.3811 13.6683C16.3333 14.586 15.475 15.6966 14.4699 16.6639C14.4662 16.6673 14.4624 16.6704 14.4583 16.6733C11.8048 18.5421 13.0902 15.7894 13.1467 15.6704C13.1483 15.6666 13.1506 15.6631 13.1534 15.66C15.0634 13.1886 16.6123 10.6145 19.7561 9.71439C21.4743 9.227 23.2553 9.00571 25.0388 9.05809C26.9095 9.18648 28.6992 9.88045 30.1764 11.0503C31.7706 12.3286 31.8979 14.8515 33.4013 16.2582C34.9929 17.7457 37.4586 17.7078 39.3287 18.8143C39.4897 18.8925 39.6214 19.0216 39.7038 19.1821C40.1269 20.2769 36.9955 19.5906 36.6231 19.5721Z" stroke="white" stroke-width="0.384868" stroke-miterlimit="10"/>
<path d="M39.1961 19.5531C39.8555 18.873 41.2757 17.4094 41.9622 16.7541C42.1813 16.5615 42.4412 16.4225 42.7217 16.3482C43.0747 16.2639 43.4323 16.2017 43.7927 16.1614C45.8406 15.8588 47.7421 14.9095 49.2266 13.4488C49.6031 13.0976 49.8587 12.6335 49.9558 12.1245C50.2433 10.4969 49.0967 8.7623 47.4082 8.2719C46.9522 8.1025 46.4561 8.07848 45.9862 8.20279C45.5163 8.32709 45.0951 8.59377 44.7791 8.96737C44.3278 9.47744 43.9116 10.0184 43.5333 10.5861C42.5802 12.0542 42.2229 13.7303 41.9658 15.4377C41.9398 15.7204 41.836 15.9902 41.6663 16.2162C40.9673 16.9766 39.4657 18.4762 38.7396 19.2091L39.1961 19.5531ZM49.3783 12.0911C49.2746 12.4413 49.0888 12.7609 48.8368 13.0227C47.4619 14.4069 45.6833 15.3055 43.7647 15.5852C43.4198 15.646 43.075 15.6984 42.7271 15.7507C42.6582 15.7495 42.5894 15.7443 42.5211 15.7353C42.7573 13.4117 43.4016 11.3063 44.9682 9.57723C45.8936 8.55676 46.9014 8.42794 48.0569 9.18834C49.0602 9.84506 49.6533 11.0949 49.3779 12.0919L49.3783 12.0911Z" stroke="white" stroke-width="0.384868" stroke-miterlimit="10"/>
</svg>
