<svg width="55" height="37" viewBox="0 0 55 37" fill="none"  >
<path d="M13.6165 23.6936C13.3746 24.0178 13.0329 24.2575 12.6414 24.3777L8.86865 25.617C8.37672 25.7828 7.83834 25.756 7.36601 25.5425C5.30381 24.6122 5.31976 23.0175 5.23584 22.482C5.1999 22.296 5.1999 22.1049 5.23584 21.9189C5.74339 19.4563 6.97433 18.8231 7.94148 18.7332C8.53291 18.6874 9.12413 18.8241 9.632 19.1241L12.4616 20.723C12.5939 20.7978 12.7172 20.8868 12.8292 20.9886C14.1856 22.2395 13.9962 23.1542 13.6165 23.6936Z" fill="white"/>
<path d="M49.0815 28.1303L49.9887 25.4567C50.1842 25.3787 50.361 25.262 50.5082 25.1141C50.6554 24.9661 50.7697 24.7898 50.844 24.5966C51.5394 22.8063 48.4181 22.0441 47.2511 21.7431C45.5047 21.2936 43.7595 20.844 42.0157 20.3945C40.581 20.0231 39.1476 19.6531 37.7155 19.2844C37.6738 19.2731 37.6308 19.2678 37.5876 19.2687H31.8901C31.7997 19.2681 31.7109 19.2917 31.6333 19.3372C31.5558 19.3828 31.4925 19.4484 31.4505 19.5268L31.1947 19.9879C31.1528 20.0663 31.0895 20.1317 31.012 20.1773C30.9345 20.2228 30.8456 20.2466 30.7551 20.246H30.2636C30.198 20.2463 30.1331 20.2336 30.0726 20.2087C30.0122 20.1839 29.9575 20.1474 29.9119 20.1013L29.1845 19.3937C29.0909 19.3033 28.9645 19.2528 28.8328 19.2531H21.8029C21.6725 19.253 21.5473 19.2032 21.454 19.1141C21.3607 19.025 21.3066 18.9038 21.3034 18.7763L21.0236 9.50012C22.1835 9.19638 23.1906 8.48997 23.8566 7.5128C24.5227 6.53563 24.8021 5.35458 24.6427 4.19056C24.4832 3.02654 23.8958 1.95924 22.9902 1.18802C22.0847 0.416791 20.923 -0.00555504 19.7223 5.5182e-05C18.5216 0.0056654 17.3641 0.438903 16.4661 1.21855C15.5681 1.99821 14.9912 3.07091 14.8432 4.23636C14.6951 5.40182 14.986 6.58026 15.6616 7.55116C16.3371 8.52207 17.351 9.21907 18.5138 9.51195C18.358 11.0638 18.1608 12.6131 17.9223 14.1598C17.7345 15.3676 17.5227 16.5754 17.2549 17.7716C17.1457 18.3336 17.0056 18.8896 16.8353 19.4369C16.7836 19.5796 16.7152 19.716 16.6315 19.8434C16.3677 20.2578 15.972 20.6211 15.7123 21.0316C14.6452 22.7085 14.857 24.4949 16.6075 25.6246C16.69 25.6792 16.7876 25.708 16.8873 25.7069H29.0926C29.225 25.7068 29.3521 25.6552 29.4457 25.5635C29.5394 25.4719 29.592 25.3478 29.5921 25.2183V24.4325C29.5921 24.1627 29.5482 23.5491 30.3914 23.5491C31.2187 23.5491 31.1628 24.1627 31.1628 24.4325V25.2183C31.1629 25.3478 31.2156 25.4719 31.3092 25.5635C31.4029 25.6552 31.5299 25.7068 31.6624 25.7069H45.0387L44.8388 28.1303H0.741345C0.544726 28.1303 0.356175 28.2068 0.217144 28.3428C0.0781138 28.4788 0 28.6631 0 28.8554C0 29.0478 0.0781138 29.2323 0.217144 29.3683C0.356175 29.5043 0.544726 29.5805 0.741345 29.5805H44.719L44.2194 35.6748C44.209 35.829 44.234 35.9835 44.2928 36.1269C44.3516 36.2704 44.4426 36.3989 44.5591 36.5033C45.9459 37.8206 46.3815 36.1008 46.3815 36.1008L48.5916 29.5805H54.2587C54.4553 29.5805 54.6438 29.5043 54.7829 29.3683C54.9219 29.2323 55 29.0478 55 28.8554C55 28.6631 54.9219 28.4788 54.7829 28.3428C54.6438 28.2068 54.4553 28.1303 54.2587 28.1303H49.0815ZM16.3621 4.83283C16.3613 4.1786 16.5589 3.53892 16.93 2.99458C17.301 2.45023 17.8288 2.02583 18.4465 1.77493C19.0642 1.52404 19.7442 1.45786 20.4003 1.58502C21.0564 1.71218 21.6592 2.02683 22.1325 2.48916C22.6057 2.9515 22.9281 3.54075 23.0589 4.18235C23.1897 4.82395 23.123 5.4892 22.8672 6.0937C22.6114 6.6982 22.1781 7.21491 21.622 7.57846C21.0659 7.94201 20.412 8.13598 19.7432 8.13598C18.8474 8.13505 17.9886 7.78685 17.3549 7.16771C16.7211 6.54858 16.3641 5.70893 16.3621 4.83283Z" fill="white"/>
<path d="M19.7432 5.21088C19.5279 5.21088 19.3527 5.0412 19.3527 4.83277C19.3527 4.62224 19.5279 4.45104 19.7432 4.45104C19.9584 4.45104 20.1336 4.62224 20.1336 4.83277C20.1336 5.0412 19.9584 5.21088 19.7432 5.21088Z" fill="white"/>
<path d="M19.7432 5.97435C19.0957 5.97435 18.5722 5.46225 18.5722 4.83277C18.5722 4.19966 19.0957 3.68756 19.7432 3.68756C20.3906 3.68756 20.9141 4.19966 20.9141 4.83277C20.9141 5.46225 20.3906 5.97435 19.7432 5.97435Z" fill="white"/>
</svg>
