<svg width="45" height="42" viewBox="0 0 45 42" fill="none"  >
<path d="M31.4219 2.23546L30.8483 6.32089C30.7801 6.73998 30.8478 7.16998 31.0414 7.54749C31.3732 8.1573 32.1486 8.76617 33.9575 8.10368C34.1044 8.04827 34.2446 7.97616 34.3752 7.88876L37.192 6.02857C37.7105 5.69979 38.1141 5.21676 38.3466 4.64672C38.7062 3.7101 38.6788 2.26529 36.592 0.624217C36.4321 0.504905 36.2525 0.414949 36.0615 0.358486C35.4368 0.0526131 34.7362 -0.0612236 34.0474 0.0312486C33.3586 0.123721 32.7123 0.418384 32.1894 0.87831C31.7709 1.21599 31.4964 1.70139 31.4219 2.23546Z" fill="white"/>
<path d="M19.7124 19.1017C19.6711 19.2415 19.6363 19.3884 19.6085 19.5376C19.3124 21.1269 19.4952 22.7927 19.6549 24.3946C19.9124 26.9588 19.4897 27.4716 17.5704 28.743C16.7745 29.3267 15.9248 29.833 15.1062 30.3747C14.5377 30.7514 13.5748 31.1528 13.1623 31.7407C12.1506 33.186 13.8119 35.7082 15.309 34.9893C16.477 34.4299 17.62 33.4676 18.7268 32.7515C19.9124 31.985 21.0888 31.1962 22.2072 30.3094C24.0634 28.8385 23.4457 26.8502 23.3209 24.6161C23.3187 24.5634 23.306 24.5117 23.2834 24.4641C23.2608 24.4165 23.2289 24.374 23.1896 24.3391L22.4536 23.706C22.3808 23.6393 22.3347 23.5483 22.3239 23.45C22.3132 23.3516 22.3385 23.2527 22.3951 23.1717L22.5255 22.9913C22.5494 22.9557 22.5806 22.9257 22.617 22.9032C22.6533 22.8806 22.6941 22.8662 22.7364 22.8607C22.7788 22.8552 22.8218 22.8589 22.8627 22.8714C22.9035 22.884 22.9413 22.9051 22.9733 22.9335L25.3052 24.9158C26.0649 25.5368 28.8237 27.1182 28.6413 28.2315C28.2872 30.3911 27.9577 32.5561 27.6092 34.7166C27.6005 34.772 27.6028 34.8285 27.6162 34.883C27.8195 35.7171 28.2733 36.6546 29.091 36.829C31.0688 37.2486 31.2126 34.4378 31.5347 32.9729C31.9871 30.9183 32.4925 28.8344 32.5454 26.6986C32.6132 23.9601 28.2223 23.5335 27.3137 21.6817C26.9754 20.9856 29.1801 18.6126 29.5244 18.1851C30.2284 17.3133 31.0558 15.7072 32.2117 15.5776C33.2224 15.4643 34.3371 16.7627 35.12 17.3897C36.8454 18.7707 38.5686 20.155 40.2896 21.5428C40.3207 21.5689 40.3568 21.5883 40.3956 21.5997C40.4345 21.6112 40.4754 21.6145 40.5156 21.6094C41.0418 21.54 42.9677 21.1302 41.8293 18.9138C41.8064 18.8691 41.7749 18.8295 41.7365 18.7972L30.9305 9.7788C30.8984 9.75175 30.8614 9.7313 30.8214 9.71864L27.3949 8.64636C25.1326 7.93911 22.8471 8.14378 21.622 5.588C20.8053 3.88569 19.9879 2.18386 19.17 0.482495C19.1335 0.402737 19.0683 0.339789 18.9876 0.306271C17.9406 -0.100268 16.6436 0.499741 16.8158 1.86855C16.9132 2.64666 17.568 3.64855 17.8664 4.35393L20.1092 9.65758C20.1278 9.70457 20.1564 9.74695 20.1929 9.78173C20.2294 9.81651 20.2731 9.84286 20.3208 9.85899L25.4593 11.3238C25.5 11.3367 25.5377 11.3576 25.5702 11.3854L26.1011 11.8716C26.257 12.0143 26.5043 12.1514 26.4965 12.4148C26.4863 12.7332 26.1127 13.1985 25.8259 12.9192L25.1665 12.2908C25.1358 12.2628 25.0997 12.2414 25.0604 12.2281C25.0212 12.2148 24.9796 12.2098 24.9383 12.2135C24.897 12.2171 24.857 12.2293 24.8206 12.2493C24.7842 12.2692 24.7524 12.2965 24.727 12.3295L22.3371 15.2699C21.4155 16.4098 20.1704 17.538 19.7124 19.1017Z" fill="white"/>
<path d="M44.9584 40.1685C44.9671 40.1782 44.9746 40.189 44.9807 40.2006C45.0549 40.3377 44.9004 40.4836 44.7653 40.561C41.5401 42.4058 38.2802 42.1135 34.7571 41.658C30.7198 41.1358 26.6936 40.5246 22.6582 39.9796L4.16418 37.4873C3.54977 37.4043 2.90754 37.359 2.30241 37.236C1.43516 37.0496 0.646897 36.5972 0.0465948 35.9413C-0.333931 35.442 1.72973 34.9515 2.12 34.869C3.49175 34.5809 4.68019 34.8065 6.03106 34.9828L36.7952 38.9941C39.4371 39.3838 42.0854 39.7162 44.7305 40.0794C44.8143 40.0824 44.8946 40.1138 44.9584 40.1685Z" fill="white"/>
<path d="M3.87095 38.4561C3.81387 38.1959 8.51149 39.078 8.51474 39.0785C8.47483 39.0705 8.17271 39.4188 8.13605 39.4514C7.75727 39.7826 7.34691 40.0754 6.91094 40.3256C6.11487 40.7904 5.26791 41.161 4.38695 41.43C3.6491 41.6552 2.45509 42.0282 1.70424 41.7368C1.701 41.7368 2.99246 40.4034 3.09641 40.2939C3.56047 39.8016 4.03012 39.1778 3.87095 38.4561Z" fill="white"/>
</svg>
