<svg width="54" height="22" viewBox="0 0 54 22" fill="none"  >
<path d="M40.3546 0.920005C40.2916 0.723331 39.7909 0.419466 38.5905 0.208773C35.3933 -0.351562 29.5816 0.111467 26.66 2.88882C24.481 4.96358 23.9045 6.97318 23.3965 8.74572C23.223 9.39654 23.0133 10.0378 22.7684 10.6667C22.3753 11.6216 13.7038 13.9615 12.7614 14.8096C11.4562 15.9827 16.6066 15.9794 15.9308 16.6003C15.8819 16.6449 16.4882 16.7178 16.5555 16.7397C18.5684 17.3915 20.9522 16.9207 22.6206 15.9171C24.9303 14.5239 27.923 14.9729 30.2088 16.3777C30.217 16.3826 30.2259 16.3864 30.2352 16.3888L31.2645 16.6609C31.2722 16.6629 31.2797 16.666 31.2866 16.67C32.3588 17.279 33.6321 16.9805 35.0854 16.8906C35.0978 16.8908 35.1102 16.8885 35.1217 16.8839C35.1331 16.8792 35.1435 16.8724 35.1521 16.8637C35.1607 16.8551 35.1675 16.8448 35.1718 16.8335C35.1762 16.8222 35.1781 16.8102 35.1774 16.7982C35.0669 15.9653 34.7123 15.1805 34.1554 14.5367C33.5213 13.9363 32.8152 13.4116 32.0523 12.9736C29.2329 11.1594 25.3706 8.67441 29.7404 4.2878C31.6839 2.33755 34.6405 2.08891 37.0162 1.88976C38.3669 1.77638 39.5328 1.67909 40.0928 1.29316C40.2329 1.19544 40.3976 1.04947 40.3546 0.920005Z" fill="white"/>
<path d="M53.2095 14.775C52.2089 14.9058 51.2594 15.2818 50.451 15.8676C49.4653 16.5447 48.2854 16.9057 47.0769 16.9001C45.8684 16.8945 44.692 16.5225 43.7131 15.8363C42.6208 15.0702 41.308 14.6549 39.9593 14.6487C38.6105 14.6425 37.2937 15.0457 36.1939 15.8017C35.4462 16.3412 34.565 16.6806 33.6389 16.7858C32.2121 16.9845 30.7606 16.6536 29.5752 15.8594L29.4543 15.7596C28.3618 14.9942 27.0493 14.5791 25.7009 14.5726C24.3524 14.566 23.0357 14.9685 21.9354 15.7233C21.0483 16.3355 20.001 16.6931 18.9135 16.7551C17.8261 16.8172 16.7426 16.5812 15.7873 16.0742C15.581 15.962 15.3838 15.8346 15.1975 15.6932C14.1055 14.927 12.7929 14.5115 11.4443 14.5051C10.0957 14.4987 8.77893 14.9016 7.67912 15.6573C6.69309 16.3336 5.5133 16.6943 4.30498 16.6889C3.09667 16.6835 1.92037 16.3123 0.940824 15.6272C0.908054 15.6022 0.870526 15.5837 0.830364 15.5728C0.790202 15.5618 0.748193 15.5586 0.706753 15.5633C0.623062 15.5729 0.546744 15.6143 0.494567 15.6784C0.44239 15.7425 0.418649 15.824 0.428551 15.905C0.438453 15.9861 0.481199 16.06 0.54738 16.1105C1.63959 16.8766 2.95233 17.292 4.30103 17.2982C5.64973 17.3045 6.96653 16.9012 8.06622 16.1451C9.05224 15.4684 10.2324 15.1076 11.441 15.1134C12.6496 15.1193 13.8259 15.4914 14.8049 16.1777C15.0167 16.3381 15.2406 16.4828 15.4748 16.6106C16.5396 17.1739 17.7467 17.4353 18.9579 17.3647C20.1691 17.2941 21.3352 16.8944 22.3225 16.2115C23.288 15.5499 24.4391 15.1898 25.6219 15.1795C26.8046 15.1692 27.9623 15.5091 28.9399 16.1538L29.0612 16.2536C30.399 17.2127 32.073 17.6234 33.7211 17.3969C34.7578 17.2769 35.7436 16.8949 36.5797 16.2894C37.5653 15.6123 38.7451 15.2511 39.9536 15.2565C41.1621 15.2619 42.3384 15.6336 43.3176 16.3195C44.4098 17.0855 45.7224 17.5008 47.0709 17.5073C48.4195 17.5139 49.7363 17.1112 50.8364 16.3558C51.5587 15.834 52.4066 15.4992 53.2998 15.3832C53.3831 15.3714 53.4582 15.328 53.5084 15.2626C53.5587 15.1972 53.5801 15.1152 53.5679 15.0345C53.5557 14.9539 53.5109 14.8813 53.4434 14.8326C53.3759 14.7839 53.2911 14.7632 53.2078 14.775H53.2095Z" fill="white"/>
<path d="M47.1044 17.9205C45.6453 17.9435 44.2201 17.4936 43.0553 16.6424C42.1524 16.0096 41.0674 15.6668 39.9528 15.6619C38.8383 15.6571 37.7502 15.9906 36.8416 16.6156C35.9459 17.2653 34.8894 17.6754 33.7782 17.8047C32.0162 18.0453 30.2272 17.604 28.799 16.5764L28.6776 16.4774C27.7739 15.892 26.7086 15.5845 25.6214 15.5953C24.5341 15.606 23.4756 15.9345 22.5844 16.5376C21.5301 17.2688 20.2842 17.6974 18.9898 17.7743C17.6954 17.8512 16.4048 17.5732 15.2661 16.9722C15.0138 16.8345 14.7726 16.6786 14.5444 16.5059C13.6414 15.8722 12.5561 15.5284 11.4409 15.5229C10.3258 15.5173 9.23683 15.8503 8.32722 16.475C7.15087 17.2839 5.74221 17.7152 4.29942 17.7084C2.85663 17.7016 1.45236 17.257 0.284202 16.437C0.207263 16.3785 0.14298 16.3059 0.095095 16.2233C0.0472098 16.1407 0.0166797 16.0497 0.00516785 15.9556C-0.00634403 15.8616 0.00141845 15.7662 0.0280395 15.675C0.0546605 15.5839 0.0995944 15.4987 0.160279 15.4244C0.283297 15.275 0.462194 15.1786 0.658153 15.1561C0.854112 15.1337 1.05132 15.187 1.20697 15.3044C2.11021 15.936 3.19494 16.2781 4.30909 16.2828C5.42324 16.2875 6.51095 15.9544 7.41979 15.3304C8.59646 14.5221 10.0053 14.0913 11.448 14.0987C12.8907 14.1061 14.2947 14.5513 15.4624 15.3716C15.6312 15.4997 15.8098 15.6151 15.9968 15.7167C16.8786 16.1859 17.8792 16.4049 18.8837 16.3486C19.8882 16.2924 20.856 15.9632 21.6761 15.3988C22.853 14.5913 24.2616 14.1607 25.7041 14.1677C27.1465 14.1746 28.5506 14.6187 29.7192 15.4376L29.8405 15.5374C30.9357 16.2609 32.2711 16.5612 33.5835 16.3793C34.4348 16.2832 35.245 15.9719 35.9328 15.4768C37.1095 14.6684 38.5182 14.2373 39.9609 14.2441C41.4036 14.2509 42.8079 14.6953 43.9763 15.5147C44.8792 16.1474 45.964 16.4903 47.0785 16.4954C48.193 16.5004 49.2811 16.1673 50.19 15.5427C51.0554 14.9147 52.0719 14.5108 53.1435 14.3693C53.239 14.3545 53.3365 14.3583 53.4304 14.3803C53.5243 14.4023 53.6128 14.4421 53.6907 14.4975C53.771 14.5542 53.839 14.6256 53.8908 14.7078C53.9425 14.7899 53.977 14.8811 53.9922 14.9762C54.0207 15.1659 53.9703 15.3588 53.8519 15.5125C53.7336 15.6662 53.5571 15.7681 53.3612 15.7959C52.5407 15.9018 51.7616 16.2085 51.0974 16.6869C49.9412 17.5092 48.5388 17.9424 47.1044 17.9205Z" fill="white"/>
<path d="M53.2095 18.8532C52.2089 18.984 51.2594 19.36 50.451 19.9458C49.4653 20.6229 48.2854 20.984 47.0769 20.9783C45.8684 20.9727 44.692 20.6007 43.7131 19.9145C42.6208 19.1484 41.308 18.7331 39.9593 18.7269C38.6105 18.7207 37.2937 19.1239 36.1939 19.8799C35.4462 20.4194 34.565 20.7588 33.6389 20.8641C32.2121 21.0627 30.7606 20.7318 29.5752 19.9376L29.4543 19.8378C28.3618 19.0724 27.0493 18.6573 25.7009 18.6508C24.3524 18.6442 23.0357 19.0466 21.9354 19.8015C21.0483 20.4136 20.001 20.7713 18.9135 20.8333C17.8261 20.8954 16.7426 20.6594 15.7873 20.1524C15.581 20.0402 15.3838 19.9128 15.1975 19.7714C14.1055 19.0052 12.7929 18.5897 11.4443 18.5833C10.0957 18.5768 8.77893 18.9798 7.67912 19.7356C6.69309 20.4118 5.5133 20.7725 4.30498 20.7671C3.09667 20.7617 1.92037 20.3905 0.940824 19.7055C0.908054 19.6805 0.870526 19.6619 0.830364 19.651C0.790202 19.64 0.748193 19.6368 0.706753 19.6415C0.623062 19.6511 0.546744 19.6925 0.494567 19.7566C0.44239 19.8207 0.418649 19.9022 0.428551 19.9832C0.438453 20.0643 0.481199 20.1382 0.54738 20.1887C1.63959 20.9549 2.95233 21.3702 4.30103 21.3764C5.64973 21.3827 6.96653 20.9794 8.06622 20.2233C9.05224 19.5466 10.2324 19.1858 11.441 19.1916C12.6496 19.1975 13.8259 19.5696 14.8049 20.2559C15.0167 20.4163 15.2406 20.561 15.4748 20.6888C16.5396 21.2521 17.7467 21.5135 18.9579 21.4429C20.1691 21.3723 21.3352 20.9726 22.3225 20.2897C23.288 19.6281 24.4391 19.268 25.6219 19.2577C26.8046 19.2474 27.9623 19.5873 28.9399 20.232L29.0612 20.3318C30.399 21.2909 32.073 21.7017 33.7211 21.4751C34.7578 21.3551 35.7436 20.9731 36.5797 20.3676C37.5653 19.6905 38.7451 19.3293 39.9536 19.3347C41.1621 19.3401 42.3384 19.7118 43.3176 20.3977C44.4098 21.1637 45.7224 21.5791 47.0709 21.5856C48.4195 21.5921 49.7363 21.1894 50.8364 20.434C51.5587 19.9122 52.4066 19.5774 53.2998 19.4614C53.3831 19.4496 53.4582 19.4062 53.5084 19.3408C53.5587 19.2754 53.5801 19.1934 53.5679 19.1128C53.5557 19.0321 53.5109 18.9595 53.4434 18.9108C53.3759 18.8621 53.2911 18.8414 53.2078 18.8532H53.2095Z" fill="white"/>
<path d="M47.1044 21.9992C45.6453 22.0222 44.2201 21.5722 43.0553 20.721C42.1524 20.0882 41.0674 19.7454 39.9528 19.7405C38.8383 19.7357 37.7502 20.0692 36.8416 20.6942C35.9459 21.3439 34.8894 21.7541 33.7782 21.8833C32.0162 22.1241 30.2272 21.6828 28.799 20.655L28.6776 20.5561C27.7739 19.9706 26.7086 19.6631 25.6214 19.6739C24.5341 19.6846 23.4756 20.0131 22.5844 20.6163C21.5297 21.3469 20.2837 21.7748 18.9893 21.851C17.6948 21.9272 16.4045 21.6486 15.2661 21.0471C15.0138 20.9093 14.7726 20.7535 14.5444 20.5808C13.6414 19.9471 12.5561 19.6033 11.4409 19.5978C10.3258 19.5922 9.23683 19.9252 8.32722 20.5499C7.15087 21.3588 5.74221 21.7901 4.29942 21.7833C2.85663 21.7765 1.45236 21.3319 0.284202 20.5119C0.207263 20.4534 0.14298 20.3808 0.095095 20.2982C0.0472098 20.2156 0.0166797 20.1246 0.00516785 20.0305C-0.00634403 19.9365 0.00141845 19.8411 0.0280395 19.7499C0.0546605 19.6588 0.0995944 19.5736 0.160279 19.4993C0.283297 19.3499 0.462194 19.2535 0.658153 19.231C0.854112 19.2086 1.05132 19.2619 1.20697 19.3793C2.11021 20.0109 3.19494 20.353 4.30909 20.3577C5.42324 20.3624 6.51095 20.0293 7.41979 19.4053C8.59646 18.597 10.0053 18.1662 11.448 18.1736C12.8907 18.181 14.2947 18.6262 15.4624 19.4465C15.6312 19.5746 15.8098 19.69 15.9968 19.7916C16.8786 20.2608 17.8792 20.4798 18.8837 20.4235C19.8882 20.3673 20.856 20.0381 21.6761 19.4737C22.853 18.6662 24.2616 18.2356 25.7041 18.2426C27.1465 18.2495 28.5506 18.6936 29.7192 19.5125L29.8405 19.6123C30.9357 20.3358 32.2711 20.6361 33.5835 20.4542C34.4348 20.3581 35.245 20.0468 35.9328 19.5516C37.1095 18.7433 38.5182 18.3122 39.9609 18.319C41.4036 18.3258 42.8079 18.7702 43.9763 19.5896C44.8791 20.2224 45.964 20.5654 47.0785 20.5705C48.193 20.5755 49.2812 20.2423 50.19 19.6176C51.0554 18.9896 52.0719 18.5857 53.1435 18.4442C53.239 18.4294 53.3365 18.4332 53.4304 18.4552C53.5243 18.4772 53.6128 18.517 53.6907 18.5724C53.771 18.6291 53.839 18.7005 53.8908 18.7827C53.9425 18.8648 53.977 18.956 53.9922 19.0511C54.0207 19.2408 53.9703 19.4337 53.8519 19.5874C53.7336 19.7411 53.5571 19.8431 53.3612 19.8708C52.5407 19.9767 51.7616 20.2834 51.0974 20.7618C49.9417 21.5854 48.5393 22.02 47.1044 21.9992Z" fill="white"/>
<path d="M35.857 5.35115L33.5801 8.4196C33.3388 8.72972 33.2059 9.10625 33.2007 9.4945C33.2083 10.1282 33.5839 10.9479 35.383 11.1726C35.5299 11.1891 35.6783 11.1891 35.8251 11.1726L38.9899 10.851C39.5682 10.8023 40.1167 10.5809 40.5594 10.2173C41.2718 9.60994 41.8851 8.42783 40.8703 6.21989C40.79 6.05612 40.6801 5.90754 40.5458 5.78118C40.1597 5.27007 39.625 4.88206 39.01 4.66672C38.395 4.45137 37.7276 4.41851 37.0932 4.57229C36.5944 4.6714 36.1527 4.94965 35.857 5.35115Z" fill="white"/>
</svg>
