<svg width="43" height="51" viewBox="0 0 43 51" fill="none"  >
<path d="M19.1045 5.85749L21.4613 9.41757C21.6958 9.78939 22.0426 10.0752 22.4506 10.2328C23.1237 10.4745 24.1384 10.4073 25.0784 8.63838C25.1537 8.49368 25.2122 8.34066 25.2527 8.18239L26.149 4.78628C26.3235 4.17175 26.3036 3.51761 26.0922 2.915C25.7276 1.94001 24.7167 0.841321 21.9841 1.01907C21.7792 1.03738 21.5791 1.09229 21.3931 1.18119C20.7023 1.37849 20.0846 1.77704 19.6172 2.32692C19.1499 2.8768 18.8537 3.55356 18.7657 4.27249C18.6742 4.82508 18.7954 5.39206 19.1045 5.85749Z" fill="white"/>
<path d="M11.3534 45.4256L9.99109 49.1995C9.99109 49.1995 10.3307 51.0006 12.2863 49.1995L17.472 40.1938C17.472 40.1938 18.1522 38.9074 18.1522 38.4785C18.1688 38.1514 18.2623 37.8331 18.4249 37.5498C18.5876 37.2664 18.8147 37.0262 19.0876 36.8489L25.9733 33.7609C26.4106 33.5955 27.1623 33.5282 26.7634 34.2249C26.1997 35.0583 25.867 36.0285 25.7995 37.0352C25.8153 37.8298 25.9142 38.6205 26.0945 39.3942L26.4609 41.2579C26.4835 41.4174 26.5311 41.5723 26.6018 41.7167C26.9509 42.3376 28.3348 42.7884 28.945 43.1244C29.4314 43.4495 29.9445 43.7318 30.4787 43.9681L39.8303 47.0562C40.4541 47.0868 41.0755 46.9588 41.6375 46.6841C42.6611 46.0096 41.2499 45.2484 40.6857 44.9303C39.4977 44.262 38.29 43.6235 37.0958 42.9699L33.7845 41.1602C32.9159 40.6862 31.4695 40.1985 30.8283 39.4539C30.5319 39.0579 30.3799 38.571 30.398 38.0751C30.3538 36.2138 30.3872 34.352 30.4238 32.4907C30.4637 30.4653 30.5831 28.6736 29.6576 26.8071C29.1611 25.8055 28.4363 24.8737 28.332 23.7513C28.2601 22.9602 28.2723 22.1516 28.2432 21.3577L28.0985 17.463C28.0985 17.463 27.9435 14.8897 26.0231 13.6886C26.0231 13.6886 22.9973 12.0591 19.4267 15.7476L16.1116 19.4357C16.1116 19.4357 15.6014 20.551 13.0511 21.5805L7.27023 24.4111C7.27023 24.4111 5.48512 26.2122 7.77991 26.2122C8.8768 26.2122 10.2377 25.596 11.3168 25.3311C12.7077 25.032 14.08 24.6508 15.4267 24.1893C16.7739 23.6845 17.8864 22.7199 19.0021 21.8378C19.6033 21.2809 20.1652 20.6794 20.7932 20.1519C21.0253 19.9571 22.2965 18.8527 22.0776 19.832C21.8321 20.8228 21.8172 21.8574 22.0339 22.855C22.2373 23.683 22.9612 24.277 23.1453 25.0254C23.1676 25.1359 23.1761 25.2488 23.1707 25.3615C23.1646 26.4042 23.4624 27.6688 22.9128 28.6253C22.5154 29.3178 21.5256 29.8211 20.8928 30.2928L17.0511 33.1523C15.7107 34.0632 14.7666 35.4571 14.4125 37.048L11.3534 45.4256Z" fill="white"/>
<path d="M3.97341 30.4463C3.62699 30.6926 3.20975 30.8167 2.78633 30.7994C2.49248 30.7918 2.20503 30.7113 1.94934 30.5649C1.69365 30.4186 1.47758 30.2111 1.32022 29.9605C1.09925 29.6293 0.98756 29.2361 1.0011 28.837C1.01464 28.438 1.15272 28.0534 1.39563 27.7382C1.63854 27.4229 1.97387 27.1931 2.35384 27.0815C2.73381 26.9699 3.13898 26.9822 3.51162 27.1166C3.52049 27.1194 3.52836 27.1248 3.53421 27.132C3.54006 27.1393 3.54368 27.1482 3.54453 27.1576C3.54539 27.1669 3.54346 27.1763 3.53903 27.1845C3.5346 27.1928 3.52787 27.1995 3.51965 27.2038C3.2269 27.4051 2.99902 27.6886 2.86426 28.0191C2.72951 28.3497 2.69378 28.7129 2.76144 29.0637C2.84955 29.3703 3.00397 29.6533 3.21354 29.8924C3.42312 30.1315 3.68263 30.3206 3.97341 30.4463Z" fill="white"/>
<path d="M4.15709 29.9681C4.1447 29.9827 4.12826 29.9931 4.10989 29.998C4.09152 30.0029 4.0721 30.0021 4.05421 29.9956C3.82117 29.9056 3.6171 29.7528 3.46426 29.5538C3.31141 29.3549 3.21566 29.1173 3.18746 28.8672C3.15925 28.617 3.19969 28.3639 3.30432 28.1354C3.40896 27.9068 3.5738 27.7117 3.78085 27.5712C3.79681 27.5609 3.81546 27.5557 3.83441 27.5563C3.85336 27.5568 3.8717 27.5632 3.887 27.5745C4.06463 27.7107 4.21307 27.8818 4.32338 28.0775C4.43369 28.2732 4.50355 28.4894 4.52879 28.7131C4.55403 28.9368 4.53412 29.1633 4.47024 29.379C4.40636 29.5947 4.29982 29.7951 4.15709 29.9681Z" fill="white"/>
<path d="M41.1273 8.28998C41.0265 8.8044 40.8866 9.31022 40.7088 9.80295C40.3233 10.7617 39.7111 11.6106 38.9255 12.2755C38.14 12.9405 37.205 13.4012 36.2023 13.6176C35.7554 13.6923 35.3044 13.7398 34.8518 13.7598C34.0248 13.8395 33.2159 14.0528 32.456 14.3916C32.0798 14.5626 31.7197 14.7678 31.3802 15.0044C31.0282 15.2796 30.7074 15.5932 30.4238 15.9396C30.0381 16.3581 29.6219 16.7525 29.2217 17.1573C28.4024 17.9852 27.5822 18.8123 26.7611 19.6386C26.6737 19.7272 26.5802 19.8092 26.4895 19.8945H26.2279L25.5933 19.2537V18.9902C25.6731 18.903 25.7506 18.8134 25.8333 18.7295C27.0782 17.4725 28.2695 16.1548 29.5848 14.9774C30.6951 13.9269 31.4121 12.5219 31.6147 10.9998C31.6978 10.5585 31.6964 10.0992 31.7405 9.65269C31.8485 8.62325 32.239 7.64465 32.868 6.82684C33.7675 5.54858 35.1048 4.65231 36.6214 4.3114C36.7778 4.2768 36.9365 4.25119 37.0944 4.22085H38.0649C38.0996 4.23259 38.1348 4.24226 38.1706 4.24978C38.7945 4.31963 39.3856 4.56819 39.874 4.96614C40.3624 5.36409 40.7277 5.89476 40.9267 6.49548C41.0088 6.76299 41.0756 7.03509 41.1269 7.31031L41.1273 8.28998ZM40.5636 8.12508C40.5636 6.43391 39.8721 5.38023 38.6845 4.96597C38.0374 4.74898 37.3424 4.72265 36.681 4.89011C35.3902 5.19325 34.2461 5.94474 33.449 7.01309C32.6788 7.94097 32.266 9.11797 32.2864 10.3281C32.2931 10.9388 32.4956 11.5309 32.8637 12.0158C33.2317 12.5007 33.7454 12.8523 34.328 13.018C34.9244 13.1837 35.5528 13.1935 36.1539 13.0464C37.4574 12.7428 38.6126 11.9841 39.4155 10.9045C40.0744 10.1202 40.4751 9.1485 40.5617 8.1241L40.5636 8.12508ZM30.6295 14.8158C31.5247 14.1355 32.5476 13.6458 33.636 13.3763C32.9466 13.0383 32.3884 12.4781 32.0496 11.7842C31.7853 12.8817 31.3014 13.913 30.6277 14.8148L30.6295 14.8158Z" fill="white"/>
<path d="M25.5937 19.8936V19.2528Z" fill="white"/>
<path d="M25.5937 19.8936V19.2528M19.1045 5.85749L21.4613 9.41757C21.6958 9.78939 22.0426 10.0752 22.4506 10.2328C23.1237 10.4745 24.1384 10.4073 25.0784 8.63838C25.1537 8.49368 25.2122 8.34066 25.2527 8.18239L26.149 4.78628C26.3235 4.17175 26.3036 3.51761 26.0922 2.915C25.7276 1.94001 24.7167 0.841321 21.9841 1.01907C21.7792 1.03738 21.5791 1.09229 21.3931 1.18119C20.7023 1.37849 20.0846 1.77704 19.6172 2.32692C19.1499 2.8768 18.8537 3.55356 18.7657 4.27249C18.6742 4.82508 18.7954 5.39206 19.1045 5.85749ZM11.3534 45.4256L9.99109 49.1995C9.99109 49.1995 10.3307 51.0006 12.2863 49.1995L17.472 40.1938C17.472 40.1938 18.1522 38.9074 18.1522 38.4785C18.1688 38.1514 18.2623 37.8331 18.4249 37.5498C18.5876 37.2664 18.8147 37.0262 19.0876 36.8489L25.9733 33.7609C26.4106 33.5955 27.1623 33.5282 26.7634 34.2249C26.1997 35.0583 25.867 36.0285 25.7995 37.0352C25.8153 37.8298 25.9142 38.6205 26.0945 39.3942L26.4609 41.2579C26.4835 41.4174 26.5311 41.5723 26.6018 41.7167C26.9509 42.3376 28.3348 42.7884 28.945 43.1244C29.4314 43.4495 29.9445 43.7318 30.4787 43.9681L39.8303 47.0562C40.4541 47.0868 41.0755 46.9588 41.6375 46.6841C42.6611 46.0096 41.2499 45.2484 40.6857 44.9303C39.4977 44.262 38.29 43.6235 37.0958 42.9699L33.7845 41.1602C32.9159 40.6862 31.4695 40.1985 30.8283 39.4539C30.5319 39.0579 30.3799 38.571 30.398 38.0751C30.3538 36.2138 30.3872 34.352 30.4238 32.4907C30.4637 30.4653 30.5831 28.6736 29.6576 26.8071C29.1611 25.8055 28.4363 24.8737 28.332 23.7513C28.2601 22.9602 28.2723 22.1516 28.2432 21.3577L28.0985 17.463C28.0985 17.463 27.9435 14.8897 26.0231 13.6886C26.0231 13.6886 22.9973 12.0591 19.4267 15.7476L16.1116 19.4357C16.1116 19.4357 15.6014 20.551 13.0511 21.5805L7.27023 24.4111C7.27023 24.4111 5.48512 26.2122 7.77991 26.2122C8.8768 26.2122 10.2377 25.596 11.3168 25.3311C12.7077 25.032 14.08 24.6508 15.4267 24.1893C16.7739 23.6845 17.8864 22.7199 19.0021 21.8378C19.6033 21.2809 20.1652 20.6794 20.7932 20.1519C21.0253 19.9571 22.2965 18.8527 22.0776 19.832C21.8321 20.8228 21.8172 21.8574 22.0339 22.855C22.2373 23.683 22.9612 24.277 23.1453 25.0254C23.1676 25.1359 23.1761 25.2488 23.1707 25.3615C23.1646 26.4042 23.4624 27.6688 22.9128 28.6253C22.5154 29.3178 21.5256 29.8211 20.8928 30.2928L17.0511 33.1523C15.7107 34.0632 14.7666 35.4571 14.4125 37.048L11.3534 45.4256ZM3.97341 30.4463C3.62699 30.6926 3.20975 30.8167 2.78633 30.7994C2.49248 30.7918 2.20503 30.7113 1.94934 30.5649C1.69365 30.4186 1.47758 30.2111 1.32022 29.9605C1.09925 29.6293 0.98756 29.2361 1.0011 28.837C1.01464 28.438 1.15272 28.0534 1.39563 27.7382C1.63854 27.4229 1.97387 27.1931 2.35384 27.0815C2.73381 26.9699 3.13898 26.9822 3.51162 27.1166C3.52049 27.1194 3.52836 27.1248 3.53421 27.132C3.54006 27.1393 3.54368 27.1482 3.54453 27.1576C3.54539 27.1669 3.54346 27.1763 3.53903 27.1845C3.5346 27.1928 3.52787 27.1995 3.51965 27.2038C3.2269 27.4051 2.99902 27.6886 2.86426 28.0191C2.72951 28.3497 2.69378 28.7129 2.76144 29.0637C2.84955 29.3703 3.00397 29.6533 3.21354 29.8924C3.42312 30.1315 3.68263 30.3206 3.97341 30.4463ZM4.15709 29.9681C4.1447 29.9827 4.12826 29.9931 4.10989 29.998C4.09152 30.0029 4.0721 30.0021 4.05421 29.9956C3.82117 29.9056 3.6171 29.7528 3.46426 29.5538C3.31141 29.3549 3.21566 29.1173 3.18746 28.8672C3.15925 28.617 3.19969 28.3639 3.30432 28.1354C3.40896 27.9068 3.5738 27.7117 3.78085 27.5712C3.79681 27.5609 3.81546 27.5557 3.83441 27.5563C3.85336 27.5568 3.8717 27.5632 3.887 27.5745C4.06463 27.7107 4.21307 27.8818 4.32338 28.0775C4.43369 28.2732 4.50355 28.4894 4.52879 28.7131C4.55403 28.9368 4.53412 29.1633 4.47024 29.379C4.40636 29.5947 4.29982 29.7951 4.15709 29.9681ZM41.1273 8.28998C41.0265 8.8044 40.8866 9.31022 40.7088 9.80295C40.3233 10.7617 39.7111 11.6106 38.9255 12.2755C38.14 12.9405 37.205 13.4012 36.2023 13.6176C35.7554 13.6923 35.3044 13.7398 34.8518 13.7598C34.0248 13.8395 33.2159 14.0528 32.456 14.3916C32.0798 14.5626 31.7197 14.7678 31.3802 15.0044C31.0282 15.2796 30.7074 15.5932 30.4238 15.9396C30.0381 16.3581 29.6219 16.7525 29.2217 17.1573C28.4024 17.9852 27.5822 18.8123 26.7611 19.6386C26.6737 19.7272 26.5802 19.8092 26.4895 19.8945H26.2279L25.5933 19.2537V18.9902C25.6731 18.903 25.7506 18.8134 25.8333 18.7295C27.0782 17.4725 28.2695 16.1548 29.5848 14.9774C30.6951 13.9269 31.4121 12.5219 31.6147 10.9998C31.6978 10.5585 31.6964 10.0992 31.7405 9.65269C31.8485 8.62325 32.239 7.64465 32.868 6.82684C33.7675 5.54858 35.1048 4.65231 36.6214 4.3114C36.7778 4.2768 36.9365 4.25119 37.0944 4.22085H38.0649C38.0996 4.23259 38.1348 4.24226 38.1706 4.24978C38.7945 4.31963 39.3856 4.56819 39.874 4.96614C40.3624 5.36409 40.7277 5.89476 40.9267 6.49548C41.0088 6.76299 41.0756 7.03509 41.1269 7.31031L41.1273 8.28998ZM40.5636 8.12508C40.5636 6.43391 39.8721 5.38023 38.6845 4.96597C38.0374 4.74898 37.3424 4.72265 36.681 4.89011C35.3902 5.19325 34.2461 5.94474 33.449 7.01309C32.6788 7.94097 32.266 9.11797 32.2864 10.3281C32.2931 10.9388 32.4956 11.5309 32.8637 12.0158C33.2317 12.5007 33.7454 12.8523 34.328 13.018C34.9244 13.1837 35.5528 13.1935 36.1539 13.0464C37.4574 12.7428 38.6126 11.9841 39.4155 10.9045C40.0744 10.1202 40.4751 9.1485 40.5617 8.1241L40.5636 8.12508ZM30.6295 14.8158C31.5247 14.1355 32.5476 13.6458 33.636 13.3763C32.9466 13.0383 32.3884 12.4781 32.0496 11.7842C31.7853 12.8817 31.3014 13.913 30.6277 14.8148L30.6295 14.8158Z" stroke="white" stroke-width="0.428" stroke-miterlimit="10"/>
</svg>
