<svg width="67" height="20" viewBox="0 0 67 20" fill="none"  >
<path d="M41.9199 9.71368C41.4779 9.52286 40.9976 9.4304 40.5142 9.44322C40.0307 9.45603 39.5563 9.5737 39.1257 9.78765C39.1219 9.78937 39.1186 9.79188 39.1159 9.79496C39.1132 9.79804 39.1113 9.80156 39.1101 9.80545C39.109 9.80933 39.1087 9.81346 39.1094 9.81745C39.11 9.82144 39.1115 9.82525 39.1138 9.82863C39.482 10.5446 39.7369 11.3105 39.8696 12.1005C39.8708 12.1068 39.8739 12.1124 39.8786 12.1168C39.8833 12.1212 39.8893 12.1241 39.8958 12.125C39.9023 12.1258 39.9088 12.1247 39.9145 12.1217C39.9203 12.1186 39.9249 12.1139 39.9277 12.1081C40.4917 11.0224 41.16 10.2372 41.9225 9.7664C41.9272 9.76356 41.9311 9.75958 41.9337 9.7548C41.9363 9.75003 41.9375 9.74474 41.9373 9.73935C41.937 9.73395 41.9352 9.72868 41.9321 9.72417C41.9291 9.71965 41.9249 9.71607 41.9199 9.71368Z" fill="#FCFDFF"/>
<path d="M36.8727 12.95C37.1132 13.9154 37.1852 14.9133 37.0858 15.9019C37.0472 16.0991 37.0502 16.3019 37.0945 16.4979C37.1293 16.5161 37.169 16.5234 37.2082 16.5188C37.3129 16.5098 37.4145 16.4793 37.5061 16.4292C37.5977 16.3791 37.6773 16.3106 37.7396 16.2283C38.3483 15.567 38.765 13.9696 38.6312 12.8087C38.5257 11.8995 38.0469 10.8099 37.6974 10.0143C37.5107 9.65468 37.3706 9.27386 37.2803 8.88069C37.2698 8.7295 37.3774 8.55264 37.6292 8.30733C38.3498 7.6042 40.5406 6.17437 41.1202 6.17437C41.1269 6.17437 41.1336 6.17437 41.1394 6.17437C41.481 6.19528 41.7926 6.4599 42.1859 6.79451C42.5816 7.1493 43.0146 7.46284 43.4775 7.72997C44.5531 8.32345 46.3845 8.89875 46.7793 8.67577C46.7894 8.6715 46.7978 8.66408 46.8031 8.65466C46.8083 8.64524 46.8102 8.63433 46.8084 8.62375C46.8084 8.26653 46.2369 7.91733 45.575 7.51263C45.1157 7.24358 44.6743 6.94654 44.2537 6.62326C43.8126 6.2474 43.4007 5.84035 43.0214 5.40547C42.2464 4.5633 41.4446 3.69227 40.5763 3.5812C40.5342 3.57599 40.4917 3.57348 40.4493 3.57361C38.9667 3.57361 34.7806 6.30891 34.407 7.86355C34.1963 8.73964 34.6855 9.34558 35.3044 10.1115C35.8945 10.8397 36.5602 11.6633 36.8727 12.95Z" fill="#FCFDFF"/>
<path d="M49.0454 11.5935C48.6072 11.1453 48.0817 10.7862 47.4996 10.5369C46.9175 10.2876 46.2903 10.153 45.6543 10.1411H45.5468C44.2631 10.1269 43.0261 10.609 42.1081 11.4813C41.19 12.3537 40.666 13.5449 40.6514 14.7929C40.6367 16.0409 41.1326 17.2434 42.0299 18.1359C42.9273 19.0284 44.1526 19.5379 45.4363 19.5521C45.4875 19.5547 45.5389 19.5546 45.5904 19.5546C46.8241 19.553 48.0088 19.085 48.894 18.2495C49.3535 17.8222 49.722 17.3112 49.9783 16.7455C50.2346 16.1798 50.3737 15.5704 50.3878 14.9524C50.4019 14.3344 50.2906 13.7198 50.0602 13.1436C49.8299 12.5674 49.4851 12.041 49.0454 11.5944V11.5935ZM48.2573 17.5998C47.8881 17.9492 47.4503 18.2227 46.97 18.404C46.4898 18.5854 45.9768 18.6708 45.4619 18.6553C44.4298 18.6342 43.4479 18.2179 42.7297 17.497C42.0115 16.7761 41.6149 15.8089 41.6261 14.8053C41.6373 13.8018 42.0554 12.8431 42.7895 12.1375C43.5236 11.4319 44.5144 11.0364 45.5468 11.037H45.634C46.409 11.0536 47.1616 11.2933 47.7966 11.7257C48.4315 12.1581 48.9203 12.7639 49.2011 13.4664C49.4819 14.1689 49.5421 14.9364 49.3741 15.6722C49.2061 16.4079 48.8174 17.0788 48.2573 17.5998Z" fill="#FCFDFF"/>
<path d="M34.6221 11.5442C34.1839 11.096 33.6584 10.7369 33.0763 10.4876C32.4942 10.2383 31.867 10.1039 31.231 10.092H31.1232C29.8772 10.0909 28.6792 10.5585 27.7801 11.397C27.3016 11.8426 26.9217 12.3785 26.6635 12.9718C26.63 13.0492 26.5969 13.1289 26.5684 13.2088C26.5243 13.324 26.4867 13.4415 26.4557 13.5607C26.4324 13.6404 26.412 13.7179 26.394 13.8004C26.3281 14.0941 26.292 14.3932 26.2862 14.6937C26.2816 14.9212 26.2936 15.1489 26.3222 15.3748C26.3324 15.4621 26.3452 15.5494 26.3632 15.6345C26.3855 15.7666 26.4155 15.8974 26.453 16.0263C26.4763 16.1209 26.5068 16.2133 26.5379 16.3057C26.8573 17.2205 27.4579 18.0179 28.2586 18.59C29.0592 19.1622 30.0213 19.4816 31.0147 19.5049C31.0659 19.5049 31.1174 19.5074 31.1688 19.5074C32.4034 19.5045 33.5887 19.0357 34.4747 18.1998C35.4019 17.3362 35.9384 16.15 35.9663 14.902C35.9943 13.654 35.5114 12.4463 34.6238 11.5442H34.6221ZM33.834 17.5509C33.465 17.9008 33.0273 18.1748 32.547 18.3565C32.0667 18.5383 31.5537 18.6241 31.0386 18.6089C30.5236 18.5989 30.0158 18.49 29.5445 18.2882C29.0731 18.0865 28.6474 17.796 28.292 17.4336C28.1793 17.3185 28.0739 17.1968 27.9763 17.0693C27.8501 16.9058 27.7385 16.7322 27.6426 16.5502C27.5417 16.3624 27.4585 16.1661 27.3938 15.9637C27.3575 15.8599 27.3275 15.7541 27.3039 15.6469C27.2312 15.3413 27.1984 15.028 27.2063 14.7144C27.211 14.5212 27.2298 14.3286 27.2626 14.1381C27.278 14.0505 27.2987 13.9635 27.319 13.8784C27.3502 13.7556 27.389 13.6347 27.4353 13.5166C27.4611 13.4366 27.492 13.3584 27.5278 13.2821C27.8333 12.6017 28.3361 12.0224 28.9747 11.6152C29.6133 11.2079 30.36 10.9902 31.1237 10.9887H31.2139C31.9887 11.0058 32.7409 11.2459 33.3754 11.6785C34.0099 12.1111 34.4983 12.717 34.7788 13.4194C35.0592 14.1218 35.1192 14.8892 34.9511 15.6247C34.7831 16.3602 34.3946 17.0309 33.8346 17.5518L33.834 17.5509Z" fill="#FCFDFF"/>
<path d="M43.5293 1.86201L43.6715 4.06631C43.681 4.29329 43.7654 4.51131 43.9121 4.68811C44.1595 4.97072 44.6471 5.20728 45.5535 4.6641C45.6274 4.61937 45.6957 4.56642 45.757 4.50638L47.0771 3.22594C47.3215 2.99739 47.4865 2.70033 47.5492 2.37631C47.6405 1.84614 47.4654 1.09183 46.1538 0.457656C46.054 0.412305 45.9467 0.38446 45.8369 0.375412C45.4645 0.282875 45.0724 0.299272 44.7095 0.422329C44.3466 0.545387 44.0291 0.769706 43.7967 1.06731C43.6066 1.28936 43.5109 1.57365 43.5293 1.86201Z" fill="#FCFDFF"/>
<path d="M65.3849 6.87645C64.9082 7.35124 64.4578 7.80032 64.1122 7.80032C63.5401 7.80032 62.8732 7.17847 61.9505 6.32103C61.6145 6.00846 61.2941 5.54029 60.8206 5.29781C58.1964 3.95428 56.399 4.20822 55.3978 5.40337C54.4341 6.5536 53.6059 8.94793 53.8431 9.82854C53.8859 9.98623 53.951 10.0083 54.01 10.0083C54.3088 10.0061 54.6455 9.31417 55.0019 8.58108C55.3583 7.84799 55.767 7.00776 56.2731 6.57452C56.6948 6.22168 57.2263 6.01711 57.7822 5.99357C57.9668 5.98865 58.1498 6.02909 58.3142 6.11114L58.8325 6.35953C58.8672 6.38339 58.8933 6.41726 58.9069 6.4564C58.9206 6.49554 58.9212 6.53793 58.9086 6.57742C58.8912 6.64835 58.8432 6.69237 58.7923 6.69237C58.7783 6.69234 58.7646 6.68913 58.7522 6.68285L58.3301 6.48041C57.2403 9.47558 55.8329 12.3524 54.1306 15.0644C52.23 18.1223 51.9428 19.58 52.0565 19.9254C52.0602 19.9474 52.0722 19.9672 52.0902 19.981C52.1083 19.9947 52.131 20.0014 52.1538 19.9997C52.7425 19.9997 54.0481 18.0709 55.0966 16.5211C55.8478 15.4113 56.5109 14.4351 56.9903 13.9682L56.6124 13.8428C56.5758 13.823 56.5469 13.792 56.5304 13.7546C56.5139 13.7172 56.5106 13.6756 56.5211 13.6362C56.5368 13.5446 56.6016 13.4852 56.6696 13.5101L57.335 13.7308H57.3377L57.4441 13.7591C58.688 14.1017 58.9467 14.1725 58.8866 14.8231C58.8656 15.0477 58.6337 15.3123 57.9752 16.0101C57.34 16.6835 56.3798 17.7009 56.4008 18.196C56.4014 18.2308 56.4103 18.2649 56.4266 18.2958C56.4429 18.3267 56.4663 18.3537 56.4949 18.3745C56.6862 18.5336 57.1138 18.4027 57.6685 18.0172C59.1124 17.0156 60.8005 14.852 60.8555 14.1429C60.925 13.2357 60.3342 12.8757 59.8127 12.5578C59.7255 12.5044 59.6424 12.4531 59.5648 12.4017H59.5609L59.0086 12.0382C58.9765 12.0104 58.9537 11.9737 58.9433 11.9331C58.933 11.8924 58.9355 11.8498 58.9505 11.8105C58.9796 11.7258 59.0537 11.689 59.115 11.7297L59.5511 12.0157C59.9871 10.5066 60.5976 9.18758 61.2006 8.46241L61.5785 7.92906C61.587 7.91385 61.5996 7.9012 61.615 7.89236C61.6303 7.88352 61.6478 7.87883 61.6656 7.87883C61.6835 7.87883 61.701 7.88352 61.7164 7.89236C61.7317 7.9012 61.7443 7.91385 61.7529 7.92906C61.7764 7.96525 61.789 8.00726 61.789 8.05008C61.789 8.09291 61.7764 8.13492 61.7529 8.1711L61.4622 8.5808C61.7873 8.94978 62.1861 9.25086 62.6343 9.46575C63.0826 9.68065 63.571 9.80485 64.07 9.83102C64.7968 9.83102 66.5971 7.79825 66.9431 6.58501C66.982 6.49838 67.0014 6.40465 66.9999 6.31013C66.9985 6.21561 66.9762 6.1225 66.9346 6.03704C66.6297 5.6363 65.969 6.29512 65.3849 6.87645Z" fill="#FCFDFF"/>
<path d="M61.3011 1.07385L61.0163 3.03625C60.9823 3.23759 61.016 3.44418 61.1122 3.62549C61.2767 3.91827 61.6616 4.21086 62.5596 3.89264C62.6325 3.86609 62.7019 3.83141 62.7666 3.78942L64.1652 2.89592C64.4224 2.73784 64.6227 2.50579 64.7381 2.23203C64.9169 1.78212 64.9032 1.08805 63.866 0.29985C63.7866 0.242555 63.6975 0.199272 63.6026 0.172069C63.2925 0.0251958 62.9447 -0.0294081 62.6028 0.0150326C62.2609 0.0594733 61.94 0.200923 61.6805 0.421836C61.4733 0.584352 61.3377 0.817533 61.3011 1.07385Z" fill="#FCFDFF"/>
<path d="M23.0085 7.07371C23.0326 7.14691 22.9379 7.23205 22.8553 7.28857C22.5373 7.51042 21.8721 7.56466 21.1024 7.63079C19.7477 7.74384 18.0602 7.88515 16.9532 9.00231C14.4618 11.5136 16.6642 12.937 18.2715 13.9761C18.7066 14.2266 19.1093 14.5269 19.4709 14.8706C19.6852 15.1169 19.8462 15.4027 19.9442 15.7108H19.9468C19.974 15.7863 19.9951 15.8636 20.0099 15.9423C20.0294 16.016 20.044 16.0908 20.0535 16.1664C20.054 16.1731 20.053 16.1799 20.0507 16.1862C20.0483 16.1926 20.0446 16.1984 20.0398 16.2033C20.035 16.2082 20.0293 16.2121 20.0229 16.2147C20.0165 16.2173 20.0096 16.2185 20.0026 16.2184C19.1721 16.2704 18.4462 16.4403 17.8369 16.091C17.832 16.0888 17.827 16.0887 17.8224 16.0862L17.2372 15.9304C17.2344 15.9305 17.2315 15.93 17.229 15.9287C17.2264 15.9275 17.2243 15.9256 17.2226 15.9234C15.9188 15.1207 14.2118 14.8636 12.8935 15.6614C12.3835 15.9715 11.812 16.1735 11.2163 16.2544C10.6206 16.3353 10.014 16.2932 9.43611 16.131C9.39716 16.1192 9.05238 16.0769 9.07912 16.0509C9.24163 15.8997 8.80966 15.8149 8.30935 15.7157C8.30935 15.7151 8.30915 15.7144 8.30872 15.714C8.30828 15.7136 8.3077 15.7135 8.30708 15.7135C7.7876 15.6072 7.19978 15.4873 7.15385 15.2578C7.14164 15.1917 7.17564 15.1137 7.27273 15.0264H7.27592C7.31057 14.9971 7.34806 14.9711 7.38785 14.9487C7.49032 14.8895 7.59654 14.8366 7.70588 14.7904C9.04834 14.1969 12.7876 13.1287 12.9818 12.6542C13.1219 12.2943 13.241 11.9271 13.3385 11.5542C13.6292 10.5394 13.9577 9.38974 15.2008 8.2025C16.8665 6.61169 20.1805 6.3449 22.0032 6.66594C22.6855 6.78577 22.9718 6.96039 23.0085 7.07371Z" fill="#FCFDFF"/>
<path d="M23.7248 14.8065C23.6931 14.8794 23.6614 14.9551 23.6347 15.0306C23.5931 15.1395 23.5575 15.2505 23.528 15.3631C23.5062 15.4389 23.4868 15.512 23.4699 15.5892C23.0484 15.4915 22.6103 15.483 22.1852 15.5641C21.76 15.6451 21.3576 15.8138 21.0053 16.0589C20.4943 16.431 19.8914 16.6657 19.2573 16.7389C18.2528 16.8768 17.2329 16.624 16.4189 16.0354L16.3509 15.979C15.8353 15.6446 15.2279 15.469 14.6081 15.4753C13.9883 15.4817 13.3849 15.6697 12.8767 16.0146C12.275 16.4325 11.5644 16.6773 10.8263 16.7211C10.0882 16.765 9.35229 16.606 8.70273 16.2624C8.55972 16.182 8.4227 16.092 8.29258 15.9931C7.77739 15.631 7.15858 15.4348 6.52288 15.4319C5.88717 15.4289 5.26642 15.6194 4.74772 15.9767C4.07673 16.4393 3.27355 16.686 2.45097 16.6822C1.62839 16.6784 0.827687 16.4243 0.161261 15.9555C0.11708 15.9223 0.0803053 15.8806 0.0531701 15.8331C0.0260349 15.7857 0.0091143 15.7334 0.0034184 15.6794C-0.00372445 15.6255 0.000362539 15.5708 0.0153418 15.5185C0.030321 15.4662 0.0559027 15.4173 0.0906436 15.3747C0.161237 15.2897 0.263288 15.235 0.374888 15.2222C0.486489 15.2095 0.598755 15.2396 0.687735 15.3063C1.20269 15.6681 1.82128 15.8641 2.45665 15.8667C3.09202 15.8692 3.71227 15.6782 4.23025 15.3205C4.72784 14.9771 5.30053 14.7504 5.90336 14.6583C6.50619 14.5661 7.12281 14.6111 7.70478 14.7895C7.59545 14.8357 7.48923 14.8886 7.38676 14.9478C7.34696 14.9701 7.30948 14.9961 7.27483 15.0255H7.27249C7.17539 15.1128 7.1414 15.1907 7.15361 15.2569C7.19954 15.4858 7.78728 15.6061 8.30677 15.7124C8.30739 15.7124 8.30804 15.7127 8.30847 15.7131C8.30891 15.7135 8.30911 15.7141 8.30911 15.7147C8.80941 15.8139 9.24138 15.8987 9.07888 16.0499C9.05214 16.0759 9.39692 16.1182 9.43587 16.1301C10.0138 16.2923 10.6204 16.3344 11.2161 16.2535C11.8118 16.1725 12.3832 15.9705 12.8932 15.6605C14.2116 14.8627 15.9186 15.1198 17.2224 15.9224C17.224 15.9247 17.2262 15.9266 17.2287 15.9278C17.2313 15.929 17.234 15.9296 17.2369 15.9295L17.8221 16.0853C17.8268 16.0878 17.8317 16.0878 17.8366 16.0901C18.4471 16.4394 19.1719 16.2695 20.0024 16.2175C20.0093 16.2176 20.0162 16.2163 20.0226 16.2137C20.029 16.2111 20.0348 16.2073 20.0396 16.2024C20.0444 16.1975 20.0481 16.1917 20.0504 16.1853C20.0528 16.1789 20.0537 16.1722 20.0532 16.1654C20.0436 16.0899 20.0291 16.015 20.0096 15.9413C19.9949 15.8627 19.9738 15.7853 19.9465 15.7099C20.1396 15.6303 20.3215 15.5272 20.4878 15.403C20.9507 15.0816 21.48 14.8617 22.0389 14.7587C22.5978 14.6557 23.173 14.672 23.7248 14.8065Z" fill="#FCFDFF"/>
<path d="M20.0535 16.1658C20.054 16.1725 20.053 16.1793 20.0507 16.1857C20.0483 16.192 20.0446 16.1979 20.0398 16.2028C20.035 16.2077 20.0293 16.2115 20.0229 16.2141C20.0165 16.2167 20.0096 16.218 20.0026 16.2178C19.1721 16.2698 18.4462 16.4398 17.8369 16.0905C17.832 16.0882 17.827 16.0882 17.8224 16.0856L17.2372 15.9298C17.2344 15.9299 17.2315 15.9294 17.229 15.9282C17.2264 15.9269 17.2243 15.9251 17.2226 15.9228C15.9188 15.1202 14.2118 14.8631 12.8935 15.6609C12.3835 15.9709 11.812 16.1729 11.2163 16.2538C10.6206 16.3348 10.014 16.2927 9.43611 16.1305C9.39716 16.1186 9.05238 16.0763 9.07912 16.0503C9.24163 15.8991 8.80966 15.8143 8.30935 15.7151C8.30935 15.7145 8.30915 15.7139 8.30872 15.7135C8.30828 15.713 8.3077 15.7128 8.30708 15.7128C7.96024 15.4832 7.56713 15.3279 7.15385 15.2573C7.14164 15.1911 7.17564 15.1132 7.27273 15.0258H7.27592C7.31057 14.9965 7.34806 14.9705 7.38785 14.9482C7.8518 15.0505 8.28748 15.2493 8.66493 15.5309C8.77189 15.6112 8.88465 15.6837 9.0024 15.7481C9.54705 16.0385 10.165 16.1738 10.7851 16.1383C11.4052 16.1029 12.0025 15.898 12.5083 15.5475C13.1354 15.1154 13.8859 14.8852 14.6544 14.889C15.423 14.8928 16.171 15.1305 16.7935 15.5687L16.8642 15.6253C17.5399 16.0797 18.3671 16.2693 19.1805 16.1563C19.4659 16.1212 19.7451 16.0489 20.0107 15.9414C20.0299 16.0153 20.0443 16.0902 20.0535 16.1658Z" fill="#FCFDFF"/>
<path d="M20.0087 15.9417C19.994 15.8631 19.9729 15.7857 19.9456 15.7103H19.943C19.6891 15.8164 19.421 15.8872 19.1468 15.9206C18.3986 16.0251 17.6372 15.8537 17.0124 15.4401L16.9421 15.3837C16.2761 14.915 15.4759 14.6608 14.6537 14.657C13.8316 14.6532 13.0288 14.8999 12.3583 15.3624C11.8902 15.6849 11.3383 15.8729 10.7656 15.905C10.1928 15.9371 9.6224 15.8121 9.11929 15.5441C9.0128 15.4851 8.91061 15.419 8.81347 15.3463C8.48178 15.0967 8.10559 14.9086 7.70381 14.7915C7.59448 14.8377 7.48826 14.8906 7.38579 14.9498C7.346 14.9722 7.30851 14.9982 7.27386 15.0275H7.27159C7.1745 15.1148 7.14043 15.1928 7.15264 15.2589C7.19857 15.4878 7.78639 15.6083 8.30587 15.7146C8.30649 15.7146 8.30707 15.7148 8.30751 15.7153C8.30794 15.7157 8.30822 15.7162 8.30822 15.7168C8.80852 15.816 9.24049 15.9008 9.07798 16.052C9.05124 16.078 9.39602 16.1204 9.43497 16.1323C10.0129 16.2945 10.6194 16.3364 11.2151 16.2555C11.8108 16.1746 12.3823 15.9726 12.8923 15.6625C14.2107 14.8647 15.9176 15.1218 17.2214 15.9245C17.223 15.9267 17.2253 15.9286 17.2278 15.9298C17.2304 15.9311 17.2331 15.9317 17.236 15.9316L17.8212 16.0873C17.8258 16.0898 17.8308 16.0899 17.8357 16.0921C18.4462 16.4414 19.1709 16.2716 20.0014 16.2196C20.0084 16.2198 20.0153 16.2184 20.0217 16.2158C20.0281 16.2132 20.0339 16.2093 20.0387 16.2044C20.0435 16.1996 20.0471 16.1938 20.0495 16.1875C20.0518 16.1811 20.0528 16.1743 20.0523 16.1676C20.0428 16.0915 20.0283 16.016 20.0087 15.9417Z" fill="#FCFDFF"/>
<path d="M23.6057 17.9599C23.1665 17.8374 22.7046 17.8129 22.2544 17.8881C21.8041 17.9633 21.3772 18.1363 21.0053 18.3943C20.4939 18.766 19.8912 19.0011 19.2573 19.0762C18.2529 19.213 17.2334 18.9603 16.4189 18.3727L16.3509 18.3163C15.8357 17.981 15.2284 17.8046 14.6085 17.8105C13.9886 17.8164 13.385 18.0042 12.8767 18.3493C12.275 18.7672 11.5644 19.0121 10.8263 19.0559C10.0882 19.0998 9.35228 18.9407 8.70273 18.5971C8.56032 18.5167 8.42334 18.4277 8.29258 18.3304C7.77792 17.9673 7.15916 17.7702 6.5233 17.7668C5.88744 17.7634 5.26644 17.9539 4.74772 18.3115C4.07672 18.774 3.27354 19.0207 2.45097 19.0169C1.62841 19.0131 0.827704 18.759 0.161261 18.2902C0.117067 18.257 0.0803065 18.2154 0.0531701 18.1679C0.0260337 18.1205 0.00909775 18.0681 0.0034184 18.0141C-0.00372445 17.9602 0.000362539 17.9055 0.0153418 17.8532C0.030321 17.8009 0.0559027 17.7521 0.0906436 17.7095C0.161193 17.6245 0.263266 17.5696 0.374888 17.5568C0.486511 17.544 0.598782 17.5743 0.687735 17.6411C1.20265 18.0027 1.82107 18.1988 2.4563 18.2018C3.09152 18.2047 3.71176 18.0146 4.23025 17.6578C4.90059 17.1947 5.70351 16.9476 6.52586 16.9514C7.34821 16.9552 8.14859 17.2096 8.81437 17.6789C8.91148 17.7516 9.01366 17.8178 9.12019 17.8768C9.62314 18.1453 10.1937 18.2706 10.7665 18.2385C11.3394 18.2063 11.8914 18.018 12.3592 17.695C13.0298 17.2325 13.8325 16.9858 14.6546 16.9896C15.4768 16.9934 16.277 17.2476 16.943 17.7163L17.0134 17.7727C17.6377 18.1875 18.3994 18.359 19.1477 18.2532C19.6329 18.1982 20.0949 18.0209 20.4878 17.7387C20.9043 17.4463 21.3763 17.2372 21.8765 17.1238C22.3767 17.0103 22.8951 16.9946 23.4016 17.0775C23.4111 17.1603 23.4234 17.2429 23.4402 17.3232C23.4612 17.4481 23.4897 17.5719 23.5254 17.6937C23.5475 17.7852 23.5766 17.8725 23.6057 17.9599Z" fill="#FCFDFF"/>
<path d="M20.4448 9.60979L19.1465 11.3664C19.0089 11.544 18.933 11.7597 18.93 11.982C18.9344 12.3446 19.1495 12.814 20.1745 12.9429C20.2582 12.9524 20.3428 12.9524 20.4265 12.9429L22.2309 12.7589C22.5607 12.7308 22.8733 12.604 23.126 12.396C23.5329 12.0481 23.8818 11.3715 23.3033 10.1068C23.2575 10.0131 23.1948 9.92822 23.1181 9.85597C22.898 9.56346 22.5931 9.34131 22.2425 9.21803C21.8919 9.09475 21.5115 9.07588 21.1498 9.1638C20.8653 9.22045 20.6134 9.37984 20.4448 9.60979Z" fill="#FCFDFF"/>
</svg>
