<svg width="49" height="43" viewBox="0 0 49 43" fill="none"  >
<path d="M11.366 13.6273C11.4454 13.604 11.529 13.5983 11.6109 13.6106C11.6928 13.6229 11.7709 13.6528 11.8393 13.6982C11.9142 13.785 11.9663 13.888 11.9912 13.9986C12.016 14.1091 12.0129 14.2239 11.982 14.333C11.2458 20.6055 9.62358 26.7435 8.00466 32.8573C7.77009 34.1049 7.12176 35.2441 6.1583 36.1016L3.18878 39.275C2.42922 40.0858 1.62342 41.2306 2.19238 42.177C2.6194 42.887 3.66488 43.0398 4.45225 42.7323C5.21377 42.3647 5.8748 41.8275 6.38124 41.1647L9.21905 37.9985C10.0236 37.1005 11.0813 36.2195 11.5018 35.1048C12.5117 32.4277 13.3608 29.5035 14.4059 26.8355C14.554 26.4579 15.1012 25.6903 15.4739 25.8704C15.8952 26.0739 15.6027 27.2341 15.433 27.6598C15.0828 28.536 15.5426 29.5241 16.152 30.2567C16.7615 30.9894 17.5366 31.6054 17.9767 32.4412C18.5084 33.4499 18.4781 34.6375 18.438 35.7692L18.3154 39.1699C18.2818 40.1108 18.2605 41.1044 18.7272 41.9303C19.1939 42.7562 20.3351 43.3016 21.1687 42.8188C21.9422 42.371 22.0616 41.3511 22.0963 40.4785L22.3495 34.0659C22.4717 33.1722 22.3977 32.2634 22.1325 31.3993C21.8672 30.5352 21.4167 29.7352 20.8104 29.0517L18.2012 25.2972C17.9356 24.9675 17.7453 24.5867 17.6429 24.1802C17.6031 23.8158 17.6347 23.4475 17.7362 23.0945C18.2892 20.591 18.9436 18.1115 19.6995 15.6558C19.7614 15.5018 19.7836 15.3353 19.7641 15.1711C19.6598 14.6697 18.4298 14.586 17.9038 14.542C17.3778 14.498 16.6359 13.9946 17.004 13.6296C17.1889 13.4476 18.1329 13.4948 18.3923 13.5396C20.6333 13.9264 22.9324 13.5503 25.1739 13.1747C26.5801 13.0455 27.9142 12.5113 29.0048 11.6408L32.4815 9.25201C33.2995 8.68993 34.2203 7.87399 33.9675 6.93388C33.7262 6.03504 32.4917 5.7217 31.5903 6.03586C30.6888 6.35002 30.0196 7.07275 29.2895 7.6741C26.115 10.2877 21.5945 10.6887 17.4437 10.3678C15.4493 10.2143 13.4455 9.92356 11.4572 10.1366C9.67785 10.3956 7.93579 10.8552 6.2663 11.5059C5.22841 11.7535 4.32085 12.3631 3.71683 13.2183L0.781259 16.7328C0.355464 17.2429 -0.0964949 17.8434 0.0180321 18.4888C0.173053 19.3615 1.34654 19.7609 2.20181 19.4504C3.05708 19.1398 3.6297 18.3651 4.0923 17.6011C4.55491 16.8371 4.98401 16.0144 5.71452 15.4845C6.29706 15.1125 6.94311 14.8438 7.62259 14.6911L11.1717 13.6756C11.2355 13.6566 11.3006 13.6396 11.366 13.6273Z" fill="white"/>
<path d="M42.9143 5.28712C46.4426 4.73783 49.1638 3.45262 48.9923 2.41652C48.8208 1.38042 45.8215 0.985794 42.2932 1.53509C38.7649 2.08438 36.0437 3.3696 36.2152 4.40569C36.3867 5.44179 39.386 5.83642 42.9143 5.28712Z" fill="white"/>
<path d="M13.6745 3.73318L15.2104 7.20242C15.3603 7.56276 15.6258 7.86679 15.9675 8.06955C16.5349 8.38688 17.4613 8.49476 18.6024 7.11357C18.6943 7.00027 18.7725 6.87719 18.8356 6.74668L20.2071 3.94739C20.4662 3.44289 20.5566 2.8726 20.466 2.31589C20.2987 1.41148 19.569 0.292864 17.0743 0.0068669C16.8864 -0.0103379 16.6968 0.00485181 16.5144 0.051705C15.9863 0.173482 14.3952 0.284155 13.6316 2.30557C13.4581 2.76941 13.4734 3.27994 13.6745 3.73318Z" fill="white"/>
</svg>
