<svg width="28" height="52" viewBox="0 0 28 52" fill="none"  >
<path d="M3.05842 0C2.45353 0 1.8622 0.183984 1.35925 0.528646C0.856301 0.873307 0.464297 1.36316 0.232815 1.93631C0.00133403 2.50946 -0.0592441 3.14013 0.0587642 3.74858C0.176772 4.35704 0.468066 4.91595 0.895788 5.35462C1.32351 5.79329 1.86848 6.09204 2.46174 6.21307C3.05501 6.3341 3.66994 6.27197 4.22879 6.03457C4.78763 5.79716 5.26531 5.39512 5.60137 4.8793C5.93743 4.36348 6.11676 3.75701 6.11676 3.13663C6.11579 2.30505 5.79327 1.50782 5.21992 0.9198C4.64658 0.331778 3.86925 0.00100191 3.05842 0Z" fill="white"/>
<path d="M12.6359 21.6178C10.9747 20.2852 9.45194 18.7806 8.09169 17.1277C6.62018 15.2915 5.76562 12.6654 5.14222 10.7493C4.84644 9.8416 4.48328 8.7257 4.26549 8.53262C3.83266 9.18664 3.72514 14.8864 5.70285 18.6913C6.77091 20.5973 8.06545 22.36 9.55676 23.9391C9.92307 24.3085 10.2525 24.7145 10.5401 25.1511C11.671 27.4226 11.2299 29.0317 10.1645 32.9123C9.9799 33.5905 9.77267 34.3401 9.55118 35.1801C7.96616 41.1903 9.6435 47.0585 11.0278 48.6534C12.1177 49.9131 18.2547 52.1194 20.2412 51.995C20.5887 51.9722 20.6565 51.8842 20.6588 51.8832C20.7839 51.3191 17.7952 49.5024 16.3587 48.6302C14.7612 47.6591 13.765 47.0419 13.4226 46.6037C12.5459 45.4793 12.7249 40.6735 13.0793 39.8046C13.1859 39.5424 13.335 39.4875 13.4411 39.4875C13.711 39.4875 13.873 39.7715 14.4512 40.8571C15.3652 42.5759 16.8968 45.4509 18.6964 45.6038C21.016 45.8115 26.4798 44.1841 27.6837 42.9366C27.8535 42.7605 27.8618 42.6673 27.8618 42.6526C27.369 42.1249 24.5081 42.3431 22.6139 42.4879C21.6543 42.61 20.6855 42.6379 19.7207 42.5712C18.3337 42.2584 16.4312 37.3248 16.4312 35.7361C16.4312 33.9056 17.5668 30.3686 19.2778 29.2054C19.891 28.9209 20.5362 28.7154 21.1987 28.5935C23.3513 28.0502 26.9537 27.1396 27.751 25.1719C28.631 22.9978 27.0035 17.2285 25.5948 15.2404C25.2967 14.8192 25.0978 14.7099 25.0152 14.7099C24.8145 15.0374 25.0351 17.0084 25.1813 18.3198C25.4194 20.4494 25.6428 22.4659 25.2418 23.2486C24.665 24.3697 22.9868 24.914 20.112 24.914C18.6207 24.914 14.0672 22.8166 12.9709 21.8919L12.6359 21.6178Z" fill="white"/>
<path d="M16.3209 16.0681L15.5143 19.5497C15.4238 19.9062 15.4472 20.2832 15.5812 20.625C15.8142 21.1782 16.422 21.7669 18.0042 21.341C18.1325 21.3052 18.2564 21.2544 18.3733 21.1896L20.9025 19.8115C21.3669 19.5694 21.7462 19.185 21.9877 18.7116C22.3657 17.9317 22.4561 16.6819 20.8194 15.0955C20.6937 14.9796 20.5491 14.8874 20.3921 14.823C19.8877 14.5082 19.3039 14.3531 18.7138 14.3772C18.1238 14.4013 17.5538 14.6034 17.0753 14.9583C16.6954 15.2164 16.4256 15.6132 16.3209 16.0681Z" fill="white"/>
</svg>
