<svg width="28" height="50" viewBox="0 0 28 50" fill="none"  >
<path d="M11.8923 3.74785L13.1778 7.61872C13.3015 8.01993 13.5499 8.37049 13.8862 8.61874C14.4464 9.01081 15.3965 9.20547 16.7026 7.81616C16.808 7.70199 16.9001 7.576 16.9771 7.44068L18.6466 4.54306C18.9595 4.02169 19.1035 3.415 19.0585 2.80735C18.9669 1.81795 18.3074 0.551778 15.7465 0.0259432C15.5531 -0.00864774 15.3552 -0.00864774 15.1617 0.0259432C14.4765 0.0328866 13.8085 0.243417 13.2415 0.631176C12.6744 1.01893 12.2335 1.56669 11.9738 2.20586C11.7528 2.69065 11.7237 3.24215 11.8923 3.74785Z" fill="#FCFDFF"/>
<path d="M6.84592 36.5765C6.33978 37.4589 5.80074 38.3266 5.26531 39.1845L1.59595 45.0618C0.817963 46.3072 0.019816 47.6232 0.000137623 49.0674C-0.00535402 49.4604 0.152995 49.9577 0.567156 49.99C0.744636 49.9897 0.917492 49.9325 1.06055 49.8267C1.6002 49.4439 2.07149 48.9716 2.45446 48.4299C5.95035 44.0235 9.50799 39.6513 12.9384 35.2015C13.2602 34.8306 13.4775 34.3795 13.5677 33.8952C13.6871 32.9215 12.8684 32.7522 12.3806 32.0963C12.106 31.7273 12.3152 31.0161 12.7797 31.1222C12.9085 31.163 13.0248 31.2366 13.1174 31.3357C18.3651 36.1171 21.9383 42.2675 25.4521 48.3045C25.6899 48.7754 26.0113 49.1984 26.4003 49.5527C27.7599 50.6546 28.284 49.5204 27.8524 48.3123C25.2498 41.0244 22.547 33.565 17.3977 27.6133C17.0455 27.2632 16.7655 26.8462 16.5739 26.3864C16.4806 26.0403 16.4426 25.6814 16.4613 25.3232V21.9606C16.4281 21.5802 16.4972 21.1978 16.6613 20.8536C16.7574 20.6803 16.9109 20.5465 17.0949 20.4758C17.279 20.405 17.4819 20.4018 17.6681 20.4666C18.1839 20.7116 18.1084 21.2669 18.1899 21.7379C18.2051 22.0598 18.3177 22.3694 18.5125 22.625C18.7074 22.8806 18.9752 23.07 19.2799 23.1678C21.2547 24.0411 23.3988 24.4568 25.5542 24.3841C25.6602 24.3868 25.7659 24.372 25.8671 24.3403C25.9419 24.301 26.0073 24.2458 26.0589 24.1786C26.1104 24.1113 26.1469 24.0337 26.1659 23.9509C26.1848 23.8681 26.1858 23.7821 26.1687 23.6989C26.1516 23.6158 26.1167 23.5373 26.0667 23.4689C25.8407 23.196 25.5425 22.9934 25.2068 22.8845C23.5346 22.1594 20.2492 21.4639 19.6104 19.6387C18.9404 17.724 18.5711 15.7328 18.0462 13.7807C17.9307 13.1185 17.6307 12.503 17.1812 12.0062C16.6904 11.6139 16.0967 11.3747 15.4729 11.318C12.3948 10.8494 9.33599 12.0865 6.54303 13.3965C5.8117 13.692 5.13606 14.1116 4.54545 14.6372C3.96212 15.3016 3.51927 16.0788 3.24393 16.9214L1.18859 22.0414C1.00553 22.4989 0.879703 23.1327 1.3259 23.379C1.83342 23.6558 2.37844 23.0889 2.66172 22.6018L5.22866 18.1497C5.53957 17.5153 5.97865 16.9535 6.51778 16.5003C7.14067 16.1018 7.84448 15.8495 8.57714 15.7622C9.90654 15.526 11.2545 15.4121 12.6044 15.4219C12.9133 15.4242 13.3009 15.4883 13.3823 15.771C13.4771 16.11 13.0098 16.3531 12.6396 16.336C12.2778 16.2507 11.901 16.255 11.5413 16.3485C11.1143 16.5565 11.0676 17.1064 11.0782 17.5607C11.1294 19.867 11.463 21.9058 10.5455 24.0751C9.64391 26.2056 9.72173 28.2813 9.30986 30.4782C8.83361 32.6359 8.00067 34.6974 6.84592 36.5765Z" fill="#FCFDFF"/>
</svg>
