<svg width="47" height="36" viewBox="0 0 47 36" fill="none"  >
<path d="M22.8815 15.7909L22.1985 18.6548C22.1219 18.948 22.1419 19.258 22.2555 19.539C22.4525 19.9942 22.9671 20.4784 24.3069 20.1282C24.4157 20.0987 24.5208 20.0568 24.62 20.0035L26.7611 18.8697C27.1545 18.6708 27.4758 18.3546 27.6802 17.9651C28 17.3236 28.0767 16.2955 26.6911 14.991C26.5845 14.8962 26.462 14.821 26.3292 14.7684C25.9021 14.5097 25.4078 14.3822 24.9084 14.402C24.4089 14.4218 23.9264 14.588 23.5212 14.8798C23.1996 15.0916 22.9709 15.4173 22.8815 15.7909Z" fill="white"/>
<path d="M46.312 29.3212C45.441 29.4382 44.6145 29.775 43.9109 30.2997C43.053 30.9061 42.0259 31.2294 40.974 31.2244C39.9222 31.2194 38.8983 30.8863 38.0461 30.2718C37.0955 29.5856 35.9528 29.2136 34.779 29.208C33.6051 29.2024 32.459 29.5635 31.5017 30.2406C30.8513 30.7237 30.0848 31.0277 29.2791 31.1222C28.037 31.3003 26.7733 31.0039 25.7416 30.2923L25.6362 30.2028C24.6854 29.5172 23.5429 29.1454 22.3692 29.1396C21.1955 29.1338 20.0495 29.4943 19.0919 30.1705C18.3196 30.7187 17.408 31.0391 16.4614 31.0947C15.5149 31.1504 14.5717 30.9391 13.7402 30.4852C13.5606 30.3844 13.3891 30.2702 13.2271 30.1434C12.2765 29.4572 11.134 29.0851 9.96024 29.0793C8.78645 29.0735 7.64033 29.4344 6.68302 30.1112C5.82493 30.7171 4.79808 31.0403 3.74635 31.0356C2.69461 31.0308 1.67071 30.6982 0.818221 30.0845C0.760355 30.0398 0.687172 30.0196 0.614491 30.0283C0.54181 30.037 0.475485 30.0738 0.429852 30.1308C0.40736 30.1592 0.390706 30.1918 0.380852 30.2266C0.370997 30.2614 0.368153 30.2977 0.372442 30.3336C0.376732 30.3696 0.388074 30.4043 0.405852 30.4358C0.423629 30.4674 0.447484 30.4951 0.476035 30.5174C1.42673 31.2036 2.56934 31.5755 3.74321 31.5811C4.91708 31.5867 6.06316 31.2256 7.02039 30.5486C7.87853 29.9423 8.90571 29.6191 9.95765 29.6243C11.0096 29.6295 12.0335 29.9628 12.8856 30.5775C13.0699 30.7212 13.2648 30.8508 13.4687 30.9653C14.3955 31.4698 15.4462 31.7039 16.5004 31.6406C17.5546 31.5774 18.5695 31.2193 19.4288 30.6076C20.2691 30.0151 21.2711 29.6927 22.3004 29.6835C23.3298 29.6742 24.3374 29.9787 25.1883 30.556L25.294 30.6454C26.4584 31.5045 27.9154 31.8723 29.3499 31.6694C30.2522 31.5621 31.1103 31.22 31.838 30.6777C32.6959 30.0711 33.7229 29.7476 34.7747 29.7524C35.8266 29.7572 36.8506 30.0901 37.7028 30.7044C38.6535 31.3905 39.7959 31.7626 40.9697 31.7684C42.1435 31.7743 43.2897 31.4136 44.2472 30.7371C44.8758 30.2697 45.6138 29.9698 46.3913 29.8659C46.4278 29.8614 46.463 29.8497 46.4949 29.8314C46.5268 29.8131 46.5547 29.7886 46.5769 29.7595C46.5992 29.7303 46.6154 29.697 46.6246 29.6615C46.6338 29.6261 46.6358 29.5891 46.6305 29.5528C46.6251 29.5166 46.6126 29.4818 46.5936 29.4504C46.5745 29.419 46.5494 29.3917 46.5197 29.3701C46.49 29.3486 46.4562 29.3332 46.4204 29.3248C46.3846 29.3164 46.3475 29.3151 46.3112 29.3212H46.312Z" fill="white"/>
<path d="M40.9979 32.138C39.7281 32.1589 38.4877 31.7565 37.4735 30.9949C36.6877 30.4281 35.7433 30.1209 34.7732 30.1166C33.8031 30.1123 32.8561 30.411 32.0652 30.9708C31.2856 31.5527 30.3661 31.9201 29.399 32.036C27.8654 32.2513 26.3084 31.8561 25.0651 30.9359L24.9593 30.8469C24.1727 30.3225 23.2456 30.0471 22.2993 30.0567C21.353 30.0663 20.4317 30.3605 19.656 30.9007C18.738 31.555 17.6535 31.9383 16.5269 32.0066C15.4003 32.0749 14.2771 31.8255 13.2863 31.2869C13.0666 31.1635 12.8565 31.0239 12.6577 30.8692C11.872 30.3017 10.9275 29.9939 9.9571 29.989C8.98668 29.9841 8.03913 30.2823 7.24761 30.8417C6.22359 31.5659 4.99754 31.952 3.74184 31.9459C2.48613 31.9398 1.26391 31.5417 0.247064 30.8076C0.112013 30.7015 0.0247674 30.5464 0.00451598 30.3763C-0.0157355 30.2062 0.0326517 30.035 0.139063 29.9004C0.246243 29.7667 0.402005 29.6804 0.572569 29.6604C0.743132 29.6403 0.914762 29.688 1.05026 29.7932C1.83649 30.3588 2.78069 30.6653 3.75047 30.6695C4.72026 30.6737 5.66705 30.3755 6.45819 29.8166C7.48223 29.0924 8.70834 28.7063 9.9641 28.7126C11.2199 28.7189 12.442 29.1174 13.4587 29.8519C13.6058 29.9665 13.7614 30.0699 13.9241 30.1613C14.6917 30.5813 15.5625 30.7774 16.4367 30.727C17.3109 30.6766 18.1532 30.3818 18.867 29.8763C19.8914 29.153 21.1173 28.7674 22.3728 28.7736C23.6283 28.7798 24.8503 29.1774 25.8675 29.9108L25.9733 30.0002C26.9264 30.6485 28.0887 30.9176 29.2311 30.7545C29.9721 30.6684 30.6772 30.3896 31.2758 29.9461C32.2998 29.222 33.5258 28.8359 34.7815 28.842C36.0372 28.848 37.2594 29.2459 38.2763 29.9798C39.0621 30.5467 40.0064 30.8539 40.9765 30.8584C41.9466 30.8629 42.8938 30.5645 43.6849 30.005C44.4377 29.4427 45.3221 29.081 46.2543 28.9543C46.3374 28.941 46.4223 28.9444 46.5041 28.9641C46.586 28.9838 46.663 29.0194 46.7309 29.069C46.8357 29.1442 46.9156 29.249 46.9602 29.3698C47.0048 29.4906 47.0121 29.6219 46.9812 29.7469C46.9504 29.8719 46.8827 29.9848 46.787 30.0712C46.6912 30.1576 46.5717 30.2135 46.4438 30.2318C45.7296 30.3266 45.0515 30.6014 44.4736 31.0302C43.4676 31.7678 42.2468 32.1569 40.9979 32.138Z" fill="white"/>
<path d="M46.312 33.1817C45.441 33.2987 44.6146 33.6354 43.9109 34.1601C43.053 34.7665 42.0259 35.09 40.974 35.085C39.9221 35.08 38.8983 34.7468 38.0461 34.1322C37.0955 33.4461 35.9528 33.0741 34.779 33.0685C33.6051 33.0629 32.459 33.424 31.5017 34.1011C30.8512 34.584 30.0847 34.888 29.2791 34.9826C28.037 35.1607 26.7733 34.8642 25.7416 34.1526L25.6362 34.0632C24.6854 33.3776 23.5429 33.0059 22.3692 33.0001C21.1955 32.9943 20.0495 33.3548 19.0919 34.031C18.3196 34.5792 17.4079 34.8995 16.4614 34.9551C15.5148 35.0107 14.5717 34.7993 13.7402 34.3452C13.5605 34.2448 13.389 34.1307 13.2271 34.0039C12.2765 33.3177 11.134 32.9455 9.96024 32.9397C8.78645 32.934 7.64033 33.2949 6.68302 33.9716C5.82493 34.5776 4.79808 34.9008 3.74635 34.896C2.69461 34.8912 1.67071 34.5587 0.818221 33.9449C0.760355 33.9003 0.687172 33.8801 0.614491 33.8888C0.54181 33.8974 0.475485 33.9343 0.429852 33.9913C0.40736 34.0197 0.390706 34.0521 0.380852 34.087C0.370997 34.1218 0.368153 34.1582 0.372442 34.1941C0.376732 34.23 0.388074 34.2648 0.405852 34.2963C0.423629 34.3278 0.447484 34.3556 0.476035 34.3779C1.42675 35.064 2.56936 35.4359 3.74321 35.4415C4.91707 35.4471 6.06314 35.086 7.02039 34.4091C7.87853 33.8028 8.90571 33.4796 9.95765 33.4848C11.0096 33.49 12.0335 33.8233 12.8856 34.438C13.0699 34.5816 13.2648 34.7113 13.4687 34.8257C14.3955 35.3302 15.4462 35.5642 16.5004 35.5009C17.5546 35.4377 18.5695 35.0797 19.4288 34.468C20.2691 33.8755 21.2711 33.553 22.3004 33.5438C23.3298 33.5346 24.3374 33.8391 25.1883 34.4165L25.294 34.5059C26.4585 35.3649 27.9154 35.7327 29.3499 35.5299C30.2522 35.4225 31.1103 35.0805 31.838 34.5381C32.6959 33.9315 33.7228 33.608 34.7747 33.6128C35.8266 33.6176 36.8506 33.9505 37.7028 34.5649C38.6535 35.2509 39.7959 35.623 40.9697 35.6288C42.1435 35.6347 43.2897 35.2741 44.2472 34.5976C44.8758 34.1301 45.6138 33.8302 46.3913 33.7264C46.4278 33.7218 46.463 33.7101 46.4949 33.6918C46.5268 33.6736 46.5547 33.6491 46.5769 33.6199C46.5992 33.5908 46.6154 33.5575 46.6246 33.522C46.6338 33.4865 46.6358 33.4496 46.6305 33.4133C46.6251 33.377 46.6126 33.3422 46.5936 33.3109C46.5745 33.2795 46.5494 33.2522 46.5197 33.2306C46.49 33.209 46.4562 33.1936 46.4204 33.1852C46.3846 33.1768 46.3475 33.1756 46.3112 33.1817H46.312Z" fill="white"/>
<path d="M40.9979 35.9992C39.7281 36.0202 38.4876 35.6179 37.4735 34.8561C36.6877 34.2893 35.7433 33.9822 34.7732 33.9779C33.8031 33.9736 32.8561 34.2722 32.0652 34.832C31.2856 35.4139 30.3661 35.7813 29.399 35.8972C27.8653 36.1125 26.3083 35.7172 25.0651 34.7968L24.9593 34.7081C24.1727 34.1837 23.2456 33.9083 22.2993 33.9179C21.353 33.9275 20.4317 34.2217 19.656 34.7619C18.738 35.4162 17.6535 35.7995 16.5269 35.8678C15.4003 35.9361 14.2771 35.6867 13.2863 35.1481C13.0666 35.0247 12.8565 34.885 12.6577 34.7304C11.872 34.1629 10.9275 33.8551 9.9571 33.8502C8.98668 33.8453 8.03913 34.1435 7.24761 34.7029C6.22359 35.4271 4.99754 35.8132 3.74184 35.8071C2.48613 35.801 1.26391 35.4029 0.247064 34.6688C0.112013 34.5627 0.0247674 34.4076 0.00451598 34.2375C-0.0157355 34.0674 0.0326517 33.8962 0.139063 33.7616C0.246243 33.6279 0.402005 33.5416 0.572569 33.5216C0.743132 33.5015 0.914762 33.5493 1.05026 33.6544C1.83652 34.2201 2.7807 34.5264 3.75047 34.5306C4.72024 34.5348 5.66703 34.2366 6.45819 33.6778C7.48223 32.9536 8.70834 32.5675 9.9641 32.5738C11.2199 32.5801 12.442 32.9786 13.4587 33.713C13.6058 33.8277 13.7614 33.9311 13.9241 34.0225C14.6917 34.4425 15.5625 34.6385 16.4367 34.5881C17.3109 34.5377 18.1532 34.243 18.867 33.7375C19.8914 33.0142 21.1173 32.6286 22.3728 32.6348C23.6283 32.641 24.8503 33.0386 25.8675 33.772L25.9733 33.8614C26.9264 34.5097 28.0887 34.7787 29.2311 34.6157C29.9721 34.5296 30.6772 34.2508 31.2758 33.8072C32.2998 33.0832 33.5258 32.6971 34.7815 32.7032C36.0372 32.7092 37.2594 33.1071 38.2763 33.841C39.0621 34.4078 40.0064 34.7151 40.9765 34.7196C41.9466 34.7241 42.8938 34.4257 43.6849 33.8662C44.4377 33.3039 45.3221 32.9422 46.2543 32.8155C46.3374 32.8022 46.4223 32.8056 46.5041 32.8253C46.586 32.8449 46.663 32.8806 46.7309 32.9302C46.8357 33.0054 46.9156 33.1102 46.9602 33.231C47.0048 33.3518 47.0121 33.4831 46.9812 33.6081C46.9504 33.733 46.8827 33.846 46.787 33.9324C46.6912 34.0188 46.5717 34.0747 46.4438 34.0929C45.7296 34.1878 45.0515 34.4626 44.4736 34.8914C43.4676 35.629 42.2468 36.018 40.9979 35.9992Z" fill="white"/>
<path d="M13.4926 3.0446C13.4926 2.44243 13.3133 1.85377 12.9776 1.35309C12.6418 0.852409 12.1646 0.46218 11.6062 0.231743C11.0479 0.00130551 10.4335 -0.058969 9.84074 0.0585069C9.248 0.175983 8.70356 0.465922 8.27622 0.891715C7.84888 1.31751 7.55784 1.86002 7.43994 2.45061C7.32203 3.0412 7.38257 3.65337 7.61385 4.20969C7.84512 4.76602 8.23677 5.24152 8.73927 5.57606C9.24177 5.9106 9.83253 6.08915 10.4369 6.08915C11.247 6.08817 12.0236 5.7671 12.5965 5.19634C13.1693 4.62559 13.4916 3.85177 13.4926 3.0446Z" fill="white"/>
<path d="M15.0911 16.7675C13.7476 15.1461 13.0994 13.1048 12.5792 11.4649C12.155 10.1292 11.7893 8.97909 11.2166 8.62254C11.1221 8.56429 11.1049 8.58545 11.0815 8.61067C10.4581 9.28704 10.9925 14.9443 12.7642 18.2367C13.891 20.3341 15.5332 22.1135 16.5143 23.1764C16.8708 23.524 17.1916 23.9061 17.4721 24.317C17.826 24.9196 18.0621 25.5836 18.168 26.2738C18.1871 26.4666 18.1889 26.6608 18.1732 26.854C18.0524 27.7342 17.8438 28.6003 17.5506 29.4393C17.4218 29.8693 17.2732 30.3668 17.1101 30.9333C18.0008 30.9065 18.86 30.5992 19.5644 30.0555L19.6422 29.9813C20.3628 29.41 21.2311 29.0537 22.1465 28.9537C23.0619 28.8537 23.9871 29.0141 24.8148 29.4163C25.1116 28.9207 25.5019 28.4872 25.9643 28.1396C26.3236 27.8773 27.0598 27.7389 28.0782 27.546C29.9646 27.1909 32.7008 26.6633 33.8667 24.9685C33.9843 24.8003 34.0849 24.6208 34.1668 24.4327C34.1806 24.4004 34.2041 24.3756 34.2175 24.3426C34.7064 23.1731 34.4409 20.9292 33.51 18.3321C32.7459 16.2028 31.816 14.6713 31.393 14.4735C31.1618 14.7065 31.4359 16.6878 31.6165 17.9982C31.9364 20.3111 32.1203 21.8761 31.7762 22.5246C30.8218 24.3137 27.1786 24.12 26.7675 24.0903C25.2378 23.9872 21.1671 22.1754 19.8482 21.2594C18.0613 19.9889 16.4603 18.4772 15.0911 16.7675Z" fill="white"/>
</svg>
