<svg width="42" height="52" viewBox="0 0 42 52" fill="none"  >
<path fill-rule="evenodd" clip-rule="evenodd" d="M16.3677 12.7813C16.3614 12.7649 16.3564 12.7486 16.3514 12.7317C15.8704 10.9526 15.802 4.93145 14.0996 5.02154C14.0969 5.02154 14.0951 5.02465 14.0924 5.02154C13.1606 4.72244 13.42 8.13815 13.3186 9.72864C13.1961 11.6577 12.9075 13.5669 13.6556 15.4223C14.5212 17.5698 15.9294 19.9527 16.3856 22.2222C16.8702 24.6337 17.355 27.0448 17.8399 29.4557C18.1651 31.0716 18.49 32.6875 18.8146 34.3032C18.9524 34.9888 18.8979 35.7183 19.4536 36.2397C19.7553 36.4981 20.0966 36.7077 20.4648 36.861C22.0961 37.6247 23.8075 38.349 25.4482 39.0307C26.3769 39.4167 27.3398 39.7208 28.2325 40.1845C29.8021 41.0024 29.7988 42.4477 30.333 43.9415C30.8446 45.374 31.3085 46.826 31.7967 48.2661C32.1273 49.2424 32.4484 50.2187 32.7903 51.1884C32.8404 51.3296 32.9397 51.4488 33.0704 51.5249C33.2012 51.6009 33.355 51.6292 33.5048 51.6042C33.6545 51.5792 33.7904 51.5026 33.8885 51.3884C33.9866 51.2741 34.0404 51.1295 34.0406 50.9799C34.0685 49.4039 34.0966 47.8282 34.1248 46.2531C34.1806 43.1017 34.2371 39.9509 34.2941 36.8007C34.3099 36.6463 34.2865 36.4905 34.2261 36.3472C34.1249 36.192 33.9775 36.0715 33.8041 36.002C31.7697 34.9694 29.4292 34.3289 27.3313 33.3881C27.1152 33.2941 26.9254 33.1498 26.7782 32.9677C25.8644 31.8073 26.7832 29.8773 27.2092 28.7048C27.9091 26.7784 28.15 24.745 28.4928 22.7338C28.6364 21.8906 28.5342 21.1972 27.615 20.9145C26.1359 20.4618 24.5339 20.5071 23.0081 20.3132L19.3182 19.7983C19.2024 19.7823 19.0933 19.7355 19.0025 19.6629C18.9117 19.5903 18.8427 19.4947 18.8029 19.3864L16.3677 12.7813Z" fill="#FCFDFF"/>
<path fill-rule="evenodd" clip-rule="evenodd" d="M27.2803 5.01956C29.1215 4.44265 28.7949 6.84179 29.2097 8.37237C29.756 10.3862 30.2906 11.9049 30.0204 14.0084C29.8466 15.3642 29.6435 16.4748 29.48 17.8319C29.4538 18.0452 29.3848 18.2512 29.277 18.4379C29.1692 18.6247 29.0246 18.7883 28.8519 18.9194C28.6792 19.0505 28.4818 19.1467 28.271 19.2018C28.0603 19.2569 27.8405 19.27 27.6245 19.2406C27.4085 19.2111 27.2006 19.1396 27.013 19.0301C26.8254 18.9207 26.6618 18.7755 26.5317 18.6031C26.4017 18.4306 26.3078 18.2344 26.2555 18.0258C26.2033 17.8172 26.1936 17.6004 26.2273 17.3881C26.6015 15.0361 27.3591 13.1083 27.0001 10.7035C26.8308 9.56787 26.547 8.44736 26.4624 7.3002C26.2543 4.48577 27.0421 5.09412 27.2803 5.01956Z" fill="#FCFDFF"/>
<path fill-rule="evenodd" clip-rule="evenodd" d="M15.8763 44.7807C15.2079 45.6713 14.0748 46.3215 13.2528 47.0266C12.232 47.9018 11.2111 48.7766 10.1902 49.6511C9.66149 50.1042 8.90616 50.6443 8.27338 51.2141C8.19584 51.2836 8.14488 51.3772 8.1289 51.4793C8.11291 51.5814 8.13285 51.6858 8.18552 51.7751C8.2382 51.8644 8.32036 51.9333 8.4183 51.9701C8.51624 52.007 8.62405 52.0099 8.72376 51.9779L8.73816 51.9725C9.4554 51.6916 10.1541 51.3667 10.8302 50.9998C12.343 50.2418 13.8095 49.3959 15.3403 48.6726C16.6536 48.0513 18.0326 47.7512 18.9505 46.5774C20.144 45.0504 20.9218 43.3846 22.0131 41.7817C22.6527 40.8413 23.3908 40.4828 22.4486 39.7368C21.7416 39.1768 20.7723 38.8491 19.9837 38.4133C19.0563 37.8981 18.1776 37.1552 17.7318 38.3583C17.2386 39.6834 17.0342 40.9576 16.623 42.3106C16.4284 42.9506 16.4617 43.74 16.1537 44.3386C16.0739 44.4933 15.9811 44.6412 15.8763 44.7807Z" fill="#FCFDFF"/>
<path d="M19.0515 14.2715L20.6448 17.4076C20.8018 17.7339 21.0611 18.0019 21.3844 18.1719C21.9199 18.4382 22.7711 18.487 23.7362 17.1455C23.8139 17.0357 23.8784 16.9175 23.9285 16.7931L25.0252 14.1246C25.2339 13.6429 25.2849 13.1092 25.1711 12.5976C24.9685 11.7678 24.2407 10.7711 21.9478 10.6362C21.7753 10.6301 21.6032 10.6543 21.4394 10.7077C20.8441 10.7972 20.2887 11.0575 19.8428 11.4563C19.3969 11.8552 19.0803 12.3747 18.9325 12.9499C18.7997 13.3893 18.8424 13.862 19.0515 14.2715Z" fill="#FCFDFF"/>
<path d="M1.17499 1.6789V5.00722C1.17859 5.02807 1.19621 5.04138 1.19621 5.06312C1.19621 5.08487 1.17859 5.0986 1.17499 5.11946V8.8064C1.74064 9.08863 2.35542 9.2626 2.98684 9.3193V0.809111C1.86494 0.987066 1.17499 1.4326 1.17499 1.6789Z" fill="#FCFDFF"/>
<path d="M3.59489 9.39893C4.05182 9.47408 4.51883 9.46679 4.97308 9.37726V1.08398C4.883 0.897149 4.3754 0.726159 3.59489 0.75678V9.39893Z" fill="#FCFDFF"/>
<path d="M37.2418 0.826395C37.09 0.894292 37.0125 0.971095 37.0125 1.0563V5.0245C37.0125 5.03959 37.0274 5.04884 37.0274 5.06437C37.0274 5.0799 37.0143 5.0898 37.0125 5.10489V9.26443C37.1026 9.36783 37.7894 9.4937 38.8244 9.34503V0.731486C38.5995 0.698312 38.3726 0.680603 38.1453 0.678614C37.8371 0.667689 37.5298 0.717948 37.2418 0.826395Z" fill="#FCFDFF"/>
<path d="M39.4324 0.854399V9.22482C40.3737 9.00515 40.7804 8.70823 40.8115 8.59773V1.71357C40.8106 1.41979 40.221 1.06253 39.4324 0.854399Z" fill="#FCFDFF"/>
<path d="M41.6974 4.72547H41.4186V1.71438C41.4186 0.596061 39.5176 0.00146199 38.1453 0.00146199C37.7594 -0.0108893 37.375 0.0551279 37.0161 0.195397C36.8371 0.260302 36.6825 0.377623 36.5731 0.531697C36.4638 0.68577 36.405 0.869158 36.4046 1.05716V4.72547H5.58102V1.02379C5.58106 0.992837 5.57733 0.961976 5.56981 0.931919C5.35633 0.0767618 4.06106 -0.0385333 2.92746 0.133208C1.7862 0.310719 0.567042 0.806314 0.567042 1.68144V4.7272H0.304467C0.220405 4.73759 0.143031 4.77772 0.086975 4.84031C0.0309193 4.90291 0 4.98371 0 5.06718C0 5.15066 0.0309193 5.23125 0.086975 5.29384C0.143031 5.35643 0.220405 5.39656 0.304467 5.40695H0.567042V8.89519C0.567042 9.26042 0.893116 9.50489 1.69299 9.73832C2.54351 9.96497 3.41778 10.0937 4.29839 10.1221C4.89289 10.1221 5.39276 10.0197 5.54364 9.71838C5.56915 9.66669 5.58235 9.60989 5.58201 9.5524V5.40825H36.4027V9.26919C36.4027 9.6464 36.6694 10.0965 37.939 10.0965C38.8308 10.0965 41.4168 9.73118 41.4168 8.61198V5.40933H41.6955C41.7796 5.39895 41.857 5.3586 41.913 5.29601C41.9691 5.23341 42 5.15283 42 5.06935C42 4.98587 41.9691 4.90529 41.913 4.8427C41.857 4.7801 41.7796 4.73976 41.6955 4.72937L41.6974 4.72547ZM2.98464 9.32076C2.35322 9.26406 1.73844 9.08988 1.17279 8.80765V5.12071C1.17639 5.09985 1.1939 5.08656 1.1939 5.06437C1.1939 5.04218 1.17639 5.02932 1.17279 5.00846V1.68014C1.17279 1.43384 1.86274 0.98828 2.98464 0.811657V9.32076ZM4.97077 9.3771C4.51652 9.46663 4.04962 9.47392 3.59269 9.39877V0.756618C4.3732 0.725998 4.88024 0.896987 4.97077 1.08382V9.3771ZM38.8222 9.34503C37.7863 9.4937 37.0986 9.36782 37.0103 9.26442V5.10489C37.0103 5.0898 37.0252 5.0799 37.0252 5.06437C37.0252 5.04884 37.0121 5.03959 37.0103 5.0245V1.0563C37.0103 0.971092 37.0878 0.894289 37.2396 0.826392C37.5278 0.71855 37.8349 0.668854 38.143 0.680344C38.3703 0.682334 38.5973 0.700042 38.8222 0.733216V9.34503ZM39.4302 9.22477V0.854344C40.2188 1.06248 40.8083 1.41973 40.8083 1.71351V8.59768C40.7804 8.70818 40.3737 9.00515 39.4324 9.22482L39.4302 9.22477Z" fill="#FCFDFF"/>
</svg>
