<svg width="50" height="46" viewBox="0 0 50 46" fill="none"  >
<path d="M1.39953 1.97806V5.9011C1.40376 5.92547 1.42403 5.94247 1.42403 5.96684C1.42403 5.9912 1.40376 6.00799 1.39953 6.03318V10.3762C1.67101 10.6042 2.5994 10.836 3.55615 10.9809V0.955154C2.22077 1.16163 1.39953 1.68817 1.39953 1.97806Z" fill="#FCFDFF"/>
<path d="M4.27996 11.0724C4.82379 11.1611 5.37956 11.1524 5.9202 11.0468V1.27813C5.81263 1.05761 5.20876 0.856467 4.27996 0.892394V11.0724Z" fill="#FCFDFF"/>
<path d="M44.3334 0.974166C44.1526 1.05387 44.0608 1.14483 44.0608 1.24476V5.91931C44.0608 5.93707 44.0781 5.94832 44.0781 5.96649C44.0781 5.98466 44.0629 5.99612 44.0608 6.01388V10.9137C44.1654 11.0375 44.9852 11.1841 46.2173 11.0086V0.864879C45.9498 0.825488 45.6798 0.804372 45.4092 0.801968C45.0424 0.788573 44.6766 0.847128 44.3334 0.974166Z" fill="#FCFDFF"/>
<path d="M46.9412 1.00718V10.866C48.0619 10.6075 48.5459 10.2577 48.5832 10.1276V2.01818C48.5819 1.67296 47.8802 1.25247 46.9412 1.00718Z" fill="#FCFDFF"/>
<path d="M49.637 5.56588H49.3053V2.01868C49.3053 0.702193 47.0415 0.0017114 45.4088 0.0017114C44.949 -0.0127927 44.491 0.0650258 44.0633 0.230166C43.8504 0.306589 43.6666 0.444561 43.5365 0.625777C43.4065 0.806994 43.3363 1.02282 43.3356 1.244V5.56588H6.64535V1.20306C6.64527 1.16696 6.64046 1.1311 6.63098 1.0962C6.37686 0.0890057 4.83476 -0.0461233 3.48667 0.153746C2.12714 0.360222 0.67655 0.947033 0.67655 1.97735V5.56427H0.36397C0.263622 5.57605 0.171186 5.62321 0.104124 5.69694C0.0370631 5.77068 0 5.86577 0 5.96431C0 6.06286 0.0370631 6.15815 0.104124 6.23189C0.171186 6.30562 0.263622 6.35278 0.36397 6.36456H0.67655V10.4747C0.67655 10.905 1.06277 11.1912 2.01486 11.4658C3.02752 11.7317 4.0682 11.8831 5.11637 11.917C5.82451 11.917 6.41872 11.7981 6.59872 11.4422C6.62843 11.3811 6.64398 11.3144 6.64411 11.2468V6.36497H43.3356V10.9125C43.3356 11.3568 43.6529 11.887 45.1653 11.887C46.2271 11.887 49.3044 11.4568 49.3044 10.1378V6.36497H49.636C49.7364 6.35319 49.8288 6.30602 49.8959 6.23229C49.9629 6.15856 50 6.06327 50 5.96472C50 5.86617 49.9629 5.77108 49.8959 5.69735C49.8288 5.62362 49.7364 5.57645 49.636 5.56467L49.637 5.56588ZM3.55357 10.981C2.59682 10.8349 1.66885 10.6043 1.39694 10.3763V6.03469C1.4016 6.00908 1.42321 5.99336 1.42321 5.96734C1.42321 5.94132 1.4016 5.92596 1.39694 5.90201V1.97896C1.39694 1.6899 2.21734 1.16254 3.55357 0.955655V10.981ZM5.91772 11.0462C5.37766 11.1532 4.82191 11.1618 4.27862 11.0718V0.892946C5.20657 0.855781 5.81015 1.05821 5.91772 1.27666V11.0462ZM46.2161 11.0091C44.9827 11.1833 44.1623 11.0372 44.0594 10.9137V6.01472C44.062 5.99614 44.0764 5.98471 44.0764 5.96613C44.0764 5.94755 44.062 5.93793 44.0594 5.91935V1.2444C44.0594 1.14446 44.1501 1.05348 44.3318 0.974609C44.6749 0.847418 45.0408 0.788858 45.4076 0.802411C45.6783 0.804397 45.9484 0.825516 46.2161 0.865322V11.0091ZM48.5806 10.1299C48.5446 10.2579 48.0605 10.6088 46.939 10.8669V1.00687C47.8793 1.25464 48.5806 1.67222 48.5806 2.01868V10.1299Z" fill="#FCFDFF"/>
<path d="M36.5105 5.96018C36.4601 6.10885 36.3712 6.39376 36.2564 6.76129C35.727 8.45852 34.6385 12.7285 34.6385 12.7285L31.6441 18.6873C31.6042 18.7836 31.5731 18.8831 31.551 18.9847C31.1402 20.3144 30.7279 21.6455 30.3143 22.9779C30.1025 23.6552 29.8272 24.349 29.6748 25.0469C29.5363 25.762 29.5162 26.4941 29.6154 27.2153C29.7848 28.6309 30.3151 30.0155 30.5679 31.4253C30.895 33.0866 31.0764 34.7721 31.1101 36.4634C31.1613 36.9053 31.1948 37.3511 31.2121 37.793L31.4663 44.103C31.4979 44.569 31.3408 45.0284 31.0288 45.3828C30.7168 45.7372 30.2748 45.9582 29.7976 45.9984C29.5207 46.0091 29.2449 45.9577 28.9916 45.8482C28.7383 45.7386 28.5141 45.5738 28.3364 45.3665C28.3067 45.3252 28.2771 45.2799 28.2474 45.2304C27.9336 44.6894 28.023 43.9832 28.0357 43.3638C28.0611 42.158 28.0851 40.9508 28.1077 39.7422C28.1285 38.7492 28.0661 37.7562 27.9213 36.7731L26.9345 30.0253C26.8739 29.7601 26.8771 29.4849 26.9439 29.221C25.972 29.467 24.9522 29.4696 23.9792 29.2285C24.0258 29.4919 24.0301 29.7606 23.9919 30.0253L23.005 36.7731C22.8609 37.7563 22.7972 38.7492 22.8144 39.7422C22.8399 40.9522 22.861 42.158 22.8907 43.3638C22.9034 43.9832 22.9923 44.6894 22.6746 45.2304C22.65 45.2787 22.6202 45.3242 22.5857 45.3665C22.4085 45.5744 22.1844 45.7396 21.931 45.8492C21.6775 45.9588 21.4016 46.0099 21.1246 45.9984C20.6481 45.9573 20.207 45.7359 19.8959 45.3816C19.5847 45.0273 19.4283 44.5684 19.46 44.103C19.59 40.8139 19.7049 37.5212 20.0187 34.2428C20.1652 32.7149 20.2423 31.0863 20.6773 29.6084C21.094 28.1932 21.6539 26.7659 21.4396 25.2681C21.2872 24.1697 20.7831 23.0135 20.4655 21.9522C20.1394 20.862 19.8091 19.7759 19.483 18.6857L14.7733 6.75967L14.642 6.45399C14.595 6.34662 14.786 6.15266 15.0232 5.95857H17.5856C17.6999 6.22699 17.8184 7.29236 17.9328 7.56078C18.674 9.27453 19.4166 10.9896 20.1606 12.7061C20.6137 13.755 21.0711 14.804 21.5243 15.8529C21.6182 16.1462 21.7416 16.4297 21.8928 16.6994C22.346 17.3394 23.8029 17.5211 24.5187 17.5954C25.3298 17.6676 26.1452 17.6802 26.9582 17.6327C27.6486 17.5997 28.3432 17.2198 28.995 16.9802L33.0867 6.75967L33.434 5.95857L36.5105 5.96018Z" fill="#FCFDFF"/>
<path d="M22.7526 11.5387L24.2532 14.46C24.4009 14.7639 24.6448 15.0135 24.949 15.172C25.453 15.4198 26.2548 15.4656 27.1633 14.216C27.2364 14.1131 27.2971 14.0021 27.3441 13.8855L28.3767 11.3996C28.573 10.951 28.621 10.4539 28.5139 9.97742C28.3229 9.20437 27.638 8.27572 25.4797 8.15018C25.3173 8.14464 25.155 8.167 25.0006 8.21652C24.4401 8.29963 23.9172 8.54235 23.4975 8.91398C23.0778 9.28562 22.78 9.76967 22.6412 10.3057C22.5159 10.7155 22.5557 11.1565 22.7526 11.5387Z" fill="#FCFDFF"/>
</svg>
