<svg width="32" height="51" viewBox="0 0 32 51" fill="none"  >
<path d="M9.20651 4.6714C9.20651 4.6714 17.4399 20.659 16.5256 38.9397C16.5256 38.9397 26.0661 34.3531 27.765 27.6043C27.765 27.6043 27.0566 25.2994 21.1053 17.9281L9.9829 4.17242L8.96595 2.96135L9.20651 4.6714Z" fill="white"/>
<path d="M5.22548 31.3747C5.20153 31.3858 5.18075 31.4028 5.16509 31.4241C5.14943 31.4453 5.1394 31.4702 5.13591 31.4964C5.13242 31.5226 5.13561 31.5493 5.14516 31.5739C5.15471 31.5985 5.17033 31.6204 5.19055 31.6374C6.08649 32.3934 7.02255 33.1988 7.53047 34.2697C7.54929 34.3011 7.55775 34.3376 7.55472 34.3741C7.54541 34.4051 7.52756 34.4328 7.50322 34.4541C7.31932 34.6496 6.47343 35.0634 6.28953 35.2603C6.2134 35.3422 6.42746 35.6224 6.53228 35.6619C6.6794 35.7164 6.91035 35.5763 7.05268 35.4794L8.10605 34.8244C8.12802 34.8009 8.15661 34.7849 8.18798 34.7783C8.21936 34.7717 8.25201 34.7749 8.2815 34.7875C9.02445 35.1006 9.58383 35.2669 10.3268 35.5797C10.8884 35.8153 11.8399 35.9949 12.2286 36.4821C12.4131 36.7412 12.5543 37.0287 12.6469 37.3333L13.4019 39.4088C13.6426 39.969 13.7848 40.5668 13.8223 41.1756C13.8245 41.8918 14.029 44.0153 12.702 43.3883C11.9296 43.0251 11.7976 42.2528 11.553 41.5193C11.3324 40.8555 11.0797 40.1917 10.8855 39.5175C10.7575 39.0731 10.817 38.312 10.3459 38.07C10.1397 37.9813 9.91748 37.9363 9.6931 37.9377C8.27343 37.9055 6.86956 37.6312 5.54178 37.1264C4.00808 36.4917 2.9919 34.8483 2.36444 33.576C2.15158 33.1533 1.91136 32.7451 1.64538 32.3539C1.28714 31.8165 0.812714 30.4731 1.31107 29.7514C1.39421 29.6338 1.50639 29.5397 1.63662 29.4786C1.76685 29.4174 1.91067 29.3912 2.05402 29.4025C4.24791 29.5685 6.3318 28.2685 8.25977 27.3742L8.27598 27.3679L10.2867 26.6779C10.3143 26.6684 10.344 26.6669 10.3724 26.6735C10.6537 26.7403 12.165 27.1673 11.3849 28.4702C11.3682 28.4977 11.3438 28.5197 11.3147 28.5333L5.22548 31.3747Z" fill="white"/>
<path d="M8.39769 0C8.39769 0 10.7034 29.9974 17.8305 41.9017Z" fill="white"/>
<path d="M31.8449 39.5415C31.97 39.5068 32.0487 39.6053 31.9659 39.6935C31.8194 39.8501 31.6638 39.9978 31.4999 40.136C30.5101 41.0154 29.3551 41.6876 28.1026 42.1131C25.1235 42.9816 22.1109 43.7512 19.1204 44.5718L8.13402 47.5862C7.76917 47.6865 7.39546 47.8104 7.02803 47.8897C6.51989 47.9995 5.99126 47.9642 5.50209 47.7879C5.19167 47.6378 6.27444 46.9371 6.47967 46.8099C7.18314 46.4225 7.93991 46.1416 8.7254 45.9764L31.5702 39.6197L31.8449 39.5415Z" fill="white"/>
<path d="M8.45365 48.6468C8.36243 48.5119 11.233 47.9461 11.2345 47.9461C11.182 48.0411 11.1381 48.1406 11.1032 48.2434C10.9623 48.5174 10.7948 48.7768 10.603 49.0178C10.255 49.4622 9.85684 49.8648 9.4165 50.2174C9.04871 50.5124 8.45253 50.9952 7.96005 51C7.95748 51 8.3922 49.9508 8.42603 49.8656C8.53021 49.6804 8.58725 49.4723 8.59206 49.2597C8.59687 49.0471 8.54933 48.8366 8.45365 48.6468Z" fill="white"/>
<path d="M0.491961 25.9448L2.44128 27.573C2.63856 27.7443 2.88542 27.8477 3.14562 27.868C3.57263 27.8909 4.14341 27.6798 4.38468 26.5115C4.4036 26.4163 4.41141 26.3191 4.40789 26.2221L4.35051 24.1336C4.34729 23.7537 4.22575 23.3843 4.00292 23.077C3.62961 22.5832 2.86499 22.1289 1.32798 22.6965C1.21363 22.742 1.10816 22.8075 1.01644 22.8898C0.653416 23.1198 0.366145 23.4521 0.190614 23.8451C0.0150841 24.2381 -0.0408972 24.6744 0.0296599 25.0991C0.0705566 25.4298 0.235928 25.7323 0.491961 25.9448Z" fill="white"/>
</svg>
