<svg width="47" height="44" viewBox="0 0 47 44" fill="none"  >
<path d="M2.34489 27.8531C2.04371 29.3766 1.9619 30.9353 2.10199 32.4819C2.18628 33.6385 2.17626 34.8 2.0721 35.955C1.8678 37.3275 1.46301 38.6625 0.870638 39.9173C0.220619 41.4657 -0.121816 42.3685 0.39133 42.9214C0.467593 43.0037 0.569605 43.0575 0.680531 43.0739C0.791456 43.0904 0.904649 43.0686 1.00151 43.0121C2.31349 42.5184 4.41239 39.0965 4.90165 37.0609C5.34959 35.1974 5.77067 31.1879 5.84732 30.4169C5.84732 30.406 5.84084 30.3975 5.84283 30.3865C5.8926 29.9227 5.85479 29.4513 5.94836 28.9929C6.03447 28.5698 6.456 27.9089 6.9348 28.4215C7.16598 28.7568 7.26021 29.1677 7.19812 29.5702C7.20784 29.9849 7.377 30.38 7.67044 30.6732C7.86758 30.9297 8.04714 31.1993 8.20795 31.48C8.53556 32.0579 8.8289 32.6544 9.08643 33.2668C9.4888 34.194 9.8443 35.1408 10.1516 36.1037C10.3322 36.8557 10.4356 37.6243 10.4601 38.3973C10.592 40.1179 10.7558 42.26 11.7044 42.8727C11.7279 42.8937 11.7555 42.9096 11.7854 42.9194C11.8154 42.9292 11.847 42.9327 11.8784 42.9296C11.9097 42.9265 11.9401 42.917 11.9676 42.9015C11.995 42.8861 12.019 42.8651 12.0379 42.8399C12.8567 42.0052 13.1767 36.9474 12.7292 34.6126C12.3661 33.0666 11.8977 31.5472 11.3272 30.065C10.6956 28.2916 10.3078 27.1718 10.3078 26.5347C10.3078 25.2506 12.244 19.8966 12.9786 18.5528L13.4619 17.4578C13.5659 17.2214 13.6898 16.8775 13.9835 16.8337C14.306 16.7839 14.738 17.1517 14.6803 17.4837C14.5347 17.8905 14.3223 18.2702 14.0517 18.6071C14.2581 18.9891 14.4322 19.3876 14.5723 19.7986C15.0078 20.9349 15.6046 22.4922 16.3979 23.2328C17.6158 24.3736 20.6947 25.3153 21.5403 24.8046C21.6737 24.7245 21.6772 24.6518 21.6792 24.6135C21.712 23.944 21.0028 23.397 20.182 22.7629C19.2885 22.1536 18.5244 21.3736 17.9339 20.4676C17.327 19.3222 16.8431 18.1157 16.4905 16.8685C16.2253 15.8534 15.8256 14.8784 15.3019 13.9693C14.4026 12.7086 10.8608 10.6202 8.19501 10.4271C5.59593 10.2583 2.98195 13.5716 2.37175 16.6749C2.25161 17.2815 2.27203 17.9075 2.43147 18.505C2.59091 19.1025 2.88515 19.6555 3.29154 20.1216C4.14902 21.1221 5.23716 21.8988 6.462 22.3847C6.99296 22.614 7.54594 22.7885 8.11238 22.9053C8.49665 23.0354 8.90766 23.0659 9.30692 22.9939C10.0415 22.7018 8.83361 21.6058 8.58525 21.3514C8.1179 20.8771 7.6122 20.4421 7.10851 20.0076C6.4117 19.4079 5.24553 18.6404 5.16241 17.6385C5.14344 17.2888 5.1974 16.939 5.32075 16.6112C5.51384 16.0535 5.82093 15.542 6.22255 15.1096C6.43685 14.8481 6.72773 14.6605 7.05425 14.5731C7.14973 14.548 7.25095 14.5563 7.34096 14.5969C7.40661 14.6402 7.45706 14.703 7.48526 14.7765C7.51346 14.8499 7.51803 14.9304 7.49826 15.0065C7.45524 15.1579 7.38039 15.2985 7.27875 15.4187C6.98089 15.7849 6.74252 16.1958 6.57245 16.6361C6.47576 16.9237 6.46053 17.2324 6.52834 17.5282C6.59615 17.8239 6.74441 18.0952 6.95674 18.3119C7.66001 19.053 8.46033 19.7204 9.2074 20.4182C9.76285 20.9373 10.4362 21.4878 10.5462 22.2916C10.7393 23.7031 9.09389 24.0426 8.02131 23.9127C6.58143 23.6643 5.20568 23.1308 3.97487 22.3433" fill="white"/>
<path d="M11.5153 3.67649L11.7532 7.75775C11.7685 8.17795 11.9186 8.58204 12.1812 8.91042C12.6237 9.437 13.4987 9.87601 15.1332 8.87858C15.2655 8.79614 15.388 8.69878 15.4981 8.58841L17.8826 6.22972C18.3238 5.8087 18.6231 5.26078 18.7387 4.66196C18.9069 3.68195 18.5978 2.28532 16.2421 1.10175C16.0632 1.01686 15.8705 0.964705 15.6732 0.947551C15.0043 0.773238 14.2989 0.800043 13.6452 1.02483C12.9916 1.24962 12.4188 1.66232 11.9986 2.21116C11.6572 2.62047 11.4844 3.14441 11.5153 3.67649Z" fill="white"/>
<path d="M44.7976 27.8531C45.0993 29.3765 45.1811 30.9353 45.0405 32.4819C44.9565 33.6385 44.9664 34.8 45.0704 35.955C45.2747 37.3275 45.6795 38.6625 46.2719 39.9173C46.9224 41.4657 47.2648 42.3685 46.7512 42.9214C46.6749 43.0037 46.5729 43.0575 46.462 43.0739C46.3511 43.0904 46.2378 43.0686 46.141 43.0121C44.8295 42.5184 42.7301 39.0965 42.2409 37.0609C41.7929 35.1974 41.3723 31.1879 41.2952 30.4169C41.2952 30.406 41.3017 30.3975 41.2997 30.3865C41.2499 29.9227 41.2877 29.4513 41.1942 28.9929C41.1086 28.5698 40.6865 27.9089 40.2077 28.4215C39.9763 28.7567 39.8821 29.1677 39.9444 29.5702C39.9351 29.9849 39.766 30.38 39.4726 30.6732C39.2751 30.9295 39.0955 31.1991 38.935 31.48C38.6073 32.0578 38.3139 32.6544 38.0566 33.2668C37.654 34.1939 37.2984 35.1408 36.991 36.1037C36.8102 36.8557 36.707 37.6243 36.6829 38.3973C36.551 40.1179 36.3867 42.26 35.4386 42.8727C35.4152 42.8938 35.3876 42.9098 35.3577 42.9196C35.3278 42.9294 35.2961 42.9329 35.2648 42.9298C35.2335 42.9267 35.2032 42.9171 35.1757 42.9016C35.1483 42.8862 35.1244 42.8651 35.1056 42.8399C34.2863 42.0052 33.9668 36.9474 34.4143 34.6126C34.777 33.0665 35.2453 31.5471 35.8158 30.065C36.4474 28.2916 36.8352 27.1718 36.8352 26.5347C36.8352 25.2506 34.899 19.8966 34.1644 18.5528L33.6816 17.4578C33.5771 17.2214 33.4532 16.8775 33.1595 16.8337C32.837 16.7839 32.405 17.1517 32.4627 17.4837C32.6083 17.8905 32.8207 18.2702 33.0913 18.6071C32.8851 18.9892 32.7111 19.3877 32.5707 19.7986C32.1352 20.9349 31.5389 22.4922 30.7456 23.2328C29.5272 24.3736 26.4488 25.3153 25.6027 24.8046C25.4698 24.7245 25.4658 24.6518 25.4643 24.6135C25.4315 23.944 26.1402 23.397 26.9615 22.7629C27.8548 22.1536 28.6187 21.3735 29.2092 20.4676C29.8162 19.3223 30.3001 18.1158 30.6525 16.8685C30.9176 15.8534 31.3171 14.8784 31.8406 13.9693C32.7404 12.7086 36.2822 10.6202 38.9474 10.4271C41.547 10.2583 44.1611 13.5716 44.7708 16.6749C44.8909 17.2815 44.8704 17.9075 44.711 18.505C44.5515 19.1025 44.2573 19.6555 43.851 20.1216C42.9935 21.1221 41.9053 21.8988 40.6805 22.3847C40.1497 22.6139 39.5968 22.7884 39.0306 22.9053C38.6463 23.0354 38.2353 23.0658 37.8361 22.9939C37.1015 22.7018 38.3094 21.6058 38.5578 21.3514C39.0251 20.8771 39.5308 20.4421 40.0345 20.0076C40.7313 19.4079 41.8975 18.6404 41.9811 17.6385C41.9999 17.2888 41.9458 16.9389 41.8223 16.6112C41.6294 16.0534 41.3223 15.5419 40.9204 15.1096C40.7063 14.8482 40.4156 14.6607 40.0892 14.5731C39.9936 14.548 39.8922 14.5564 39.802 14.5969C39.7364 14.6403 39.6861 14.7032 39.6579 14.7766C39.6297 14.85 39.6251 14.9304 39.6447 15.0065C39.6877 15.1581 39.7628 15.2987 39.8647 15.4187C40.1626 15.7848 40.4009 16.1957 40.5706 16.6361C40.6672 16.9237 40.6825 17.2324 40.6147 17.5282C40.5469 17.8239 40.3986 18.0952 40.1863 18.3119C39.483 19.053 38.6832 19.7204 37.9361 20.4182C37.3801 20.9373 36.7068 21.4878 36.5973 22.2916C36.4041 23.7031 38.0491 24.0426 39.1222 23.9127C40.5619 23.6644 41.9375 23.1308 43.1681 22.3433" fill="white"/>
<path d="M35.6267 3.67649L35.3888 7.75775C35.3734 8.17785 35.2235 8.58187 34.9613 8.91042C34.5188 9.437 33.6438 9.87601 32.0088 8.87858C31.8766 8.79604 31.7541 8.69868 31.644 8.58841L29.2599 6.22972C28.8182 5.80895 28.5188 5.26094 28.4033 4.66196C28.2356 3.68195 28.5442 2.28532 30.8999 1.10175C31.0788 1.01698 31.2715 0.964831 31.4687 0.947551C32.1376 0.773238 32.8431 0.800043 33.4968 1.02483C34.1504 1.24962 34.7232 1.66232 35.1434 2.21116C35.485 2.62037 35.6578 3.14438 35.6267 3.67649Z" fill="white"/>
</svg>
