<svg width="40" height="43" viewBox="0 0 40 43" fill="none"  >
<path d="M24.7308 32.6693V32.6618C24.4222 28.5429 24.6295 24.4014 25.3478 20.3338C25.3595 20.2323 25.4044 20.1376 25.4755 20.0643C25.5466 19.9909 25.64 19.9431 25.7411 19.9283C25.9422 19.8826 26.1026 20.0603 26.1658 20.2822C26.1791 20.3286 27.5359 25.0101 30.838 28.1031C32.7017 29.8486 36.8259 30.8897 38.8622 30.1348C39.0517 30.0829 39.2269 29.989 39.375 29.8599C39.5231 29.7308 39.6401 29.5699 39.7173 29.3893C39.9629 28.5336 39.1206 28.0302 37.1405 27.0859C35.7514 26.4981 34.4571 25.7077 33.2995 24.7407C32.0204 23.5763 31.2789 21.96 30.5617 20.4016C29.0242 17.0543 27.4333 13.5923 20.2915 13.5923C13.2388 13.5923 11.7615 16.8023 10.1962 20.2006C9.45058 21.8192 8.67948 23.4947 7.28216 24.7442C6.12964 25.6904 4.84827 26.4674 3.47661 27.0522C1.47099 28.0127 0.61766 28.5244 0.866189 29.3893C0.943485 29.57 1.06059 29.7308 1.20875 29.8599C1.35691 29.989 1.53226 30.083 1.72181 30.1348C3.76044 30.8914 7.88294 29.8451 9.74604 28.1031C13.0482 25.0095 14.4044 20.328 14.4177 20.2822C14.4814 20.0603 14.6187 19.8826 14.8423 19.9283C14.9434 19.9431 15.0368 19.9909 15.108 20.0643C15.1791 20.1376 15.224 20.2323 15.2357 20.3338C15.9145 24.3984 16.0896 28.5312 15.7571 32.6386V32.6416" fill="white"/>
<path d="M14.9153 34.7254C12.9311 34.3969 8.62034 34.0661 7.40492 35.7276C7.01446 36.26 6.97797 36.9796 7.29312 37.9291C7.8568 39.623 10.9382 41.4183 14.5392 42.274C14.7397 41.6217 16.2245 40.8661 18.3222 40.1055C16.544 39.6353 14.7985 39.0494 13.0967 38.3514C12.8847 38.2581 11.4857 37.4378 11.5575 37.1928C11.6293 36.9477 13.358 37.0444 13.5817 37.1168C13.6182 37.1284 17.0859 39.0686 20.2902 39.0686C22.3039 39.0686 24.8773 37.8219 26.3685 37.4824C26.8736 37.355 27.3734 37.2309 27.8678 37.1104C28.0995 37.0525 29.5837 36.9367 29.6382 37.1928C29.6926 37.4488 28.074 38.3051 27.8457 38.3688C27.7837 38.3856 27.2044 38.5483 26.3331 38.7476C21.4089 40.0116 17.9052 41.4704 16.8902 42.2901C19.1438 43.2037 26.3302 42.5578 30.7777 40.3169C32.2138 39.594 33.0787 38.7806 33.2792 37.9667C33.4154 37.5884 33.4587 37.1829 33.4054 36.7843C33.3521 36.3857 33.2037 36.0058 32.9728 35.6766C31.6444 34.0423 27.5798 34.3807 25.6895 34.7138" fill="white"/>
<path d="M16.4163 4.71943L18.1676 9.36433C18.3371 9.84628 18.6572 10.2609 19.0806 10.5467C19.7845 10.998 20.9588 11.191 22.494 9.44198C22.6181 9.2987 22.725 9.14136 22.8126 8.97326L24.7244 5.70368C25.0863 4.93862 25.2337 4.08964 25.1508 3.24736C24.9914 2.04932 24.1277 0.540755 20.9669 0.0193645C20.7285 -0.0135906 20.4861 -0.00444669 20.2508 0.0465203C19.4118 0.0862621 18.6033 0.372736 17.9263 0.869961C17.2494 1.36719 16.7342 2.05303 16.4453 2.84172C16.1971 3.44109 16.1867 4.11268 16.4163 4.71943Z" fill="white"/>
</svg>
