<svg width="45" height="43" viewBox="0 0 45 43" fill="none" xmlns="http://www.w3.org/2000/svg">
<path d="M35.87 5.54554H41.2176C41.6898 5.54716 42.1423 5.73426 42.4762 6.06631C42.8101 6.39836 42.9984 6.84849 43 7.31807V39.2269C42.9985 39.6966 42.8102 40.1468 42.4763 40.4789C42.1424 40.8111 41.6899 40.9984 41.2176 41H3.78227C3.30996 40.9984 2.85744 40.8111 2.52353 40.4789C2.18961 40.1468 2.00146 39.6966 2 39.2269V7.31807C2.00163 6.84849 2.18992 6.39836 2.52383 6.06631C2.85773 5.73426 3.31007 5.54716 3.78227 5.54554H9.1306M12.6959 2V9.091M32.3047 2V9.091M20.865 16.1814H24.1355M29.778 16.1814H33.0485M20.865 25.0455H24.1355M11.9515 25.0455H15.222M29.778 25.0455H33.0485M16.2612 5.54551H28.7394M20.865 33.9089H24.1355M11.9515 33.9089H15.222" stroke="#FCFDFF" stroke-width="2.05812" stroke-linecap="round" stroke-linejoin="round"/>
</svg>
