<svg width="14" height="14" viewBox="0 0 14 14" fill="none" xmlns="http://www.w3.org/2000/svg">
<g opacity="1">
<path d="M13.203 7.93051C13.2639 7.43583 13.2623 6.94786 13.2044 6.47412M11.5351 3.00451C10.5631 2.0006 9.23843 1.31011 7.72227 1.13283C4.2827 0.730657 1.15984 3.12203 0.747175 6.47412C0.334507 9.82621 2.7883 12.8696 6.22787 13.2718C6.63689 13.3196 7.04144 13.3279 7.43749 13.2998C7.88797 13.2679 8.32744 13.1888 8.74999 13.0671M11.5351 3.00451L11.5088 1.16511M11.5351 3.00451L9.54917 3.39872M11.0943 11.8125C11.3528 11.5933 11.5932 11.3533 11.8125 11.095C12.0327 10.8355 12.2317 10.5575 12.4066 10.2631" stroke="white" stroke-width="1.2" stroke-linecap="round" stroke-linejoin="round"/>
</g>
</svg>
