<svg width="18" height="19" viewBox="0 0 18 19" fill="none" xmlns="http://www.w3.org/2000/svg">
<mask id="path-1-inside-1_63_1471" fill="white">
<path d="M17.2801 3.70038C17.2835 3.6618 17.2792 3.62291 17.2674 3.58601C17.2557 3.54912 17.2367 3.5151 17.2116 3.48559C17.1866 3.45608 17.1559 3.43164 17.1214 3.41408C17.0869 3.39652 17.0492 3.386 17.0106 3.3831C17.0008 3.3831 16.991 3.38155 16.9813 3.38155H13.3411L13.5277 2.08483C13.5347 2.02244 13.5211 1.95941 13.4891 1.90541C13.4571 1.85141 13.4084 1.80917 13.3504 1.78536C11.8585 1.1625 10.2579 0.841797 8.64134 0.841797C7.02476 0.841797 5.42427 1.1625 3.93239 1.78536C3.87428 1.80913 3.82548 1.8514 3.79343 1.90541C3.76139 1.95941 3.74782 2.02241 3.75479 2.08483L4.46429 7.04688C4.47623 7.11512 4.51172 7.17692 4.5646 7.22165C4.61748 7.26639 4.68437 7.29116 4.75362 7.29161H12.5291C12.5984 7.29116 12.6653 7.26639 12.7181 7.22165C12.771 7.17692 12.8065 7.11512 12.8185 7.04688L13.2571 3.96241H16.6547L15.3957 17.3024L15.3733 17.5394C15.3702 17.578 15.3747 17.617 15.3866 17.6538C15.3985 17.6906 15.4175 17.7245 15.4425 17.754C15.4676 17.7834 15.4982 17.8078 15.5326 17.8255C15.567 17.8431 15.6046 17.8536 15.6431 17.8567C15.7212 17.865 15.7994 17.842 15.8607 17.7929C15.922 17.7438 15.9615 17.6725 15.9705 17.5944L15.9909 17.3781L17.2801 3.70038ZM8.64508 1.42162C10.1011 1.41577 11.5441 1.69629 12.8919 2.24721L12.2668 6.71024H5.01392L4.38842 2.24721C5.7402 1.69706 7.18677 1.41781 8.64612 1.42498L8.64508 1.42162ZM10.1758 2.62799C10.1265 2.63042 10.0786 2.64476 10.0363 2.67007C9.99393 2.69538 9.95848 2.73083 9.93299 2.77308L8.37394 5.3402C8.35375 5.37298 8.34041 5.40952 8.33465 5.44759C8.32889 5.48566 8.33086 5.52441 8.34046 5.5617C8.35006 5.59899 8.36703 5.63414 8.39046 5.6647C8.41388 5.69526 8.44326 5.72062 8.47677 5.73957C8.5448 5.77936 8.62559 5.7912 8.70218 5.77261C8.77876 5.75402 8.84515 5.70647 8.88739 5.63992L10.4464 3.0728C10.4672 3.04055 10.4814 3.00454 10.488 2.96669C10.4946 2.92885 10.4935 2.89 10.4848 2.85259C10.476 2.81518 10.4599 2.77982 10.4372 2.74881C10.4145 2.7178 10.3858 2.69181 10.3528 2.67214C10.2996 2.64117 10.2383 2.62691 10.1768 2.63135L10.1758 2.62799ZM0.244136 3.38078C0.170859 3.39267 0.104867 3.43228 0.0597626 3.49127C0.014658 3.55026 -0.00613233 3.62419 0.00157324 3.69806L1.39225 17.8673C1.41453 18.1286 1.53271 18.3724 1.72403 18.5517C1.91535 18.7309 2.16623 18.8331 2.4283 18.8382H14.13C14.2994 18.8382 14.5304 18.8786 14.6165 18.6875C14.6403 18.6302 14.6476 18.5672 14.6377 18.506C14.6313 18.4351 14.5996 18.3689 14.5483 18.3196C14.4918 18.2761 14.4226 18.2525 14.3512 18.2525C14.1755 18.2424 13.9966 18.2499 13.8204 18.2499H9.81145C9.50863 18.2499 9.75062 18.2499 9.44754 18.2499H2.4283C2.31003 18.2499 2.19655 18.2032 2.11245 18.12C2.02835 18.0368 1.98043 17.9239 1.97911 17.8056L0.625657 3.95337H2.15671C2.19488 3.95393 2.23277 3.94708 2.26825 3.93298C2.30373 3.91888 2.33609 3.89789 2.36347 3.87128C2.39085 3.84467 2.41273 3.81289 2.42785 3.77783C2.44297 3.74276 2.45104 3.705 2.45159 3.66682C2.45215 3.62863 2.44517 3.59079 2.43108 3.55529C2.41698 3.5198 2.396 3.48743 2.3694 3.46003C2.34281 3.43264 2.31111 3.41062 2.27606 3.39549C2.241 3.38037 2.20333 3.3723 2.16516 3.37174H0.298842C0.280684 3.37407 0.262712 3.37787 0.245169 3.3831L0.244136 3.38078Z"/>
</mask>
<path d="M17.2801 3.70038C17.2835 3.6618 17.2792 3.62291 17.2674 3.58601C17.2557 3.54912 17.2367 3.5151 17.2116 3.48559C17.1866 3.45608 17.1559 3.43164 17.1214 3.41408C17.0869 3.39652 17.0492 3.386 17.0106 3.3831C17.0008 3.3831 16.991 3.38155 16.9813 3.38155H13.3411L13.5277 2.08483C13.5347 2.02244 13.5211 1.95941 13.4891 1.90541C13.4571 1.85141 13.4084 1.80917 13.3504 1.78536C11.8585 1.1625 10.2579 0.841797 8.64134 0.841797C7.02476 0.841797 5.42427 1.1625 3.93239 1.78536C3.87428 1.80913 3.82548 1.8514 3.79343 1.90541C3.76139 1.95941 3.74782 2.02241 3.75479 2.08483L4.46429 7.04688C4.47623 7.11512 4.51172 7.17692 4.5646 7.22165C4.61748 7.26639 4.68437 7.29116 4.75362 7.29161H12.5291C12.5984 7.29116 12.6653 7.26639 12.7181 7.22165C12.771 7.17692 12.8065 7.11512 12.8185 7.04688L13.2571 3.96241H16.6547L15.3957 17.3024L15.3733 17.5394C15.3702 17.578 15.3747 17.617 15.3866 17.6538C15.3985 17.6906 15.4175 17.7245 15.4425 17.754C15.4676 17.7834 15.4982 17.8078 15.5326 17.8255C15.567 17.8431 15.6046 17.8536 15.6431 17.8567C15.7212 17.865 15.7994 17.842 15.8607 17.7929C15.922 17.7438 15.9615 17.6725 15.9705 17.5944L15.9909 17.3781L17.2801 3.70038ZM8.64508 1.42162C10.1011 1.41577 11.5441 1.69629 12.8919 2.24721L12.2668 6.71024H5.01392L4.38842 2.24721C5.7402 1.69706 7.18677 1.41781 8.64612 1.42498L8.64508 1.42162ZM10.1758 2.62799C10.1265 2.63042 10.0786 2.64476 10.0363 2.67007C9.99393 2.69538 9.95848 2.73083 9.93299 2.77308L8.37394 5.3402C8.35375 5.37298 8.34041 5.40952 8.33465 5.44759C8.32889 5.48566 8.33086 5.52441 8.34046 5.5617C8.35006 5.59899 8.36703 5.63414 8.39046 5.6647C8.41388 5.69526 8.44326 5.72062 8.47677 5.73957C8.5448 5.77936 8.62559 5.7912 8.70218 5.77261C8.77876 5.75402 8.84515 5.70647 8.88739 5.63992L10.4464 3.0728C10.4672 3.04055 10.4814 3.00454 10.488 2.96669C10.4946 2.92885 10.4935 2.89 10.4848 2.85259C10.476 2.81518 10.4599 2.77982 10.4372 2.74881C10.4145 2.7178 10.3858 2.69181 10.3528 2.67214C10.2996 2.64117 10.2383 2.62691 10.1768 2.63135L10.1758 2.62799ZM0.244136 3.38078C0.170859 3.39267 0.104867 3.43228 0.0597626 3.49127C0.014658 3.55026 -0.00613233 3.62419 0.00157324 3.69806L1.39225 17.8673C1.41453 18.1286 1.53271 18.3724 1.72403 18.5517C1.91535 18.7309 2.16623 18.8331 2.4283 18.8382H14.13C14.2994 18.8382 14.5304 18.8786 14.6165 18.6875C14.6403 18.6302 14.6476 18.5672 14.6377 18.506C14.6313 18.4351 14.5996 18.3689 14.5483 18.3196C14.4918 18.2761 14.4226 18.2525 14.3512 18.2525C14.1755 18.2424 13.9966 18.2499 13.8204 18.2499H9.81145C9.50863 18.2499 9.75062 18.2499 9.44754 18.2499H2.4283C2.31003 18.2499 2.19655 18.2032 2.11245 18.12C2.02835 18.0368 1.98043 17.9239 1.97911 17.8056L0.625657 3.95337H2.15671C2.19488 3.95393 2.23277 3.94708 2.26825 3.93298C2.30373 3.91888 2.33609 3.89789 2.36347 3.87128C2.39085 3.84467 2.41273 3.81289 2.42785 3.77783C2.44297 3.74276 2.45104 3.705 2.45159 3.66682C2.45215 3.62863 2.44517 3.59079 2.43108 3.55529C2.41698 3.5198 2.396 3.48743 2.3694 3.46003C2.34281 3.43264 2.31111 3.41062 2.27606 3.39549C2.241 3.38037 2.20333 3.3723 2.16516 3.37174H0.298842C0.280684 3.37407 0.262712 3.37787 0.245169 3.3831L0.244136 3.38078Z" fill="#FCFDFF"/>
<path d="M17.2801 3.70038L18.2758 3.79422L18.2764 3.78715L17.2801 3.70038ZM17.0106 3.3831L17.0855 2.38591L17.0481 2.3831H17.0106V3.3831ZM13.3411 3.38155L12.3513 3.23914L12.187 4.38155H13.3411V3.38155ZM13.5277 2.08483L14.5175 2.22724L14.5197 2.21172L14.5215 2.19614L13.5277 2.08483ZM13.3504 1.78536L12.9651 2.70819L12.9709 2.71058L13.3504 1.78536ZM3.93239 1.78536L4.31097 2.71096L4.31766 2.70817L3.93239 1.78536ZM3.75479 2.08483L2.76096 2.19578L2.76267 2.21111L2.76486 2.22637L3.75479 2.08483ZM4.46429 7.04688L3.47435 7.18842L3.47656 7.20388L3.47926 7.21926L4.46429 7.04688ZM4.75362 7.29161L4.74715 8.29161H4.75362V7.29161ZM12.5291 7.29161V8.29163L12.5356 8.29159L12.5291 7.29161ZM12.8185 7.04688L13.8035 7.21926L13.8062 7.2035L13.8085 7.18766L12.8185 7.04688ZM13.2571 3.96241V2.96241H12.3892L12.267 3.82162L13.2571 3.96241ZM16.6547 3.96241L17.6503 4.05637L17.7535 2.96241H16.6547V3.96241ZM15.3733 17.5394L14.3777 17.4455L14.3766 17.459L15.3733 17.5394ZM15.6431 17.8567L15.7482 16.8622L15.7358 16.8609L15.7234 16.8599L15.6431 17.8567ZM15.9705 17.5944L16.9639 17.7094L16.9651 17.6988L16.9661 17.6883L15.9705 17.5944ZM8.64508 1.42162L8.64107 0.421627L7.29304 0.427042L7.68925 1.71553L8.64508 1.42162ZM12.8919 2.24721L13.8823 2.38593L13.9902 1.61578L13.2703 1.32154L12.8919 2.24721ZM12.2668 6.71024V7.71024H13.1364L13.2571 6.84897L12.2668 6.71024ZM5.01392 6.71024L4.0236 6.84904L4.1443 7.71024H5.01392V6.71024ZM4.38842 2.24721L4.01146 1.32098L3.28999 1.61461L3.3981 2.386L4.38842 2.24721ZM8.64612 1.42498L8.64121 2.42496L10.0019 2.43164L9.60195 1.13106L8.64612 1.42498ZM10.1758 2.62799L11.1316 2.33408L10.9031 1.59088L10.1265 1.62921L10.1758 2.62799ZM9.93299 2.77308L10.7877 3.29216L10.7892 3.2897L9.93299 2.77308ZM8.37394 5.3402L9.22537 5.86471L9.22866 5.85928L8.37394 5.3402ZM8.47677 5.73957L8.98168 4.8764L8.97539 4.87272L8.96905 4.86913L8.47677 5.73957ZM8.88739 5.63992L9.7317 6.17576L9.737 6.16743L9.74212 6.15899L8.88739 5.63992ZM10.4464 3.0728L9.6068 2.52955L9.59905 2.54153L9.59164 2.55373L10.4464 3.0728ZM10.3528 2.67214L10.865 1.81319L10.8556 1.8077L10.3528 2.67214ZM10.1768 2.63135L9.22101 2.92526L9.45498 3.68612L10.2489 3.62875L10.1768 2.63135ZM0.244136 3.38078L1.15801 2.97479L0.845015 2.27024L0.0840162 2.39368L0.244136 3.38078ZM0.00157324 3.69806L0.99681 3.60038L0.996176 3.5943L0.00157324 3.69806ZM1.39225 17.8673L2.38871 17.7823L2.38747 17.7696L1.39225 17.8673ZM2.4283 18.8382L2.40875 19.838L2.41852 19.8382H2.4283V18.8382ZM14.6165 18.6875L15.5282 19.0984L15.5344 19.0846L15.5401 19.0707L14.6165 18.6875ZM14.6377 18.506L13.6416 18.595L13.6449 18.6309L13.6506 18.6665L14.6377 18.506ZM14.5483 18.3196L15.2416 17.599L15.2022 17.561L15.1588 17.5276L14.5483 18.3196ZM14.3512 18.2525L14.2942 19.2508L14.3228 19.2525L14.3514 19.2525L14.3512 18.2525ZM2.4283 18.2499V17.2499H2.42824L2.4283 18.2499ZM1.97911 17.8056L2.97905 17.7944L2.97856 17.7513L2.97437 17.7084L1.97911 17.8056ZM0.625657 3.95337V2.95337H-0.476811L-0.369603 4.05062L0.625657 3.95337ZM2.15671 3.95337L2.17126 2.95348L2.16398 2.95337H2.15671V3.95337ZM2.16516 3.37174L2.17971 2.37185L2.17244 2.37174H2.16516V3.37174ZM0.298842 3.37174V2.37174H0.234932L0.171542 2.37988L0.298842 3.37174ZM0.245169 3.3831L-0.668708 3.78909L-0.311643 4.59284L0.531122 4.34135L0.245169 3.3831ZM15.3957 17.3024L14.4001 17.2084L15.3957 17.3024ZM15.9909 17.3781L16.9865 17.472L15.9909 17.3781ZM18.2764 3.78715C18.2912 3.61723 18.2723 3.44557 18.2202 3.28223L16.3147 3.8898C16.2861 3.80025 16.2758 3.70637 16.2839 3.6136L18.2764 3.78715ZM18.2202 3.28223C18.1678 3.11789 18.0835 2.96732 17.9737 2.83811L16.4496 4.13308C16.3899 4.06288 16.3436 3.98035 16.3147 3.8898L18.2202 3.28223ZM17.9737 2.83811C17.8648 2.70993 17.7299 2.60174 17.5749 2.52286L16.6678 4.3053C16.5818 4.26154 16.5083 4.20224 16.4496 4.13308L17.9737 2.83811ZM17.5749 2.52286C17.4222 2.44513 17.2558 2.39869 17.0855 2.38591L16.9358 4.3803C16.8426 4.37331 16.7515 4.34791 16.6678 4.3053L17.5749 2.52286ZM17.0106 2.3831C17.034 2.3831 17.0524 2.38402 17.0625 2.38462C17.0677 2.38493 17.0717 2.38521 17.0736 2.38535C17.0752 2.38547 17.0764 2.38557 17.0748 2.38544C17.074 2.38538 17.0703 2.38509 17.0662 2.38478C17.0619 2.38446 17.0555 2.38401 17.0479 2.38355C17.0329 2.38266 17.0096 2.38155 16.9813 2.38155V4.38155C16.9579 4.38155 16.9394 4.38064 16.9293 4.38004C16.9241 4.37973 16.9202 4.37944 16.9183 4.3793C16.9166 4.37918 16.9154 4.37908 16.9171 4.37921C16.9179 4.37928 16.9215 4.37957 16.9256 4.37987C16.93 4.38019 16.9364 4.38065 16.944 4.3811C16.959 4.38199 16.9823 4.3831 17.0106 4.3831V2.3831ZM16.9813 2.38155H13.3411V4.38155H16.9813V2.38155ZM14.3309 3.52396L14.5175 2.22724L12.5379 1.94242L12.3513 3.23914L14.3309 3.52396ZM14.5215 2.19614C14.5527 1.91748 14.4921 1.63646 14.3495 1.39566L12.6288 2.41515C12.5501 2.28236 12.5167 2.12741 12.5339 1.97351L14.5215 2.19614ZM14.3495 1.39566C14.2073 1.15568 13.9903 0.966967 13.7298 0.860152L12.9709 2.71058C12.8266 2.65138 12.707 2.54714 12.6288 2.41515L14.3495 1.39566ZM13.7356 0.86256C12.1217 0.188745 10.3902 -0.158203 8.64134 -0.158203V1.8418C10.1257 1.8418 11.5953 2.13626 12.9651 2.70817L13.7356 0.86256ZM8.64134 -0.158203C6.89248 -0.158203 5.16105 0.188747 3.54712 0.86256L4.31766 2.70817C5.6875 2.13626 7.15703 1.8418 8.64134 1.8418V-0.158203ZM3.55381 0.859794C3.29293 0.966499 3.07573 1.1553 2.93344 1.3951L4.65342 2.41571C4.57522 2.54751 4.45563 2.65176 4.31096 2.71093L3.55381 0.859794ZM2.93344 1.3951C2.79038 1.6362 2.72987 1.91731 2.76096 2.19578L4.74861 1.97387C4.76577 2.12751 4.7324 2.28262 4.65342 2.41571L2.93344 1.3951ZM2.76486 2.22637L3.47435 7.18842L5.45422 6.90533L4.74472 1.94328L2.76486 2.22637ZM3.47926 7.21926C3.53162 7.51846 3.68732 7.78932 3.91871 7.98508L5.21049 6.45822C5.33613 6.56452 5.42084 6.71178 5.44932 6.8745L3.47926 7.21926ZM3.91871 7.98508C4.15019 8.18092 4.44331 8.28963 4.74715 8.29159L4.76009 6.29163C4.92544 6.2927 5.08476 6.35185 5.21049 6.45822L3.91871 7.98508ZM4.75362 8.29161H12.5291V6.29161H4.75362V8.29161ZM12.5356 8.29159C12.8394 8.28963 13.1326 8.18092 13.364 7.98508L12.0723 6.45822C12.198 6.35185 12.3573 6.2927 12.5227 6.29163L12.5356 8.29159ZM13.364 7.98508C13.5954 7.78932 13.7511 7.51846 13.8035 7.21926L11.8334 6.8745C11.8619 6.71177 11.9466 6.56451 12.0723 6.45822L13.364 7.98508ZM13.8085 7.18766L14.2471 4.10319L12.267 3.82162L11.8284 6.90609L13.8085 7.18766ZM13.2571 4.96241H16.6547V2.96241H13.2571V4.96241ZM14.3766 17.459C14.3629 17.6282 14.3827 17.7988 14.4349 17.9608L16.3383 17.3467C16.3668 17.4351 16.3775 17.5278 16.3701 17.6198L14.3766 17.459ZM14.4349 17.9608C14.4876 18.1242 14.5718 18.2736 14.6808 18.4018L16.2043 17.1061C16.2632 17.1754 16.3093 17.257 16.3383 17.3467L14.4349 17.9608ZM14.6808 18.4018C14.789 18.5291 14.9229 18.6367 15.0768 18.7156L15.9884 16.9354C16.0735 16.9789 16.1462 17.0377 16.2043 17.1061L14.6808 18.4018ZM15.0768 18.7156C15.2306 18.7943 15.396 18.84 15.5628 18.8535L15.7234 16.8599C15.8131 16.8672 15.9035 16.8919 15.9884 16.9354L15.0768 18.7156ZM15.538 18.8512C15.8783 18.8871 16.2189 18.7873 16.4859 18.5734L15.2355 17.0124C15.3799 16.8968 15.5642 16.8428 15.7482 16.8622L15.538 18.8512ZM16.4859 18.5734C16.753 18.3595 16.9246 18.0488 16.9639 17.7094L14.9771 17.4794C14.9984 17.2961 15.091 17.1282 15.2355 17.0124L16.4859 18.5734ZM8.6491 2.42161C9.974 2.41629 11.2871 2.67155 12.5136 3.17287L13.2703 1.32154C11.8011 0.721034 10.2282 0.415253 8.64107 0.421627L8.6491 2.42161ZM11.9016 2.10848L11.2764 6.57152L13.2571 6.84897L13.8823 2.38593L11.9016 2.10848ZM12.2668 5.71024H5.01392V7.71024H12.2668V5.71024ZM6.00425 6.57144L5.37874 2.10841L3.3981 2.386L4.0236 6.84904L6.00425 6.57144ZM4.76538 3.17344C5.99586 2.67265 7.31269 2.41844 8.64121 2.42496L8.65102 0.424987C7.06086 0.417183 5.48455 0.721458 4.01146 1.32098L4.76538 3.17344ZM9.60195 1.13106L9.60091 1.1277L7.68925 1.71553L7.69028 1.71889L9.60195 1.13106ZM10.1265 1.62921C9.91579 1.63961 9.70828 1.70111 9.52326 1.81169L10.5493 3.52845C10.449 3.58842 10.3373 3.62124 10.2251 3.62678L10.1265 1.62921ZM9.52326 1.81169C9.33892 1.92186 9.18614 2.07521 9.07678 2.25646L10.7892 3.2897C10.7308 3.38645 10.6489 3.4689 10.5493 3.52845L9.52326 1.81169ZM9.07827 2.25399L7.51922 4.82111L9.22866 5.85928L10.7877 3.29216L9.07827 2.25399ZM7.52253 4.81569C7.43137 4.96367 7.37164 5.12785 7.3459 5.29804L9.32341 5.59714C9.30918 5.69118 9.27612 5.78229 9.22535 5.8647L7.52253 4.81569ZM7.3459 5.29804C7.32005 5.46897 7.32889 5.64333 7.37201 5.81091L9.30891 5.31248C9.33284 5.40548 9.33774 5.50236 9.32341 5.59714L7.3459 5.29804ZM7.37201 5.81091C7.41461 5.97644 7.49029 6.1341 7.59675 6.273L9.18416 5.0564C9.24378 5.13419 9.2855 5.22153 9.30891 5.31248L7.37201 5.81091ZM7.59675 6.273C7.70362 6.41245 7.83626 6.52617 7.98449 6.61L8.96905 4.86913C9.05027 4.91506 9.12413 4.97807 9.18416 5.0564L7.59675 6.273ZM7.97186 6.60274C8.26349 6.77333 8.60984 6.82405 8.93803 6.7444L8.46632 4.80082C8.64134 4.75834 8.82611 4.78539 8.98168 4.8764L7.97186 6.60274ZM8.93803 6.7444C9.26614 6.66477 9.55068 6.461 9.7317 6.17576L8.04307 5.10407C8.13962 4.95195 8.29138 4.84328 8.46632 4.80082L8.93803 6.7444ZM9.74212 6.15899L11.3011 3.59187L9.59164 2.55373L8.03266 5.12085L9.74212 6.15899ZM11.2859 3.61604C11.3794 3.47156 11.4434 3.30927 11.4731 3.13832L9.50282 2.79507C9.51941 2.69982 9.55505 2.60953 9.6068 2.52955L11.2859 3.61604ZM11.4731 3.13832C11.5027 2.96839 11.4979 2.79386 11.4586 2.62529L9.51093 3.07989C9.48905 2.98614 9.4864 2.88931 9.50282 2.79507L11.4731 3.13832ZM11.4586 2.62529C11.4196 2.45823 11.3473 2.29927 11.2446 2.15874L9.62986 3.33888C9.57248 3.26037 9.53246 3.17213 9.51093 3.07989L11.4586 2.62529ZM11.2446 2.15874C11.1413 2.01738 11.0115 1.90061 10.865 1.81324L9.84068 3.53103C9.76013 3.483 9.68784 3.41821 9.62986 3.33888L11.2446 2.15874ZM10.8556 1.8077C10.6292 1.67606 10.3677 1.61495 10.1048 1.63395L10.2489 3.62875C10.1088 3.63887 9.96995 3.60628 9.85008 3.53657L10.8556 1.8077ZM11.1327 2.33743L11.1316 2.33408L9.21998 2.92191L9.22101 2.92526L11.1327 2.33743ZM0.0840162 2.39368C-0.242411 2.44663 -0.534956 2.62274 -0.734609 2.88384L0.854135 4.0987C0.744691 4.24183 0.584129 4.3387 0.404257 4.36788L0.0840162 2.39368ZM-0.734609 2.88384C-0.934954 3.14584 -1.0272 3.47427 -0.99303 3.80181L0.996176 3.5943C1.01493 3.77411 0.96427 3.95467 0.854135 4.0987L-0.734609 2.88384ZM-0.993645 3.79573L0.39703 17.965L2.38747 17.7696L0.996791 3.60038L-0.993645 3.79573ZM0.395865 17.9523C0.439125 18.4595 0.668556 18.9331 1.04032 19.2814L2.40774 17.8219C2.39686 17.8117 2.38994 17.7976 2.38863 17.7823L0.395865 17.9523ZM1.04032 19.2814C1.4117 19.6294 1.89907 19.8281 2.40875 19.838L2.44786 17.8384C2.4334 17.8381 2.419 17.8325 2.40774 17.8219L1.04032 19.2814ZM2.4283 19.8382H14.13V17.8382H2.4283V19.8382ZM14.13 19.8382C14.1789 19.8382 14.1319 19.8394 14.2483 19.8414C14.3131 19.8425 14.4274 19.8428 14.5566 19.8229C14.6875 19.8027 14.8742 19.7562 15.0636 19.6361C15.2657 19.5079 15.4267 19.3235 15.5282 19.0984L13.7048 18.2766C13.7632 18.147 13.863 18.0292 13.9924 17.9472C14.1089 17.8733 14.2111 17.8525 14.2524 17.8462C14.2919 17.8401 14.3113 17.8422 14.2824 17.8417C14.2687 17.8415 14.2559 17.841 14.2282 17.8401C14.2052 17.8394 14.1689 17.8382 14.13 17.8382V19.8382ZM15.5401 19.0707C15.6352 18.8416 15.6645 18.5904 15.6247 18.3455L13.6506 18.6665C13.6307 18.5441 13.6454 18.4187 13.6929 18.3042L15.5401 19.0707ZM15.6337 18.417C15.6059 18.1058 15.4665 17.8153 15.2416 17.599L13.855 19.0402C13.7326 18.9225 13.6568 18.7645 13.6416 18.595L15.6337 18.417ZM15.1588 17.5276C14.9273 17.3491 14.6433 17.2524 14.3511 17.2525L14.3514 19.2525C14.2018 19.2525 14.0564 19.203 13.9378 19.1116L15.1588 17.5276ZM14.4083 17.2541C14.1957 17.242 13.9391 17.2499 13.8204 17.2499V19.2499C14.0542 19.2499 14.1554 19.2429 14.2942 19.2508L14.4083 17.2541ZM9.81145 17.2499C9.81086 17.2499 9.81027 17.2499 9.80968 17.2499C9.8091 17.2499 9.80851 17.2499 9.80793 17.2499C9.80734 17.2499 9.80676 17.2499 9.80618 17.2499C9.8056 17.2499 9.80503 17.2499 9.80445 17.2499C9.80388 17.2499 9.80331 17.2499 9.80273 17.2499C9.80216 17.2499 9.80159 17.2499 9.80103 17.2499C9.80046 17.2499 9.7999 17.2499 9.79933 17.2499C9.79877 17.2499 9.79821 17.2499 9.79765 17.2499C9.79709 17.2499 9.79654 17.2499 9.79598 17.2499C9.79543 17.2499 9.79487 17.2499 9.79432 17.2499C9.79377 17.2499 9.79322 17.2499 9.79268 17.2499C9.79213 17.2499 9.79159 17.2499 9.79104 17.2499C9.7905 17.2499 9.78996 17.2499 9.78942 17.2499C9.78888 17.2499 9.78835 17.2499 9.78781 17.2499C9.78728 17.2499 9.78674 17.2499 9.78621 17.2499C9.78568 17.2499 9.78515 17.2499 9.78463 17.2499C9.7841 17.2499 9.78357 17.2499 9.78305 17.2499C9.78253 17.2499 9.78201 17.2499 9.78149 17.2499C9.78097 17.2499 9.78045 17.2499 9.77993 17.2499C9.77942 17.2499 9.7789 17.2499 9.77839 17.2499C9.77788 17.2499 9.77737 17.2499 9.77687 17.2499C9.77636 17.2499 9.77585 17.2499 9.77535 17.2499C9.77484 17.2499 9.77434 17.2499 9.77384 17.2499C9.77334 17.2499 9.77284 17.2499 9.77235 17.2499C9.77185 17.2499 9.77136 17.2499 9.77086 17.2499C9.77037 17.2499 9.76988 17.2499 9.76939 17.2499C9.7689 17.2499 9.76841 17.2499 9.76793 17.2499C9.76744 17.2499 9.76696 17.2499 9.76648 17.2499C9.766 17.2499 9.76552 17.2499 9.76504 17.2499C9.76456 17.2499 9.76409 17.2499 9.76361 17.2499C9.76314 17.2499 9.76267 17.2499 9.7622 17.2499C9.76173 17.2499 9.76126 17.2499 9.76079 17.2499C9.76032 17.2499 9.75986 17.2499 9.7594 17.2499C9.75893 17.2499 9.75847 17.2499 9.75801 17.2499C9.75755 17.2499 9.7571 17.2499 9.75664 17.2499C9.75618 17.2499 9.75573 17.2499 9.75528 17.2499C9.75482 17.2499 9.75437 17.2499 9.75393 17.2499C9.75348 17.2499 9.75303 17.2499 9.75258 17.2499C9.75214 17.2499 9.7517 17.2499 9.75125 17.2499C9.75081 17.2499 9.75037 17.2499 9.74993 17.2499C9.7495 17.2499 9.74906 17.2499 9.74862 17.2499C9.74819 17.2499 9.74776 17.2499 9.74733 17.2499C9.74689 17.2499 9.74647 17.2499 9.74604 17.2499C9.74561 17.2499 9.74518 17.2499 9.74476 17.2499C9.74434 17.2499 9.74391 17.2499 9.74349 17.2499C9.74307 17.2499 9.74265 17.2499 9.74224 17.2499C9.74182 17.2499 9.7414 17.2499 9.74099 17.2499C9.74057 17.2499 9.74016 17.2499 9.73975 17.2499C9.73934 17.2499 9.73893 17.2499 9.73852 17.2499C9.73812 17.2499 9.73771 17.2499 9.73731 17.2499C9.7369 17.2499 9.7365 17.2499 9.7361 17.2499C9.7357 17.2499 9.7353 17.2499 9.7349 17.2499C9.73451 17.2499 9.73411 17.2499 9.73372 17.2499C9.73332 17.2499 9.73293 17.2499 9.73254 17.2499C9.73215 17.2499 9.73176 17.2499 9.73137 17.2499C9.73099 17.2499 9.7306 17.2499 9.73022 17.2499C9.72983 17.2499 9.72945 17.2499 9.72907 17.2499C9.72869 17.2499 9.72831 17.2499 9.72793 17.2499C9.72755 17.2499 9.72718 17.2499 9.7268 17.2499C9.72643 17.2499 9.72605 17.2499 9.72568 17.2499C9.72531 17.2499 9.72494 17.2499 9.72457 17.2499C9.72421 17.2499 9.72384 17.2499 9.72347 17.2499C9.72311 17.2499 9.72275 17.2499 9.72238 17.2499C9.72202 17.2499 9.72166 17.2499 9.7213 17.2499C9.72095 17.2499 9.72059 17.2499 9.72023 17.2499C9.71988 17.2499 9.71952 17.2499 9.71917 17.2499C9.71882 17.2499 9.71847 17.2499 9.71812 17.2499C9.71777 17.2499 9.71742 17.2499 9.71707 17.2499C9.71673 17.2499 9.71638 17.2499 9.71604 17.2499C9.7157 17.2499 9.71535 17.2499 9.71501 17.2499C9.71467 17.2499 9.71433 17.2499 9.714 17.2499C9.71366 17.2499 9.71332 17.2499 9.71299 17.2499C9.71266 17.2499 9.71232 17.2499 9.71199 17.2499C9.71166 17.2499 9.71133 17.2499 9.711 17.2499C9.71067 17.2499 9.71035 17.2499 9.71002 17.2499C9.7097 17.2499 9.70937 17.2499 9.70905 17.2499C9.70873 17.2499 9.70841 17.2499 9.70809 17.2499C9.70777 17.2499 9.70745 17.2499 9.70713 17.2499C9.70682 17.2499 9.7065 17.2499 9.70619 17.2499C9.70587 17.2499 9.70556 17.2499 9.70525 17.2499C9.70494 17.2499 9.70463 17.2499 9.70432 17.2499C9.70401 17.2499 9.70371 17.2499 9.7034 17.2499C9.7031 17.2499 9.70279 17.2499 9.70249 17.2499C9.70219 17.2499 9.70189 17.2499 9.70159 17.2499C9.70129 17.2499 9.70099 17.2499 9.70069 17.2499C9.7004 17.2499 9.7001 17.2499 9.69981 17.2499C9.69951 17.2499 9.69922 17.2499 9.69893 17.2499C9.69864 17.2499 9.69835 17.2499 9.69806 17.2499C9.69777 17.2499 9.69748 17.2499 9.6972 17.2499C9.69691 17.2499 9.69663 17.2499 9.69634 17.2499C9.69606 17.2499 9.69578 17.2499 9.6955 17.2499C9.69522 17.2499 9.69494 17.2499 9.69466 17.2499C9.69438 17.2499 9.69411 17.2499 9.69383 17.2499C9.69356 17.2499 9.69328 17.2499 9.69301 17.2499C9.69274 17.2499 9.69247 17.2499 9.6922 17.2499C9.69193 17.2499 9.69166 17.2499 9.69139 17.2499C9.69112 17.2499 9.69086 17.2499 9.69059 17.2499C9.69033 17.2499 9.69007 17.2499 9.6898 17.2499C9.68954 17.2499 9.68928 17.2499 9.68902 17.2499C9.68876 17.2499 9.6885 17.2499 9.68825 17.2499C9.68799 17.2499 9.68773 17.2499 9.68748 17.2499C9.68723 17.2499 9.68697 17.2499 9.68672 17.2499C9.68647 17.2499 9.68622 17.2499 9.68597 17.2499C9.68572 17.2499 9.68547 17.2499 9.68522 17.2499C9.68498 17.2499 9.68473 17.2499 9.68449 17.2499C9.68424 17.2499 9.684 17.2499 9.68376 17.2499C9.68351 17.2499 9.68327 17.2499 9.68303 17.2499C9.68279 17.2499 9.68256 17.2499 9.68232 17.2499C9.68208 17.2499 9.68184 17.2499 9.68161 17.2499C9.68138 17.2499 9.68114 17.2499 9.68091 17.2499C9.68068 17.2499 9.68044 17.2499 9.68021 17.2499C9.67999 17.2499 9.67976 17.2499 9.67953 17.2499C9.6793 17.2499 9.67907 17.2499 9.67885 17.2499C9.67862 17.2499 9.6784 17.2499 9.67818 17.2499C9.67795 17.2499 9.67773 17.2499 9.67751 17.2499C9.67729 17.2499 9.67707 17.2499 9.67685 17.2499C9.67663 17.2499 9.67641 17.2499 9.6762 17.2499C9.67598 17.2499 9.67577 17.2499 9.67555 17.2499C9.67534 17.2499 9.67513 17.2499 9.67491 17.2499C9.6747 17.2499 9.67449 17.2499 9.67428 17.2499C9.67407 17.2499 9.67386 17.2499 9.67366 17.2499C9.67345 17.2499 9.67324 17.2499 9.67304 17.2499C9.67283 17.2499 9.67263 17.2499 9.67243 17.2499C9.67222 17.2499 9.67202 17.2499 9.67182 17.2499C9.67162 17.2499 9.67142 17.2499 9.67122 17.2499C9.67102 17.2499 9.67082 17.2499 9.67063 17.2499C9.67043 17.2499 9.67023 17.2499 9.67004 17.2499C9.66985 17.2499 9.66965 17.2499 9.66946 17.2499C9.66927 17.2499 9.66908 17.2499 9.66889 17.2499C9.6687 17.2499 9.66851 17.2499 9.66832 17.2499C9.66813 17.2499 9.66794 17.2499 9.66776 17.2499C9.66757 17.2499 9.66738 17.2499 9.6672 17.2499C9.66702 17.2499 9.66683 17.2499 9.66665 17.2499C9.66647 17.2499 9.66629 17.2499 9.66611 17.2499C9.66593 17.2499 9.66575 17.2499 9.66557 17.2499C9.66539 17.2499 9.66521 17.2499 9.66504 17.2499C9.66486 17.2499 9.66468 17.2499 9.66451 17.2499C9.66434 17.2499 9.66416 17.2499 9.66399 17.2499C9.66382 17.2499 9.66365 17.2499 9.66348 17.2499C9.66331 17.2499 9.66314 17.2499 9.66297 17.2499C9.6628 17.2499 9.66263 17.2499 9.66246 17.2499C9.6623 17.2499 9.66213 17.2499 9.66197 17.2499C9.6618 17.2499 9.66164 17.2499 9.66147 17.2499C9.66131 17.2499 9.66115 17.2499 9.66099 17.2499C9.66083 17.2499 9.66067 17.2499 9.66051 17.2499C9.66035 17.2499 9.66019 17.2499 9.66003 17.2499C9.65987 17.2499 9.65972 17.2499 9.65956 17.2499C9.6594 17.2499 9.65925 17.2499 9.65909 17.2499C9.65894 17.2499 9.65879 17.2499 9.65864 17.2499C9.65848 17.2499 9.65833 17.2499 9.65818 17.2499C9.65803 17.2499 9.65788 17.2499 9.65773 17.2499C9.65758 17.2499 9.65743 17.2499 9.65729 17.2499C9.65714 17.2499 9.65699 17.2499 9.65685 17.2499C9.6567 17.2499 9.65656 17.2499 9.65641 17.2499C9.65627 17.2499 9.65613 17.2499 9.65598 17.2499C9.65584 17.2499 9.6557 17.2499 9.65556 17.2499C9.65542 17.2499 9.65528 17.2499 9.65514 17.2499C9.655 17.2499 9.65486 17.2499 9.65473 17.2499C9.65459 17.2499 9.65445 17.2499 9.65432 17.2499C9.65418 17.2499 9.65405 17.2499 9.65391 17.2499C9.65378 17.2499 9.65364 17.2499 9.65351 17.2499C9.65338 17.2499 9.65324 17.2499 9.65311 17.2499C9.65298 17.2499 9.65285 17.2499 9.65272 17.2499C9.65259 17.2499 9.65246 17.2499 9.65234 17.2499C9.65221 17.2499 9.65208 17.2499 9.65195 17.2499C9.65183 17.2499 9.6517 17.2499 9.65158 17.2499C9.65145 17.2499 9.65133 17.2499 9.6512 17.2499C9.65108 17.2499 9.65096 17.2499 9.65083 17.2499C9.65071 17.2499 9.65059 17.2499 9.65047 17.2499C9.65035 17.2499 9.65023 17.2499 9.65011 17.2499C9.64999 17.2499 9.64987 17.2499 9.64975 17.2499C9.64963 17.2499 9.64952 17.2499 9.6494 17.2499C9.64928 17.2499 9.64917 17.2499 9.64905 17.2499C9.64894 17.2499 9.64882 17.2499 9.64871 17.2499C9.64859 17.2499 9.64848 17.2499 9.64837 17.2499C9.64825 17.2499 9.64814 17.2499 9.64803 17.2499C9.64792 17.2499 9.64781 17.2499 9.6477 17.2499C9.64759 17.2499 9.64748 17.2499 9.64737 17.2499C9.64726 17.2499 9.64715 17.2499 9.64705 17.2499C9.64694 17.2499 9.64683 17.2499 9.64672 17.2499C9.64662 17.2499 9.64651 17.2499 9.64641 17.2499C9.6463 17.2499 9.6462 17.2499 9.64609 17.2499C9.64599 17.2499 9.64589 17.2499 9.64578 17.2499C9.64568 17.2499 9.64558 17.2499 9.64548 17.2499C9.64538 17.2499 9.64527 17.2499 9.64517 17.2499C9.64507 17.2499 9.64497 17.2499 9.64487 17.2499C9.64478 17.2499 9.64468 17.2499 9.64458 17.2499C9.64448 17.2499 9.64438 17.2499 9.64429 17.2499C9.64419 17.2499 9.64409 17.2499 9.644 17.2499C9.6439 17.2499 9.64381 17.2499 9.64371 17.2499C9.64362 17.2499 9.64352 17.2499 9.64343 17.2499C9.64333 17.2499 9.64324 17.2499 9.64315 17.2499C9.64305 17.2499 9.64296 17.2499 9.64287 17.2499C9.64278 17.2499 9.64269 17.2499 9.6426 17.2499C9.64251 17.2499 9.64242 17.2499 9.64233 17.2499C9.64224 17.2499 9.64215 17.2499 9.64206 17.2499C9.64197 17.2499 9.64188 17.2499 9.6418 17.2499C9.64171 17.2499 9.64162 17.2499 9.64153 17.2499C9.64145 17.2499 9.64136 17.2499 9.64127 17.2499C9.64119 17.2499 9.6411 17.2499 9.64102 17.2499C9.64093 17.2499 9.64085 17.2499 9.64076 17.2499C9.64068 17.2499 9.6406 17.2499 9.64051 17.2499C9.64043 17.2499 9.64035 17.2499 9.64027 17.2499C9.64018 17.2499 9.6401 17.2499 9.64002 17.2499C9.63994 17.2499 9.63986 17.2499 9.63978 17.2499C9.6397 17.2499 9.63962 17.2499 9.63954 17.2499C9.63946 17.2499 9.63938 17.2499 9.6393 17.2499C9.63922 17.2499 9.63914 17.2499 9.63906 17.2499C9.63898 17.2499 9.63891 17.2499 9.63883 17.2499C9.63875 17.2499 9.63867 17.2499 9.6386 17.2499C9.63852 17.2499 9.63844 17.2499 9.63837 17.2499C9.63829 17.2499 9.63822 17.2499 9.63814 17.2499C9.63807 17.2499 9.63799 17.2499 9.63792 17.2499C9.63784 17.2499 9.63777 17.2499 9.6377 17.2499C9.63762 17.2499 9.63755 17.2499 9.63748 17.2499C9.6374 17.2499 9.63733 17.2499 9.63726 17.2499C9.63718 17.2499 9.63711 17.2499 9.63704 17.2499C9.63697 17.2499 9.6369 17.2499 9.63683 17.2499C9.63675 17.2499 9.63668 17.2499 9.63661 17.2499C9.63654 17.2499 9.63647 17.2499 9.6364 17.2499C9.63633 17.2499 9.63626 17.2499 9.63619 17.2499C9.63612 17.2499 9.63605 17.2499 9.63598 17.2499C9.63592 17.2499 9.63585 17.2499 9.63578 17.2499C9.63571 17.2499 9.63564 17.2499 9.63558 17.2499C9.63551 17.2499 9.63544 17.2499 9.63537 17.2499C9.6353 17.2499 9.63524 17.2499 9.63517 17.2499C9.6351 17.2499 9.63504 17.2499 9.63497 17.2499C9.6349 17.2499 9.63484 17.2499 9.63477 17.2499C9.63471 17.2499 9.63464 17.2499 9.63458 17.2499C9.63451 17.2499 9.63445 17.2499 9.63438 17.2499C9.63432 17.2499 9.63425 17.2499 9.63419 17.2499C9.63412 17.2499 9.63406 17.2499 9.63399 17.2499C9.63393 17.2499 9.63386 17.2499 9.6338 17.2499C9.63374 17.2499 9.63367 17.2499 9.63361 17.2499C9.63355 17.2499 9.63348 17.2499 9.63342 17.2499C9.63336 17.2499 9.63329 17.2499 9.63323 17.2499C9.63317 17.2499 9.63311 17.2499 9.63304 17.2499C9.63298 17.2499 9.63292 17.2499 9.63286 17.2499C9.63279 17.2499 9.63273 17.2499 9.63267 17.2499C9.63261 17.2499 9.63255 17.2499 9.63249 17.2499C9.63242 17.2499 9.63236 17.2499 9.6323 17.2499C9.63224 17.2499 9.63218 17.2499 9.63212 17.2499C9.63206 17.2499 9.632 17.2499 9.63193 17.2499C9.63187 17.2499 9.63181 17.2499 9.63175 17.2499C9.63169 17.2499 9.63163 17.2499 9.63157 17.2499C9.63151 17.2499 9.63145 17.2499 9.63139 17.2499C9.63133 17.2499 9.63127 17.2499 9.63121 17.2499C9.63115 17.2499 9.63109 17.2499 9.63103 17.2499C9.63097 17.2499 9.63091 17.2499 9.63085 17.2499C9.63079 17.2499 9.63073 17.2499 9.63067 17.2499C9.63061 17.2499 9.63055 17.2499 9.63049 17.2499C9.63043 17.2499 9.63037 17.2499 9.63031 17.2499C9.63025 17.2499 9.63019 17.2499 9.63013 17.2499C9.63007 17.2499 9.63001 17.2499 9.62995 17.2499C9.62989 17.2499 9.62983 17.2499 9.62977 17.2499C9.62971 17.2499 9.62965 17.2499 9.6296 17.2499C9.62954 17.2499 9.62948 17.2499 9.62942 17.2499C9.62936 17.2499 9.6293 17.2499 9.62924 17.2499C9.62918 17.2499 9.62912 17.2499 9.62906 17.2499C9.629 17.2499 9.62894 17.2499 9.62888 17.2499C9.62882 17.2499 9.62876 17.2499 9.6287 17.2499C9.62864 17.2499 9.62858 17.2499 9.62852 17.2499C9.62846 17.2499 9.6284 17.2499 9.62834 17.2499C9.62828 17.2499 9.62822 17.2499 9.62816 17.2499C9.6281 17.2499 9.62804 17.2499 9.62798 17.2499C9.62792 17.2499 9.62786 17.2499 9.6278 17.2499C9.62774 17.2499 9.62768 17.2499 9.62762 17.2499C9.62756 17.2499 9.6275 17.2499 9.62744 17.2499C9.62738 17.2499 9.62732 17.2499 9.62726 17.2499C9.62719 17.2499 9.62713 17.2499 9.62707 17.2499C9.62701 17.2499 9.62695 17.2499 9.62689 17.2499C9.62683 17.2499 9.62677 17.2499 9.6267 17.2499C9.62664 17.2499 9.62658 17.2499 9.62652 17.2499C9.62646 17.2499 9.6264 17.2499 9.62633 17.2499C9.62627 17.2499 9.62621 17.2499 9.62615 17.2499C9.62608 17.2499 9.62602 17.2499 9.62596 17.2499C9.6259 17.2499 9.62583 17.2499 9.62577 17.2499C9.62571 17.2499 9.62564 17.2499 9.62558 17.2499C9.62552 17.2499 9.62545 17.2499 9.62539 17.2499C9.62532 17.2499 9.62526 17.2499 9.6252 17.2499C9.62513 17.2499 9.62507 17.2499 9.625 17.2499C9.62494 17.2499 9.62487 17.2499 9.62481 17.2499C9.62474 17.2499 9.62468 17.2499 9.62461 17.2499C9.62455 17.2499 9.62448 17.2499 9.62442 17.2499C9.62435 17.2499 9.62428 17.2499 9.62422 17.2499C9.62415 17.2499 9.62408 17.2499 9.62402 17.2499C9.62395 17.2499 9.62388 17.2499 9.62382 17.2499C9.62375 17.2499 9.62368 17.2499 9.62361 17.2499C9.62354 17.2499 9.62348 17.2499 9.62341 17.2499C9.62334 17.2499 9.62327 17.2499 9.6232 17.2499C9.62313 17.2499 9.62306 17.2499 9.62299 17.2499C9.62292 17.2499 9.62286 17.2499 9.62279 17.2499C9.62271 17.2499 9.62264 17.2499 9.62257 17.2499C9.6225 17.2499 9.62243 17.2499 9.62236 17.2499C9.62229 17.2499 9.62222 17.2499 9.62215 17.2499C9.62207 17.2499 9.622 17.2499 9.62193 17.2499C9.62186 17.2499 9.62178 17.2499 9.62171 17.2499C9.62164 17.2499 9.62156 17.2499 9.62149 17.2499C9.62142 17.2499 9.62134 17.2499 9.62127 17.2499C9.62119 17.2499 9.62112 17.2499 9.62104 17.2499C9.62097 17.2499 9.62089 17.2499 9.62082 17.2499C9.62074 17.2499 9.62066 17.2499 9.62059 17.2499C9.62051 17.2499 9.62043 17.2499 9.62035 17.2499C9.62028 17.2499 9.6202 17.2499 9.62012 17.2499C9.62004 17.2499 9.61996 17.2499 9.61989 17.2499C9.61981 17.2499 9.61973 17.2499 9.61965 17.2499C9.61957 17.2499 9.61949 17.2499 9.61941 17.2499C9.61933 17.2499 9.61924 17.2499 9.61916 17.2499C9.61908 17.2499 9.619 17.2499 9.61892 17.2499C9.61883 17.2499 9.61875 17.2499 9.61867 17.2499C9.61858 17.2499 9.6185 17.2499 9.61842 17.2499C9.61833 17.2499 9.61825 17.2499 9.61816 17.2499C9.61808 17.2499 9.61799 17.2499 9.61791 17.2499C9.61782 17.2499 9.61773 17.2499 9.61765 17.2499C9.61756 17.2499 9.61747 17.2499 9.61738 17.2499C9.6173 17.2499 9.61721 17.2499 9.61712 17.2499C9.61703 17.2499 9.61694 17.2499 9.61685 17.2499C9.61676 17.2499 9.61667 17.2499 9.61658 17.2499C9.61649 17.2499 9.6164 17.2499 9.61631 17.2499C9.61622 17.2499 9.61612 17.2499 9.61603 17.2499C9.61594 17.2499 9.61584 17.2499 9.61575 17.2499C9.61566 17.2499 9.61556 17.2499 9.61547 17.2499C9.61537 17.2499 9.61528 17.2499 9.61518 17.2499C9.61508 17.2499 9.61499 17.2499 9.61489 17.2499C9.61479 17.2499 9.6147 17.2499 9.6146 17.2499C9.6145 17.2499 9.6144 17.2499 9.6143 17.2499C9.6142 17.2499 9.6141 17.2499 9.614 17.2499C9.6139 17.2499 9.6138 17.2499 9.6137 17.2499C9.6136 17.2499 9.61349 17.2499 9.61339 17.2499C9.61329 17.2499 9.61318 17.2499 9.61308 17.2499C9.61298 17.2499 9.61287 17.2499 9.61277 17.2499C9.61266 17.2499 9.61256 17.2499 9.61245 17.2499C9.61234 17.2499 9.61224 17.2499 9.61213 17.2499C9.61202 17.2499 9.61191 17.2499 9.6118 17.2499C9.61169 17.2499 9.61158 17.2499 9.61147 17.2499C9.61136 17.2499 9.61125 17.2499 9.61114 17.2499C9.61103 17.2499 9.61092 17.2499 9.6108 17.2499C9.61069 17.2499 9.61058 17.2499 9.61046 17.2499C9.61035 17.2499 9.61023 17.2499 9.61012 17.2499C9.61 17.2499 9.60989 17.2499 9.60977 17.2499C9.60965 17.2499 9.60954 17.2499 9.60942 17.2499C9.6093 17.2499 9.60918 17.2499 9.60906 17.2499C9.60894 17.2499 9.60882 17.2499 9.6087 17.2499C9.60858 17.2499 9.60846 17.2499 9.60833 17.2499C9.60821 17.2499 9.60809 17.2499 9.60796 17.2499C9.60784 17.2499 9.60772 17.2499 9.60759 17.2499C9.60746 17.2499 9.60734 17.2499 9.60721 17.2499C9.60709 17.2499 9.60696 17.2499 9.60683 17.2499C9.6067 17.2499 9.60657 17.2499 9.60644 17.2499C9.60631 17.2499 9.60618 17.2499 9.60605 17.2499C9.60592 17.2499 9.60579 17.2499 9.60565 17.2499C9.60552 17.2499 9.60539 17.2499 9.60525 17.2499C9.60512 17.2499 9.60498 17.2499 9.60485 17.2499C9.60471 17.2499 9.60457 17.2499 9.60444 17.2499C9.6043 17.2499 9.60416 17.2499 9.60402 17.2499C9.60388 17.2499 9.60374 17.2499 9.6036 17.2499C9.60346 17.2499 9.60332 17.2499 9.60318 17.2499C9.60303 17.2499 9.60289 17.2499 9.60275 17.2499C9.6026 17.2499 9.60246 17.2499 9.60231 17.2499C9.60217 17.2499 9.60202 17.2499 9.60187 17.2499C9.60172 17.2499 9.60157 17.2499 9.60143 17.2499C9.60128 17.2499 9.60113 17.2499 9.60098 17.2499C9.60083 17.2499 9.60067 17.2499 9.60052 17.2499C9.60037 17.2499 9.60021 17.2499 9.60006 17.2499C9.59991 17.2499 9.59975 17.2499 9.5996 17.2499C9.59944 17.2499 9.59928 17.2499 9.59912 17.2499C9.59897 17.2499 9.59881 17.2499 9.59865 17.2499C9.59849 17.2499 9.59833 17.2499 9.59817 17.2499C9.598 17.2499 9.59784 17.2499 9.59768 17.2499C9.59752 17.2499 9.59735 17.2499 9.59719 17.2499C9.59702 17.2499 9.59685 17.2499 9.59669 17.2499C9.59652 17.2499 9.59635 17.2499 9.59618 17.2499C9.59601 17.2499 9.59584 17.2499 9.59567 17.2499C9.5955 17.2499 9.59533 17.2499 9.59516 17.2499C9.59499 17.2499 9.59481 17.2499 9.59464 17.2499C9.59446 17.2499 9.59429 17.2499 9.59411 17.2499C9.59393 17.2499 9.59376 17.2499 9.59358 17.2499C9.5934 17.2499 9.59322 17.2499 9.59304 17.2499C9.59286 17.2499 9.59268 17.2499 9.59249 17.2499C9.59231 17.2499 9.59213 17.2499 9.59194 17.2499C9.59176 17.2499 9.59157 17.2499 9.59139 17.2499C9.5912 17.2499 9.59101 17.2499 9.59083 17.2499C9.59064 17.2499 9.59045 17.2499 9.59026 17.2499C9.59007 17.2499 9.58987 17.2499 9.58968 17.2499C9.58949 17.2499 9.58929 17.2499 9.5891 17.2499C9.58891 17.2499 9.58871 17.2499 9.58851 17.2499C9.58832 17.2499 9.58812 17.2499 9.58792 17.2499C9.58772 17.2499 9.58752 17.2499 9.58732 17.2499C9.58712 17.2499 9.58692 17.2499 9.58671 17.2499C9.58651 17.2499 9.5863 17.2499 9.5861 17.2499C9.58589 17.2499 9.58569 17.2499 9.58548 17.2499C9.58527 17.2499 9.58506 17.2499 9.58485 17.2499C9.58464 17.2499 9.58443 17.2499 9.58422 17.2499C9.58401 17.2499 9.58379 17.2499 9.58358 17.2499C9.58337 17.2499 9.58315 17.2499 9.58293 17.2499C9.58272 17.2499 9.5825 17.2499 9.58228 17.2499C9.58206 17.2499 9.58184 17.2499 9.58162 17.2499C9.5814 17.2499 9.58118 17.2499 9.58095 17.2499C9.58073 17.2499 9.58051 17.2499 9.58028 17.2499C9.58005 17.2499 9.57983 17.2499 9.5796 17.2499C9.57937 17.2499 9.57914 17.2499 9.57891 17.2499C9.57868 17.2499 9.57845 17.2499 9.57822 17.2499C9.57798 17.2499 9.57775 17.2499 9.57752 17.2499C9.57728 17.2499 9.57704 17.2499 9.57681 17.2499C9.57657 17.2499 9.57633 17.2499 9.57609 17.2499C9.57585 17.2499 9.57561 17.2499 9.57537 17.2499C9.57512 17.2499 9.57488 17.2499 9.57464 17.2499C9.57439 17.2499 9.57414 17.2499 9.5739 17.2499C9.57365 17.2499 9.5734 17.2499 9.57315 17.2499C9.5729 17.2499 9.57265 17.2499 9.5724 17.2499C9.57215 17.2499 9.57189 17.2499 9.57164 17.2499C9.57138 17.2499 9.57113 17.2499 9.57087 17.2499C9.57061 17.2499 9.57035 17.2499 9.57009 17.2499C9.56983 17.2499 9.56957 17.2499 9.56931 17.2499C9.56905 17.2499 9.56878 17.2499 9.56852 17.2499C9.56826 17.2499 9.56799 17.2499 9.56772 17.2499C9.56745 17.2499 9.56718 17.2499 9.56691 17.2499C9.56664 17.2499 9.56637 17.2499 9.5661 17.2499C9.56583 17.2499 9.56555 17.2499 9.56528 17.2499C9.565 17.2499 9.56473 17.2499 9.56445 17.2499C9.56417 17.2499 9.56389 17.2499 9.56361 17.2499C9.56333 17.2499 9.56305 17.2499 9.56276 17.2499C9.56248 17.2499 9.56219 17.2499 9.56191 17.2499C9.56162 17.2499 9.56133 17.2499 9.56105 17.2499C9.56076 17.2499 9.56047 17.2499 9.56017 17.2499C9.55988 17.2499 9.55959 17.2499 9.5593 17.2499C9.559 17.2499 9.55871 17.2499 9.55841 17.2499C9.55811 17.2499 9.55781 17.2499 9.55751 17.2499C9.55721 17.2499 9.55691 17.2499 9.55661 17.2499C9.55631 17.2499 9.556 17.2499 9.5557 17.2499C9.55539 17.2499 9.55508 17.2499 9.55478 17.2499C9.55447 17.2499 9.55416 17.2499 9.55385 17.2499C9.55354 17.2499 9.55322 17.2499 9.55291 17.2499C9.55259 17.2499 9.55228 17.2499 9.55196 17.2499C9.55164 17.2499 9.55133 17.2499 9.55101 17.2499C9.55069 17.2499 9.55037 17.2499 9.55004 17.2499C9.54972 17.2499 9.5494 17.2499 9.54907 17.2499C9.54874 17.2499 9.54842 17.2499 9.54809 17.2499C9.54776 17.2499 9.54743 17.2499 9.5471 17.2499C9.54677 17.2499 9.54643 17.2499 9.5461 17.2499C9.54576 17.2499 9.54543 17.2499 9.54509 17.2499C9.54475 17.2499 9.54441 17.2499 9.54407 17.2499C9.54373 17.2499 9.54339 17.2499 9.54305 17.2499C9.5427 17.2499 9.54236 17.2499 9.54201 17.2499C9.54166 17.2499 9.54132 17.2499 9.54097 17.2499C9.54062 17.2499 9.54026 17.2499 9.53991 17.2499C9.53956 17.2499 9.5392 17.2499 9.53885 17.2499C9.53849 17.2499 9.53813 17.2499 9.53778 17.2499C9.53742 17.2499 9.53706 17.2499 9.53669 17.2499C9.53633 17.2499 9.53597 17.2499 9.5356 17.2499C9.53524 17.2499 9.53487 17.2499 9.5345 17.2499C9.53413 17.2499 9.53376 17.2499 9.53339 17.2499C9.53302 17.2499 9.53265 17.2499 9.53227 17.2499C9.5319 17.2499 9.53152 17.2499 9.53114 17.2499C9.53076 17.2499 9.53038 17.2499 9.53 17.2499C9.52962 17.2499 9.52924 17.2499 9.52885 17.2499C9.52847 17.2499 9.52808 17.2499 9.5277 17.2499C9.52731 17.2499 9.52692 17.2499 9.52653 17.2499C9.52614 17.2499 9.52574 17.2499 9.52535 17.2499C9.52495 17.2499 9.52456 17.2499 9.52416 17.2499C9.52376 17.2499 9.52336 17.2499 9.52296 17.2499C9.52256 17.2499 9.52216 17.2499 9.52176 17.2499C9.52135 17.2499 9.52094 17.2499 9.52054 17.2499C9.52013 17.2499 9.51972 17.2499 9.51931 17.2499C9.5189 17.2499 9.51849 17.2499 9.51807 17.2499C9.51766 17.2499 9.51724 17.2499 9.51682 17.2499C9.51641 17.2499 9.51599 17.2499 9.51556 17.2499C9.51514 17.2499 9.51472 17.2499 9.51429 17.2499C9.51387 17.2499 9.51344 17.2499 9.51302 17.2499C9.51259 17.2499 9.51216 17.2499 9.51173 17.2499C9.51129 17.2499 9.51086 17.2499 9.51043 17.2499C9.50999 17.2499 9.50955 17.2499 9.50912 17.2499C9.50868 17.2499 9.50824 17.2499 9.50779 17.2499C9.50735 17.2499 9.50691 17.2499 9.50646 17.2499C9.50602 17.2499 9.50557 17.2499 9.50512 17.2499C9.50467 17.2499 9.50422 17.2499 9.50377 17.2499C9.50331 17.2499 9.50286 17.2499 9.5024 17.2499C9.50195 17.2499 9.50149 17.2499 9.50103 17.2499C9.50057 17.2499 9.50011 17.2499 9.49964 17.2499C9.49918 17.2499 9.49872 17.2499 9.49825 17.2499C9.49778 17.2499 9.49731 17.2499 9.49684 17.2499C9.49637 17.2499 9.4959 17.2499 9.49542 17.2499C9.49495 17.2499 9.49447 17.2499 9.49399 17.2499C9.49352 17.2499 9.49304 17.2499 9.49255 17.2499C9.49207 17.2499 9.49159 17.2499 9.4911 17.2499C9.49062 17.2499 9.49013 17.2499 9.48964 17.2499C9.48915 17.2499 9.48866 17.2499 9.48817 17.2499C9.48767 17.2499 9.48718 17.2499 9.48668 17.2499C9.48619 17.2499 9.48569 17.2499 9.48519 17.2499C9.48468 17.2499 9.48418 17.2499 9.48368 17.2499C9.48317 17.2499 9.48267 17.2499 9.48216 17.2499C9.48165 17.2499 9.48114 17.2499 9.48063 17.2499C9.48012 17.2499 9.4796 17.2499 9.47909 17.2499C9.47857 17.2499 9.47805 17.2499 9.47753 17.2499C9.47701 17.2499 9.47649 17.2499 9.47597 17.2499C9.47544 17.2499 9.47492 17.2499 9.47439 17.2499C9.47386 17.2499 9.47333 17.2499 9.4728 17.2499C9.47227 17.2499 9.47174 17.2499 9.4712 17.2499C9.47067 17.2499 9.47013 17.2499 9.46959 17.2499C9.46905 17.2499 9.46851 17.2499 9.46797 17.2499C9.46742 17.2499 9.46688 17.2499 9.46633 17.2499C9.46579 17.2499 9.46524 17.2499 9.46468 17.2499C9.46413 17.2499 9.46358 17.2499 9.46303 17.2499C9.46247 17.2499 9.46191 17.2499 9.46135 17.2499C9.46079 17.2499 9.46023 17.2499 9.45967 17.2499C9.45911 17.2499 9.45854 17.2499 9.45797 17.2499C9.45741 17.2499 9.45684 17.2499 9.45627 17.2499C9.45569 17.2499 9.45512 17.2499 9.45455 17.2499C9.45397 17.2499 9.45339 17.2499 9.45281 17.2499C9.45223 17.2499 9.45165 17.2499 9.45107 17.2499C9.45048 17.2499 9.4499 17.2499 9.44931 17.2499C9.44872 17.2499 9.44813 17.2499 9.44754 17.2499V19.2499C9.44813 19.2499 9.44872 19.2499 9.44931 19.2499C9.4499 19.2499 9.45048 19.2499 9.45107 19.2499C9.45165 19.2499 9.45223 19.2499 9.45281 19.2499C9.45339 19.2499 9.45397 19.2499 9.45455 19.2499C9.45512 19.2499 9.45569 19.2499 9.45627 19.2499C9.45684 19.2499 9.45741 19.2499 9.45797 19.2499C9.45854 19.2499 9.45911 19.2499 9.45967 19.2499C9.46023 19.2499 9.46079 19.2499 9.46135 19.2499C9.46191 19.2499 9.46247 19.2499 9.46303 19.2499C9.46358 19.2499 9.46413 19.2499 9.46468 19.2499C9.46524 19.2499 9.46579 19.2499 9.46633 19.2499C9.46688 19.2499 9.46742 19.2499 9.46797 19.2499C9.46851 19.2499 9.46905 19.2499 9.46959 19.2499C9.47013 19.2499 9.47067 19.2499 9.4712 19.2499C9.47174 19.2499 9.47227 19.2499 9.4728 19.2499C9.47333 19.2499 9.47386 19.2499 9.47439 19.2499C9.47492 19.2499 9.47544 19.2499 9.47597 19.2499C9.47649 19.2499 9.47701 19.2499 9.47753 19.2499C9.47805 19.2499 9.47857 19.2499 9.47909 19.2499C9.4796 19.2499 9.48012 19.2499 9.48063 19.2499C9.48114 19.2499 9.48165 19.2499 9.48216 19.2499C9.48267 19.2499 9.48317 19.2499 9.48368 19.2499C9.48418 19.2499 9.48468 19.2499 9.48519 19.2499C9.48569 19.2499 9.48619 19.2499 9.48668 19.2499C9.48718 19.2499 9.48767 19.2499 9.48817 19.2499C9.48866 19.2499 9.48915 19.2499 9.48964 19.2499C9.49013 19.2499 9.49062 19.2499 9.4911 19.2499C9.49159 19.2499 9.49207 19.2499 9.49255 19.2499C9.49304 19.2499 9.49352 19.2499 9.49399 19.2499C9.49447 19.2499 9.49495 19.2499 9.49542 19.2499C9.4959 19.2499 9.49637 19.2499 9.49684 19.2499C9.49731 19.2499 9.49778 19.2499 9.49825 19.2499C9.49872 19.2499 9.49918 19.2499 9.49964 19.2499C9.50011 19.2499 9.50057 19.2499 9.50103 19.2499C9.50149 19.2499 9.50195 19.2499 9.5024 19.2499C9.50286 19.2499 9.50331 19.2499 9.50377 19.2499C9.50422 19.2499 9.50467 19.2499 9.50512 19.2499C9.50557 19.2499 9.50602 19.2499 9.50646 19.2499C9.50691 19.2499 9.50735 19.2499 9.50779 19.2499C9.50824 19.2499 9.50868 19.2499 9.50912 19.2499C9.50955 19.2499 9.50999 19.2499 9.51043 19.2499C9.51086 19.2499 9.51129 19.2499 9.51173 19.2499C9.51216 19.2499 9.51259 19.2499 9.51302 19.2499C9.51344 19.2499 9.51387 19.2499 9.51429 19.2499C9.51472 19.2499 9.51514 19.2499 9.51556 19.2499C9.51599 19.2499 9.51641 19.2499 9.51682 19.2499C9.51724 19.2499 9.51766 19.2499 9.51807 19.2499C9.51849 19.2499 9.5189 19.2499 9.51931 19.2499C9.51972 19.2499 9.52013 19.2499 9.52054 19.2499C9.52094 19.2499 9.52135 19.2499 9.52176 19.2499C9.52216 19.2499 9.52256 19.2499 9.52296 19.2499C9.52336 19.2499 9.52376 19.2499 9.52416 19.2499C9.52456 19.2499 9.52495 19.2499 9.52535 19.2499C9.52574 19.2499 9.52614 19.2499 9.52653 19.2499C9.52692 19.2499 9.52731 19.2499 9.5277 19.2499C9.52808 19.2499 9.52847 19.2499 9.52885 19.2499C9.52924 19.2499 9.52962 19.2499 9.53 19.2499C9.53038 19.2499 9.53076 19.2499 9.53114 19.2499C9.53152 19.2499 9.5319 19.2499 9.53227 19.2499C9.53265 19.2499 9.53302 19.2499 9.53339 19.2499C9.53376 19.2499 9.53413 19.2499 9.5345 19.2499C9.53487 19.2499 9.53524 19.2499 9.5356 19.2499C9.53597 19.2499 9.53633 19.2499 9.53669 19.2499C9.53706 19.2499 9.53742 19.2499 9.53778 19.2499C9.53813 19.2499 9.53849 19.2499 9.53885 19.2499C9.5392 19.2499 9.53956 19.2499 9.53991 19.2499C9.54026 19.2499 9.54062 19.2499 9.54097 19.2499C9.54132 19.2499 9.54166 19.2499 9.54201 19.2499C9.54236 19.2499 9.5427 19.2499 9.54305 19.2499C9.54339 19.2499 9.54373 19.2499 9.54407 19.2499C9.54441 19.2499 9.54475 19.2499 9.54509 19.2499C9.54543 19.2499 9.54576 19.2499 9.5461 19.2499C9.54643 19.2499 9.54677 19.2499 9.5471 19.2499C9.54743 19.2499 9.54776 19.2499 9.54809 19.2499C9.54842 19.2499 9.54874 19.2499 9.54907 19.2499C9.5494 19.2499 9.54972 19.2499 9.55004 19.2499C9.55037 19.2499 9.55069 19.2499 9.55101 19.2499C9.55133 19.2499 9.55164 19.2499 9.55196 19.2499C9.55228 19.2499 9.55259 19.2499 9.55291 19.2499C9.55322 19.2499 9.55354 19.2499 9.55385 19.2499C9.55416 19.2499 9.55447 19.2499 9.55478 19.2499C9.55508 19.2499 9.55539 19.2499 9.5557 19.2499C9.556 19.2499 9.55631 19.2499 9.55661 19.2499C9.55691 19.2499 9.55721 19.2499 9.55751 19.2499C9.55781 19.2499 9.55811 19.2499 9.55841 19.2499C9.55871 19.2499 9.559 19.2499 9.5593 19.2499C9.55959 19.2499 9.55988 19.2499 9.56017 19.2499C9.56047 19.2499 9.56076 19.2499 9.56105 19.2499C9.56133 19.2499 9.56162 19.2499 9.56191 19.2499C9.56219 19.2499 9.56248 19.2499 9.56276 19.2499C9.56305 19.2499 9.56333 19.2499 9.56361 19.2499C9.56389 19.2499 9.56417 19.2499 9.56445 19.2499C9.56473 19.2499 9.565 19.2499 9.56528 19.2499C9.56555 19.2499 9.56583 19.2499 9.5661 19.2499C9.56637 19.2499 9.56664 19.2499 9.56691 19.2499C9.56718 19.2499 9.56745 19.2499 9.56772 19.2499C9.56799 19.2499 9.56826 19.2499 9.56852 19.2499C9.56878 19.2499 9.56905 19.2499 9.56931 19.2499C9.56957 19.2499 9.56983 19.2499 9.57009 19.2499C9.57035 19.2499 9.57061 19.2499 9.57087 19.2499C9.57113 19.2499 9.57138 19.2499 9.57164 19.2499C9.57189 19.2499 9.57215 19.2499 9.5724 19.2499C9.57265 19.2499 9.5729 19.2499 9.57315 19.2499C9.5734 19.2499 9.57365 19.2499 9.5739 19.2499C9.57414 19.2499 9.57439 19.2499 9.57464 19.2499C9.57488 19.2499 9.57512 19.2499 9.57537 19.2499C9.57561 19.2499 9.57585 19.2499 9.57609 19.2499C9.57633 19.2499 9.57657 19.2499 9.57681 19.2499C9.57704 19.2499 9.57728 19.2499 9.57752 19.2499C9.57775 19.2499 9.57798 19.2499 9.57822 19.2499C9.57845 19.2499 9.57868 19.2499 9.57891 19.2499C9.57914 19.2499 9.57937 19.2499 9.5796 19.2499C9.57983 19.2499 9.58005 19.2499 9.58028 19.2499C9.58051 19.2499 9.58073 19.2499 9.58095 19.2499C9.58118 19.2499 9.5814 19.2499 9.58162 19.2499C9.58184 19.2499 9.58206 19.2499 9.58228 19.2499C9.5825 19.2499 9.58272 19.2499 9.58293 19.2499C9.58315 19.2499 9.58337 19.2499 9.58358 19.2499C9.58379 19.2499 9.58401 19.2499 9.58422 19.2499C9.58443 19.2499 9.58464 19.2499 9.58485 19.2499C9.58506 19.2499 9.58527 19.2499 9.58548 19.2499C9.58569 19.2499 9.58589 19.2499 9.5861 19.2499C9.5863 19.2499 9.58651 19.2499 9.58671 19.2499C9.58692 19.2499 9.58712 19.2499 9.58732 19.2499C9.58752 19.2499 9.58772 19.2499 9.58792 19.2499C9.58812 19.2499 9.58832 19.2499 9.58851 19.2499C9.58871 19.2499 9.58891 19.2499 9.5891 19.2499C9.58929 19.2499 9.58949 19.2499 9.58968 19.2499C9.58987 19.2499 9.59007 19.2499 9.59026 19.2499C9.59045 19.2499 9.59064 19.2499 9.59083 19.2499C9.59101 19.2499 9.5912 19.2499 9.59139 19.2499C9.59157 19.2499 9.59176 19.2499 9.59194 19.2499C9.59213 19.2499 9.59231 19.2499 9.59249 19.2499C9.59268 19.2499 9.59286 19.2499 9.59304 19.2499C9.59322 19.2499 9.5934 19.2499 9.59358 19.2499C9.59376 19.2499 9.59393 19.2499 9.59411 19.2499C9.59429 19.2499 9.59446 19.2499 9.59464 19.2499C9.59481 19.2499 9.59499 19.2499 9.59516 19.2499C9.59533 19.2499 9.5955 19.2499 9.59567 19.2499C9.59584 19.2499 9.59601 19.2499 9.59618 19.2499C9.59635 19.2499 9.59652 19.2499 9.59669 19.2499C9.59685 19.2499 9.59702 19.2499 9.59719 19.2499C9.59735 19.2499 9.59752 19.2499 9.59768 19.2499C9.59784 19.2499 9.598 19.2499 9.59817 19.2499C9.59833 19.2499 9.59849 19.2499 9.59865 19.2499C9.59881 19.2499 9.59897 19.2499 9.59912 19.2499C9.59928 19.2499 9.59944 19.2499 9.5996 19.2499C9.59975 19.2499 9.59991 19.2499 9.60006 19.2499C9.60021 19.2499 9.60037 19.2499 9.60052 19.2499C9.60067 19.2499 9.60083 19.2499 9.60098 19.2499C9.60113 19.2499 9.60128 19.2499 9.60143 19.2499C9.60157 19.2499 9.60172 19.2499 9.60187 19.2499C9.60202 19.2499 9.60217 19.2499 9.60231 19.2499C9.60246 19.2499 9.6026 19.2499 9.60275 19.2499C9.60289 19.2499 9.60303 19.2499 9.60318 19.2499C9.60332 19.2499 9.60346 19.2499 9.6036 19.2499C9.60374 19.2499 9.60388 19.2499 9.60402 19.2499C9.60416 19.2499 9.6043 19.2499 9.60444 19.2499C9.60457 19.2499 9.60471 19.2499 9.60485 19.2499C9.60498 19.2499 9.60512 19.2499 9.60525 19.2499C9.60539 19.2499 9.60552 19.2499 9.60565 19.2499C9.60579 19.2499 9.60592 19.2499 9.60605 19.2499C9.60618 19.2499 9.60631 19.2499 9.60644 19.2499C9.60657 19.2499 9.6067 19.2499 9.60683 19.2499C9.60696 19.2499 9.60709 19.2499 9.60721 19.2499C9.60734 19.2499 9.60746 19.2499 9.60759 19.2499C9.60772 19.2499 9.60784 19.2499 9.60796 19.2499C9.60809 19.2499 9.60821 19.2499 9.60833 19.2499C9.60846 19.2499 9.60858 19.2499 9.6087 19.2499C9.60882 19.2499 9.60894 19.2499 9.60906 19.2499C9.60918 19.2499 9.6093 19.2499 9.60942 19.2499C9.60954 19.2499 9.60965 19.2499 9.60977 19.2499C9.60989 19.2499 9.61 19.2499 9.61012 19.2499C9.61023 19.2499 9.61035 19.2499 9.61046 19.2499C9.61058 19.2499 9.61069 19.2499 9.6108 19.2499C9.61092 19.2499 9.61103 19.2499 9.61114 19.2499C9.61125 19.2499 9.61136 19.2499 9.61147 19.2499C9.61158 19.2499 9.61169 19.2499 9.6118 19.2499C9.61191 19.2499 9.61202 19.2499 9.61213 19.2499C9.61224 19.2499 9.61234 19.2499 9.61245 19.2499C9.61256 19.2499 9.61266 19.2499 9.61277 19.2499C9.61287 19.2499 9.61298 19.2499 9.61308 19.2499C9.61318 19.2499 9.61329 19.2499 9.61339 19.2499C9.61349 19.2499 9.6136 19.2499 9.6137 19.2499C9.6138 19.2499 9.6139 19.2499 9.614 19.2499C9.6141 19.2499 9.6142 19.2499 9.6143 19.2499C9.6144 19.2499 9.6145 19.2499 9.6146 19.2499C9.6147 19.2499 9.61479 19.2499 9.61489 19.2499C9.61499 19.2499 9.61508 19.2499 9.61518 19.2499C9.61528 19.2499 9.61537 19.2499 9.61547 19.2499C9.61556 19.2499 9.61566 19.2499 9.61575 19.2499C9.61584 19.2499 9.61594 19.2499 9.61603 19.2499C9.61612 19.2499 9.61622 19.2499 9.61631 19.2499C9.6164 19.2499 9.61649 19.2499 9.61658 19.2499C9.61667 19.2499 9.61676 19.2499 9.61685 19.2499C9.61694 19.2499 9.61703 19.2499 9.61712 19.2499C9.61721 19.2499 9.6173 19.2499 9.61738 19.2499C9.61747 19.2499 9.61756 19.2499 9.61765 19.2499C9.61773 19.2499 9.61782 19.2499 9.61791 19.2499C9.61799 19.2499 9.61808 19.2499 9.61816 19.2499C9.61825 19.2499 9.61833 19.2499 9.61842 19.2499C9.6185 19.2499 9.61858 19.2499 9.61867 19.2499C9.61875 19.2499 9.61883 19.2499 9.61892 19.2499C9.619 19.2499 9.61908 19.2499 9.61916 19.2499C9.61924 19.2499 9.61933 19.2499 9.61941 19.2499C9.61949 19.2499 9.61957 19.2499 9.61965 19.2499C9.61973 19.2499 9.61981 19.2499 9.61989 19.2499C9.61996 19.2499 9.62004 19.2499 9.62012 19.2499C9.6202 19.2499 9.62028 19.2499 9.62035 19.2499C9.62043 19.2499 9.62051 19.2499 9.62059 19.2499C9.62066 19.2499 9.62074 19.2499 9.62082 19.2499C9.62089 19.2499 9.62097 19.2499 9.62104 19.2499C9.62112 19.2499 9.62119 19.2499 9.62127 19.2499C9.62134 19.2499 9.62142 19.2499 9.62149 19.2499C9.62156 19.2499 9.62164 19.2499 9.62171 19.2499C9.62178 19.2499 9.62186 19.2499 9.62193 19.2499C9.622 19.2499 9.62207 19.2499 9.62215 19.2499C9.62222 19.2499 9.62229 19.2499 9.62236 19.2499C9.62243 19.2499 9.6225 19.2499 9.62257 19.2499C9.62264 19.2499 9.62271 19.2499 9.62279 19.2499C9.62286 19.2499 9.62292 19.2499 9.62299 19.2499C9.62306 19.2499 9.62313 19.2499 9.6232 19.2499C9.62327 19.2499 9.62334 19.2499 9.62341 19.2499C9.62348 19.2499 9.62354 19.2499 9.62361 19.2499C9.62368 19.2499 9.62375 19.2499 9.62382 19.2499C9.62388 19.2499 9.62395 19.2499 9.62402 19.2499C9.62408 19.2499 9.62415 19.2499 9.62422 19.2499C9.62428 19.2499 9.62435 19.2499 9.62442 19.2499C9.62448 19.2499 9.62455 19.2499 9.62461 19.2499C9.62468 19.2499 9.62474 19.2499 9.62481 19.2499C9.62487 19.2499 9.62494 19.2499 9.625 19.2499C9.62507 19.2499 9.62513 19.2499 9.6252 19.2499C9.62526 19.2499 9.62532 19.2499 9.62539 19.2499C9.62545 19.2499 9.62552 19.2499 9.62558 19.2499C9.62564 19.2499 9.62571 19.2499 9.62577 19.2499C9.62583 19.2499 9.6259 19.2499 9.62596 19.2499C9.62602 19.2499 9.62608 19.2499 9.62615 19.2499C9.62621 19.2499 9.62627 19.2499 9.62633 19.2499C9.6264 19.2499 9.62646 19.2499 9.62652 19.2499C9.62658 19.2499 9.62664 19.2499 9.6267 19.2499C9.62677 19.2499 9.62683 19.2499 9.62689 19.2499C9.62695 19.2499 9.62701 19.2499 9.62707 19.2499C9.62713 19.2499 9.62719 19.2499 9.62726 19.2499C9.62732 19.2499 9.62738 19.2499 9.62744 19.2499C9.6275 19.2499 9.62756 19.2499 9.62762 19.2499C9.62768 19.2499 9.62774 19.2499 9.6278 19.2499C9.62786 19.2499 9.62792 19.2499 9.62798 19.2499C9.62804 19.2499 9.6281 19.2499 9.62816 19.2499C9.62822 19.2499 9.62828 19.2499 9.62834 19.2499C9.6284 19.2499 9.62846 19.2499 9.62852 19.2499C9.62858 19.2499 9.62864 19.2499 9.6287 19.2499C9.62876 19.2499 9.62882 19.2499 9.62888 19.2499C9.62894 19.2499 9.629 19.2499 9.62906 19.2499C9.62912 19.2499 9.62918 19.2499 9.62924 19.2499C9.6293 19.2499 9.62936 19.2499 9.62942 19.2499C9.62948 19.2499 9.62954 19.2499 9.6296 19.2499C9.62965 19.2499 9.62971 19.2499 9.62977 19.2499C9.62983 19.2499 9.62989 19.2499 9.62995 19.2499C9.63001 19.2499 9.63007 19.2499 9.63013 19.2499C9.63019 19.2499 9.63025 19.2499 9.63031 19.2499C9.63037 19.2499 9.63043 19.2499 9.63049 19.2499C9.63055 19.2499 9.63061 19.2499 9.63067 19.2499C9.63073 19.2499 9.63079 19.2499 9.63085 19.2499C9.63091 19.2499 9.63097 19.2499 9.63103 19.2499C9.63109 19.2499 9.63115 19.2499 9.63121 19.2499C9.63127 19.2499 9.63133 19.2499 9.63139 19.2499C9.63145 19.2499 9.63151 19.2499 9.63157 19.2499C9.63163 19.2499 9.63169 19.2499 9.63175 19.2499C9.63181 19.2499 9.63187 19.2499 9.63193 19.2499C9.632 19.2499 9.63206 19.2499 9.63212 19.2499C9.63218 19.2499 9.63224 19.2499 9.6323 19.2499C9.63236 19.2499 9.63242 19.2499 9.63249 19.2499C9.63255 19.2499 9.63261 19.2499 9.63267 19.2499C9.63273 19.2499 9.63279 19.2499 9.63286 19.2499C9.63292 19.2499 9.63298 19.2499 9.63304 19.2499C9.63311 19.2499 9.63317 19.2499 9.63323 19.2499C9.63329 19.2499 9.63336 19.2499 9.63342 19.2499C9.63348 19.2499 9.63355 19.2499 9.63361 19.2499C9.63367 19.2499 9.63374 19.2499 9.6338 19.2499C9.63386 19.2499 9.63393 19.2499 9.63399 19.2499C9.63406 19.2499 9.63412 19.2499 9.63419 19.2499C9.63425 19.2499 9.63432 19.2499 9.63438 19.2499C9.63445 19.2499 9.63451 19.2499 9.63458 19.2499C9.63464 19.2499 9.63471 19.2499 9.63477 19.2499C9.63484 19.2499 9.6349 19.2499 9.63497 19.2499C9.63504 19.2499 9.6351 19.2499 9.63517 19.2499C9.63524 19.2499 9.6353 19.2499 9.63537 19.2499C9.63544 19.2499 9.63551 19.2499 9.63558 19.2499C9.63564 19.2499 9.63571 19.2499 9.63578 19.2499C9.63585 19.2499 9.63592 19.2499 9.63598 19.2499C9.63605 19.2499 9.63612 19.2499 9.63619 19.2499C9.63626 19.2499 9.63633 19.2499 9.6364 19.2499C9.63647 19.2499 9.63654 19.2499 9.63661 19.2499C9.63668 19.2499 9.63675 19.2499 9.63683 19.2499C9.6369 19.2499 9.63697 19.2499 9.63704 19.2499C9.63711 19.2499 9.63718 19.2499 9.63726 19.2499C9.63733 19.2499 9.6374 19.2499 9.63748 19.2499C9.63755 19.2499 9.63762 19.2499 9.6377 19.2499C9.63777 19.2499 9.63784 19.2499 9.63792 19.2499C9.63799 19.2499 9.63807 19.2499 9.63814 19.2499C9.63822 19.2499 9.63829 19.2499 9.63837 19.2499C9.63844 19.2499 9.63852 19.2499 9.6386 19.2499C9.63867 19.2499 9.63875 19.2499 9.63883 19.2499C9.63891 19.2499 9.63898 19.2499 9.63906 19.2499C9.63914 19.2499 9.63922 19.2499 9.6393 19.2499C9.63938 19.2499 9.63946 19.2499 9.63954 19.2499C9.63962 19.2499 9.6397 19.2499 9.63978 19.2499C9.63986 19.2499 9.63994 19.2499 9.64002 19.2499C9.6401 19.2499 9.64018 19.2499 9.64027 19.2499C9.64035 19.2499 9.64043 19.2499 9.64051 19.2499C9.6406 19.2499 9.64068 19.2499 9.64076 19.2499C9.64085 19.2499 9.64093 19.2499 9.64102 19.2499C9.6411 19.2499 9.64119 19.2499 9.64127 19.2499C9.64136 19.2499 9.64145 19.2499 9.64153 19.2499C9.64162 19.2499 9.64171 19.2499 9.6418 19.2499C9.64188 19.2499 9.64197 19.2499 9.64206 19.2499C9.64215 19.2499 9.64224 19.2499 9.64233 19.2499C9.64242 19.2499 9.64251 19.2499 9.6426 19.2499C9.64269 19.2499 9.64278 19.2499 9.64287 19.2499C9.64296 19.2499 9.64305 19.2499 9.64315 19.2499C9.64324 19.2499 9.64333 19.2499 9.64343 19.2499C9.64352 19.2499 9.64362 19.2499 9.64371 19.2499C9.64381 19.2499 9.6439 19.2499 9.644 19.2499C9.64409 19.2499 9.64419 19.2499 9.64429 19.2499C9.64438 19.2499 9.64448 19.2499 9.64458 19.2499C9.64468 19.2499 9.64478 19.2499 9.64487 19.2499C9.64497 19.2499 9.64507 19.2499 9.64517 19.2499C9.64527 19.2499 9.64538 19.2499 9.64548 19.2499C9.64558 19.2499 9.64568 19.2499 9.64578 19.2499C9.64589 19.2499 9.64599 19.2499 9.64609 19.2499C9.6462 19.2499 9.6463 19.2499 9.64641 19.2499C9.64651 19.2499 9.64662 19.2499 9.64672 19.2499C9.64683 19.2499 9.64694 19.2499 9.64705 19.2499C9.64715 19.2499 9.64726 19.2499 9.64737 19.2499C9.64748 19.2499 9.64759 19.2499 9.6477 19.2499C9.64781 19.2499 9.64792 19.2499 9.64803 19.2499C9.64814 19.2499 9.64825 19.2499 9.64837 19.2499C9.64848 19.2499 9.64859 19.2499 9.64871 19.2499C9.64882 19.2499 9.64894 19.2499 9.64905 19.2499C9.64917 19.2499 9.64928 19.2499 9.6494 19.2499C9.64952 19.2499 9.64963 19.2499 9.64975 19.2499C9.64987 19.2499 9.64999 19.2499 9.65011 19.2499C9.65023 19.2499 9.65035 19.2499 9.65047 19.2499C9.65059 19.2499 9.65071 19.2499 9.65083 19.2499C9.65096 19.2499 9.65108 19.2499 9.6512 19.2499C9.65133 19.2499 9.65145 19.2499 9.65158 19.2499C9.6517 19.2499 9.65183 19.2499 9.65195 19.2499C9.65208 19.2499 9.65221 19.2499 9.65234 19.2499C9.65246 19.2499 9.65259 19.2499 9.65272 19.2499C9.65285 19.2499 9.65298 19.2499 9.65311 19.2499C9.65324 19.2499 9.65338 19.2499 9.65351 19.2499C9.65364 19.2499 9.65378 19.2499 9.65391 19.2499C9.65405 19.2499 9.65418 19.2499 9.65432 19.2499C9.65445 19.2499 9.65459 19.2499 9.65473 19.2499C9.65486 19.2499 9.655 19.2499 9.65514 19.2499C9.65528 19.2499 9.65542 19.2499 9.65556 19.2499C9.6557 19.2499 9.65584 19.2499 9.65598 19.2499C9.65613 19.2499 9.65627 19.2499 9.65641 19.2499C9.65656 19.2499 9.6567 19.2499 9.65685 19.2499C9.65699 19.2499 9.65714 19.2499 9.65729 19.2499C9.65743 19.2499 9.65758 19.2499 9.65773 19.2499C9.65788 19.2499 9.65803 19.2499 9.65818 19.2499C9.65833 19.2499 9.65848 19.2499 9.65864 19.2499C9.65879 19.2499 9.65894 19.2499 9.65909 19.2499C9.65925 19.2499 9.6594 19.2499 9.65956 19.2499C9.65972 19.2499 9.65987 19.2499 9.66003 19.2499C9.66019 19.2499 9.66035 19.2499 9.66051 19.2499C9.66067 19.2499 9.66083 19.2499 9.66099 19.2499C9.66115 19.2499 9.66131 19.2499 9.66147 19.2499C9.66164 19.2499 9.6618 19.2499 9.66197 19.2499C9.66213 19.2499 9.6623 19.2499 9.66246 19.2499C9.66263 19.2499 9.6628 19.2499 9.66297 19.2499C9.66314 19.2499 9.66331 19.2499 9.66348 19.2499C9.66365 19.2499 9.66382 19.2499 9.66399 19.2499C9.66416 19.2499 9.66434 19.2499 9.66451 19.2499C9.66468 19.2499 9.66486 19.2499 9.66504 19.2499C9.66521 19.2499 9.66539 19.2499 9.66557 19.2499C9.66575 19.2499 9.66593 19.2499 9.66611 19.2499C9.66629 19.2499 9.66647 19.2499 9.66665 19.2499C9.66683 19.2499 9.66702 19.2499 9.6672 19.2499C9.66738 19.2499 9.66757 19.2499 9.66776 19.2499C9.66794 19.2499 9.66813 19.2499 9.66832 19.2499C9.66851 19.2499 9.6687 19.2499 9.66889 19.2499C9.66908 19.2499 9.66927 19.2499 9.66946 19.2499C9.66965 19.2499 9.66985 19.2499 9.67004 19.2499C9.67023 19.2499 9.67043 19.2499 9.67063 19.2499C9.67082 19.2499 9.67102 19.2499 9.67122 19.2499C9.67142 19.2499 9.67162 19.2499 9.67182 19.2499C9.67202 19.2499 9.67222 19.2499 9.67243 19.2499C9.67263 19.2499 9.67283 19.2499 9.67304 19.2499C9.67324 19.2499 9.67345 19.2499 9.67366 19.2499C9.67386 19.2499 9.67407 19.2499 9.67428 19.2499C9.67449 19.2499 9.6747 19.2499 9.67491 19.2499C9.67513 19.2499 9.67534 19.2499 9.67555 19.2499C9.67577 19.2499 9.67598 19.2499 9.6762 19.2499C9.67641 19.2499 9.67663 19.2499 9.67685 19.2499C9.67707 19.2499 9.67729 19.2499 9.67751 19.2499C9.67773 19.2499 9.67795 19.2499 9.67818 19.2499C9.6784 19.2499 9.67862 19.2499 9.67885 19.2499C9.67907 19.2499 9.6793 19.2499 9.67953 19.2499C9.67976 19.2499 9.67999 19.2499 9.68021 19.2499C9.68044 19.2499 9.68068 19.2499 9.68091 19.2499C9.68114 19.2499 9.68138 19.2499 9.68161 19.2499C9.68184 19.2499 9.68208 19.2499 9.68232 19.2499C9.68256 19.2499 9.68279 19.2499 9.68303 19.2499C9.68327 19.2499 9.68351 19.2499 9.68376 19.2499C9.684 19.2499 9.68424 19.2499 9.68449 19.2499C9.68473 19.2499 9.68498 19.2499 9.68522 19.2499C9.68547 19.2499 9.68572 19.2499 9.68597 19.2499C9.68622 19.2499 9.68647 19.2499 9.68672 19.2499C9.68697 19.2499 9.68723 19.2499 9.68748 19.2499C9.68773 19.2499 9.68799 19.2499 9.68825 19.2499C9.6885 19.2499 9.68876 19.2499 9.68902 19.2499C9.68928 19.2499 9.68954 19.2499 9.6898 19.2499C9.69007 19.2499 9.69033 19.2499 9.69059 19.2499C9.69086 19.2499 9.69112 19.2499 9.69139 19.2499C9.69166 19.2499 9.69193 19.2499 9.6922 19.2499C9.69247 19.2499 9.69274 19.2499 9.69301 19.2499C9.69328 19.2499 9.69356 19.2499 9.69383 19.2499C9.69411 19.2499 9.69438 19.2499 9.69466 19.2499C9.69494 19.2499 9.69522 19.2499 9.6955 19.2499C9.69578 19.2499 9.69606 19.2499 9.69634 19.2499C9.69663 19.2499 9.69691 19.2499 9.6972 19.2499C9.69748 19.2499 9.69777 19.2499 9.69806 19.2499C9.69835 19.2499 9.69864 19.2499 9.69893 19.2499C9.69922 19.2499 9.69951 19.2499 9.69981 19.2499C9.7001 19.2499 9.7004 19.2499 9.70069 19.2499C9.70099 19.2499 9.70129 19.2499 9.70159 19.2499C9.70189 19.2499 9.70219 19.2499 9.70249 19.2499C9.70279 19.2499 9.7031 19.2499 9.7034 19.2499C9.70371 19.2499 9.70401 19.2499 9.70432 19.2499C9.70463 19.2499 9.70494 19.2499 9.70525 19.2499C9.70556 19.2499 9.70587 19.2499 9.70619 19.2499C9.7065 19.2499 9.70682 19.2499 9.70713 19.2499C9.70745 19.2499 9.70777 19.2499 9.70809 19.2499C9.70841 19.2499 9.70873 19.2499 9.70905 19.2499C9.70937 19.2499 9.7097 19.2499 9.71002 19.2499C9.71035 19.2499 9.71067 19.2499 9.711 19.2499C9.71133 19.2499 9.71166 19.2499 9.71199 19.2499C9.71232 19.2499 9.71266 19.2499 9.71299 19.2499C9.71332 19.2499 9.71366 19.2499 9.714 19.2499C9.71433 19.2499 9.71467 19.2499 9.71501 19.2499C9.71535 19.2499 9.7157 19.2499 9.71604 19.2499C9.71638 19.2499 9.71673 19.2499 9.71707 19.2499C9.71742 19.2499 9.71777 19.2499 9.71812 19.2499C9.71847 19.2499 9.71882 19.2499 9.71917 19.2499C9.71952 19.2499 9.71988 19.2499 9.72023 19.2499C9.72059 19.2499 9.72095 19.2499 9.7213 19.2499C9.72166 19.2499 9.72202 19.2499 9.72238 19.2499C9.72275 19.2499 9.72311 19.2499 9.72347 19.2499C9.72384 19.2499 9.72421 19.2499 9.72457 19.2499C9.72494 19.2499 9.72531 19.2499 9.72568 19.2499C9.72605 19.2499 9.72643 19.2499 9.7268 19.2499C9.72718 19.2499 9.72755 19.2499 9.72793 19.2499C9.72831 19.2499 9.72869 19.2499 9.72907 19.2499C9.72945 19.2499 9.72983 19.2499 9.73022 19.2499C9.7306 19.2499 9.73099 19.2499 9.73137 19.2499C9.73176 19.2499 9.73215 19.2499 9.73254 19.2499C9.73293 19.2499 9.73332 19.2499 9.73372 19.2499C9.73411 19.2499 9.73451 19.2499 9.7349 19.2499C9.7353 19.2499 9.7357 19.2499 9.7361 19.2499C9.7365 19.2499 9.7369 19.2499 9.73731 19.2499C9.73771 19.2499 9.73812 19.2499 9.73852 19.2499C9.73893 19.2499 9.73934 19.2499 9.73975 19.2499C9.74016 19.2499 9.74057 19.2499 9.74099 19.2499C9.7414 19.2499 9.74182 19.2499 9.74224 19.2499C9.74265 19.2499 9.74307 19.2499 9.74349 19.2499C9.74391 19.2499 9.74434 19.2499 9.74476 19.2499C9.74518 19.2499 9.74561 19.2499 9.74604 19.2499C9.74647 19.2499 9.74689 19.2499 9.74733 19.2499C9.74776 19.2499 9.74819 19.2499 9.74862 19.2499C9.74906 19.2499 9.7495 19.2499 9.74993 19.2499C9.75037 19.2499 9.75081 19.2499 9.75125 19.2499C9.7517 19.2499 9.75214 19.2499 9.75258 19.2499C9.75303 19.2499 9.75348 19.2499 9.75393 19.2499C9.75437 19.2499 9.75482 19.2499 9.75528 19.2499C9.75573 19.2499 9.75618 19.2499 9.75664 19.2499C9.7571 19.2499 9.75755 19.2499 9.75801 19.2499C9.75847 19.2499 9.75893 19.2499 9.7594 19.2499C9.75986 19.2499 9.76032 19.2499 9.76079 19.2499C9.76126 19.2499 9.76173 19.2499 9.7622 19.2499C9.76267 19.2499 9.76314 19.2499 9.76361 19.2499C9.76409 19.2499 9.76456 19.2499 9.76504 19.2499C9.76552 19.2499 9.766 19.2499 9.76648 19.2499C9.76696 19.2499 9.76744 19.2499 9.76793 19.2499C9.76841 19.2499 9.7689 19.2499 9.76939 19.2499C9.76988 19.2499 9.77037 19.2499 9.77086 19.2499C9.77136 19.2499 9.77185 19.2499 9.77235 19.2499C9.77284 19.2499 9.77334 19.2499 9.77384 19.2499C9.77434 19.2499 9.77484 19.2499 9.77535 19.2499C9.77585 19.2499 9.77636 19.2499 9.77687 19.2499C9.77737 19.2499 9.77788 19.2499 9.77839 19.2499C9.7789 19.2499 9.77942 19.2499 9.77993 19.2499C9.78045 19.2499 9.78097 19.2499 9.78149 19.2499C9.78201 19.2499 9.78253 19.2499 9.78305 19.2499C9.78357 19.2499 9.7841 19.2499 9.78463 19.2499C9.78515 19.2499 9.78568 19.2499 9.78621 19.2499C9.78674 19.2499 9.78728 19.2499 9.78781 19.2499C9.78835 19.2499 9.78888 19.2499 9.78942 19.2499C9.78996 19.2499 9.7905 19.2499 9.79104 19.2499C9.79159 19.2499 9.79213 19.2499 9.79268 19.2499C9.79322 19.2499 9.79377 19.2499 9.79432 19.2499C9.79487 19.2499 9.79543 19.2499 9.79598 19.2499C9.79654 19.2499 9.79709 19.2499 9.79765 19.2499C9.79821 19.2499 9.79877 19.2499 9.79933 19.2499C9.7999 19.2499 9.80046 19.2499 9.80103 19.2499C9.80159 19.2499 9.80216 19.2499 9.80273 19.2499C9.80331 19.2499 9.80388 19.2499 9.80445 19.2499C9.80503 19.2499 9.8056 19.2499 9.80618 19.2499C9.80676 19.2499 9.80734 19.2499 9.80793 19.2499C9.80851 19.2499 9.8091 19.2499 9.80968 19.2499C9.81027 19.2499 9.81086 19.2499 9.81145 19.2499V17.2499ZM2.42824 17.2499C2.57351 17.2499 2.71272 17.3072 2.81573 17.4091L1.40918 18.831C1.68039 19.0993 2.04655 19.2499 2.42836 19.2499L2.42824 17.2499ZM2.81573 17.4091C2.91858 17.5109 2.97743 17.6493 2.97905 17.7944L0.979171 17.8168C0.983437 18.1985 1.13813 18.5628 1.40918 18.831L2.81573 17.4091ZM2.97437 17.7084L1.62092 3.85613L-0.369603 4.05062L0.983848 17.9028L2.97437 17.7084ZM0.625657 4.95337H2.15671V2.95337H0.625657V4.95337ZM2.14216 4.95327C2.30959 4.9557 2.47809 4.92566 2.63759 4.86227L1.89891 3.00369C1.98745 2.96849 2.08017 2.95215 2.17126 2.95348L2.14216 4.95327ZM2.63759 4.86227C2.79562 4.79946 2.93917 4.70622 3.06037 4.58844L1.66657 3.15411C1.733 3.08956 1.81183 3.03829 1.89891 3.00369L2.63759 4.86227ZM3.06037 4.58844C3.18213 4.47013 3.27914 4.32913 3.34613 4.17376L1.50957 3.38189C1.54632 3.29666 1.59957 3.21921 1.66657 3.15411L3.06037 4.58844ZM3.34613 4.17376C3.41332 4.01792 3.44903 3.85055 3.45149 3.68136L1.4517 3.65228C1.45305 3.55946 1.47262 3.4676 1.50957 3.38189L3.34613 4.17376ZM3.45149 3.68136C3.45395 3.51154 3.42288 3.34338 3.36048 3.18623L1.50167 3.92436C1.46746 3.8382 1.45034 3.74572 1.4517 3.65228L3.45149 3.68136ZM3.36048 3.18623C3.29775 3.02825 3.20459 2.88469 3.08687 2.76344L1.65194 4.15663C1.58741 4.09017 1.53622 4.01135 1.50167 3.92436L3.36048 3.18623ZM3.08687 2.76344C2.97039 2.64347 2.83003 2.54542 2.67228 2.47734L1.87983 4.31365C1.79219 4.27583 1.71522 4.22181 1.65194 4.15663L3.08687 2.76344ZM2.67228 2.47734C2.51662 2.41017 2.34925 2.37432 2.17971 2.37185L2.15061 4.37164C2.05741 4.37028 1.96539 4.35057 1.87983 4.31365L2.67228 2.47734ZM0.171542 2.37988C0.100219 2.38903 0.0291669 2.40398 -0.0407848 2.42486L0.531122 4.34135C0.496257 4.35175 0.461149 4.35911 0.426142 4.36361L0.171542 2.37988ZM1.15905 2.97711L1.15801 2.97479L-0.66974 3.78677L-0.668708 3.78909L1.15905 2.97711ZM13.8204 17.2499H9.81145V19.2499H13.8204V17.2499ZM9.44754 17.2499H2.4283V19.2499H9.44754V17.2499ZM2.16516 2.37174H0.298842V4.37174H2.16516V2.37174ZM15.6591 3.86845L14.4001 17.2084L16.3913 17.3963L17.6503 4.05637L15.6591 3.86845ZM14.4001 17.2084L14.3777 17.4455L16.3689 17.6334L16.3913 17.3963L14.4001 17.2084ZM16.9661 17.6883L16.9865 17.472L14.9953 17.2843L14.9749 17.5006L16.9661 17.6883ZM16.9865 17.472L18.2757 3.79422L16.2846 3.60654L14.9953 17.2843L16.9865 17.472Z" fill="#FCFDFF" mask="url(#path-1-inside-1_63_1471)"/>
</svg>
