<svg width="58" height="58" viewBox="0 0 58 58" fill="none" xmlns="http://www.w3.org/2000/svg">
<path d="M42.1429 39.9315L42.143 39.9315C42.9789 40.8879 43.1433 42.0353 42.6122 43.2062C42.3387 43.8275 41.9519 44.3064 41.4519 44.6326C40.9519 44.9586 40.3482 45.1258 39.6508 45.139L39.6479 45.1391L39.5781 45.1391C38.6653 45.1391 37.8723 44.7979 37.1614 44.109L37.1614 44.109C35.8615 42.8482 34.5493 41.557 33.2811 40.3079C33.1999 40.2281 33.1185 40.148 33.0369 40.0676C32.403 39.4439 31.7535 38.8048 31.1112 38.1764L31.1111 38.1763C30.5121 37.5891 30.2093 36.9183 30.2093 36.1321M42.1429 39.9315L30.3593 36.1321M42.1429 39.9315C41.7727 39.5084 41.3525 39.1016 40.9518 38.7137L40.9515 38.7134L40.9509 38.7128M42.1429 39.9315L40.9509 38.7128M30.2093 36.1321H30.3593M30.2093 36.1321C30.2093 36.1324 30.2093 36.1326 30.2093 36.1328L30.3593 36.1321M30.2093 36.1321C30.2086 35.9121 30.2914 35.6561 30.3616 35.4388L30.3633 35.4336L30.5064 35.4787M30.3593 36.1321C30.3585 35.9389 30.4333 35.7048 30.5064 35.4787M30.5064 35.4787L30.3636 35.4326L30.5064 35.4787ZM40.9509 38.7128L40.7053 38.4779C40.7052 38.4778 40.7051 38.4777 40.705 38.4776C40.2792 38.0637 39.8504 37.646 39.4223 37.229C38.8494 36.6709 38.2778 36.1141 37.7161 35.5691C36.3608 34.2534 34.9604 32.893 33.5863 31.5511L33.5863 31.5511M40.9509 38.7128L33.5863 31.5511M33.5863 31.5511C31.6172 29.6284 29.6212 27.6732 27.6796 25.7713L27.2271 25.3281L27.2271 25.3281L23.7648 21.9359L23.7647 21.9357M33.5863 31.5511L23.7647 21.9357M23.7647 21.9357L20.4108 18.6574L20.4108 18.6574M23.7647 21.9357L20.4108 18.6574M20.4108 18.6574L18.724 17.0094L18.7236 17.009L17.91 16.2076L17.9097 16.2074M20.4108 18.6574L17.9097 16.2074M17.9097 16.2074C17.8386 16.1377 17.7672 16.0676 17.6955 15.9974C17.1675 15.4797 16.6265 14.9493 16.0886 14.4307L16.0885 14.4306M17.9097 16.2074L16.0885 14.4306M16.0885 14.4306C15.9615 14.3083 15.8347 14.2096 15.7134 14.1406C15.5939 14.0727 15.4693 14.0279 15.3495 14.0279C15.1776 14.0279 15.0321 14.1245 14.9234 14.2274C14.812 14.333 14.7179 14.4655 14.647 14.5799L14.647 14.5799M16.0885 14.4306L14.647 14.5799M14.647 14.5799L14.6467 14.5805M14.647 14.5799L14.6467 14.5805M14.6467 14.5805C13.9543 15.7096 13.611 17.0552 13.6529 18.4764C13.7223 20.9181 14.924 23.0586 15.9103 24.4171M14.6467 14.5805L15.9103 24.4171M17.4748 26.2759L17.4746 26.2757C17.0089 25.7816 16.6183 25.3318 16.2792 24.9029M17.4748 26.2759L16.3968 24.8098M17.4748 26.2759C18.3185 27.1677 19.2202 28.0446 20.0889 28.8893L20.593 29.3797L20.5932 29.3799L21.3265 30.0964C22.5469 31.2892 23.8107 32.5244 25.0831 33.7069L25.0834 33.7072M17.4748 26.2759L25.0834 33.7072M16.2792 24.9029L16.3968 24.8098M16.2792 24.9029C16.2792 24.9029 16.2792 24.9029 16.2792 24.9029L16.3968 24.8098M16.2792 24.9029C16.178 24.7751 16.0731 24.6371 15.9586 24.4819M16.3968 24.8098C16.2966 24.6832 16.1923 24.5461 16.0781 24.3913M15.9586 24.4819C15.959 24.4824 15.9594 24.483 15.9598 24.4835L16.0781 24.3913M15.9586 24.4819C15.9424 24.4611 15.926 24.4392 15.9103 24.4171M15.9586 24.4819C15.9582 24.4814 15.9578 24.4809 15.9574 24.4804L16.0781 24.3913M16.0781 24.3913L15.9103 24.4171M15.9103 24.4171C15.9104 24.4173 15.9106 24.4175 15.9107 24.4177L16.0321 24.3296L15.9098 24.4164C15.9099 24.4166 15.9101 24.4168 15.9103 24.4171ZM25.0834 33.7072C25.5488 34.1372 26.1655 34.3749 26.805 34.3716H26.8051M25.0834 33.7072L26.8051 34.3716M26.8051 34.3716C27.3116 34.3686 27.8081 34.2321 28.2423 33.9764M26.8051 34.3716L28.2423 33.9764M41.1035 43.2491L41.1038 43.2488C41.7938 42.5198 41.7696 41.337 41.0427 40.611C40.1504 39.72 39.1758 38.7608 37.9769 37.5938L37.9767 37.5936C37.0438 36.683 36.0927 35.7604 35.1727 34.868L35.1727 34.868C34.0803 33.8082 32.9499 32.7113 31.8417 31.6295C31.3099 31.1117 30.7739 30.584 30.2457 30.0641C30.0279 29.8496 29.8114 29.6365 29.5971 29.4259C29.3899 29.2225 29.1807 29.0168 28.9702 28.8099C28.4745 28.3225 27.9719 27.8284 27.4733 27.3417L41.1035 43.2491ZM41.1035 43.2491C40.9152 43.4491 40.6864 43.6093 40.4312 43.7192C40.1761 43.8291 39.9003 43.8864 39.6211 43.8874C39.1412 43.8885 38.6788 43.714 38.3249 43.3994L38.3249 43.3993M41.1035 43.2491L38.3249 43.3993M38.3249 43.3993C37.8124 42.9437 37.3189 42.4581 36.8388 41.9854L36.8372 41.9839C36.667 41.8162 36.4972 41.6488 36.3257 41.4822C35.8805 41.0483 35.4359 40.6143 34.9918 40.1803L34.9918 40.1803M38.3249 43.3993L34.9918 40.1803M34.9918 40.1803L34.8902 40.0811C34.0102 39.2213 33.1018 38.3339 32.1979 37.4694C31.69 36.9828 31.538 36.5435 31.5177 36.2034C31.497 35.8588 31.6098 35.5959 31.6707 35.456L31.6709 35.4554M34.9918 40.1803L31.6709 35.4554M31.6709 35.4554C31.819 35.1109 31.8536 34.7804 31.754 34.4479C31.656 34.1204 31.4325 33.8074 31.0965 33.4848L31.0964 33.4847M31.6709 35.4554L31.0964 33.4847M31.0964 33.4847C30.8195 33.2193 30.5202 32.9359 30.217 32.6649C29.906 32.3787 29.4961 32.2184 29.0699 32.2155L29.0675 32.2155M31.0964 33.4847L29.0675 32.2155M29.0675 32.2155C28.6898 32.2189 28.3234 32.3433 28.0245 32.5702M29.0675 32.2155L28.0245 32.5702M28.0245 32.5702C27.5386 32.9286 27.1717 33.0718 26.8207 33.0718C26.3006 33.0718 25.8755 32.7343 25.5398 32.4058L25.5397 32.4057C24.9741 31.8537 24.3946 31.2961 23.8344 30.7573L23.8343 30.7572C22.8487 29.8112 21.8353 28.8341 20.8567 27.8501C20.5603 27.5521 20.2543 27.2517 19.9594 26.9623L19.9519 26.9549L19.9517 26.9547C18.8601 25.8869 17.7425 24.793 16.8382 23.5105C15.9587 22.2573 15.3606 20.9152 15.109 19.629L15.1089 19.6282C14.9641 18.909 14.9316 18.1726 15.0123 17.4439L15.0132 17.4356V17.4286C15.0133 17.4284 15.0133 17.4281 15.0133 17.4278L15.0144 17.418C15.0146 17.4164 15.0149 17.4146 15.0151 17.4125C15.0163 17.4037 15.0179 17.3911 15.0191 17.3783L14.8698 17.364M28.0245 32.5702L14.8632 17.4273C14.8632 17.4176 14.8648 17.4057 14.8665 17.3921C14.8676 17.3834 14.8689 17.374 14.8698 17.364M14.8698 17.364L14.8701 17.3617C14.921 16.8632 15.0155 15.9401 15.7036 15.9401M14.8698 17.364L15.019 17.3793C15.0449 17.1263 15.0799 16.7916 15.1869 16.5204C15.2398 16.3862 15.3066 16.2782 15.3893 16.2047C15.4684 16.1345 15.5676 16.0905 15.7016 16.0901M15.7036 15.9401L15.6996 16.09C15.7002 16.0901 15.7009 16.0901 15.7016 16.0901M15.7036 15.9401C15.8011 15.9427 15.8971 15.9646 15.9858 16.0044C16.0745 16.0442 16.1539 16.1012 16.2194 16.1718L27.4732 27.3417C26.316 26.213 25.1366 25.0682 23.9956 23.961L23.9956 23.961C23.8067 23.7776 23.6163 23.5929 23.425 23.4072C22.724 22.727 22.0105 22.0345 21.307 21.3504L21.307 21.3504C19.7207 19.8068 18.0227 18.1471 16.1145 16.279L16.1093 16.2739L16.1094 16.2738C16.0577 16.218 15.9948 16.1729 15.9243 16.1412C15.8545 16.1098 15.7787 16.0924 15.7016 16.0901M15.7036 15.9401V16.0901C15.7029 16.0901 15.7022 16.0901 15.7016 16.0901M28.2423 33.9764L28.1661 33.8472M28.2423 33.9764L28.1661 33.8472M28.1661 33.8472L28.2416 33.9768C28.658 33.7344 28.8648 33.6187 29.1075 33.6187M28.1661 33.8472L29.1075 33.6187M29.1075 33.6187C29.4193 33.6187 29.612 33.7956 30.0168 34.1907L29.1075 33.6187ZM30.0512 34.2257L30.0526 34.2272L30.1597 34.1222L30.0497 34.2241L30.0512 34.2257Z" fill="white" stroke="white" stroke-width="0.3"/>
<mask id="path-2-outside-1_0_1" maskUnits="userSpaceOnUse" x="12" y="31.9756" width="14" height="14" fill="black">
<rect fill="white" x="12" y="31.9756" width="14" height="14"/>
<path d="M25.2378 37.4125C24.1617 38.4716 23.0676 39.5411 22.0072 40.5834L21.7065 40.8776C21.3232 41.2518 20.9399 41.6272 20.5565 42.0041C19.9166 42.6278 19.2546 43.2724 18.6081 43.9122C17.8836 44.6274 17.0745 44.9898 16.2014 44.9898C15.7587 44.9854 15.3209 44.8983 14.9117 44.7332C14.8707 44.7172 14.8296 44.7003 14.7902 44.6827H14.7828L14.7565 44.6723L14.7409 44.6635L14.7236 44.6562L14.676 44.6338L14.6193 44.6057L14.5454 44.5657L14.538 44.5608H14.5298C14.4846 44.536 14.4419 44.5103 14.3992 44.4807C14.3565 44.451 14.3367 44.4406 14.3039 44.4181C14.2439 44.3772 14.1823 44.3315 14.1182 44.2794C14.0911 44.2578 14.0649 44.2361 14.041 44.2145C14.0172 44.1928 13.986 44.1656 13.9589 44.1391C13.9318 44.1127 13.917 44.0998 13.8973 44.0798L13.8809 44.063L13.8119 43.9908C13.7889 43.9659 13.7667 43.9411 13.7453 43.9154L13.7404 43.909L13.7355 43.9042L13.7199 43.885L13.6919 43.8521C13.5885 43.7226 13.4957 43.5853 13.4143 43.4416C13.4094 43.432 13.4036 43.4224 13.3987 43.4119C13.3938 43.4015 13.3864 43.3911 13.3806 43.3807L13.3716 43.3622L13.3601 43.3406V43.3093C13.3437 43.278 13.3272 43.2436 13.3149 43.2171L13.2763 43.1369C13.2623 43.1057 13.2484 43.0696 13.2336 43.0319C13.2188 42.9942 13.2065 42.9614 13.195 42.9269C13.1851 42.8988 13.1753 42.8708 13.167 42.8419V42.8331V42.8243C13.167 42.817 13.1621 42.8098 13.1605 42.8034V42.7858L13.1547 42.7681C13.1482 42.7481 13.1416 42.7232 13.1342 42.6944V42.6848V42.6743L13.1235 42.6366L13.0726 42.5877L13.0635 42.5517V42.538V42.534L13.052 42.4795V42.4747V42.4699C13.0471 42.4442 13.043 42.4186 13.0389 42.3897L13.0249 42.2935C13.0208 42.2686 13.0184 42.2446 13.0159 42.2221C13.0134 42.1997 13.0085 42.1588 13.0069 42.1275V42.1211C13.0069 42.0858 13.0019 42.0514 13.0003 42.0169V42.0033C13.0003 41.9632 13.0003 41.9231 13.0003 41.883V41.8533C13.0003 41.8405 13.0003 41.8285 13.0003 41.8165V41.786V41.7467V41.7339C12.9999 41.7293 12.9999 41.7248 13.0003 41.7202V41.7106C13.0003 41.6778 13.0052 41.6457 13.0077 41.616C13.0159 41.5238 13.0266 41.4364 13.0405 41.3547C13.0504 41.2961 13.0635 41.2344 13.0792 41.1662C13.0948 41.0981 13.1128 41.0356 13.1284 40.9842L13.1342 40.9658C13.1364 40.9571 13.1392 40.9485 13.1424 40.9401L13.1482 40.9241L13.1531 40.9073C13.1531 40.8953 13.1605 40.884 13.1654 40.8712V40.8656C13.1753 40.8391 13.1851 40.8127 13.1958 40.7854V40.7806C13.2048 40.7565 13.2155 40.7317 13.227 40.7052V40.6996V40.694C13.236 40.6732 13.2451 40.6515 13.2566 40.6275V40.6227V40.617C13.273 40.5802 13.2927 40.5369 13.3198 40.4864L13.3527 40.4262V40.4206V40.4158L13.3757 40.3733L13.388 40.3525L13.402 40.3292L13.4233 40.2947L13.4348 40.2755C13.4422 40.2635 13.4496 40.2514 13.4578 40.2394V40.2346V40.229C13.5137 40.1424 13.5753 40.0566 13.641 39.9732L13.6862 39.9179C13.7716 39.8141 13.8626 39.7148 13.9589 39.6205C16.0075 37.6169 18.1432 35.5324 20.5089 33.241C20.6855 33.0702 20.8769 32.9756 21.0469 32.9756C21.217 32.9756 21.3459 33.0558 21.4576 33.2161C21.6581 33.4975 21.5578 33.6218 21.5102 33.6811C21.175 34.0964 20.8161 34.4928 20.435 34.8685C19.455 35.8306 18.4545 36.8079 17.4869 37.7548C16.5702 38.6488 15.6231 39.5724 14.6941 40.4856C13.8726 41.2969 13.8546 42.429 14.6604 43.3021C15.0179 43.6776 15.5119 43.9014 16.0365 43.9253C16.5611 43.9493 17.0745 43.7716 17.4664 43.4304C18.2155 42.7721 18.9367 42.0674 19.6349 41.3859C19.7992 41.2256 19.9635 41.0652 20.1278 40.9049C20.775 40.2755 21.4289 39.6341 22.0622 39.0135C22.8614 38.2302 23.6878 37.4197 24.5051 36.6283C24.6371 36.4867 24.8202 36.4005 25.016 36.3878C25.1976 36.3878 25.3553 36.4937 25.4596 36.6845C25.522 36.7903 25.6403 37.0124 25.2378 37.4125Z"/>
</mask>
<path d="M25.2378 37.4125C24.1617 38.4716 23.0676 39.5411 22.0072 40.5834L21.7065 40.8776C21.3232 41.2518 20.9399 41.6272 20.5565 42.0041C19.9166 42.6278 19.2546 43.2724 18.6081 43.9122C17.8836 44.6274 17.0745 44.9898 16.2014 44.9898C15.7587 44.9854 15.3209 44.8983 14.9117 44.7332C14.8707 44.7172 14.8296 44.7003 14.7902 44.6827H14.7828L14.7565 44.6723L14.7409 44.6635L14.7236 44.6562L14.676 44.6338L14.6193 44.6057L14.5454 44.5657L14.538 44.5608H14.5298C14.4846 44.536 14.4419 44.5103 14.3992 44.4807C14.3565 44.451 14.3367 44.4406 14.3039 44.4181C14.2439 44.3772 14.1823 44.3315 14.1182 44.2794C14.0911 44.2578 14.0649 44.2361 14.041 44.2145C14.0172 44.1928 13.986 44.1656 13.9589 44.1391C13.9318 44.1127 13.917 44.0998 13.8973 44.0798L13.8809 44.063L13.8119 43.9908C13.7889 43.9659 13.7667 43.9411 13.7453 43.9154L13.7404 43.909L13.7355 43.9042L13.7199 43.885L13.6919 43.8521C13.5885 43.7226 13.4957 43.5853 13.4143 43.4416C13.4094 43.432 13.4036 43.4224 13.3987 43.4119C13.3938 43.4015 13.3864 43.3911 13.3806 43.3807L13.3716 43.3622L13.3601 43.3406V43.3093C13.3437 43.278 13.3272 43.2436 13.3149 43.2171L13.2763 43.1369C13.2623 43.1057 13.2484 43.0696 13.2336 43.0319C13.2188 42.9942 13.2065 42.9614 13.195 42.9269C13.1851 42.8988 13.1753 42.8708 13.167 42.8419V42.8331V42.8243C13.167 42.817 13.1621 42.8098 13.1605 42.8034V42.7858L13.1547 42.7681C13.1482 42.7481 13.1416 42.7232 13.1342 42.6944V42.6848V42.6743L13.1235 42.6366L13.0726 42.5877L13.0635 42.5517V42.538V42.534L13.052 42.4795V42.4747V42.4699C13.0471 42.4442 13.043 42.4186 13.0389 42.3897L13.0249 42.2935C13.0208 42.2686 13.0184 42.2446 13.0159 42.2221C13.0134 42.1997 13.0085 42.1588 13.0069 42.1275V42.1211C13.0069 42.0858 13.0019 42.0514 13.0003 42.0169V42.0033C13.0003 41.9632 13.0003 41.9231 13.0003 41.883V41.8533C13.0003 41.8405 13.0003 41.8285 13.0003 41.8165V41.786V41.7467V41.7339C12.9999 41.7293 12.9999 41.7248 13.0003 41.7202V41.7106C13.0003 41.6778 13.0052 41.6457 13.0077 41.616C13.0159 41.5238 13.0266 41.4364 13.0405 41.3547C13.0504 41.2961 13.0635 41.2344 13.0792 41.1662C13.0948 41.0981 13.1128 41.0356 13.1284 40.9842L13.1342 40.9658C13.1364 40.9571 13.1392 40.9485 13.1424 40.9401L13.1482 40.9241L13.1531 40.9073C13.1531 40.8953 13.1605 40.884 13.1654 40.8712V40.8656C13.1753 40.8391 13.1851 40.8127 13.1958 40.7854V40.7806C13.2048 40.7565 13.2155 40.7317 13.227 40.7052V40.6996V40.694C13.236 40.6732 13.2451 40.6515 13.2566 40.6275V40.6227V40.617C13.273 40.5802 13.2927 40.5369 13.3198 40.4864L13.3527 40.4262V40.4206V40.4158L13.3757 40.3733L13.388 40.3525L13.402 40.3292L13.4233 40.2947L13.4348 40.2755C13.4422 40.2635 13.4496 40.2514 13.4578 40.2394V40.2346V40.229C13.5137 40.1424 13.5753 40.0566 13.641 39.9732L13.6862 39.9179C13.7716 39.8141 13.8626 39.7148 13.9589 39.6205C16.0075 37.6169 18.1432 35.5324 20.5089 33.241C20.6855 33.0702 20.8769 32.9756 21.0469 32.9756C21.217 32.9756 21.3459 33.0558 21.4576 33.2161C21.6581 33.4975 21.5578 33.6218 21.5102 33.6811C21.175 34.0964 20.8161 34.4928 20.435 34.8685C19.455 35.8306 18.4545 36.8079 17.4869 37.7548C16.5702 38.6488 15.6231 39.5724 14.6941 40.4856C13.8726 41.2969 13.8546 42.429 14.6604 43.3021C15.0179 43.6776 15.5119 43.9014 16.0365 43.9253C16.5611 43.9493 17.0745 43.7716 17.4664 43.4304C18.2155 42.7721 18.9367 42.0674 19.6349 41.3859C19.7992 41.2256 19.9635 41.0652 20.1278 40.9049C20.775 40.2755 21.4289 39.6341 22.0622 39.0135C22.8614 38.2302 23.6878 37.4197 24.5051 36.6283C24.6371 36.4867 24.8202 36.4005 25.016 36.3878C25.1976 36.3878 25.3553 36.4937 25.4596 36.6845C25.522 36.7903 25.6403 37.0124 25.2378 37.4125Z" fill="white"/>
<path d="M25.2378 37.4125C24.1617 38.4716 23.0676 39.5411 22.0072 40.5834L21.7065 40.8776C21.3232 41.2518 20.9399 41.6272 20.5565 42.0041C19.9166 42.6278 19.2546 43.2724 18.6081 43.9122C17.8836 44.6274 17.0745 44.9898 16.2014 44.9898C15.7587 44.9854 15.3209 44.8983 14.9117 44.7332C14.8707 44.7172 14.8296 44.7003 14.7902 44.6827H14.7828L14.7565 44.6723L14.7409 44.6635L14.7236 44.6562L14.676 44.6338L14.6193 44.6057L14.5454 44.5657L14.538 44.5608H14.5298C14.4846 44.536 14.4419 44.5103 14.3992 44.4807C14.3565 44.451 14.3367 44.4406 14.3039 44.4181C14.2439 44.3772 14.1823 44.3315 14.1182 44.2794C14.0911 44.2578 14.0649 44.2361 14.041 44.2145C14.0172 44.1928 13.986 44.1656 13.9589 44.1391C13.9318 44.1127 13.917 44.0998 13.8973 44.0798L13.8809 44.063L13.8119 43.9908C13.7889 43.9659 13.7667 43.9411 13.7453 43.9154L13.7404 43.909L13.7355 43.9042L13.7199 43.885L13.6919 43.8521C13.5885 43.7226 13.4957 43.5853 13.4143 43.4416C13.4094 43.432 13.4036 43.4224 13.3987 43.4119C13.3938 43.4015 13.3864 43.3911 13.3806 43.3807L13.3716 43.3622L13.3601 43.3406V43.3093C13.3437 43.278 13.3272 43.2436 13.3149 43.2171L13.2763 43.1369C13.2623 43.1057 13.2484 43.0696 13.2336 43.0319C13.2188 42.9942 13.2065 42.9614 13.195 42.9269C13.1851 42.8988 13.1753 42.8708 13.167 42.8419V42.8331V42.8243C13.167 42.817 13.1621 42.8098 13.1605 42.8034V42.7858L13.1547 42.7681C13.1482 42.7481 13.1416 42.7232 13.1342 42.6944V42.6848V42.6743L13.1235 42.6366L13.0726 42.5877L13.0635 42.5517V42.538V42.534L13.052 42.4795V42.4747V42.4699C13.0471 42.4442 13.043 42.4186 13.0389 42.3897L13.0249 42.2935C13.0208 42.2686 13.0184 42.2446 13.0159 42.2221C13.0134 42.1997 13.0085 42.1588 13.0069 42.1275V42.1211C13.0069 42.0858 13.0019 42.0514 13.0003 42.0169V42.0033C13.0003 41.9632 13.0003 41.9231 13.0003 41.883V41.8533C13.0003 41.8405 13.0003 41.8285 13.0003 41.8165V41.786V41.7467V41.7339C12.9999 41.7293 12.9999 41.7248 13.0003 41.7202V41.7106C13.0003 41.6778 13.0052 41.6457 13.0077 41.616C13.0159 41.5238 13.0266 41.4364 13.0405 41.3547C13.0504 41.2961 13.0635 41.2344 13.0792 41.1662C13.0948 41.0981 13.1128 41.0356 13.1284 40.9842L13.1342 40.9658C13.1364 40.9571 13.1392 40.9485 13.1424 40.9401L13.1482 40.9241L13.1531 40.9073C13.1531 40.8953 13.1605 40.884 13.1654 40.8712V40.8656C13.1753 40.8391 13.1851 40.8127 13.1958 40.7854V40.7806C13.2048 40.7565 13.2155 40.7317 13.227 40.7052V40.6996V40.694C13.236 40.6732 13.2451 40.6515 13.2566 40.6275V40.6227V40.617C13.273 40.5802 13.2927 40.5369 13.3198 40.4864L13.3527 40.4262V40.4206V40.4158L13.3757 40.3733L13.388 40.3525L13.402 40.3292L13.4233 40.2947L13.4348 40.2755C13.4422 40.2635 13.4496 40.2514 13.4578 40.2394V40.2346V40.229C13.5137 40.1424 13.5753 40.0566 13.641 39.9732L13.6862 39.9179C13.7716 39.8141 13.8626 39.7148 13.9589 39.6205C16.0075 37.6169 18.1432 35.5324 20.5089 33.241C20.6855 33.0702 20.8769 32.9756 21.0469 32.9756C21.217 32.9756 21.3459 33.0558 21.4576 33.2161C21.6581 33.4975 21.5578 33.6218 21.5102 33.6811C21.175 34.0964 20.8161 34.4928 20.435 34.8685C19.455 35.8306 18.4545 36.8079 17.4869 37.7548C16.5702 38.6488 15.6231 39.5724 14.6941 40.4856C13.8726 41.2969 13.8546 42.429 14.6604 43.3021C15.0179 43.6776 15.5119 43.9014 16.0365 43.9253C16.5611 43.9493 17.0745 43.7716 17.4664 43.4304C18.2155 42.7721 18.9367 42.0674 19.6349 41.3859C19.7992 41.2256 19.9635 41.0652 20.1278 40.9049C20.775 40.2755 21.4289 39.6341 22.0622 39.0135C22.8614 38.2302 23.6878 37.4197 24.5051 36.6283C24.6371 36.4867 24.8202 36.4005 25.016 36.3878C25.1976 36.3878 25.3553 36.4937 25.4596 36.6845C25.522 36.7903 25.6403 37.0124 25.2378 37.4125Z" stroke="white" stroke-width="0.6" mask="url(#path-2-outside-1_0_1)"/>
<path d="M45.7798 19.4144L45.7796 19.4147C45.4391 19.7476 45.0988 20.081 44.7589 20.415L45.7798 19.4144ZM45.7798 19.4144C45.9232 19.2737 46.0071 19.1563 46.0494 19.0481C46.0943 18.9332 46.0867 18.8426 46.0759 18.7742L46.0763 18.7742L46.0739 18.764C46.0371 18.6034 45.9815 18.4883 45.9047 18.4086C45.8257 18.3268 45.7385 18.2972 45.6719 18.2814C45.6133 18.2665 45.5531 18.2586 45.4926 18.2578V18.2578H45.4907C45.3604 18.2578 45.1959 18.3 45.0048 18.4865L45.0044 18.4869C44.4775 19.0053 43.9429 19.5248 43.4189 20.0339C43.3282 20.1221 43.2378 20.21 43.1478 20.2974L43.1478 20.2975C42.071 21.3453 40.9574 22.429 39.8749 23.5056L39.8743 23.5062C39.8474 23.5332 39.8214 23.5587 39.7954 23.5832L39.7954 23.5832L39.7937 23.5848L39.7567 23.621C39.6973 23.6773 39.6532 23.7188 39.5974 23.768C39.5773 23.7856 39.5581 23.8022 39.5392 23.8185C39.5077 23.8455 39.4771 23.8719 39.445 23.9013C39.4058 23.9371 39.3675 23.9673 39.3231 24.0024C39.3157 24.0082 39.3081 24.0142 39.3003 24.0204L39.2291 24.0749L39.2284 24.0754C39.2042 24.0942 39.1826 24.1109 39.1606 24.1266L39.1606 24.1266L39.1581 24.1284C39.0838 24.184 39.0095 24.2357 38.9371 24.2826C38.9369 24.2827 38.9367 24.2829 38.9364 24.283L38.8744 24.3223L38.8743 24.3224L38.8579 24.3328L38.8579 24.3327L38.8551 24.3346C38.8261 24.354 38.798 24.3702 38.7699 24.3863L38.7699 24.3862L38.7656 24.3888C38.351 24.6457 37.8766 24.7966 37.3861 24.8274H37.386H37.3857H37.3854H37.3851H37.3848H37.3844H37.3841H37.3838H37.3835H37.3832H37.3829H37.3826H37.3822H37.3819H37.3816H37.3813H37.381H37.3807H37.3804H37.3801H37.3797H37.3794H37.3791H37.3788H37.3785H37.3782H37.3779H37.3775H37.3772H37.3769H37.3766H37.3763H37.376H37.3757H37.3753H37.375H37.3747H37.3744H37.3741H37.3738H37.3734H37.3731H37.3728H37.3725H37.3722H37.3719H37.3716H37.3712H37.3709H37.3706H37.3703H37.37H37.3697H37.3694H37.369H37.3687H37.3684H37.3681H37.3678H37.3675H37.3671H37.3668H37.3665H37.3662H37.3659H37.3656H37.3653H37.3649H37.3646H37.3643H37.364H37.3637H37.3634H37.363H37.3627H37.3624H37.3621H37.3618H37.3615H37.3611H37.3608H37.3605H37.3602H37.3599H37.3596H37.3592H37.3589H37.3586H37.3583H37.358H37.3577H37.3573H37.357H37.3567H37.3564H37.3561H37.3558H37.3554H37.3551H37.3548H37.3545H37.3542H37.3539H37.3535H37.3532H37.3529H37.3526H37.3523H37.352H37.3516H37.3513H37.351H37.3507H37.3504H37.3501H37.3497H37.3494H37.3491H37.3488H37.3485H37.3481H37.3478H37.3475H37.3472H37.3469H37.3466H37.3462H37.3459H37.3456H37.3453H37.345H37.3447H37.3443H37.344H37.3437H37.3434H37.3431H37.3427H37.3424H37.3421H37.3418H37.3415H37.3412H37.3408H37.3405H37.3402H37.3399H37.3396H37.3392H37.3389H37.3386H37.3383H37.338H37.3377H37.3373H37.337H37.3367H37.3364H37.3361H37.3357H37.3354H37.3351H37.3348H37.3345H37.3341H37.3338H37.3335H37.3332H37.3329H37.3325H37.3322H37.3319H37.3316H37.3313H37.331H37.3306H37.3303H37.33H37.3297H37.3294H37.329H37.3287H37.3284H37.3281H37.3278H37.3274H37.3271H37.3268H37.3265H37.3262H37.3258H37.3255H37.3252H37.3249H37.3246H37.3242H37.3239H37.3236H37.3233H37.323H37.3226H37.3223H37.322H37.3217H37.3214H37.321H37.3207H37.3204H37.3201H37.3198H37.3194H37.3191H37.3188H37.3185H37.3182H37.3178H37.3175H37.3172H37.3169H37.3166H37.3162H37.3159H37.3156H37.3153H37.3149H37.3146H37.3143H37.314H37.3137H37.3133H37.313H37.3127H37.3124H37.3121H37.3117H37.3114H37.3111H37.3108H37.3105H37.3101H37.3098H37.3095H37.3092H37.3089H37.3085H37.3082H37.3079H37.3076H37.3072H37.3069H37.3066H37.3063H37.306H37.3056H37.3053H37.305H37.3047H37.3043H37.304H37.3037H37.3034H37.3031H37.3027H37.3024H37.3021H37.3018H37.3015H37.3011H37.3008H37.3005H37.3002H37.2998H37.2995H37.2992H37.2989H37.2986H37.2982H37.2979H37.2976H37.2973H37.2969H37.2966H37.2963H37.296H37.2957H37.2953H37.295H37.2947H37.2944H37.294H37.2937H37.2934H37.2931H37.2927H37.2924H37.2921H37.2918H37.2915H37.2911H37.2908H37.2905H37.2902H37.2898H37.2895H37.2892H37.2889H37.2886H37.2882H37.2879H37.2876H37.2873H37.2869H37.2866H37.2863H37.286H37.2856H37.2853H37.285H37.2847H37.2844H37.284H37.2837H37.2834H37.2831H37.2827H37.2824H37.2821H37.2818H37.2814H37.2811H37.2808H37.2805H37.2801H37.2798H37.2795H37.2792H37.2789H37.2785H37.2782H37.2779H37.2776H37.2772H37.2769H37.2766H37.2763H37.2759H37.2756H37.2753H37.275H37.2746H37.2743H37.274H37.2737H37.2733H37.273H37.2727H37.2724H37.272H37.2717H37.2714H37.2711H37.2707H37.2704H37.2701H37.2698H37.2695H37.2691H37.2688H37.2685H37.2682H37.2678H37.2675H37.2672H37.2669H37.2665H37.2662H37.2659H37.2656H37.2652H37.2649H37.2646H37.2643H37.2639H37.2636H37.2633H37.263H37.2626H37.2623H37.262H37.2617H37.2613H37.261H37.2607H37.2604H37.26H37.2597H37.2594H37.2591H37.2587H37.2584H37.2581H37.2578H37.2574H37.2571H37.2568H37.2565H37.2561H37.2558H37.2555H37.2552H37.2548H37.2545H37.2542H37.2538H37.2535H37.2532H37.2529H37.2525H37.2522H37.2519H37.2516H37.2512H37.2509H37.2506H37.2503H37.2499H37.2496H37.2493H37.249H37.2486H37.2483H37.248H37.2477H37.2473H37.247H37.2467H37.2464H37.246H37.2457H37.2454H37.245H37.2447H37.2444H37.2441H37.2437H37.2434H37.2431H37.2428H37.2424H37.2421H37.2418H37.2415H37.2411H37.2408H37.2405H37.2402H37.2398H37.2395H37.2392H37.2388H37.2385H37.2382H37.2379H37.2375H37.2372H37.2369H37.2366H37.2362H37.2359H37.2356H37.2353H37.2349H37.2346H37.2343H37.2339H37.2336H37.2333H37.233H37.2326H37.2323H37.232H37.2317H37.2313H37.231H37.2307H37.2304H37.23H37.2297H37.2294H37.229H37.2287H37.2284H37.2281H37.2277H37.2274H37.2273C37.0011 24.8247 36.7753 24.8108 36.5506 24.7858L36.5423 24.7849H36.534H36.497C36.2733 24.7628 36.0532 24.7416 35.8399 24.7416H35.8022C35.5601 24.7361 35.3196 24.7815 35.0969 24.8748L35.0783 24.8818L35.0682 24.8856L35.0588 24.8908L35.0512 24.8949L35.048 24.8964L35.0409 24.8995L35.0341 24.9034L35.0235 24.9095L35.0066 24.9181L45.7798 19.4144ZM42.1385 22.7629L42.2427 22.8708C41.481 23.6063 40.6596 24.3912 39.8277 25.1364L39.8258 25.1381L39.8258 25.1381C39.8009 25.1596 39.7762 25.1804 39.7518 25.2004C39.7384 25.2116 39.7339 25.2149 39.7309 25.2171C39.7283 25.219 39.7269 25.22 39.7216 25.2248L39.7158 25.2301L39.7095 25.2347L39.7047 25.2382C39.0837 25.721 38.0968 26.0237 37.1845 26.0237H37.0556C35.8808 26.0237 34.975 26.4168 34.2702 27.2226C34.2255 27.2749 34.1776 27.3325 34.1307 27.3915C34.0149 27.5382 33.8994 27.6294 33.7853 27.6827C33.6703 27.7363 33.5669 27.7467 33.4849 27.7467H33.43H33.4298V27.5967L42.1385 22.7629ZM42.1385 22.7629L42.2427 22.8708M42.1385 22.7629L42.2427 22.8708M42.2427 22.8708C43.086 22.0566 43.9373 21.2224 44.7588 20.415L42.2427 22.8708ZM32.8516 27.0677C32.8268 27.1648 32.8435 27.2746 32.9043 27.3991L35.0064 24.9182C34.9818 24.9306 34.952 24.9465 34.9189 24.9674C34.4431 25.2652 33.9891 25.7679 33.5687 26.2335C33.5578 26.2455 33.547 26.2575 33.5362 26.2695L33.5362 26.2695L33.5352 26.2705C33.3364 26.4949 33.1497 26.6993 32.9596 26.8904L32.9582 26.8917C32.9331 26.9167 32.8755 26.9737 32.8516 27.0677Z" fill="white" stroke="white" stroke-width="0.3"/>
<path d="M40.4997 13.3986L40.4998 13.399C40.502 13.4159 40.502 13.4331 40.4998 13.4501L40.4984 13.4606L40.4956 13.4708C40.4611 13.5946 40.3937 13.7039 40.3154 13.8035C40.238 13.9021 40.1436 13.9989 40.049 14.0952L39.9684 14.1825L39.9672 14.1838C39.8543 14.3032 39.736 14.4181 39.6172 14.5336C39.5683 14.5811 39.5194 14.6287 39.4706 14.6767L39.4688 14.6785L39.4688 14.6785C39.4539 14.6927 39.4389 14.7069 39.4239 14.7211C39.3392 14.8017 39.2533 14.8833 39.1691 14.9661L40.4997 13.3986ZM40.4997 13.3986C40.4887 13.3159 40.4652 13.2353 40.4301 13.1594C40.4009 13.0894 40.3559 13.0272 40.2988 12.9771L40.2988 12.9771C40.2408 12.9262 40.1719 12.8893 40.0974 12.8689L40.0974 12.8689L40.0962 12.8686C40.0504 12.8565 40.0033 12.8503 39.956 12.85H39.9551C39.7905 12.85 39.6327 12.9264 39.5042 13.0106C39.3726 13.0968 39.2522 13.2044 39.1596 13.2919L39.1596 13.2919C38.349 14.0583 37.5369 14.8486 36.7501 15.6143L36.6634 15.6986L36.6633 15.6988M40.4997 13.3986L36.6633 15.6988M37.8647 16.249L37.864 16.2497C37.4927 16.6102 37.1173 16.9752 36.733 17.3489C36.2511 17.8173 35.7553 18.2993 35.2363 18.8032L35.2361 18.8034L35.1445 18.892L35.1441 18.8924L34.816 19.2127L34.8155 19.2132C34.0524 19.9509 33.6976 20.724 33.7046 21.5815L33.7046 21.5827L33.7046 21.585C33.7046 21.6204 33.7047 21.6732 33.6966 21.7308C33.6916 21.7672 33.689 21.8313 33.689 21.901C33.689 22.3074 33.687 22.615 33.6755 22.8512C33.6641 23.0856 33.643 23.2612 33.6001 23.3985L33.5995 23.4004L33.5995 23.4004C33.5225 23.6356 33.3707 23.7785 33.0214 24.1047C33.0213 24.1047 33.0213 24.1048 33.0212 24.1048L32.9983 24.1264C32.8473 24.2683 32.6635 24.441 32.4474 24.6609C32.4472 24.6611 32.447 24.6613 32.4468 24.6615L32.3398 24.5564L37.8647 16.249ZM37.8647 16.249C38.0034 16.1125 38.142 15.9764 38.2799 15.8408M37.8647 16.249L38.2799 15.8408M36.6633 15.6988L36.5681 15.7916L36.6633 15.6988ZM38.2799 15.8408C38.581 15.545 38.8789 15.2521 39.1691 14.9662L38.2799 15.8408ZM31.2016 25.5817C31.3774 25.5716 31.5447 25.5022 31.6746 25.3845L32.6371 21.4152L32.4871 21.4145C32.4871 21.4146 32.4871 21.4147 32.4871 21.4148C32.4863 21.5844 32.471 21.7472 32.4555 21.9121L32.4551 21.9165C32.4361 22.0777 32.4262 22.2399 32.4255 22.4023L32.4254 22.4023L32.4256 22.4083C32.4326 22.6019 32.3955 22.7946 32.317 22.9728C32.2385 23.1509 32.1203 23.3102 31.9708 23.439L31.9708 23.4389L31.9673 23.442C31.6438 23.7385 31.22 24.1359 30.8349 24.5588L30.8348 24.559C30.7159 24.6899 30.6372 24.8345 30.6304 24.9906C30.6235 25.15 30.6925 25.2917 30.8084 25.4118C30.8567 25.4647 30.9155 25.5071 30.981 25.5363C31.0474 25.5658 31.1192 25.5814 31.1919 25.5819L31.1919 25.5822L31.2016 25.5817Z" fill="white" stroke="white" stroke-width="0.3"/>
<path d="M42.9088 16.4227L42.9088 16.4229C42.8937 16.577 42.7894 16.7281 42.6915 16.8458C42.5882 16.97 42.4639 17.0887 42.3704 17.178C42.2756 17.2692 42.1772 17.3609 42.0818 17.4497L42.9088 16.4227ZM42.9088 16.4227C42.9208 16.2986 42.8545 16.1828 42.7838 16.1013C42.7088 16.0148 42.6046 15.9379 42.4887 15.8911C42.4145 15.8602 42.3349 15.8436 42.2544 15.8422L42.2544 15.8422H42.2519C42.2206 15.8422 42.1537 15.8428 42.0622 15.8779C41.973 15.9121 41.8682 15.976 41.7499 16.0905L41.7496 16.0908L41.1614 16.6641L41.1614 16.6641C40.9172 16.9024 40.6712 17.1425 40.424 17.3836C39.5952 18.1921 38.7532 19.0136 37.9249 19.8264C37.9248 19.8264 37.9248 19.8265 37.9247 19.8265L37.7607 19.9866C37.7316 20.015 37.7023 20.0435 37.673 20.0721C37.2079 20.5259 36.7247 20.9973 36.2777 21.4791C36.1796 21.582 36.1488 21.7229 36.1523 21.842C36.1558 21.9607 36.1941 22.0914 36.2758 22.1815L36.3869 22.0807M42.9088 16.4227L42.0354 17.4929C42.0252 17.5025 42.015 17.512 42.0047 17.5216C41.8664 17.6506 41.726 17.7815 41.5892 17.9158C41.3415 18.1613 41.0856 18.4115 40.8197 18.6714C40.6447 18.8425 40.4653 19.0178 40.2813 19.1987L40.2809 19.1991C39.3772 20.0811 38.453 20.9792 37.6518 21.7524C37.6518 21.7524 37.6518 21.7524 37.6517 21.7525L37.5075 21.8925L37.5074 21.8925L37.376 22.02C37.2651 22.1308 37.139 22.226 37.0013 22.3026C36.9074 22.3565 36.8016 22.3868 36.6933 22.3909L36.6876 22.3911V22.391C36.6615 22.391 36.6006 22.3908 36.5228 22.3611C36.4457 22.3316 36.3607 22.2767 36.2749 22.1805L36.3869 22.0807M36.3869 22.0807C36.2851 21.9684 36.2629 21.7111 36.3869 21.582L36.9274 22.1721C36.8545 22.2141 36.7721 22.2378 36.6876 22.241C36.6489 22.241 36.5298 22.241 36.3869 22.0807Z" fill="white" stroke="white" stroke-width="0.3"/>
<circle cx="29" cy="29" r="28.1" stroke="white" stroke-width="1.8"/>
</svg>




