<svg width="65" height="65" viewBox="0 0 65 65" fill="none" xmlns="http://www.w3.org/2000/svg">
<path d="M32.5 32.5C28.1902 32.5 24.057 30.788 21.0095 27.7405C17.962 24.693 16.25 20.5598 16.25 16.25C16.25 11.9402 17.962 7.80698 21.0095 4.75951C24.057 1.71205 28.1902 0 32.5 0C36.8098 0 40.943 1.71205 43.9905 4.75951C47.038 7.80698 48.75 11.9402 48.75 16.25C48.75 20.5598 47.038 24.693 43.9905 27.7405C40.943 30.788 36.8098 32.5 32.5 32.5ZM0 58.5C0 45.5 6.50325 39 19.513 39H45.5C58.5 39 65 45.5 65 58.5C65 62.8322 62.8322 65 58.5 65H6.5C2.16775 65 0 62.8322 0 58.5Z" fill="#fff"/>
</svg>
