<svg width="50" height="40" viewBox="0 0 50 40" fill="none" xmlns="http://www.w3.org/2000/svg">
<path d="M48.6352 19.255C46.9544 22.7799 40.893 28.6765 37.4302 31.8735C35.3225 33.8573 33.375 35.5732 32.0891 36.7154C31.7529 37.0051 31.4648 37.262 31.23 37.4751L31.1127 37.5736C30.2484 38.3992 29.3264 39.1588 28.3541 39.8468L28.2847 39.8634C28.2847 39.8688 28.2741 39.8743 28.2634 39.8853L28.2207 39.929H28.1567C28.1567 39.9345 28.1407 39.9397 28.13 39.9506C28.0796 39.9806 28.0228 39.9977 27.9646 40H27.8365C27.7096 39.9856 27.5892 39.9344 27.4897 39.8524C27.4536 39.825 27.4162 39.7994 27.3777 39.7758C26.5933 39.3168 24.9552 37.9177 21.535 34.7808C17.9385 31.5998 14.5066 28.2289 11.2531 24.6816C11.1036 24.5229 11.0205 24.3107 11.0215 24.0902C11.0225 23.8697 11.1075 23.6586 11.2584 23.5013C11.3303 23.423 11.4171 23.3604 11.5134 23.3177C11.6098 23.275 11.7137 23.2531 11.8187 23.2531C11.9236 23.2531 12.0275 23.275 12.1239 23.3177C12.2202 23.3604 12.307 23.423 12.3789 23.5013C17.3145 28.9663 24.7258 35.4749 27.1642 37.5242C27.3711 37.6973 27.6298 37.7925 27.897 37.7935C28.1641 37.7945 28.4234 37.7014 28.6315 37.5298C32.6867 34.147 44.7935 23.3919 47.1359 18.4953C48.4794 15.768 48.732 12.6117 47.8402 9.69667C46.9998 6.82781 45.1038 4.40583 42.5524 2.94205C40.1734 1.62728 37.3884 1.31188 34.7864 2.06253C32.1844 2.81318 29.9695 4.57095 28.6102 6.96419C28.5386 7.0819 28.439 7.17922 28.3208 7.24677C28.2025 7.31433 28.0694 7.35003 27.934 7.35058C27.7986 7.35112 27.6653 7.31631 27.5466 7.24971C27.4278 7.18311 27.3275 7.08692 27.2549 6.96979C24.2296 1.94202 18.2376 0.242291 13.3127 3.01303C8.11035 5.86574 6.04004 12.544 8.59586 18.2221C8.66656 18.3721 8.69078 18.5408 8.66523 18.7053C8.63967 18.8698 8.56556 19.0223 8.45289 19.1424C8.34022 19.2626 8.1944 19.3447 8.03493 19.3775C7.87545 19.4103 7.70998 19.3923 7.56076 19.326C7.46837 19.2855 7.38487 19.2264 7.31521 19.1523C7.24554 19.0781 7.19113 18.9904 7.15524 18.8942C4.23659 12.4401 6.62169 4.79472 12.587 1.49389C14.9349 0.175072 17.6499 -0.289577 20.2887 0.175943C22.9276 0.641463 25.3344 2.00961 27.1162 4.05692C27.226 4.17297 27.3574 4.26529 27.5027 4.3283C27.648 4.39131 27.8041 4.42356 27.9619 4.42356C28.1197 4.42356 28.2758 4.39131 28.4211 4.3283C28.5664 4.26529 28.6978 4.17297 28.8076 4.05692C30.5905 2.00951 32.9982 0.641436 35.6379 0.175943C38.2776 -0.28955 40.9935 0.175053 43.3422 1.49389C44.8035 2.29855 46.0936 3.39325 47.1371 4.71442C48.1806 6.0356 48.9565 7.55678 49.4195 9.1886C50.4073 12.5253 50.1271 16.121 48.6352 19.255Z" fill="#FCFDFF"/>
<path d="M40.4982 21.3533C40.4973 21.74 40.3642 22.1143 40.122 22.411C39.8798 22.7078 39.5438 22.9083 39.1723 22.9778C38.8008 23.0473 38.4173 22.9812 38.0884 22.7913C37.7594 22.6014 37.5057 22.2994 37.3715 21.9379H33.5191C33.3669 21.9454 33.2172 21.8957 33.0983 21.7981C32.9794 21.7005 32.8994 21.5618 32.8734 21.408L31.0006 12.2814L27.0575 26.5669C27.0186 26.7032 26.9368 26.8226 26.8249 26.9066C26.713 26.9905 26.5772 27.0345 26.4386 27.0314H26.4119C26.286 27.0416 26.1604 27.0083 26.0551 26.937C25.9497 26.8657 25.8706 26.7604 25.8303 26.6379L21.9565 16.7134L20.2758 21.5446C20.2402 21.6741 20.1651 21.7886 20.0614 21.8712C19.9577 21.9538 19.8309 22.0002 19.6995 22.0036H0.645667C0.474437 22.0036 0.310225 21.9339 0.189147 21.8098C0.0680696 21.6858 0 21.5177 0 21.3423C0 21.167 0.0680696 20.9988 0.189147 20.8748C0.310225 20.7508 0.474437 20.6811 0.645667 20.6811H19.246L21.375 14.5987C21.4106 14.4677 21.4863 14.3517 21.591 14.268C21.6957 14.1844 21.8238 14.1375 21.9565 14.1341C22.0833 14.1231 22.21 14.1566 22.3157 14.2291C22.4214 14.3016 22.4998 14.4088 22.5381 14.533L26.3478 24.3208L30.483 9.30314C30.5255 9.16401 30.612 9.04311 30.729 8.95997C30.8459 8.87684 30.9866 8.83603 31.1287 8.8439C31.2734 8.8393 31.4144 8.89179 31.5225 8.99039C31.6307 9.089 31.6979 9.22633 31.7103 9.37412L34.0366 20.6154H37.4355C37.5976 20.2811 37.8653 20.0127 38.1952 19.8539C38.5251 19.6951 38.8976 19.6553 39.2524 19.7407C39.6073 19.8262 39.9234 20.0321 40.1495 20.3249C40.3757 20.6176 40.4986 20.98 40.4982 21.3533Z" fill="#FCFDFF"/>
</svg>
