<svg width="61" height="22" viewBox="0 0 61 22" fill="none" xmlns="http://www.w3.org/2000/svg">
<path d="M11.261 1V8.49467M21.5215 1V13.4913M31.7825 1V8.49467M42.0435 1V13.4913M52.3039 1V8.49467M1 1H60V18.6439C60 18.9533 59.9374 19.2597 59.8158 19.5455C59.6943 19.8314 59.5161 20.0911 59.2914 20.3099C59.0668 20.5287 58.8001 20.7022 58.5066 20.8207C58.2131 20.9391 57.8985 21 57.5808 21H3.41922C3.10152 21 2.78694 20.9391 2.49342 20.8207C2.19991 20.7022 1.93322 20.5287 1.70857 20.3099C1.48393 20.0911 1.30573 19.8314 1.18415 19.5455C1.06257 19.2597 1 18.9533 1 18.6439V1Z" stroke="#FCFDFF" stroke-width="1.69637" stroke-linecap="round" stroke-linejoin="round"/>
</svg>

