<svg width="28" height="28" viewBox="0 0 28 28" fill="none" xmlns="http://www.w3.org/2000/svg">
<path d="M25.6455 11.9071L14.7364 2.27781C14.5353 2.09911 14.2726 2 14 2C13.7274 2 13.4647 2.09911 13.2636 2.27781L2.35455 11.9071C2.24477 12.0078 2.15685 12.1288 2.09596 12.263C2.03507 12.3972 2.00244 12.5419 2 12.6886V24.9404C2 25.2214 2.11493 25.4909 2.31952 25.6896C2.52411 25.8884 2.80158 26 3.09091 26H24.9091C25.1984 26 25.4759 25.8884 25.6805 25.6896C25.8851 25.4909 26 25.2214 26 24.9404V12.6886C25.9976 12.5419 25.9649 12.3972 25.904 12.263C25.8432 12.1288 25.7552 12.0078 25.6455 11.9071Z" fill="#F9F9F9" stroke="#F9F9F9" stroke-width="2.93759" stroke-linecap="round" stroke-linejoin="round"/>
</svg>
