<svg width="15" height="15" viewBox="0 0 15 15" fill="none" xmlns="http://www.w3.org/2000/svg">
<g opacity="1">
<path d="M7.5 14C11.0899 14 14 11.0899 14 7.5C14 3.91015 11.0899 1 7.5 1C3.91015 1 1 3.91015 1 7.5C1 11.0899 3.91015 14 7.5 14Z" stroke="#FCFDFF" stroke-width="1.06733" stroke-miterlimit="10"/>
<path d="M8.14431 6.32031H6.94306C6.84722 6.32031 6.76953 6.39801 6.76953 6.49385V11.1026C6.76953 11.1984 6.84722 11.2761 6.94306 11.2761H8.14431C8.24015 11.2761 8.31784 11.1984 8.31784 11.1026V6.49385C8.31784 6.39801 8.24015 6.32031 8.14431 6.32031Z" fill="#FCFDFF"/>
<path d="M7.54566 5.68116C8.06167 5.68116 8.47998 5.26284 8.47998 4.74683C8.47998 4.23081 8.06167 3.8125 7.54566 3.8125C7.02964 3.8125 6.61133 4.23081 6.61133 4.74683C6.61133 5.26284 7.02964 5.68116 7.54566 5.68116Z" fill="#FCFDFF"/>
</g>
</svg>
