<svg width="50" height="48" viewBox="0 0 50 48" fill="none" xmlns="http://www.w3.org/2000/svg">
<path d="M2 22.0681C2.30526 13.5221 5.71124 6.69872 12.5713 1.61063C12.7338 1.48968 12.9056 1.38089 13.0696 1.26069C13.2286 1.10207 13.443 1.00899 13.6692 1.00062C13.8953 0.992243 14.1162 1.06915 14.2869 1.21557C14.4461 1.35696 14.5512 1.54803 14.5844 1.75662C14.6177 1.96521 14.577 2.17855 14.4693 2.36113C14.0533 3.49248 13.6 4.61508 13.2879 5.77799C11.9553 10.7348 12.2311 15.9778 14.0768 20.7726C15.9225 25.5673 19.2456 29.6736 23.5806 32.5164C31.1244 37.4325 39.1743 38.0853 47.5622 34.7701C47.6828 34.7228 47.8079 34.6198 47.9201 34.6326C48.2145 34.6289 48.5055 34.6951 48.7687 34.8251C48.8341 34.8781 48.888 34.9432 48.9273 35.017C48.9667 35.0908 48.9906 35.1716 48.9978 35.2547C49.0049 35.3377 48.995 35.4212 48.9688 35.5004C48.9426 35.5797 48.9004 35.6528 48.845 35.7158C48.6343 36.038 48.4169 36.3567 48.1826 36.6632C45.1907 40.7094 41.0392 43.7836 36.2605 45.4917C31.4818 47.1997 26.2936 47.4637 21.3614 46.2499C16.4293 45.0361 11.9779 42.3997 8.57801 38.6789C5.17814 34.958 2.98481 30.3223 2.27929 25.3661C2.12742 24.2258 2.08395 23.0725 2 22.0681Z" stroke="#FCFDFF" stroke-width="2" stroke-miterlimit="10"/>
</svg>
