<svg width="30" height="30" viewBox="0 0 30 30" fill="none" xmlns="http://www.w3.org/2000/svg">
<path d="M25.3125 13.125V7.5" stroke="white" stroke-width="1.2" stroke-linecap="round" stroke-linejoin="round"/>
<path d="M28.125 10.3125H22.5" stroke="white" stroke-width="1.2" stroke-linecap="round" stroke-linejoin="round"/>
<path d="M19.6875 2.8125V6.5625" stroke="white" stroke-width="1.2" stroke-linecap="round" stroke-linejoin="round"/>
<path d="M21.5625 4.6875H17.8125" stroke="white" stroke-width="1.2" stroke-linecap="round" stroke-linejoin="round"/>
<path d="M25.3901 17.8881C23.5498 18.3995 21.6067 18.4129 19.7594 17.9271C17.9122 17.4413 16.2271 16.4736 14.8765 15.123C13.5259 13.7724 12.5582 12.0873 12.0724 10.2401C11.5865 8.39282 11.6 6.4497 12.1114 4.60938L12.1117 4.60947C10.2965 5.11442 8.64536 6.08617 7.32267 7.42791C5.99998 8.76964 5.05194 10.4345 4.57298 12.2567C4.09403 14.0789 4.10088 15.9948 4.59286 17.8135C5.08483 19.6322 6.04476 21.2903 7.37701 22.6225C8.70927 23.9548 10.3673 24.9147 12.1861 25.4066C14.0048 25.8986 15.9207 25.9054 17.7428 25.4265C19.565 24.9475 21.2299 23.9994 22.5716 22.6767C23.9133 21.354 24.8851 19.7028 25.39 17.8877L25.3901 17.8881Z" stroke="white" stroke-width="1.2" stroke-linecap="round" stroke-linejoin="round"/>
</svg>
