<svg width="22" height="22" viewBox="0 0 22 22" fill="none" xmlns="http://www.w3.org/2000/svg">
<path d="M15.0909 5.72179C14.8957 5.91705 14.8957 6.23364 15.0909 6.4289C15.2862 6.62416 15.6028 6.62416 15.798 6.4289L15.0909 5.72179ZM18.4249 3.80207C18.6201 3.60681 18.6201 3.29023 18.4249 3.09497C18.2296 2.89971 17.913 2.89971 17.7178 3.09497L18.4249 3.80207ZM3.57568 17.2371C3.38041 17.4323 3.38041 17.7489 3.57568 17.9442C3.77094 18.1394 4.08752 18.1394 4.28278 17.9442L3.57568 17.2371ZM6.9094 15.3175C7.10466 15.1223 7.10466 14.8057 6.9094 14.6104C6.71414 14.4152 6.39755 14.4152 6.20229 14.6104L6.9094 15.3175ZM17.2851 10.0195C17.009 10.0195 16.7851 10.2434 16.7851 10.5195C16.7851 10.7957 17.009 11.0195 17.2851 11.0195V10.0195ZM21 11.0195C21.2761 11.0195 21.5 10.7957 21.5 10.5195C21.5 10.2434 21.2761 10.0195 21 10.0195V11.0195ZM1 10.0195C0.723858 10.0195 0.5 10.2434 0.5 10.5195C0.5 10.7957 0.723858 11.0195 1 11.0195V10.0195ZM4.71461 11.0195C4.99075 11.0195 5.21461 10.7957 5.21461 10.5195C5.21461 10.2434 4.99075 10.0195 4.71461 10.0195V11.0195ZM10.5 4.23444C10.5 4.51058 10.7239 4.73444 11 4.73444C11.2761 4.73444 11.5 4.51058 11.5 4.23444L10.5 4.23444ZM11.5 0.519531C11.5 0.243389 11.2761 0.0195312 11 0.0195312C10.7239 0.0195313 10.5 0.243389 10.5 0.519531L11.5 0.519531ZM10.5 20.5195C10.5 20.7957 10.7239 21.0195 11 21.0195C11.2761 21.0195 11.5 20.7957 11.5 20.5195H10.5ZM11.5 16.8049C11.5 16.5288 11.2761 16.3049 11 16.3049C10.7239 16.3049 10.5 16.5288 10.5 16.8049H11.5ZM6.20226 6.4289C6.39752 6.62416 6.71411 6.62416 6.90937 6.4289C7.10463 6.23364 7.10463 5.91706 6.90937 5.72179L6.20226 6.4289ZM4.28254 3.09497C4.08728 2.89971 3.7707 2.89971 3.57544 3.09497C3.38018 3.29023 3.38018 3.60681 3.57544 3.80208L4.28254 3.09497ZM17.7175 17.9442C17.9128 18.1394 18.2294 18.1394 18.4246 17.9442C18.6199 17.7489 18.6199 17.4323 18.4246 17.2371L17.7175 17.9442ZM15.798 14.6104C15.6027 14.4152 15.2862 14.4152 15.0909 14.6104C14.8956 14.8057 14.8956 15.1223 15.0909 15.3175L15.798 14.6104ZM15.798 6.4289L18.4249 3.80207L17.7178 3.09497L15.0909 5.72179L15.798 6.4289ZM4.28278 17.9442L6.9094 15.3175L6.20229 14.6104L3.57568 17.2371L4.28278 17.9442ZM17.2851 11.0195H21V10.0195H17.2851V11.0195ZM1 11.0195H4.71461V10.0195H1V11.0195ZM11.5 4.23444L11.5 0.519531L10.5 0.519531L10.5 4.23444L11.5 4.23444ZM11.5 20.5195L11.5 16.8049H10.5L10.5 20.5195H11.5ZM6.90937 5.72179L4.28254 3.09497L3.57544 3.80208L6.20226 6.4289L6.90937 5.72179ZM18.4246 17.2371L15.798 14.6104L15.0909 15.3175L17.7175 17.9442L18.4246 17.2371Z" fill="#FCFDFF"/>
</svg>
