<svg width="44" height="44" viewBox="0 0 44 44" fill="none" xmlns="http://www.w3.org/2000/svg">
<path d="M22 21.2C19.2948 21.2 16.7004 20.1254 14.7875 18.2125C12.8746 16.2996 11.8 13.7052 11.8 11C11.8 8.29479 12.8746 5.70038 14.7875 3.78751C16.7004 1.87464 19.2948 0.8 22 0.8C24.7052 0.8 27.2996 1.87464 29.2125 3.78751C31.1254 5.70038 32.2 8.29479 32.2 11C32.2 13.7052 31.1254 16.2996 29.2125 18.2125C27.2996 20.1254 24.7052 21.2 22 21.2ZM0.8 39.6C0.8 35.3234 1.86912 32.2629 3.86743 30.2659C5.86583 28.2687 8.92866 27.2 13.2088 27.2H30.8C35.0767 27.2 38.1373 28.2686 40.1343 30.2657C42.1314 32.2627 43.2 35.3233 43.2 39.6C43.2 40.9428 42.8646 41.8035 42.334 42.334C41.8035 42.8646 40.9428 43.2 39.6 43.2H4.4C3.05717 43.2 2.19652 42.8646 1.66596 42.334C1.1354 41.8035 0.8 40.9428 0.8 39.6Z" stroke="#FCFDFF" stroke-width="1.6"/>
</svg>
