<svg width="26" height="26" viewBox="0 0 26 26" fill="none" xmlns="http://www.w3.org/2000/svg">
<path d="M13 12.425C11.4286 12.425 9.92155 11.8008 8.81039 10.6896C7.69924 9.57845 7.075 8.07141 7.075 6.5C7.075 4.92859 7.69924 3.42155 8.81039 2.31039C9.92155 1.19924 11.4286 0.575 13 0.575C14.5714 0.575 16.0785 1.19924 17.1896 2.31039C18.3008 3.42155 18.925 4.92859 18.925 6.5C18.925 8.07141 18.3008 9.57845 17.1896 10.6896C16.0785 11.8008 14.5714 12.425 13 12.425ZM0.575 23.4C0.575 20.8887 1.20274 19.1109 2.3576 17.9567C3.51252 16.8025 5.29177 16.175 7.8052 16.175H18.2C20.7114 16.175 22.4893 16.8025 23.6434 17.9566C24.7975 19.1107 25.425 20.8886 25.425 23.4C25.425 24.1777 25.2308 24.6557 24.9433 24.9433C24.6557 25.2308 24.1777 25.425 23.4 25.425H2.6C1.82229 25.425 1.34433 25.2308 1.05675 24.9433C0.769173 24.6557 0.575 24.1777 0.575 23.4Z" fill="#F9F9F9" stroke="#FCFDFF" stroke-width="1.15"/>
</svg>
