<svg width="22" height="22" viewBox="0 0 22 22" fill="none" xmlns="http://www.w3.org/2000/svg">
<path d="M1 10.9982C1.00017 8.70827 1.76883 6.48776 3.17751 4.70782C4.58618 2.92788 6.54954 1.69619 8.73946 1.21877C10.9294 0.741359 13.2132 1.04709 15.2092 2.08479C17.2052 3.12249 18.7925 4.82935 19.7058 6.92009M19.7058 2.73745V7.08501M15.4543 7.0852H19.7055M1.85006 15.0774C2.76324 17.1682 4.35048 18.8752 6.34651 19.913C8.34253 20.9508 10.6264 21.2567 12.8164 20.7793C15.0063 20.3019 16.9697 19.07 18.3784 17.29C19.787 15.5099 20.5556 13.2896 20.5556 10.9996M1.85036 19.2586V14.911H6.10155" stroke="#FCFDFF" stroke-width="1.75" stroke-linecap="round" stroke-linejoin="round"/>
</svg>
