<svg width="24" height="24" viewBox="0 0 24 24" fill="none" xmlns="http://www.w3.org/2000/svg">
  <path d="M12 17.25C14.8995 17.25 17.25 14.8995 17.25 12C17.25 9.10051 14.8995 6.75 12 6.75C9.10051 6.75 6.75 9.10051 6.75 12C6.75 14.8995 9.10051 17.25 12 17.25Z" stroke="white" stroke-width="0.8" stroke-linecap="round" stroke-linejoin="round"/>
  <path d="M18.0873 5.11825C18.3675 5.36635 18.6324 5.63123 18.8805 5.91144L21.8689 6.33818C22.3535 7.18205 22.7272 8.08496 22.9806 9.02452L21.1699 11.4386C21.1699 11.4386 21.1927 12.1867 21.17 12.5602L22.9814 14.9751C22.7273 15.9145 22.3531 16.8171 21.8679 17.6607L18.8805 18.0874C18.8805 18.0874 18.3677 18.6324 18.0875 18.8805L17.6608 21.8689C16.8169 22.3535 15.914 22.7272 14.9744 22.9806L12.5605 21.17C12.1869 21.1927 11.8123 21.1927 11.4387 21.17L9.02385 22.9814C8.08447 22.7273 7.18181 22.3531 6.33826 21.8679L5.91161 18.8807C5.6314 18.6326 5.36651 18.3677 5.1184 18.0875L2.13002 17.6608C1.64541 16.8169 1.27176 15.914 1.01836 14.9744L2.82901 12.5603C2.82901 12.5603 2.80623 11.8122 2.82894 11.4387L1.01758 9.02385C1.27161 8.08447 1.64586 7.18181 2.13105 6.33826L5.11825 5.91161C5.36635 5.6314 5.63123 5.3665 5.91144 5.1184L6.33818 2.13002C7.18205 1.6454 8.08496 1.27176 9.02452 1.01836L11.4385 2.82895C11.812 2.80624 12.1867 2.80623 12.5602 2.82894L14.9751 1.01758C15.9145 1.27161 16.8171 1.64586 17.6607 2.13105L18.0873 5.11825Z" stroke="white" stroke-width="0.8" stroke-linecap="round" stroke-linejoin="round"/>
</svg>
