<svg width="22" height="21" viewBox="0 0 22 21" fill="none" xmlns="http://www.w3.org/2000/svg">
<path d="M15.8389 14.1478L15.8389 14.1478L15.8396 14.1507L17.3593 19.8879C17.4363 20.1798 17.1031 20.471 16.791 20.2828C16.7907 20.2826 16.7904 20.2825 16.7902 20.2823L11.5453 17.0845C11.5452 17.0845 11.5451 17.0844 11.545 17.0844C11.3288 16.9524 11.0797 16.8833 10.8267 16.8833C10.5738 16.8833 10.3247 16.9524 10.1084 17.0844C10.1083 17.0844 10.1082 17.0845 10.1081 17.0845L5.22685 20.0529L5.22592 20.0534C4.79298 20.318 4.28987 19.9145 4.40839 19.4691L4.40861 19.4683L5.8139 14.1504L5.8139 14.1504L5.81459 14.1478C5.88023 13.8938 5.86971 13.6269 5.78457 13.3788C5.69961 13.1312 5.54463 12.9146 5.34038 12.7522C5.3401 12.7519 5.33981 12.7517 5.33953 12.7515L0.636074 8.98433L0.635258 8.98368C0.388086 8.78656 0.497637 8.36668 0.854027 8.34426C0.854048 8.34426 0.854069 8.34426 0.85409 8.34426C0.854153 8.34425 0.854216 8.34425 0.854279 8.34425L6.99432 7.9645C7.25404 7.94968 7.5055 7.86267 7.71797 7.71174C7.9293 7.56163 8.09381 7.354 8.18872 7.11186L10.4768 1.57893L10.4824 1.56497C10.5054 1.50416 10.5487 1.44808 10.6101 1.40679C10.6718 1.36534 10.7474 1.3418 10.8267 1.3418C10.906 1.3418 10.9817 1.36534 11.0433 1.40679C11.1047 1.44808 11.1481 1.50416 11.1711 1.56497L11.1766 1.57893L13.4647 7.1119C13.5597 7.35402 13.7242 7.56164 13.9355 7.71174C14.148 7.86267 14.3994 7.94968 14.6591 7.9645C14.6597 7.96453 14.6602 7.96456 14.6608 7.96459L20.7992 8.34425C20.7992 8.34425 20.7993 8.34426 20.7994 8.34426C21.1558 8.36665 21.2654 8.78656 21.0182 8.98368L21.0174 8.98434L16.3139 12.7515C16.3136 12.7517 16.3133 12.7519 16.313 12.7522C16.1088 12.9146 15.9538 13.1312 15.8689 13.3788C15.7837 13.6269 15.7732 13.8938 15.8389 14.1478Z" stroke="white" stroke-linecap="round" stroke-linejoin="round"/>
</svg>


