<svg width="19" height="19" viewBox="0 0 19 19" fill="none" xmlns="http://www.w3.org/2000/svg">
<mask id="path-1-inside-1_63_1466" fill="white">
<path d="M17.2422 3.6941C17.2455 3.6556 17.2412 3.6168 17.2295 3.57999C17.2178 3.54317 17.1988 3.50923 17.1738 3.47978C17.1488 3.45034 17.1182 3.42595 17.0838 3.40843C17.0493 3.39091 17.0118 3.38041 16.9732 3.37752C16.9635 3.37752 16.9537 3.37597 16.944 3.37597H13.3118L13.498 2.0821C13.505 2.01985 13.4914 1.95695 13.4595 1.90307C13.4276 1.84919 13.379 1.80705 13.321 1.78329C11.8324 1.1618 10.2354 0.841797 8.62236 0.841797C7.00933 0.841797 5.41236 1.1618 3.92375 1.78329C3.86577 1.80701 3.81707 1.84919 3.7851 1.90307C3.75312 1.95696 3.73959 2.01982 3.74654 2.0821L4.45448 7.03325C4.46639 7.10134 4.50181 7.163 4.55457 7.20764C4.60733 7.25227 4.67408 7.277 4.74318 7.27744H12.5016C12.5707 7.277 12.6374 7.25227 12.6902 7.20764C12.743 7.163 12.7784 7.10134 12.7903 7.03325L13.228 3.95555H16.6181L15.8271 11.148C15.824 11.1865 15.8286 11.2254 15.8404 11.2621C15.8523 11.2988 15.8712 11.3327 15.8962 11.3621C15.9212 11.3915 15.9517 11.4158 15.9861 11.4334C16.0204 11.451 16.0579 11.4615 16.0963 11.4646C16.1743 11.4728 16.2523 11.45 16.3135 11.401C16.3746 11.352 16.414 11.2807 16.423 11.2029L17.2422 3.6941ZM8.62609 1.42035C10.0789 1.41451 11.5187 1.69442 12.8636 2.24412L12.2398 6.69735H5.00291L4.37878 2.24412C5.72759 1.69518 7.17099 1.41655 8.62712 1.42369L8.62609 1.42035ZM10.1535 2.62407C10.1043 2.62649 10.0565 2.6408 10.0142 2.66605C9.97197 2.69131 9.9366 2.72668 9.91117 2.76883L8.35555 5.33031C8.33539 5.36302 8.32209 5.39948 8.31634 5.43747C8.3106 5.47546 8.31256 5.51412 8.32214 5.55133C8.33171 5.58854 8.34865 5.62361 8.37202 5.65411C8.39539 5.6846 8.42472 5.7099 8.45815 5.72881C8.52603 5.76851 8.60664 5.78033 8.68306 5.76178C8.75947 5.74323 8.82572 5.69579 8.86786 5.62938L10.4234 3.0679C10.4442 3.03572 10.4584 2.99979 10.4649 2.96203C10.4715 2.92426 10.4704 2.8855 10.4617 2.84817C10.453 2.81084 10.4369 2.77556 10.4143 2.74462C10.3917 2.71368 10.363 2.68774 10.3301 2.66811C10.277 2.63722 10.2158 2.62299 10.1545 2.62742L10.1535 2.62407ZM0.2436 3.3752C0.170484 3.38706 0.104637 3.42659 0.0596313 3.48545C0.0146258 3.54431 -0.00611886 3.61808 0.00156978 3.69178L1.38919 17.8299C1.41142 18.0906 1.52934 18.3339 1.72024 18.5128C1.91114 18.6916 2.16148 18.7936 2.42297 18.7987H11.4999C11.669 18.7987 11.8994 18.839 11.9854 18.6483C12.0091 18.5911 12.0164 18.5283 12.0065 18.4672C12.0002 18.3965 11.9685 18.3304 11.9173 18.2812C11.861 18.2378 11.7918 18.2142 11.7207 18.2142C11.5453 18.2042 11.3668 18.2117 11.191 18.2117H9.7899C9.48774 18.2117 9.7292 18.2117 9.42679 18.2117H2.42297C2.30496 18.2117 2.19173 18.1651 2.10781 18.0821C2.0239 17.9991 1.97608 17.8864 1.97476 17.7683L0.624283 3.94654H2.15197C2.19006 3.94709 2.22787 3.94026 2.26327 3.92619C2.29867 3.91212 2.33095 3.89117 2.35828 3.86462C2.3856 3.83807 2.40743 3.80637 2.42252 3.77138C2.4376 3.73639 2.44565 3.69871 2.44621 3.66061C2.44676 3.62251 2.4398 3.58475 2.42574 3.54933C2.41167 3.51392 2.39074 3.48162 2.3642 3.45428C2.33766 3.42695 2.30603 3.40498 2.27106 3.38988C2.23608 3.37479 2.19849 3.36674 2.1604 3.36619H0.298186C0.280067 3.36851 0.262135 3.3723 0.24463 3.37752L0.2436 3.3752Z"/>
<path d="M15.6217 18.8418C15.1379 18.8418 14.6616 18.7225 14.235 18.4943C13.8083 18.2661 13.4446 17.9362 13.1758 17.5338C12.9071 17.1313 12.7417 16.6687 12.6943 16.1871C12.647 15.7054 12.7191 15.2198 12.9043 14.7726C13.0894 14.3255 13.3819 13.9308 13.7559 13.6238C14.1299 13.3168 14.5739 13.1069 15.0483 13.0125C15.5228 12.9182 16.0132 12.9423 16.4761 13.0828C16.939 13.2234 17.3602 13.476 17.7022 13.8183C18.114 14.2297 18.3943 14.7542 18.508 15.3252C18.6216 15.8962 18.5634 16.4882 18.3407 17.026C18.1179 17.5639 17.7406 18.0235 17.2566 18.3467C16.7726 18.67 16.2036 18.8422 15.6217 18.8418ZM15.6217 13.4808C15.0623 13.4813 14.5204 13.6757 14.0882 14.031C13.6561 14.3864 13.3605 14.8805 13.2517 15.4295C13.143 15.9784 13.2279 16.5481 13.4919 17.0415C13.7559 17.5349 14.1827 17.9214 14.6997 18.1352C15.2166 18.3491 15.7917 18.3771 16.3269 18.2143C16.8621 18.0515 17.3243 17.7082 17.6349 17.2427C17.9454 16.7772 18.0849 16.2182 18.0298 15.6613C17.9747 15.1044 17.7283 14.5839 17.3326 14.1884C17.1081 13.9635 16.8413 13.7852 16.5477 13.6637C16.2541 13.5422 15.9394 13.4798 15.6217 13.4803V13.4808Z"/>
<path d="M17.0586 16.5829H14.1821C14.1322 16.5792 14.0854 16.5567 14.0513 16.52C14.0172 16.4833 13.9983 16.4351 13.9983 16.385C13.9983 16.3349 14.0172 16.2868 14.0513 16.2501C14.0854 16.2134 14.1322 16.1909 14.1821 16.1872H17.0586C17.1086 16.1909 17.1553 16.2134 17.1894 16.2501C17.2235 16.2868 17.2425 16.3349 17.2425 16.385C17.2425 16.4351 17.2235 16.4833 17.1894 16.52C17.1553 16.5567 17.1086 16.5792 17.0586 16.5829Z"/>
<path d="M17.0728 15.4875H14.1963C14.1463 15.4838 14.0996 15.4613 14.0655 15.4246C14.0314 15.3879 14.0124 15.3397 14.0124 15.2896C14.0124 15.2395 14.0314 15.1913 14.0655 15.1547C14.0996 15.118 14.1463 15.0954 14.1963 15.0918H17.0728C17.1227 15.0954 17.1695 15.118 17.2036 15.1547C17.2377 15.1913 17.2566 15.2395 17.2566 15.2896C17.2566 15.3397 17.2377 15.3879 17.2036 15.4246C17.1695 15.4613 17.1227 15.4838 17.0728 15.4875Z"/>
</mask>
<path d="M17.2422 3.6941C17.2455 3.6556 17.2412 3.6168 17.2295 3.57999C17.2178 3.54317 17.1988 3.50923 17.1738 3.47978C17.1488 3.45034 17.1182 3.42595 17.0838 3.40843C17.0493 3.39091 17.0118 3.38041 16.9732 3.37752C16.9635 3.37752 16.9537 3.37597 16.944 3.37597H13.3118L13.498 2.0821C13.505 2.01985 13.4914 1.95695 13.4595 1.90307C13.4276 1.84919 13.379 1.80705 13.321 1.78329C11.8324 1.1618 10.2354 0.841797 8.62236 0.841797C7.00933 0.841797 5.41236 1.1618 3.92375 1.78329C3.86577 1.80701 3.81707 1.84919 3.7851 1.90307C3.75312 1.95696 3.73959 2.01982 3.74654 2.0821L4.45448 7.03325C4.46639 7.10134 4.50181 7.163 4.55457 7.20764C4.60733 7.25227 4.67408 7.277 4.74318 7.27744H12.5016C12.5707 7.277 12.6374 7.25227 12.6902 7.20764C12.743 7.163 12.7784 7.10134 12.7903 7.03325L13.228 3.95555H16.6181L15.8271 11.148C15.824 11.1865 15.8286 11.2254 15.8404 11.2621C15.8523 11.2988 15.8712 11.3327 15.8962 11.3621C15.9212 11.3915 15.9517 11.4158 15.9861 11.4334C16.0204 11.451 16.0579 11.4615 16.0963 11.4646C16.1743 11.4728 16.2523 11.45 16.3135 11.401C16.3746 11.352 16.414 11.2807 16.423 11.2029L17.2422 3.6941ZM8.62609 1.42035C10.0789 1.41451 11.5187 1.69442 12.8636 2.24412L12.2398 6.69735H5.00291L4.37878 2.24412C5.72759 1.69518 7.17099 1.41655 8.62712 1.42369L8.62609 1.42035ZM10.1535 2.62407C10.1043 2.62649 10.0565 2.6408 10.0142 2.66605C9.97197 2.69131 9.9366 2.72668 9.91117 2.76883L8.35555 5.33031C8.33539 5.36302 8.32209 5.39948 8.31634 5.43747C8.3106 5.47546 8.31256 5.51412 8.32214 5.55133C8.33171 5.58854 8.34865 5.62361 8.37202 5.65411C8.39539 5.6846 8.42472 5.7099 8.45815 5.72881C8.52603 5.76851 8.60664 5.78033 8.68306 5.76178C8.75947 5.74323 8.82572 5.69579 8.86786 5.62938L10.4234 3.0679C10.4442 3.03572 10.4584 2.99979 10.4649 2.96203C10.4715 2.92426 10.4704 2.8855 10.4617 2.84817C10.453 2.81084 10.4369 2.77556 10.4143 2.74462C10.3917 2.71368 10.363 2.68774 10.3301 2.66811C10.277 2.63722 10.2158 2.62299 10.1545 2.62742L10.1535 2.62407ZM0.2436 3.3752C0.170484 3.38706 0.104637 3.42659 0.0596313 3.48545C0.0146258 3.54431 -0.00611886 3.61808 0.00156978 3.69178L1.38919 17.8299C1.41142 18.0906 1.52934 18.3339 1.72024 18.5128C1.91114 18.6916 2.16148 18.7936 2.42297 18.7987H11.4999C11.669 18.7987 11.8994 18.839 11.9854 18.6483C12.0091 18.5911 12.0164 18.5283 12.0065 18.4672C12.0002 18.3965 11.9685 18.3304 11.9173 18.2812C11.861 18.2378 11.7918 18.2142 11.7207 18.2142C11.5453 18.2042 11.3668 18.2117 11.191 18.2117H9.7899C9.48774 18.2117 9.7292 18.2117 9.42679 18.2117H2.42297C2.30496 18.2117 2.19173 18.1651 2.10781 18.0821C2.0239 17.9991 1.97608 17.8864 1.97476 17.7683L0.624283 3.94654H2.15197C2.19006 3.94709 2.22787 3.94026 2.26327 3.92619C2.29867 3.91212 2.33095 3.89117 2.35828 3.86462C2.3856 3.83807 2.40743 3.80637 2.42252 3.77138C2.4376 3.73639 2.44565 3.69871 2.44621 3.66061C2.44676 3.62251 2.4398 3.58475 2.42574 3.54933C2.41167 3.51392 2.39074 3.48162 2.3642 3.45428C2.33766 3.42695 2.30603 3.40498 2.27106 3.38988C2.23608 3.37479 2.19849 3.36674 2.1604 3.36619H0.298186C0.280067 3.36851 0.262135 3.3723 0.24463 3.37752L0.2436 3.3752Z" fill="#FCFDFF"/>
<path d="M15.6217 18.8418C15.1379 18.8418 14.6616 18.7225 14.235 18.4943C13.8083 18.2661 13.4446 17.9362 13.1758 17.5338C12.9071 17.1313 12.7417 16.6687 12.6943 16.1871C12.647 15.7054 12.7191 15.2198 12.9043 14.7726C13.0894 14.3255 13.3819 13.9308 13.7559 13.6238C14.1299 13.3168 14.5739 13.1069 15.0483 13.0125C15.5228 12.9182 16.0132 12.9423 16.4761 13.0828C16.939 13.2234 17.3602 13.476 17.7022 13.8183C18.114 14.2297 18.3943 14.7542 18.508 15.3252C18.6216 15.8962 18.5634 16.4882 18.3407 17.026C18.1179 17.5639 17.7406 18.0235 17.2566 18.3467C16.7726 18.67 16.2036 18.8422 15.6217 18.8418ZM15.6217 13.4808C15.0623 13.4813 14.5204 13.6757 14.0882 14.031C13.6561 14.3864 13.3605 14.8805 13.2517 15.4295C13.143 15.9784 13.2279 16.5481 13.4919 17.0415C13.7559 17.5349 14.1827 17.9214 14.6997 18.1352C15.2166 18.3491 15.7917 18.3771 16.3269 18.2143C16.8621 18.0515 17.3243 17.7082 17.6349 17.2427C17.9454 16.7772 18.0849 16.2182 18.0298 15.6613C17.9747 15.1044 17.7283 14.5839 17.3326 14.1884C17.1081 13.9635 16.8413 13.7852 16.5477 13.6637C16.2541 13.5422 15.9394 13.4798 15.6217 13.4803V13.4808Z" fill="#FCFDFF"/>
<path d="M17.0586 16.5829H14.1821C14.1322 16.5792 14.0854 16.5567 14.0513 16.52C14.0172 16.4833 13.9983 16.4351 13.9983 16.385C13.9983 16.3349 14.0172 16.2868 14.0513 16.2501C14.0854 16.2134 14.1322 16.1909 14.1821 16.1872H17.0586C17.1086 16.1909 17.1553 16.2134 17.1894 16.2501C17.2235 16.2868 17.2425 16.3349 17.2425 16.385C17.2425 16.4351 17.2235 16.4833 17.1894 16.52C17.1553 16.5567 17.1086 16.5792 17.0586 16.5829Z" fill="#FCFDFF"/>
<path d="M17.0728 15.4875H14.1963C14.1463 15.4838 14.0996 15.4613 14.0655 15.4246C14.0314 15.3879 14.0124 15.3397 14.0124 15.2896C14.0124 15.2395 14.0314 15.1913 14.0655 15.1547C14.0996 15.118 14.1463 15.0954 14.1963 15.0918H17.0728C17.1227 15.0954 17.1695 15.118 17.2036 15.1547C17.2377 15.1913 17.2566 15.2395 17.2566 15.2896C17.2566 15.3397 17.2377 15.3879 17.2036 15.4246C17.1695 15.4613 17.1227 15.4838 17.0728 15.4875Z" fill="#FCFDFF"/>
<path d="M17.2422 3.6941C17.2455 3.6556 17.2412 3.6168 17.2295 3.57999C17.2178 3.54317 17.1988 3.50923 17.1738 3.47978C17.1488 3.45034 17.1182 3.42595 17.0838 3.40843C17.0493 3.39091 17.0118 3.38041 16.9732 3.37752C16.9635 3.37752 16.9537 3.37597 16.944 3.37597H13.3118L13.498 2.0821C13.505 2.01985 13.4914 1.95695 13.4595 1.90307C13.4276 1.84919 13.379 1.80705 13.321 1.78329C11.8324 1.1618 10.2354 0.841797 8.62236 0.841797C7.00933 0.841797 5.41236 1.1618 3.92375 1.78329C3.86577 1.80701 3.81707 1.84919 3.7851 1.90307C3.75312 1.95696 3.73959 2.01982 3.74654 2.0821L4.45448 7.03325C4.46639 7.10134 4.50181 7.163 4.55457 7.20764C4.60733 7.25227 4.67408 7.277 4.74318 7.27744H12.5016C12.5707 7.277 12.6374 7.25227 12.6902 7.20764C12.743 7.163 12.7784 7.10134 12.7903 7.03325L13.228 3.95555H16.6181L15.8271 11.148C15.824 11.1865 15.8286 11.2254 15.8404 11.2621C15.8523 11.2988 15.8712 11.3327 15.8962 11.3621C15.9212 11.3915 15.9517 11.4158 15.9861 11.4334C16.0204 11.451 16.0579 11.4615 16.0963 11.4646C16.1743 11.4728 16.2523 11.45 16.3135 11.401C16.3746 11.352 16.414 11.2807 16.423 11.2029L17.2422 3.6941ZM8.62609 1.42035C10.0789 1.41451 11.5187 1.69442 12.8636 2.24412L12.2398 6.69735H5.00291L4.37878 2.24412C5.72759 1.69518 7.17099 1.41655 8.62712 1.42369L8.62609 1.42035ZM10.1535 2.62407C10.1043 2.62649 10.0565 2.6408 10.0142 2.66605C9.97197 2.69131 9.9366 2.72668 9.91117 2.76883L8.35555 5.33031C8.33539 5.36302 8.32209 5.39948 8.31634 5.43747C8.3106 5.47546 8.31256 5.51412 8.32214 5.55133C8.33171 5.58854 8.34865 5.62361 8.37202 5.65411C8.39539 5.6846 8.42472 5.7099 8.45815 5.72881C8.52603 5.76851 8.60664 5.78033 8.68306 5.76178C8.75947 5.74323 8.82572 5.69579 8.86786 5.62938L10.4234 3.0679C10.4442 3.03572 10.4584 2.99979 10.4649 2.96203C10.4715 2.92426 10.4704 2.8855 10.4617 2.84817C10.453 2.81084 10.4369 2.77556 10.4143 2.74462C10.3917 2.71368 10.363 2.68774 10.3301 2.66811C10.277 2.63722 10.2158 2.62299 10.1545 2.62742L10.1535 2.62407ZM0.2436 3.3752C0.170484 3.38706 0.104637 3.42659 0.0596313 3.48545C0.0146258 3.54431 -0.00611886 3.61808 0.00156978 3.69178L1.38919 17.8299C1.41142 18.0906 1.52934 18.3339 1.72024 18.5128C1.91114 18.6916 2.16148 18.7936 2.42297 18.7987H11.4999C11.669 18.7987 11.8994 18.839 11.9854 18.6483C12.0091 18.5911 12.0164 18.5283 12.0065 18.4672C12.0002 18.3965 11.9685 18.3304 11.9173 18.2812C11.861 18.2378 11.7918 18.2142 11.7207 18.2142C11.5453 18.2042 11.3668 18.2117 11.191 18.2117H9.7899C9.48774 18.2117 9.7292 18.2117 9.42679 18.2117H2.42297C2.30496 18.2117 2.19173 18.1651 2.10781 18.0821C2.0239 17.9991 1.97608 17.8864 1.97476 17.7683L0.624283 3.94654H2.15197C2.19006 3.94709 2.22787 3.94026 2.26327 3.92619C2.29867 3.91212 2.33095 3.89117 2.35828 3.86462C2.3856 3.83807 2.40743 3.80637 2.42252 3.77138C2.4376 3.73639 2.44565 3.69871 2.44621 3.66061C2.44676 3.62251 2.4398 3.58475 2.42574 3.54933C2.41167 3.51392 2.39074 3.48162 2.3642 3.45428C2.33766 3.42695 2.30603 3.40498 2.27106 3.38988C2.23608 3.37479 2.19849 3.36674 2.1604 3.36619H0.298186C0.280067 3.36851 0.262135 3.3723 0.24463 3.37752L0.2436 3.3752Z" stroke="#FCFDFF" stroke-width="2" mask="url(#path-1-inside-1_63_1466)"/>
<path d="M15.6217 18.8418C15.1379 18.8418 14.6616 18.7225 14.235 18.4943C13.8083 18.2661 13.4446 17.9362 13.1758 17.5338C12.9071 17.1313 12.7417 16.6687 12.6943 16.1871C12.647 15.7054 12.7191 15.2198 12.9043 14.7726C13.0894 14.3255 13.3819 13.9308 13.7559 13.6238C14.1299 13.3168 14.5739 13.1069 15.0483 13.0125C15.5228 12.9182 16.0132 12.9423 16.4761 13.0828C16.939 13.2234 17.3602 13.476 17.7022 13.8183C18.114 14.2297 18.3943 14.7542 18.508 15.3252C18.6216 15.8962 18.5634 16.4882 18.3407 17.026C18.1179 17.5639 17.7406 18.0235 17.2566 18.3467C16.7726 18.67 16.2036 18.8422 15.6217 18.8418ZM15.6217 13.4808C15.0623 13.4813 14.5204 13.6757 14.0882 14.031C13.6561 14.3864 13.3605 14.8805 13.2517 15.4295C13.143 15.9784 13.2279 16.5481 13.4919 17.0415C13.7559 17.5349 14.1827 17.9214 14.6997 18.1352C15.2166 18.3491 15.7917 18.3771 16.3269 18.2143C16.8621 18.0515 17.3243 17.7082 17.6349 17.2427C17.9454 16.7772 18.0849 16.2182 18.0298 15.6613C17.9747 15.1044 17.7283 14.5839 17.3326 14.1884C17.1081 13.9635 16.8413 13.7852 16.5477 13.6637C16.2541 13.5422 15.9394 13.4798 15.6217 13.4803V13.4808Z" stroke="#FCFDFF" stroke-width="2" mask="url(#path-1-inside-1_63_1466)"/>
<path d="M17.0586 16.5829H14.1821C14.1322 16.5792 14.0854 16.5567 14.0513 16.52C14.0172 16.4833 13.9983 16.4351 13.9983 16.385C13.9983 16.3349 14.0172 16.2868 14.0513 16.2501C14.0854 16.2134 14.1322 16.1909 14.1821 16.1872H17.0586C17.1086 16.1909 17.1553 16.2134 17.1894 16.2501C17.2235 16.2868 17.2425 16.3349 17.2425 16.385C17.2425 16.4351 17.2235 16.4833 17.1894 16.52C17.1553 16.5567 17.1086 16.5792 17.0586 16.5829Z" stroke="#FCFDFF" stroke-width="2" mask="url(#path-1-inside-1_63_1466)"/>
<path d="M17.0728 15.4875H14.1963C14.1463 15.4838 14.0996 15.4613 14.0655 15.4246C14.0314 15.3879 14.0124 15.3397 14.0124 15.2896C14.0124 15.2395 14.0314 15.1913 14.0655 15.1547C14.0996 15.118 14.1463 15.0954 14.1963 15.0918H17.0728C17.1227 15.0954 17.1695 15.118 17.2036 15.1547C17.2377 15.1913 17.2566 15.2395 17.2566 15.2896C17.2566 15.3397 17.2377 15.3879 17.2036 15.4246C17.1695 15.4613 17.1227 15.4838 17.0728 15.4875Z" stroke="#FCFDFF" stroke-width="2" mask="url(#path-1-inside-1_63_1466)"/>
</svg>
