<svg width="30" height="30" viewBox="0 0 30 30" fill="none" xmlns="http://www.w3.org/2000/svg">
<path d="M10.8749 6.91534L9.97803 4.75" stroke="white" stroke-width="1.2" stroke-linecap="round" stroke-linejoin="round"/>
<path d="M5.03888 12.7485L2.87354 11.8516" stroke="white" stroke-width="1.2" stroke-linecap="round" stroke-linejoin="round"/>
<path d="M24.9609 12.7485L27.1263 11.8516" stroke="white" stroke-width="1.2" stroke-linecap="round" stroke-linejoin="round"/>
<path d="M19.126 6.91534L20.0229 4.75" stroke="white" stroke-width="1.2" stroke-linecap="round" stroke-linejoin="round"/>
<path d="M28.125 18.75H1.875" stroke="white" stroke-width="1.2" stroke-linecap="round" stroke-linejoin="round"/>
<path d="M24.375 23.4375H5.625" stroke="white" stroke-width="1.2" stroke-linecap="round" stroke-linejoin="round"/>
<path d="M8.22152 18.7531C7.93381 17.7093 7.89106 16.6131 8.09659 15.5501C8.30213 14.487 8.7504 13.4858 9.40646 12.6244C10.0625 11.763 10.9086 11.0648 11.8789 10.5842C12.8491 10.1036 13.9172 9.85352 15 9.85352C16.0827 9.85351 17.1509 10.1036 18.1211 10.5842C19.0913 11.0648 19.9375 11.763 20.5935 12.6244C21.2496 13.4857 21.6979 14.487 21.9034 15.55C22.1089 16.6131 22.0662 17.7093 21.7785 18.7531" stroke="white" stroke-width="1.2" stroke-linecap="round" stroke-linejoin="round"/>
</svg>
